<svg width="536" height="48" viewBox="0 0 536 48" fill="none" xmlns="http://www.w3.org/2000/svg">
<g clip-path="url(#clip0)">
<rect width="536" height="48" fill="white"/>
<path d="M132.511 31H133.051C136.261 31 136.908 28.3864 137.085 23.8125L137.312 18.017H142.739V31H144.5V16.4545H135.636L135.381 23.4716C135.224 27.7614 134.756 29.3807 132.938 29.3807H132.511V31ZM153.166 31.2273C155.382 31.2273 157.001 30.1193 157.512 28.4716L155.893 28.017C155.467 29.1534 154.48 29.7216 153.166 29.7216C151.198 29.7216 149.842 28.4503 149.764 26.1136H157.683V25.4034C157.683 21.3409 155.268 19.9489 152.995 19.9489C150.041 19.9489 148.081 22.2784 148.081 25.6307C148.081 28.983 150.012 31.2273 153.166 31.2273ZM149.764 24.6648C149.877 22.9673 151.078 21.4545 152.995 21.4545C154.813 21.4545 155.978 22.8182 155.978 24.6648H149.764ZM165.464 31.2273C167.879 31.2273 169.47 29.75 169.754 27.8182H168.078C167.765 29.0114 166.771 29.7216 165.464 29.7216C163.476 29.7216 162.197 28.0739 162.197 25.5455C162.197 23.0739 163.504 21.4545 165.464 21.4545C166.942 21.4545 167.822 22.3636 168.078 23.358H169.754C169.47 21.3125 167.737 19.9489 165.436 19.9489C162.481 19.9489 160.521 22.2784 160.521 25.6023C160.521 28.8693 162.396 31.2273 165.464 31.2273ZM177.436 31.2273C180.391 31.2273 182.379 28.983 182.379 25.6023C182.379 22.1932 180.391 19.9489 177.436 19.9489C174.482 19.9489 172.493 22.1932 172.493 25.6023C172.493 28.983 174.482 31.2273 177.436 31.2273ZM177.436 29.7216C175.192 29.7216 174.169 27.7898 174.169 25.6023C174.169 23.4148 175.192 21.4545 177.436 21.4545C179.681 21.4545 180.703 23.4148 180.703 25.6023C180.703 27.7898 179.681 29.7216 177.436 29.7216ZM185.056 28.2159C185.113 30.0057 186.825 31.2273 189.147 31.2273C191.533 31.2273 193.266 29.9489 193.266 27.9602C193.266 26.5966 192.45 25.4886 191.221 25.4034V25.2898C192.258 24.9702 193.039 24.2173 193.039 22.9886C193.039 21.2628 191.562 19.9489 189.261 19.9489C186.988 19.9489 185.369 21.1989 185.312 22.9602H187.073C187.123 22.0582 188.068 21.4261 189.346 21.4261C190.617 21.4261 191.335 22.0724 191.335 23.0455C191.335 23.9545 190.71 24.6364 189.374 24.6364H187.499V26.142H189.374C190.71 26.142 191.562 26.8736 191.562 27.9602C191.562 29.2031 190.461 29.7216 189.119 29.7216C187.805 29.7216 186.924 29.2031 186.846 28.2159H185.056ZM199.631 31.2557C201.534 31.2557 202.529 30.233 202.87 29.5227H202.955V31H204.631V23.8125C204.631 20.3466 201.989 19.9489 200.597 19.9489C198.949 19.9489 197.074 20.517 196.222 22.5057L197.813 23.0739C198.182 22.2784 199.056 21.4261 200.654 21.4261C202.195 21.4261 202.955 22.2429 202.955 23.642V23.6989C202.955 24.5085 202.131 24.4375 200.142 24.6932C198.118 24.956 195.909 25.4034 195.909 27.9034C195.909 30.0341 197.557 31.2557 199.631 31.2557ZM199.887 29.75C198.551 29.75 197.586 29.1534 197.586 27.9886C197.586 26.7102 198.75 26.3125 200.057 26.142C200.767 26.0568 202.671 25.858 202.955 25.517V27.0511C202.955 28.4148 201.875 29.75 199.887 29.75ZM215.223 20.0909H208.49V31H210.166V21.6534H215.223V20.0909ZM222.335 31.2273C225.29 31.2273 227.279 28.983 227.279 25.6023C227.279 22.1932 225.29 19.9489 222.335 19.9489C219.381 19.9489 217.392 22.1932 217.392 25.6023C217.392 28.983 219.381 31.2273 222.335 31.2273ZM222.335 29.7216C220.091 29.7216 219.068 27.7898 219.068 25.6023C219.068 23.4148 220.091 21.4545 222.335 21.4545C224.58 21.4545 225.602 23.4148 225.602 25.6023C225.602 27.7898 224.58 29.7216 222.335 29.7216ZM229.211 21.6534H232.819V31H234.496V21.6534H238.075V20.0909H229.211V21.6534ZM245.185 31.2273C248.14 31.2273 250.129 28.983 250.129 25.6023C250.129 22.1932 248.14 19.9489 245.185 19.9489C242.231 19.9489 240.242 22.1932 240.242 25.6023C240.242 28.983 242.231 31.2273 245.185 31.2273ZM245.185 29.7216C242.941 29.7216 241.918 27.7898 241.918 25.6023C241.918 23.4148 242.941 21.4545 245.185 21.4545C247.43 21.4545 248.452 23.4148 248.452 25.6023C248.452 27.7898 247.43 29.7216 245.185 29.7216ZM253.487 31H258.629C260.845 31 262.18 29.75 262.18 28.0739C262.18 26.3622 260.881 25.4389 259.68 25.2614C260.909 25.0057 261.783 24.3168 261.783 22.9886C261.783 21.2486 260.291 20.0909 257.947 20.0909H253.487V31ZM255.078 29.4659V26.1136H258.629C259.78 26.1136 260.476 26.8026 260.476 27.9318C260.476 28.8835 259.78 29.4659 258.629 29.4659H255.078ZM255.078 24.6648V21.625H257.947C259.29 21.625 260.107 22.1861 260.107 23.1023C260.107 24.0753 259.29 24.6648 257.947 24.6648H255.078ZM265.518 31H267.194V26.3977H268.7L272.279 31H274.438L269.978 25.3466L274.381 20.0909H272.222L268.302 24.8352H267.194V20.0909H265.518V31ZM278.736 28.5284V20.0909H277.06V31H279.02L284.247 22.5625V31H285.924V20.0909H283.992L278.736 28.5284Z" fill="#49BAF2"/>
<g filter="url(#filter0_d)">
<path d="M73.4 31.1945V16.8056L86 9.60559L98.6 16.8056V31.1945L86 38.3945L73.4 31.1945Z" fill="white"/>
<path d="M86 13.5652L79.9646 19.5631L81.7328 21.3203L86 17.0796L90.2672 21.3203L92.0354 19.5631L86 13.5652Z" fill="#8EB021"/>
<path d="M86 19.5283L79.9646 25.5262L81.7328 27.2835L86 23.0428L90.2672 27.2835L92.0354 25.5262L86 19.5283Z" fill="#8EB021"/>
<path d="M86 8L72 16V32L86 40L100 32V16L86 8ZM98.6 31.1944L87.2502 37.6807V30.247L90.2672 33.2452L92.0354 31.488L86 25.4901L79.9646 31.488L81.7328 33.2452L84.7498 30.247V37.6807L73.4 31.1944V16.8056L86 9.60557L98.6 16.8056V31.1944Z" fill="#8EB021"/>
</g>
</g>
<defs>
<filter id="filter0_d" x="64" y="4" width="44" height="48" filterUnits="userSpaceOnUse" color-interpolation-filters="sRGB">
<feFlood flood-opacity="0" result="BackgroundImageFix"/>
<feColorMatrix in="SourceAlpha" type="matrix" values="0 0 0 0 0 0 0 0 0 0 0 0 0 0 0 0 0 0 127 0"/>
<feOffset dy="4"/>
<feGaussianBlur stdDeviation="4"/>
<feColorMatrix type="matrix" values="0 0 0 0 0.556863 0 0 0 0 0.690196 0 0 0 0 0.129412 0 0 0 0.15 0"/>
<feBlend mode="normal" in2="BackgroundImageFix" result="effect1_dropShadow"/>
<feBlend mode="normal" in="SourceGraphic" in2="effect1_dropShadow" result="shape"/>
</filter>
<clipPath id="clip0">
<rect width="536" height="48" fill="white"/>
</clipPath>
</defs>
</svg>
