<svg width="536" height="48" viewBox="0 0 536 48" fill="none" xmlns="http://www.w3.org/2000/svg">
<g clip-path="url(#clip0)">
<rect width="536" height="48" fill="white"/>
<path d="M145.466 21C144.926 18.017 142.54 16.2557 139.614 16.2557C135.892 16.2557 133.193 19.125 133.193 23.7273C133.193 28.3295 135.892 31.1989 139.614 31.1989C142.54 31.1989 144.926 29.4375 145.466 26.4545H143.705C143.278 28.4716 141.545 29.5511 139.614 29.5511C136.972 29.5511 134.898 27.5057 134.898 23.7273C134.898 19.9489 136.972 17.9034 139.614 17.9034C141.545 17.9034 143.278 18.983 143.705 21H145.466ZM148.885 31H150.561V21.6534H155.788V31H157.464V20.0909H148.885V31ZM164.536 31.2557C166.439 31.2557 167.433 30.233 167.774 29.5227H167.86V31H169.536V23.8125C169.536 20.3466 166.894 19.9489 165.502 19.9489C163.854 19.9489 161.979 20.517 161.127 22.5057L162.718 23.0739C163.087 22.2784 163.96 21.4261 165.558 21.4261C167.1 21.4261 167.86 22.2429 167.86 23.642V23.6989C167.86 24.5085 167.036 24.4375 165.047 24.6932C163.023 24.956 160.814 25.4034 160.814 27.9034C160.814 30.0341 162.462 31.2557 164.536 31.2557ZM164.791 29.75C163.456 29.75 162.49 29.1534 162.49 27.9886C162.49 26.7102 163.655 26.3125 164.962 26.142C165.672 26.0568 167.575 25.858 167.86 25.517V27.0511C167.86 28.4148 166.78 29.75 164.791 29.75ZM177.827 31.2273C180.242 31.2273 181.833 29.75 182.117 27.8182H180.44C180.128 29.0114 179.134 29.7216 177.827 29.7216C175.838 29.7216 174.56 28.0739 174.56 25.5455C174.56 23.0739 175.867 21.4545 177.827 21.4545C179.304 21.4545 180.185 22.3636 180.44 23.358H182.117C181.833 21.3125 180.1 19.9489 177.798 19.9489C174.844 19.9489 172.884 22.2784 172.884 25.6023C172.884 28.8693 174.759 31.2273 177.827 31.2273ZM188.577 31.2557C190.481 31.2557 191.475 30.233 191.816 29.5227H191.901V31H193.577V23.8125C193.577 20.3466 190.935 19.9489 189.543 19.9489C187.895 19.9489 186.02 20.517 185.168 22.5057L186.759 23.0739C187.128 22.2784 188.002 21.4261 189.6 21.4261C191.141 21.4261 191.901 22.2429 191.901 23.642V23.6989C191.901 24.5085 191.077 24.4375 189.088 24.6932C187.064 24.956 184.856 25.4034 184.856 27.9034C184.856 30.0341 186.503 31.2557 188.577 31.2557ZM188.833 29.75C187.498 29.75 186.532 29.1534 186.532 27.9886C186.532 26.7102 187.696 26.3125 189.003 26.142C189.713 26.0568 191.617 25.858 191.901 25.517V27.0511C191.901 28.4148 190.821 29.75 188.833 29.75ZM195.952 21.6534H199.56V31H201.236V21.6534H204.816V20.0909H195.952V21.6534ZM212.068 31.2273C214.284 31.2273 215.903 30.1193 216.415 28.4716L214.795 28.017C214.369 29.1534 213.382 29.7216 212.068 29.7216C210.101 29.7216 208.744 28.4503 208.666 26.1136H216.585V25.4034C216.585 21.3409 214.17 19.9489 211.898 19.9489C208.943 19.9489 206.983 22.2784 206.983 25.6307C206.983 28.983 208.915 31.2273 212.068 31.2273ZM208.666 24.6648C208.78 22.9673 209.98 21.4545 211.898 21.4545C213.716 21.4545 214.881 22.8182 214.881 24.6648H208.666ZM218.969 31H219.537C221.952 31 222.648 29.125 222.804 25.5455L222.975 21.6534H226.98V31H228.656V20.0909H221.384L221.185 24.9205C221.043 28.5852 220.674 29.4375 219.367 29.4375H218.969V31ZM234.208 24.0398V20.0909H232.532V31H237.106C239.662 31 241.054 29.4375 241.054 27.4773C241.054 25.4886 239.662 24.0398 237.106 24.0398H234.208ZM234.208 25.6023H237.106C238.434 25.6023 239.378 26.4119 239.378 27.5625C239.378 28.6634 238.434 29.4375 237.106 29.4375H234.208V25.6023ZM246.082 20.0909H244.406V31H246.082V26.3409H251.309V31H252.986V20.0909H251.309V24.7784H246.082V20.0909ZM258.523 24.0398V20.0909H256.847V31H261.42C263.977 31 265.369 29.4375 265.369 27.4773C265.369 25.4886 263.977 24.0398 261.42 24.0398H258.523ZM267.102 31H268.778V20.0909H267.102V31ZM258.523 25.6023H261.42C262.749 25.6023 263.693 26.4119 263.693 27.5625C263.693 28.6634 262.749 29.4375 261.42 29.4375H258.523V25.6023ZM274.323 28.5284V20.0909H272.647V31H274.607L279.834 22.5625V31H281.51V20.0909H279.578L274.323 28.5284ZM278.47 16.4545C278.47 17.1932 278.073 17.8466 277.078 17.8466C276.084 17.8466 275.715 17.1932 275.715 16.4545H274.152C274.152 17.9886 275.289 19.0682 277.078 19.0682C278.897 19.0682 280.033 17.9886 280.033 16.4545H278.47ZM300.214 20.0909H298.538V25.6236C297.728 25.858 296.898 26 295.896 26C294.532 26 293.481 25.233 293.481 23.5568V20.0625H291.805V23.5568C291.805 26.2273 293.424 27.5625 295.896 27.5625C296.926 27.5625 297.75 27.4276 298.538 27.1932V31H300.214V20.0909ZM308.663 31.2273C310.879 31.2273 312.499 30.1193 313.01 28.4716L311.391 28.017C310.965 29.1534 309.977 29.7216 308.663 29.7216C306.696 29.7216 305.34 28.4503 305.261 26.1136H313.18V25.4034C313.18 21.3409 310.766 19.9489 308.493 19.9489C305.538 19.9489 303.578 22.2784 303.578 25.6307C303.578 28.983 305.51 31.2273 308.663 31.2273ZM305.261 24.6648C305.375 22.9673 306.575 21.4545 308.493 21.4545C310.311 21.4545 311.476 22.8182 311.476 24.6648H305.261ZM315.564 31H316.132C318.547 31 319.243 29.125 319.4 25.5455L319.57 21.6534H323.576V31H325.252V20.0909H317.979L317.78 24.9205C317.638 28.5852 317.269 29.4375 315.962 29.4375H315.564V31ZM330.803 20.0909H329.127V31H330.803V26.3409H336.03V31H337.707V20.0909H336.03V24.7784H330.803V20.0909ZM346 31.2273C348.954 31.2273 350.943 28.983 350.943 25.6023C350.943 22.1932 348.954 19.9489 346 19.9489C343.045 19.9489 341.056 22.1932 341.056 25.6023C341.056 28.983 343.045 31.2273 346 31.2273ZM346 29.7216C343.755 29.7216 342.732 27.7898 342.732 25.6023C342.732 23.4148 343.755 21.4545 346 21.4545C348.244 21.4545 349.267 23.4148 349.267 25.6023C349.267 27.7898 348.244 29.7216 346 29.7216ZM354.301 31H355.977V26.3977H357.483L361.063 31H363.222L358.761 25.3466L363.165 20.0909H361.006L357.085 24.8352H355.977V20.0909H354.301V31Z" fill="#49BAF2"/>
<g filter="url(#filter0_d)">
<path d="M73.4 31.1945V16.8056L86 9.60559L98.6 16.8056V31.1945L86 38.3945L73.4 31.1945Z" fill="white"/>
<path d="M87.708 21.0644C87.708 21.0644 88.331 16.7291 86 13.9548C83.669 16.7291 84.292 21.0644 84.292 21.0644C82.5126 22.5392 84.2108 26.4766 84.2108 26.4766C84.2108 24.5315 84.943 24.1336 84.943 24.1336C84.943 24.1336 84.9164 24.5914 85.2678 24.7806H86H86.7322C87.085 24.5927 87.057 24.1336 87.057 24.1336C87.057 24.1336 87.7892 24.5315 87.7892 26.4766C87.7892 26.4766 89.486 22.5378 87.708 21.0644ZM86 18.3166C85.5058 18.3166 85.1054 17.9187 85.1054 17.4275C85.1054 16.9364 85.5058 16.5385 86 16.5385C86.4942 16.5385 86.8946 16.9364 86.8946 17.4275C86.8946 17.9187 86.4942 18.3166 86 18.3166Z" fill="#FFA800"/>
<path d="M86 8L72 16V32L86 40L100 32V16L86 8ZM98.6 31.1944L95.7888 32.8014C95.1728 32.0877 94.26 31.6355 93.2408 31.6355C92.5688 31.6355 91.9416 31.8317 91.4166 32.1711C90.991 31.8456 90.459 31.6522 89.8808 31.6522C89.4804 31.6522 89.101 31.7454 88.765 31.911C88.4738 31.1096 87.7024 30.5363 86.7952 30.5336L86.504 26.1426H85.496L85.2048 30.5336C84.2976 30.5363 83.5262 31.1096 83.235 31.911C82.899 31.7454 82.5196 31.6522 82.1192 31.6522C81.541 31.6522 81.009 31.8456 80.5834 32.1711C80.0584 31.833 79.4312 31.6355 78.7592 31.6355C77.7386 31.6355 76.8272 32.0877 76.2112 32.8014L73.4 31.1944V16.8056L86 9.60557L98.6 16.8056V31.1944Z" fill="#FFA800"/>
</g>
</g>
<defs>
<filter id="filter0_d" x="64" y="4" width="44" height="48" filterUnits="userSpaceOnUse" color-interpolation-filters="sRGB">
<feFlood flood-opacity="0" result="BackgroundImageFix"/>
<feColorMatrix in="SourceAlpha" type="matrix" values="0 0 0 0 0 0 0 0 0 0 0 0 0 0 0 0 0 0 127 0"/>
<feOffset dy="4"/>
<feGaussianBlur stdDeviation="4"/>
<feColorMatrix type="matrix" values="0 0 0 0 1 0 0 0 0 0.658824 0 0 0 0 0 0 0 0 0.15 0"/>
<feBlend mode="normal" in2="BackgroundImageFix" result="effect1_dropShadow"/>
<feBlend mode="normal" in="SourceGraphic" in2="effect1_dropShadow" result="shape"/>
</filter>
<clipPath id="clip0">
<rect width="536" height="48" fill="white"/>
</clipPath>
</defs>
</svg>
