<svg width="744" height="216" viewBox="0 0 744 216" fill="none" xmlns="http://www.w3.org/2000/svg">
<rect width="744" height="216" fill="white"/>
<path d="M201.102 115.545C201.193 118.409 203.931 120.364 207.647 120.364C211.465 120.364 214.238 118.318 214.238 115.136C214.238 112.955 212.931 111.182 210.965 111.045V110.864C212.624 110.352 213.874 109.148 213.874 107.182C213.874 104.42 211.511 102.318 207.829 102.318C204.193 102.318 201.602 104.318 201.511 107.136H204.329C204.409 105.693 205.92 104.682 207.965 104.682C209.999 104.682 211.147 105.716 211.147 107.273C211.147 108.727 210.147 109.818 208.011 109.818H205.011V112.227H208.011C210.147 112.227 211.511 113.398 211.511 115.136C211.511 117.125 209.749 117.955 207.602 117.955C205.499 117.955 204.09 117.125 203.965 115.545H201.102ZM227.622 120.409C230.667 120.409 232.258 118.773 232.803 117.636H232.94V120H235.622V108.5C235.622 102.955 231.394 102.318 229.167 102.318C226.531 102.318 223.531 103.227 222.167 106.409L224.712 107.318C225.303 106.045 226.701 104.682 229.258 104.682C231.724 104.682 232.94 105.989 232.94 108.227V108.318C232.94 109.614 231.622 109.5 228.44 109.909C225.201 110.33 221.667 111.045 221.667 115.045C221.667 118.455 224.303 120.409 227.622 120.409ZM228.031 118C225.894 118 224.349 117.045 224.349 115.182C224.349 113.136 226.212 112.5 228.303 112.227C229.44 112.091 232.485 111.773 232.94 111.227V113.682C232.94 115.864 231.212 118 228.031 118ZM243.133 125H245.815V120H258.724V125H261.406V117.5H258.724V102.545H247.633L247.042 109.455C246.621 114.341 245.996 116.023 244.587 117.5H243.133V125ZM247.633 117.5C248.86 115.886 249.303 113.102 249.678 109.455L250.133 105.045H256.042V117.5H247.633ZM274.582 120.409C277.627 120.409 279.218 118.773 279.763 117.636H279.9V120H282.582V108.5C282.582 102.955 278.354 102.318 276.127 102.318C273.491 102.318 270.491 103.227 269.127 106.409L271.672 107.318C272.263 106.045 273.661 104.682 276.218 104.682C278.684 104.682 279.9 105.989 279.9 108.227V108.318C279.9 109.614 278.582 109.5 275.4 109.909C272.161 110.33 268.627 111.045 268.627 115.045C268.627 118.455 271.263 120.409 274.582 120.409ZM274.991 118C272.854 118 271.309 117.045 271.309 115.182C271.309 113.136 273.172 112.5 275.263 112.227C276.4 112.091 279.445 111.773 279.9 111.227V113.682C279.9 115.864 278.172 118 274.991 118ZM305.411 102.545H302.729V111.398C301.434 111.773 300.104 112 298.502 112C296.32 112 294.638 110.773 294.638 108.091V102.5H291.956V108.091C291.956 112.364 294.547 114.5 298.502 114.5C300.15 114.5 301.468 114.284 302.729 113.909V120H305.411V102.545ZM317.493 116.045V102.545H314.811V120H317.948L326.311 106.5V120H328.993V102.545H325.902L317.493 116.045ZM354.547 102.545H351.865V120H354.547V112.545H362.911V120H365.592V102.545H362.911V110.045H354.547V102.545ZM380.107 120.409C383.152 120.409 384.743 118.773 385.288 117.636H385.425V120H388.107V108.5C388.107 102.955 383.879 102.318 381.652 102.318C379.016 102.318 376.016 103.227 374.652 106.409L377.197 107.318C377.788 106.045 379.186 104.682 381.743 104.682C384.209 104.682 385.425 105.989 385.425 108.227V108.318C385.425 109.614 384.107 109.5 380.925 109.909C377.686 110.33 374.152 111.045 374.152 115.045C374.152 118.455 376.788 120.409 380.107 120.409ZM380.516 118C378.379 118 376.834 117.045 376.834 115.182C376.834 113.136 378.697 112.5 380.788 112.227C381.925 112.091 384.97 111.773 385.425 111.227V113.682C385.425 115.864 383.697 118 380.516 118ZM410.961 120H413.643V105.045H422.007V120H424.689V102.545H410.961V120ZM436.748 116.045V102.545H434.066V120H437.203L445.566 106.5V120H448.248V102.545H445.157L436.748 116.045ZM455.265 105.045H461.038V120H463.72V105.045H469.447V102.545H455.265V105.045ZM484.024 120.364C488.751 120.364 491.933 116.773 491.933 111.364C491.933 105.909 488.751 102.318 484.024 102.318C479.296 102.318 476.114 105.909 476.114 111.364C476.114 116.773 479.296 120.364 484.024 120.364ZM484.024 117.955C480.433 117.955 478.796 114.864 478.796 111.364C478.796 107.864 480.433 104.727 484.024 104.727C487.614 104.727 489.251 107.864 489.251 111.364C489.251 114.864 487.614 117.955 484.024 117.955ZM503.188 102.545H500.506V120H503.188V112.545H511.552V120H514.234V102.545H511.552V110.045H503.188V102.545ZM530.93 120.364C534.475 120.364 537.066 118.591 537.884 115.955L535.293 115.227C534.611 117.045 533.032 117.955 530.93 117.955C527.782 117.955 525.611 115.92 525.486 112.182H538.157V111.045C538.157 104.545 534.293 102.318 530.657 102.318C525.93 102.318 522.793 106.045 522.793 111.409C522.793 116.773 525.884 120.364 530.93 120.364ZM525.486 109.864C525.668 107.148 527.589 104.727 530.657 104.727C533.566 104.727 535.43 106.909 535.43 109.864H525.486Z" fill="#49BAF2"/>
<path d="M36 29L30 32.5V39.5L36 43L42 39.5V32.5L36 29ZM40.7773 32.7365L36 35.5234L31.2227 32.7365L36 29.9499L40.7773 32.7365ZM30.8141 33.4483L35.5927 36.2357V41.8125L30.8141 39.025V33.4483ZM36.407 41.8125V36.2357L41.1857 33.4483V39.025L36.407 41.8125Z" fill="#E1E1E1"/>
<path d="M84 125L78 128.5V135.5L84 139L90 135.5V128.5L84 125ZM88.7773 128.737L84 131.523L79.2227 128.737L84 125.95L88.7773 128.737ZM78.8141 129.448L83.5927 132.236V137.812L78.8141 135.025V129.448ZM84.407 137.812V132.236L89.1857 129.448V135.025L84.407 137.812Z" fill="#E1E1E1"/>
<path d="M180 29L174 32.5V39.5L180 43L186 39.5V32.5L180 29ZM184.777 32.7365L180 35.5234L175.223 32.7365L180 29.9499L184.777 32.7365ZM174.814 33.4483L179.593 36.2357V41.8125L174.814 39.025V33.4483ZM180.407 41.8125V36.2357L185.186 33.4483V39.025L180.407 41.8125Z" fill="#E1E1E1"/>
<path d="M228 125L222 128.5V135.5L228 139L234 135.5V128.5L228 125ZM232.777 128.737L228 131.523L223.223 128.737L228 125.95L232.777 128.737ZM222.814 129.448L227.593 132.236V137.812L222.814 135.025V129.448ZM228.407 137.812V132.236L233.186 129.448V135.025L228.407 137.812Z" fill="#E1E1E1"/>
<path d="M130.75 76H133.25C133.666 76 134 76.3344 134 76.75V82H136.741C137.297 82 137.575 82.6719 137.181 83.0656L132.428 87.8219C132.194 88.0563 131.809 88.0563 131.575 87.8219L126.816 83.0656C126.422 82.6719 126.7 82 127.256 82H130V76.75C130 76.3344 130.334 76 130.75 76ZM140 87.75V91.25C140 91.6656 139.666 92 139.25 92H124.75C124.334 92 124 91.6656 124 91.25V87.75C124 87.3344 124.334 87 124.75 87H129.334L130.866 88.5313C131.494 89.1594 132.506 89.1594 133.134 88.5313L134.666 87H139.25C139.666 87 140 87.3344 140 87.75ZM136.125 90.5C136.125 90.1562 135.844 89.875 135.5 89.875C135.156 89.875 134.875 90.1563 134.875 90.5C134.875 90.8437 135.156 91.125 135.5 91.125C135.844 91.125 136.125 90.8438 136.125 90.5ZM138.125 90.5C138.125 90.1562 137.844 89.875 137.5 89.875C137.156 89.875 136.875 90.1563 136.875 90.5C136.875 90.8437 137.156 91.125 137.5 91.125C137.844 91.125 138.125 90.8438 138.125 90.5Z" fill="#E1E1E1"/>
<path d="M82.75 172H85.25C85.6656 172 86 172.334 86 172.75V178H88.7406C89.2969 178 89.575 178.672 89.1813 179.066L84.4281 183.822C84.1937 184.056 83.8094 184.056 83.575 183.822L78.8156 179.066C78.4219 178.672 78.7 178 79.2562 178H82V172.75C82 172.334 82.3344 172 82.75 172ZM92 183.75V187.25C92 187.666 91.6656 188 91.25 188H76.75C76.3344 188 76 187.666 76 187.25V183.75C76 183.334 76.3344 183 76.75 183H81.3344L82.8657 184.531C83.4938 185.159 84.5063 185.159 85.1344 184.531L86.6656 183H91.25C91.6656 183 92 183.334 92 183.75ZM88.125 186.5C88.125 186.156 87.8437 185.875 87.5 185.875C87.1563 185.875 86.875 186.156 86.875 186.5C86.875 186.844 87.1563 187.125 87.5 187.125C87.8437 187.125 88.125 186.844 88.125 186.5ZM90.125 186.5C90.125 186.156 89.8437 185.875 89.5 185.875C89.1563 185.875 88.875 186.156 88.875 186.5C88.875 186.844 89.1563 187.125 89.5 187.125C89.8437 187.125 90.125 186.844 90.125 186.5Z" fill="#E1E1E1"/>
<path d="M226.75 28H229.25C229.666 28 230 28.3344 230 28.75V34H232.741C233.297 34 233.575 34.6719 233.181 35.0656L228.428 39.8219C228.194 40.0563 227.809 40.0563 227.575 39.8219L222.816 35.0656C222.422 34.6719 222.7 34 223.256 34H226V28.75C226 28.3344 226.334 28 226.75 28ZM236 39.75V43.25C236 43.6656 235.666 44 235.25 44H220.75C220.334 44 220 43.6656 220 43.25V39.75C220 39.3344 220.334 39 220.75 39H225.334L226.866 40.5313C227.494 41.1594 228.506 41.1594 229.134 40.5313L230.666 39H235.25C235.666 39 236 39.3344 236 39.75ZM232.125 42.5C232.125 42.1562 231.844 41.875 231.5 41.875C231.156 41.875 230.875 42.1563 230.875 42.5C230.875 42.8437 231.156 43.125 231.5 43.125C231.844 43.125 232.125 42.8438 232.125 42.5ZM234.125 42.5C234.125 42.1562 233.844 41.875 233.5 41.875C233.156 41.875 232.875 42.1563 232.875 42.5C232.875 42.8437 233.156 43.125 233.5 43.125C233.844 43.125 234.125 42.8438 234.125 42.5Z" fill="#E1E1E1"/>
<path d="M43.5 79H41.5L41.2763 78.5528C41.1069 78.2141 40.7607 78.0001 40.3818 78H38.7063L37.8537 77.1475C37.5384 76.8324 37 77.0556 37 77.5009V82.1834L41 83.6118V82.5H42C43.1047 82.5 44 81.6047 44 80.5V79.5C44 79.2237 43.7763 79 43.5 79ZM40 80.5C39.7237 80.5 39.5 80.2763 39.5 80C39.5 79.7237 39.7237 79.5 40 79.5C40.2763 79.5 40.5 79.7237 40.5 80C40.5 80.2763 40.2763 80.5 40 80.5ZM31 83C30.4488 83 30 82.5512 30 82C30 81.4478 29.5522 81 29 81C28.4478 81 28 81.4478 28 82C28 83.3019 28.8384 84.4016 30 84.8157V91.5C30 91.7763 30.2237 92 30.5 92H32.5C32.7763 92 33 91.7763 33 91.5V88H38V91.5C38 91.7763 38.2237 92 38.5 92H40.5C40.7763 92 41 91.7763 41 91.5V84.6734L36.3141 83H31Z" fill="#E1E1E1"/>
<path d="M139.5 31H137.5L137.276 30.5528C137.107 30.2141 136.761 30.0001 136.382 30H134.706L133.854 29.1475C133.538 28.8324 133 29.0556 133 29.5009V34.1834L137 35.6118V34.5H138C139.105 34.5 140 33.6047 140 32.5V31.5C140 31.2237 139.776 31 139.5 31ZM136 32.5C135.724 32.5 135.5 32.2763 135.5 32C135.5 31.7237 135.724 31.5 136 31.5C136.276 31.5 136.5 31.7237 136.5 32C136.5 32.2763 136.276 32.5 136 32.5ZM127 35C126.449 35 126 34.5512 126 34C126 33.4478 125.552 33 125 33C124.448 33 124 33.4478 124 34C124 35.3019 124.838 36.4016 126 36.8157V43.5C126 43.7763 126.224 44 126.5 44H128.5C128.776 44 129 43.7763 129 43.5V40H134V43.5C134 43.7763 134.224 44 134.5 44H136.5C136.776 44 137 43.7763 137 43.5V36.6734L132.314 35H127Z" fill="#E1E1E1"/>
<path d="M187.5 175H185.5L185.276 174.553C185.107 174.214 184.761 174 184.382 174H182.706L181.854 173.147C181.538 172.832 181 173.056 181 173.501V178.183L185 179.612V178.5H186C187.105 178.5 188 177.605 188 176.5V175.5C188 175.224 187.776 175 187.5 175ZM184 176.5C183.724 176.5 183.5 176.276 183.5 176C183.5 175.724 183.724 175.5 184 175.5C184.276 175.5 184.5 175.724 184.5 176C184.5 176.276 184.276 176.5 184 176.5ZM175 179C174.449 179 174 178.551 174 178C174 177.448 173.552 177 173 177C172.448 177 172 177.448 172 178C172 179.302 172.838 180.402 174 180.816V187.5C174 187.776 174.224 188 174.5 188H176.5C176.776 188 177 187.776 177 187.5V184H182V187.5C182 187.776 182.224 188 182.5 188H184.5C184.776 188 185 187.776 185 187.5V180.673L180.314 179H175Z" fill="#E1E1E1"/>
<path d="M226.973 186.786L225.448 186.343C225.288 186.298 225.198 186.131 225.243 185.971L228.655 174.217C228.7 174.057 228.867 173.967 229.027 174.012L230.552 174.454C230.712 174.499 230.802 174.667 230.757 174.827L227.345 186.581C227.298 186.741 227.133 186.833 226.973 186.786ZM224.123 183.981L225.21 182.821C225.325 182.698 225.318 182.503 225.19 182.391L222.925 180.399L225.19 178.406C225.318 178.294 225.328 178.099 225.21 177.976L224.123 176.816C224.01 176.696 223.82 176.689 223.698 176.804L220.096 180.179C219.968 180.296 219.968 180.499 220.096 180.616L223.698 183.993C223.82 184.108 224.01 184.103 224.123 183.981ZM232.302 183.996L235.904 180.619C236.032 180.501 236.032 180.299 235.904 180.181L232.302 176.801C232.182 176.689 231.992 176.694 231.877 176.814L230.79 177.974C230.675 178.096 230.682 178.291 230.81 178.404L233.075 180.399L230.81 182.391C230.682 182.503 230.672 182.698 230.79 182.821L231.877 183.981C231.99 184.103 232.18 184.108 232.302 183.996Z" fill="#E1E1E1"/>
<path d="M178.973 90.7856L177.448 90.3431C177.288 90.2981 177.198 90.1307 177.243 89.9706L180.655 78.2165C180.7 78.0566 180.867 77.9666 181.027 78.0116L182.552 78.4541C182.712 78.4991 182.802 78.6665 182.757 78.8265L179.345 90.5806C179.298 90.7406 179.133 90.8331 178.973 90.7856ZM176.123 87.9808L177.21 86.8209C177.325 86.6984 177.318 86.5034 177.19 86.3909L174.925 84.3986L177.19 82.4063C177.318 82.2938 177.328 82.0988 177.21 81.9763L176.123 80.8163C176.01 80.6963 175.82 80.6888 175.698 80.8038L172.096 84.1786C171.968 84.2961 171.968 84.4986 172.096 84.6161L175.698 87.9933C175.82 88.1083 176.01 88.1033 176.123 87.9808ZM184.302 87.9958L187.904 84.6186C188.032 84.5011 188.032 84.2986 187.904 84.1811L184.302 80.8013C184.182 80.6888 183.992 80.6938 183.877 80.8138L182.79 81.9738C182.675 82.0963 182.682 82.2912 182.81 82.4037L185.075 84.3986L182.81 86.3909C182.682 86.5034 182.672 86.6984 182.79 86.8209L183.877 87.9807C183.99 88.1033 184.18 88.1083 184.302 87.9958Z" fill="#E1E1E1"/>
<path d="M34.9726 138.786L33.4477 138.343C33.2877 138.298 33.1977 138.131 33.2428 137.971L36.655 126.217C36.7 126.057 36.8675 125.967 37.0275 126.012L38.5523 126.454C38.7123 126.499 38.8023 126.667 38.7573 126.827L35.3451 138.581C35.2975 138.741 35.1326 138.833 34.9726 138.786ZM32.1228 135.981L33.2102 134.821C33.3252 134.698 33.3177 134.503 33.1902 134.391L30.9253 132.399L33.1902 130.406C33.3177 130.294 33.3277 130.099 33.2102 129.976L32.1228 128.816C32.0103 128.696 31.8203 128.689 31.6978 128.804L28.0956 132.179C27.9681 132.296 27.9681 132.499 28.0956 132.616L31.6978 135.993C31.8203 136.108 32.0103 136.103 32.1228 135.981ZM40.3022 135.996L43.9044 132.619C44.0319 132.501 44.0319 132.299 43.9044 132.181L40.3022 128.801C40.1822 128.689 39.9922 128.694 39.8772 128.814L38.7898 129.974C38.6748 130.096 38.6823 130.291 38.8098 130.404L41.0746 132.399L38.8098 134.391C38.6823 134.503 38.6723 134.698 38.7898 134.821L39.8772 135.981C39.9897 136.103 40.1797 136.108 40.3022 135.996Z" fill="#E1E1E1"/>
<path d="M82.4495 35.8828L77.591 40.7414C77.3566 40.9757 76.9768 40.9757 76.7425 40.7414L76.1758 40.1747C75.9418 39.9408 75.9414 39.5617 76.1748 39.3272L80.0253 35.4585L76.1748 31.5899C75.9414 31.3554 75.9418 30.9763 76.1758 30.7424L76.7424 30.1758C76.9768 29.9414 77.3566 29.9414 77.5909 30.1758L82.4495 35.0343C82.6839 35.2686 82.6839 35.6485 82.4495 35.8828ZM92 40.4586V39.6586C92 39.3272 91.7313 39.0586 91.4 39.0586H83.8C83.4686 39.0586 83.2 39.3272 83.2 39.6586V40.4586C83.2 40.79 83.4686 41.0586 83.8 41.0586H91.4C91.7313 41.0585 92 40.7899 92 40.4586Z" fill="#E1E1E1"/>
<path d="M660 173L654 176.5V183.5L660 187L666 183.5V176.5L660 173ZM664.777 176.737L660 179.523L655.223 176.737L660 173.95L664.777 176.737ZM654.814 177.448L659.593 180.236V185.812L654.814 183.025V177.448ZM660.407 185.812V180.236L665.186 177.448V183.025L660.407 185.812Z" fill="#E1E1E1"/>
<path d="M706.75 172H709.25C709.666 172 710 172.334 710 172.75V178H712.741C713.297 178 713.575 178.672 713.181 179.066L708.428 183.822C708.194 184.056 707.809 184.056 707.575 183.822L702.816 179.066C702.422 178.672 702.7 178 703.256 178H706V172.75C706 172.334 706.334 172 706.75 172ZM716 183.75V187.25C716 187.666 715.666 188 715.25 188H700.75C700.334 188 700 187.666 700 187.25V183.75C700 183.334 700.334 183 700.75 183H705.334L706.866 184.531C707.494 185.159 708.506 185.159 709.134 184.531L710.666 183H715.25C715.666 183 716 183.334 716 183.75ZM712.125 186.5C712.125 186.156 711.844 185.875 711.5 185.875C711.156 185.875 710.875 186.156 710.875 186.5C710.875 186.844 711.156 187.125 711.5 187.125C711.844 187.125 712.125 186.844 712.125 186.5ZM714.125 186.5C714.125 186.156 713.844 185.875 713.5 185.875C713.156 185.875 712.875 186.156 712.875 186.5C712.875 186.844 713.156 187.125 713.5 187.125C713.844 187.125 714.125 186.844 714.125 186.5Z" fill="#E1E1E1"/>
<path d="M619.5 175H617.5L617.276 174.553C617.107 174.214 616.761 174 616.382 174H614.706L613.854 173.147C613.538 172.832 613 173.056 613 173.501V178.183L617 179.612V178.5H618C619.105 178.5 620 177.605 620 176.5V175.5C620 175.224 619.776 175 619.5 175ZM616 176.5C615.724 176.5 615.5 176.276 615.5 176C615.5 175.724 615.724 175.5 616 175.5C616.276 175.5 616.5 175.724 616.5 176C616.5 176.276 616.276 176.5 616 176.5ZM607 179C606.449 179 606 178.551 606 178C606 177.448 605.552 177 605 177C604.448 177 604 177.448 604 178C604 179.302 604.838 180.402 606 180.816V187.5C606 187.776 606.224 188 606.5 188H608.5C608.776 188 609 187.776 609 187.5V184H614V187.5C614 187.776 614.224 188 614.5 188H616.5C616.776 188 617 187.776 617 187.5V180.673L612.314 179H607Z" fill="#E1E1E1"/>
<path d="M562.45 179.883L557.591 184.741C557.357 184.976 556.977 184.976 556.742 184.741L556.176 184.175C555.942 183.941 555.941 183.562 556.175 183.327L560.025 179.459L556.175 175.59C555.941 175.355 555.942 174.976 556.176 174.742L556.742 174.176C556.977 173.941 557.357 173.941 557.591 174.176L562.449 179.034C562.684 179.269 562.684 179.648 562.45 179.883ZM572 184.459V183.659C572 183.327 571.731 183.059 571.4 183.059H563.8C563.469 183.059 563.2 183.327 563.2 183.659V184.459C563.2 184.79 563.469 185.059 563.8 185.059H571.4C571.731 185.059 572 184.79 572 184.459Z" fill="#E1E1E1"/>
<path d="M130.45 131.883L125.591 136.741C125.357 136.976 124.977 136.976 124.742 136.741L124.176 136.175C123.942 135.941 123.941 135.562 124.175 135.327L128.025 131.459L124.175 127.59C123.941 127.355 123.942 126.976 124.176 126.742L124.742 126.176C124.977 125.941 125.357 125.941 125.591 126.176L130.449 131.034C130.684 131.269 130.684 131.648 130.45 131.883ZM140 136.459V135.659C140 135.327 139.731 135.059 139.4 135.059H131.8C131.469 135.059 131.2 135.327 131.2 135.659V136.459C131.2 136.79 131.469 137.059 131.8 137.059H139.4C139.731 137.059 140 136.79 140 136.459Z" fill="#E1E1E1"/>
<path d="M226.45 83.8828L221.591 88.7414C221.357 88.9757 220.977 88.9757 220.742 88.7414L220.176 88.1747C219.942 87.9408 219.941 87.5617 220.175 87.3272L224.025 83.4585L220.175 79.5899C219.941 79.3554 219.942 78.9763 220.176 78.7424L220.742 78.1758C220.977 77.9414 221.357 77.9414 221.591 78.1758L226.449 83.0343C226.684 83.2686 226.684 83.6485 226.45 83.8828ZM236 88.4586V87.6586C236 87.3272 235.731 87.0586 235.4 87.0586H227.8C227.469 87.0586 227.2 87.3272 227.2 87.6586V88.4586C227.2 88.79 227.469 89.0586 227.8 89.0586H235.4C235.731 89.0585 236 88.7899 236 88.4586Z" fill="#E1E1E1"/>
<path d="M324 125L318 128.5V135.5L324 139L330 135.5V128.5L324 125ZM328.777 128.737L324 131.523L319.223 128.737L324 125.95L328.777 128.737ZM318.814 129.448L323.593 132.236V137.812L318.814 135.025V129.448ZM324.407 137.812V132.236L329.186 129.448V135.025L324.407 137.812Z" fill="#E1E1E1"/>
<path d="M274.75 172H277.25C277.666 172 278 172.334 278 172.75V178H280.741C281.297 178 281.575 178.672 281.181 179.066L276.428 183.822C276.194 184.056 275.809 184.056 275.575 183.822L270.816 179.066C270.422 178.672 270.7 178 271.256 178H274V172.75C274 172.334 274.334 172 274.75 172ZM284 183.75V187.25C284 187.666 283.666 188 283.25 188H268.75C268.334 188 268 187.666 268 187.25V183.75C268 183.334 268.334 183 268.75 183H273.334L274.866 184.531C275.494 185.159 276.506 185.159 277.134 184.531L278.666 183H283.25C283.666 183 284 183.334 284 183.75ZM280.125 186.5C280.125 186.156 279.844 185.875 279.5 185.875C279.156 185.875 278.875 186.156 278.875 186.5C278.875 186.844 279.156 187.125 279.5 187.125C279.844 187.125 280.125 186.844 280.125 186.5ZM282.125 186.5C282.125 186.156 281.844 185.875 281.5 185.875C281.156 185.875 280.875 186.156 280.875 186.5C280.875 186.844 281.156 187.125 281.5 187.125C281.844 187.125 282.125 186.844 282.125 186.5Z" fill="#E1E1E1"/>
<path d="M370.75 124H373.25C373.666 124 374 124.334 374 124.75V130H376.741C377.297 130 377.575 130.672 377.181 131.066L372.428 135.822C372.194 136.056 371.809 136.056 371.575 135.822L366.816 131.066C366.422 130.672 366.7 130 367.256 130H370V124.75C370 124.334 370.334 124 370.75 124ZM380 135.75V139.25C380 139.666 379.666 140 379.25 140H364.75C364.334 140 364 139.666 364 139.25V135.75C364 135.334 364.334 135 364.75 135H369.334L370.866 136.531C371.494 137.159 372.506 137.159 373.134 136.531L374.666 135H379.25C379.666 135 380 135.334 380 135.75ZM376.125 138.5C376.125 138.156 375.844 137.875 375.5 137.875C375.156 137.875 374.875 138.156 374.875 138.5C374.875 138.844 375.156 139.125 375.5 139.125C375.844 139.125 376.125 138.844 376.125 138.5ZM378.125 138.5C378.125 138.156 377.844 137.875 377.5 137.875C377.156 137.875 376.875 138.156 376.875 138.5C376.875 138.844 377.156 139.125 377.5 139.125C377.844 139.125 378.125 138.844 378.125 138.5Z" fill="#E1E1E1"/>
<path d="M283.5 127H281.5L281.276 126.553C281.107 126.214 280.761 126 280.382 126H278.706L277.854 125.147C277.538 124.832 277 125.056 277 125.501V130.183L281 131.612V130.5H282C283.105 130.5 284 129.605 284 128.5V127.5C284 127.224 283.776 127 283.5 127ZM280 128.5C279.724 128.5 279.5 128.276 279.5 128C279.5 127.724 279.724 127.5 280 127.5C280.276 127.5 280.5 127.724 280.5 128C280.5 128.276 280.276 128.5 280 128.5ZM271 131C270.449 131 270 130.551 270 130C270 129.448 269.552 129 269 129C268.448 129 268 129.448 268 130C268 131.302 268.838 132.402 270 132.816V139.5C270 139.776 270.224 140 270.5 140H272.5C272.776 140 273 139.776 273 139.5V136H278V139.5C278 139.776 278.224 140 278.5 140H280.5C280.776 140 281 139.776 281 139.5V132.673L276.314 131H271Z" fill="#E1E1E1"/>
<path d="M322.973 186.786L321.448 186.343C321.288 186.298 321.198 186.131 321.243 185.971L324.655 174.217C324.7 174.057 324.867 173.967 325.027 174.012L326.552 174.454C326.712 174.499 326.802 174.667 326.757 174.827L323.345 186.581C323.298 186.741 323.133 186.833 322.973 186.786ZM320.123 183.981L321.21 182.821C321.325 182.698 321.318 182.503 321.19 182.391L318.925 180.399L321.19 178.406C321.318 178.294 321.328 178.099 321.21 177.976L320.123 176.816C320.01 176.696 319.82 176.689 319.698 176.804L316.096 180.179C315.968 180.296 315.968 180.499 316.096 180.616L319.698 183.993C319.82 184.108 320.01 184.103 320.123 183.981ZM328.302 183.996L331.904 180.619C332.032 180.501 332.032 180.299 331.904 180.181L328.302 176.801C328.182 176.689 327.992 176.694 327.877 176.814L326.79 177.974C326.675 178.096 326.682 178.291 326.81 178.404L329.075 180.399L326.81 182.391C326.682 182.503 326.672 182.698 326.79 182.821L327.877 183.981C327.99 184.103 328.18 184.108 328.302 183.996Z" fill="#E1E1E1"/>
<path d="M370.45 179.883L365.591 184.741C365.357 184.976 364.977 184.976 364.742 184.741L364.176 184.175C363.942 183.941 363.941 183.562 364.175 183.327L368.025 179.459L364.175 175.59C363.941 175.355 363.942 174.976 364.176 174.742L364.742 174.176C364.977 173.941 365.357 173.941 365.591 174.176L370.449 179.034C370.684 179.269 370.684 179.648 370.45 179.883ZM380 184.459V183.659C380 183.327 379.731 183.059 379.4 183.059H371.8C371.469 183.059 371.2 183.327 371.2 183.659V184.459C371.2 184.79 371.469 185.059 371.8 185.059H379.4C379.731 185.059 380 184.79 380 184.459Z" fill="#E1E1E1"/>
<path d="M40.5714 182.429C39.764 182.429 39.0219 182.708 38.4361 183.175L34.7759 180.887C34.8843 180.397 34.8843 179.889 34.7759 179.399L38.4361 177.111C39.0219 177.578 39.764 177.857 40.5714 177.857C42.465 177.857 44 176.322 44 174.429C44 172.535 42.465 171 40.5714 171C38.6779 171 37.1429 172.535 37.1429 174.429C37.1429 174.684 37.1711 174.933 37.2241 175.173L33.5639 177.461C32.9781 176.994 32.236 176.714 31.4286 176.714C29.535 176.714 28 178.249 28 180.143C28 182.036 29.535 183.571 31.4286 183.571C32.236 183.571 32.9781 183.292 33.5639 182.825L37.2241 185.113C37.17 185.357 37.1428 185.607 37.1429 185.857C37.1429 187.751 38.6779 189.286 40.5714 189.286C42.465 189.286 44 187.751 44 185.857C44 183.964 42.465 182.429 40.5714 182.429Z" fill="#E1E1E1"/>
<path d="M184.571 134.429C183.764 134.429 183.022 134.708 182.436 135.175L178.776 132.887C178.884 132.397 178.884 131.889 178.776 131.399L182.436 129.111C183.022 129.578 183.764 129.857 184.571 129.857C186.465 129.857 188 128.322 188 126.429C188 124.535 186.465 123 184.571 123C182.678 123 181.143 124.535 181.143 126.429C181.143 126.684 181.171 126.933 181.224 127.173L177.564 129.461C176.978 128.994 176.236 128.714 175.429 128.714C173.535 128.714 172 130.249 172 132.143C172 134.036 173.535 135.571 175.429 135.571C176.236 135.571 176.978 135.292 177.564 134.825L181.224 137.113C181.17 137.357 181.143 137.607 181.143 137.857C181.143 139.751 182.678 141.286 184.571 141.286C186.465 141.286 188 139.751 188 137.857C188 135.964 186.465 134.429 184.571 134.429Z" fill="#E1E1E1"/>
<path d="M91 80.25C91 78.6386 89.6948 77.3334 88.0833 77.3334C86.4719 77.3334 85.1667 78.6386 85.1667 80.25C85.1667 81.5771 86.0526 82.6964 87.263 83.05C87.2411 83.637 87.1099 84.0891 86.862 84.3954C86.3005 85.0953 85.0646 85.212 83.7557 85.3323C82.7276 85.4271 81.663 85.5292 80.7917 85.9484V80.6984C81.9766 80.3266 82.8333 79.2219 82.8333 77.9167C82.8333 76.3052 81.5281 75 79.9167 75C78.3052 75 77 76.3053 77 77.9167C77 79.2219 77.8568 80.3266 79.0417 80.6985V87.9646C77.8568 88.3402 77 89.4448 77 90.75C77 92.3615 78.3052 93.6667 79.9167 93.6667C81.5281 93.6667 82.8333 92.3615 82.8333 90.75C82.8333 89.5105 82.0604 88.4495 80.9667 88.0303C81.0797 87.8407 81.251 87.673 81.5099 87.5417C82.1005 87.2428 82.9828 87.1625 83.9198 87.075C85.4583 86.9328 87.201 86.7688 88.2292 85.4927C88.7396 84.8583 88.9984 84.0417 89.0167 83.0172C90.1688 82.6235 91 81.5334 91 80.25ZM79.9167 77.3334C80.2375 77.3334 80.5 77.5959 80.5 77.9167C80.5 78.2375 80.2375 78.5 79.9167 78.5C79.5958 78.5 79.3333 78.2375 79.3333 77.9167C79.3333 77.5959 79.5958 77.3334 79.9167 77.3334ZM79.9167 91.3334C79.5958 91.3334 79.3333 91.0709 79.3333 90.75C79.3333 90.4292 79.5958 90.1667 79.9167 90.1667C80.2375 90.1667 80.5 90.4292 80.5 90.75C80.5 91.0709 80.2375 91.3334 79.9167 91.3334ZM88.0833 79.6667C88.4042 79.6667 88.6667 79.9292 88.6667 80.25C88.6667 80.5709 88.4042 80.8334 88.0833 80.8334C87.7625 80.8334 87.5 80.5709 87.5 80.25C87.5 79.9292 87.7625 79.6667 88.0833 79.6667Z" fill="#E1E1E1"/>
<path d="M420 77L414 80.5V87.5L420 91L426 87.5V80.5L420 77ZM424.777 80.7365L420 83.5234L415.223 80.7365L420 77.9499L424.777 80.7365ZM414.814 81.4483L419.593 84.2357V89.8125L414.814 87.025V81.4483ZM420.407 89.8125V84.2357L425.186 81.4483V87.025L420.407 89.8125Z" fill="#E1E1E1"/>
<path d="M468 173L462 176.5V183.5L468 187L474 183.5V176.5L468 173ZM472.777 176.737L468 179.523L463.223 176.737L468 173.95L472.777 176.737ZM462.814 177.448L467.593 180.236V185.812L462.814 183.025V177.448ZM468.407 185.812V180.236L473.186 177.448V183.025L468.407 185.812Z" fill="#E1E1E1"/>
<path d="M427.5 127H425.5L425.276 126.553C425.107 126.214 424.761 126 424.382 126H422.706L421.854 125.147C421.538 124.832 421 125.056 421 125.501V130.183L425 131.612V130.5H426C427.105 130.5 428 129.605 428 128.5V127.5C428 127.224 427.776 127 427.5 127ZM424 128.5C423.724 128.5 423.5 128.276 423.5 128C423.5 127.724 423.724 127.5 424 127.5C424.276 127.5 424.5 127.724 424.5 128C424.5 128.276 424.276 128.5 424 128.5ZM415 131C414.449 131 414 130.551 414 130C414 129.448 413.552 129 413 129C412.448 129 412 129.448 412 130C412 131.302 412.838 132.402 414 132.816V139.5C414 139.776 414.224 140 414.5 140H416.5C416.776 140 417 139.776 417 139.5V136H422V139.5C422 139.776 422.224 140 422.5 140H424.5C424.776 140 425 139.776 425 139.5V132.673L420.314 131H415Z" fill="#E1E1E1"/>
<path d="M418.973 186.786L417.448 186.343C417.288 186.298 417.198 186.131 417.243 185.971L420.655 174.217C420.7 174.057 420.867 173.967 421.027 174.012L422.552 174.454C422.712 174.499 422.802 174.667 422.757 174.827L419.345 186.581C419.298 186.741 419.133 186.833 418.973 186.786ZM416.123 183.981L417.21 182.821C417.325 182.698 417.318 182.503 417.19 182.391L414.925 180.399L417.19 178.406C417.318 178.294 417.328 178.099 417.21 177.976L416.123 176.816C416.01 176.696 415.82 176.689 415.698 176.804L412.096 180.179C411.968 180.296 411.968 180.499 412.096 180.616L415.698 183.993C415.82 184.108 416.01 184.103 416.123 183.981ZM424.302 183.996L427.904 180.619C428.032 180.501 428.032 180.299 427.904 180.181L424.302 176.801C424.182 176.689 423.992 176.694 423.877 176.814L422.79 177.974C422.675 178.096 422.682 178.291 422.81 178.404L425.075 180.399L422.81 182.391C422.682 182.503 422.672 182.698 422.79 182.821L423.877 183.981C423.99 184.103 424.18 184.108 424.302 183.996Z" fill="#E1E1E1"/>
<path d="M466.45 83.8828L461.591 88.7414C461.357 88.9757 460.977 88.9757 460.742 88.7414L460.176 88.1747C459.942 87.9408 459.941 87.5617 460.175 87.3272L464.025 83.4585L460.175 79.5899C459.941 79.3554 459.942 78.9763 460.176 78.7424L460.742 78.1758C460.977 77.9414 461.357 77.9414 461.591 78.1758L466.449 83.0343C466.684 83.2686 466.684 83.6485 466.45 83.8828ZM476 88.4586V87.6586C476 87.3272 475.731 87.0586 475.4 87.0586H467.8C467.469 87.0586 467.2 87.3272 467.2 87.6586V88.4586C467.2 88.79 467.469 89.0586 467.8 89.0586H475.4C475.731 89.0585 476 88.7899 476 88.4586Z" fill="#E1E1E1"/>
<path d="M475 128.25C475 126.639 473.695 125.333 472.083 125.333C470.472 125.333 469.167 126.639 469.167 128.25C469.167 129.577 470.053 130.696 471.263 131.05C471.241 131.637 471.11 132.089 470.862 132.395C470.301 133.095 469.065 133.212 467.756 133.332C466.728 133.427 465.663 133.529 464.792 133.948V128.698C465.977 128.327 466.833 127.222 466.833 125.917C466.833 124.305 465.528 123 463.917 123C462.305 123 461 124.305 461 125.917C461 127.222 461.857 128.327 463.042 128.698V135.965C461.857 136.34 461 137.445 461 138.75C461 140.362 462.305 141.667 463.917 141.667C465.528 141.667 466.833 140.362 466.833 138.75C466.833 137.51 466.06 136.45 464.967 136.03C465.08 135.841 465.251 135.673 465.51 135.542C466.101 135.243 466.983 135.163 467.92 135.075C469.458 134.933 471.201 134.769 472.229 133.493C472.74 132.858 472.998 132.042 473.017 131.017C474.169 130.623 475 129.533 475 128.25ZM463.917 125.333C464.238 125.333 464.5 125.596 464.5 125.917C464.5 126.238 464.238 126.5 463.917 126.5C463.596 126.5 463.333 126.238 463.333 125.917C463.333 125.596 463.596 125.333 463.917 125.333ZM463.917 139.333C463.596 139.333 463.333 139.071 463.333 138.75C463.333 138.429 463.596 138.167 463.917 138.167C464.238 138.167 464.5 138.429 464.5 138.75C464.5 139.071 464.238 139.333 463.917 139.333ZM472.083 127.667C472.404 127.667 472.667 127.929 472.667 128.25C472.667 128.571 472.404 128.833 472.083 128.833C471.763 128.833 471.5 128.571 471.5 128.25C471.5 127.929 471.763 127.667 472.083 127.667Z" fill="#E1E1E1"/>
<path d="M139 176.25C139 174.639 137.695 173.333 136.083 173.333C134.472 173.333 133.167 174.639 133.167 176.25C133.167 177.577 134.053 178.696 135.263 179.05C135.241 179.637 135.11 180.089 134.862 180.395C134.301 181.095 133.065 181.212 131.756 181.332C130.728 181.427 129.663 181.529 128.792 181.948V176.698C129.977 176.327 130.833 175.222 130.833 173.917C130.833 172.305 129.528 171 127.917 171C126.305 171 125 172.305 125 173.917C125 175.222 125.857 176.327 127.042 176.698V183.965C125.857 184.34 125 185.445 125 186.75C125 188.362 126.305 189.667 127.917 189.667C129.528 189.667 130.833 188.362 130.833 186.75C130.833 185.51 130.06 184.45 128.967 184.03C129.08 183.841 129.251 183.673 129.51 183.542C130.101 183.243 130.983 183.163 131.92 183.075C133.458 182.933 135.201 182.769 136.229 181.493C136.74 180.858 136.998 180.042 137.017 179.017C138.169 178.623 139 177.533 139 176.25ZM127.917 173.333C128.238 173.333 128.5 173.596 128.5 173.917C128.5 174.238 128.238 174.5 127.917 174.5C127.596 174.5 127.333 174.238 127.333 173.917C127.333 173.596 127.596 173.333 127.917 173.333ZM127.917 187.333C127.596 187.333 127.333 187.071 127.333 186.75C127.333 186.429 127.596 186.167 127.917 186.167C128.238 186.167 128.5 186.429 128.5 186.75C128.5 187.071 128.238 187.333 127.917 187.333ZM136.083 175.667C136.404 175.667 136.667 175.929 136.667 176.25C136.667 176.571 136.404 176.833 136.083 176.833C135.763 176.833 135.5 176.571 135.5 176.25C135.5 175.929 135.763 175.667 136.083 175.667Z" fill="#E1E1E1"/>
<path d="M475.5 31H473.5L473.276 30.5528C473.107 30.2141 472.761 30.0001 472.382 30H470.706L469.854 29.1475C469.538 28.8324 469 29.0556 469 29.5009V34.1834L473 35.6118V34.5H474C475.105 34.5 476 33.6047 476 32.5V31.5C476 31.2237 475.776 31 475.5 31ZM472 32.5C471.724 32.5 471.5 32.2763 471.5 32C471.5 31.7237 471.724 31.5 472 31.5C472.276 31.5 472.5 31.7237 472.5 32C472.5 32.2763 472.276 32.5 472 32.5ZM463 35C462.449 35 462 34.5512 462 34C462 33.4478 461.552 33 461 33C460.448 33 460 33.4478 460 34C460 35.3019 460.838 36.4016 462 36.8157V43.5C462 43.7763 462.224 44 462.5 44H464.5C464.776 44 465 43.7763 465 43.5V40H470V43.5C470 43.7763 470.224 44 470.5 44H472.5C472.776 44 473 43.7763 473 43.5V36.6734L468.314 35H463Z" fill="#E1E1E1"/>
<path d="M514.973 42.7856L513.448 42.3431C513.288 42.2981 513.198 42.1307 513.243 41.9706L516.655 30.2165C516.7 30.0566 516.867 29.9666 517.027 30.0116L518.552 30.4541C518.712 30.4991 518.802 30.6665 518.757 30.8265L515.345 42.5806C515.298 42.7406 515.133 42.8331 514.973 42.7856ZM512.123 39.9808L513.21 38.8209C513.325 38.6984 513.318 38.5034 513.19 38.3909L510.925 36.3986L513.19 34.4063C513.318 34.2938 513.328 34.0988 513.21 33.9763L512.123 32.8163C512.01 32.6963 511.82 32.6888 511.698 32.8038L508.096 36.1786C507.968 36.2961 507.968 36.4986 508.096 36.6161L511.698 39.9933C511.82 40.1083 512.01 40.1033 512.123 39.9808ZM520.302 39.9958L523.904 36.6186C524.032 36.5011 524.032 36.2986 523.904 36.1811L520.302 32.8013C520.182 32.6888 519.992 32.6938 519.877 32.8138L518.79 33.9738C518.675 34.0963 518.682 34.2912 518.81 34.4037L521.075 36.3986L518.81 38.3909C518.682 38.5034 518.672 38.6984 518.79 38.8209L519.877 39.9807C519.99 40.1033 520.18 40.1083 520.302 39.9958Z" fill="#E1E1E1"/>
<path d="M514.973 186.786L513.448 186.343C513.288 186.298 513.198 186.131 513.243 185.971L516.655 174.217C516.7 174.057 516.867 173.967 517.027 174.012L518.552 174.454C518.712 174.499 518.802 174.667 518.757 174.827L515.345 186.581C515.298 186.741 515.133 186.833 514.973 186.786ZM512.123 183.981L513.21 182.821C513.325 182.698 513.318 182.503 513.19 182.391L510.925 180.399L513.19 178.406C513.318 178.294 513.328 178.099 513.21 177.976L512.123 176.816C512.01 176.696 511.82 176.689 511.698 176.804L508.096 180.179C507.968 180.296 507.968 180.499 508.096 180.616L511.698 183.993C511.82 184.108 512.01 184.103 512.123 183.981ZM520.302 183.996L523.904 180.619C524.032 180.501 524.032 180.299 523.904 180.181L520.302 176.801C520.182 176.689 519.992 176.694 519.877 176.814L518.79 177.974C518.675 178.096 518.682 178.291 518.81 178.404L521.075 180.399L518.81 182.391C518.682 182.503 518.672 182.698 518.79 182.821L519.877 183.981C519.99 184.103 520.18 184.108 520.302 183.996Z" fill="#E1E1E1"/>
<path d="M427 32.25C427 30.6386 425.695 29.3334 424.083 29.3334C422.472 29.3334 421.167 30.6386 421.167 32.25C421.167 33.5771 422.053 34.6964 423.263 35.05C423.241 35.637 423.11 36.0891 422.862 36.3954C422.301 37.0953 421.065 37.212 419.756 37.3323C418.728 37.4271 417.663 37.5292 416.792 37.9484V32.6984C417.977 32.3266 418.833 31.2219 418.833 29.9167C418.833 28.3052 417.528 27 415.917 27C414.305 27 413 28.3053 413 29.9167C413 31.2219 413.857 32.3266 415.042 32.6985V39.9646C413.857 40.3402 413 41.4448 413 42.75C413 44.3615 414.305 45.6667 415.917 45.6667C417.528 45.6667 418.833 44.3615 418.833 42.75C418.833 41.5105 418.06 40.4495 416.967 40.0303C417.08 39.8407 417.251 39.673 417.51 39.5417C418.101 39.2428 418.983 39.1625 419.92 39.075C421.458 38.9328 423.201 38.7688 424.229 37.4927C424.74 36.8583 424.998 36.0417 425.017 35.0172C426.169 34.6235 427 33.5334 427 32.25ZM415.917 29.3334C416.238 29.3334 416.5 29.5959 416.5 29.9167C416.5 30.2375 416.238 30.5 415.917 30.5C415.596 30.5 415.333 30.2375 415.333 29.9167C415.333 29.5959 415.596 29.3334 415.917 29.3334ZM415.917 43.3334C415.596 43.3334 415.333 43.0709 415.333 42.75C415.333 42.4292 415.596 42.1667 415.917 42.1667C416.238 42.1667 416.5 42.4292 416.5 42.75C416.5 43.0709 416.238 43.3334 415.917 43.3334ZM424.083 31.6667C424.404 31.6667 424.667 31.9292 424.667 32.25C424.667 32.5709 424.404 32.8334 424.083 32.8334C423.763 32.8334 423.5 32.5709 423.5 32.25C423.5 31.9292 423.763 31.6667 424.083 31.6667Z" fill="#E1E1E1"/>
<path d="M276 29L270 32.5V39.5L276 43L282 39.5V32.5L276 29ZM280.777 32.7365L276 35.5234L271.223 32.7365L276 29.9499L280.777 32.7365ZM270.814 33.4483L275.593 36.2357V41.8125L270.814 39.025V33.4483ZM276.407 41.8125V36.2357L281.186 33.4483V39.025L276.407 41.8125Z" fill="#E1E1E1"/>
<path d="M274.75 76H277.25C277.666 76 278 76.3344 278 76.75V82H280.741C281.297 82 281.575 82.6719 281.181 83.0656L276.428 87.8219C276.194 88.0563 275.809 88.0563 275.575 87.8219L270.816 83.0656C270.422 82.6719 270.7 82 271.256 82H274V76.75C274 76.3344 274.334 76 274.75 76ZM284 87.75V91.25C284 91.6656 283.666 92 283.25 92H268.75C268.334 92 268 91.6656 268 91.25V87.75C268 87.3344 268.334 87 268.75 87H273.334L274.866 88.5313C275.494 89.1594 276.506 89.1594 277.134 88.5313L278.666 87H283.25C283.666 87 284 87.3344 284 87.75ZM280.125 90.5C280.125 90.1562 279.844 89.875 279.5 89.875C279.156 89.875 278.875 90.1563 278.875 90.5C278.875 90.8437 279.156 91.125 279.5 91.125C279.844 91.125 280.125 90.8438 280.125 90.5ZM282.125 90.5C282.125 90.1562 281.844 89.875 281.5 89.875C281.156 89.875 280.875 90.1563 280.875 90.5C280.875 90.8437 281.156 91.125 281.5 91.125C281.844 91.125 282.125 90.8438 282.125 90.5Z" fill="#E1E1E1"/>
<path d="M379.5 79H377.5L377.276 78.5528C377.107 78.2141 376.761 78.0001 376.382 78H374.706L373.854 77.1475C373.538 76.8324 373 77.0556 373 77.5009V82.1834L377 83.6118V82.5H378C379.105 82.5 380 81.6047 380 80.5V79.5C380 79.2237 379.776 79 379.5 79ZM376 80.5C375.724 80.5 375.5 80.2763 375.5 80C375.5 79.7237 375.724 79.5 376 79.5C376.276 79.5 376.5 79.7237 376.5 80C376.5 80.2763 376.276 80.5 376 80.5ZM367 83C366.449 83 366 82.5512 366 82C366 81.4478 365.552 81 365 81C364.448 81 364 81.4478 364 82C364 83.3019 364.838 84.4016 366 84.8157V91.5C366 91.7763 366.224 92 366.5 92H368.5C368.776 92 369 91.7763 369 91.5V88H374V91.5C374 91.7763 374.224 92 374.5 92H376.5C376.776 92 377 91.7763 377 91.5V84.6734L372.314 83H367Z" fill="#E1E1E1"/>
<path d="M322.45 35.8828L317.591 40.7414C317.357 40.9757 316.977 40.9757 316.742 40.7414L316.176 40.1747C315.942 39.9408 315.941 39.5617 316.175 39.3272L320.025 35.4585L316.175 31.5899C315.941 31.3554 315.942 30.9763 316.176 30.7424L316.742 30.1758C316.977 29.9414 317.357 29.9414 317.591 30.1758L322.449 35.0343C322.684 35.2686 322.684 35.6485 322.45 35.8828ZM332 40.4586V39.6586C332 39.3272 331.731 39.0586 331.4 39.0586H323.8C323.469 39.0586 323.2 39.3272 323.2 39.6586V40.4586C323.2 40.79 323.469 41.0586 323.8 41.0586H331.4C331.731 41.0585 332 40.7899 332 40.4586Z" fill="#E1E1E1"/>
<path d="M376.571 38.4286C375.764 38.4286 375.022 38.7078 374.436 39.1748L370.776 36.8872C370.884 36.3969 370.884 35.8888 370.776 35.3985L374.436 33.1109C375.022 33.5779 375.764 33.8571 376.571 33.8571C378.465 33.8571 380 32.3221 380 30.4286C380 28.535 378.465 27 376.571 27C374.678 27 373.143 28.535 373.143 30.4286C373.143 30.6842 373.171 30.9332 373.224 31.1729L369.564 33.4605C368.978 32.9935 368.236 32.7143 367.429 32.7143C365.535 32.7143 364 34.2493 364 36.1429C364 38.0364 365.535 39.5714 367.429 39.5714C368.236 39.5714 368.978 39.2922 369.564 38.8252L373.224 41.1128C373.17 41.3572 373.143 41.6068 373.143 41.8571C373.143 43.7507 374.678 45.2857 376.571 45.2857C378.465 45.2857 380 43.7507 380 41.8571C380 39.9636 378.465 38.4286 376.571 38.4286Z" fill="#E1E1E1"/>
<path d="M523.5 127H521.5L521.276 126.553C521.107 126.214 520.761 126 520.382 126H518.706L517.854 125.147C517.538 124.832 517 125.056 517 125.501V130.183L521 131.612V130.5H522C523.105 130.5 524 129.605 524 128.5V127.5C524 127.224 523.776 127 523.5 127ZM520 128.5C519.724 128.5 519.5 128.276 519.5 128C519.5 127.724 519.724 127.5 520 127.5C520.276 127.5 520.5 127.724 520.5 128C520.5 128.276 520.276 128.5 520 128.5ZM511 131C510.449 131 510 130.551 510 130C510 129.448 509.552 129 509 129C508.448 129 508 129.448 508 130C508 131.302 508.838 132.402 510 132.816V139.5C510 139.776 510.224 140 510.5 140H512.5C512.776 140 513 139.776 513 139.5V136H518V139.5C518 139.776 518.224 140 518.5 140H520.5C520.776 140 521 139.776 521 139.5V132.673L516.314 131H511Z" fill="#E1E1E1"/>
<path d="M520.571 86.4286C519.764 86.4286 519.022 86.7078 518.436 87.1748L514.776 84.8872C514.884 84.3969 514.884 83.8888 514.776 83.3985L518.436 81.1109C519.022 81.5779 519.764 81.8571 520.571 81.8571C522.465 81.8571 524 80.3221 524 78.4286C524 76.535 522.465 75 520.571 75C518.678 75 517.143 76.535 517.143 78.4286C517.143 78.6842 517.171 78.9332 517.224 79.1729L513.564 81.4605C512.978 80.9935 512.236 80.7143 511.429 80.7143C509.535 80.7143 508 82.2493 508 84.1429C508 86.0364 509.535 87.5714 511.429 87.5714C512.236 87.5714 512.978 87.2922 513.564 86.8252L517.224 89.1128C517.17 89.3572 517.143 89.6068 517.143 89.8571C517.143 91.7507 518.678 93.2857 520.571 93.2857C522.465 93.2857 524 91.7507 524 89.8571C524 87.9636 522.465 86.4286 520.571 86.4286Z" fill="#E1E1E1"/>
<path d="M331 80.25C331 78.6386 329.695 77.3334 328.083 77.3334C326.472 77.3334 325.167 78.6386 325.167 80.25C325.167 81.5771 326.053 82.6964 327.263 83.05C327.241 83.637 327.11 84.0891 326.862 84.3954C326.301 85.0953 325.065 85.212 323.756 85.3323C322.728 85.4271 321.663 85.5292 320.792 85.9484V80.6984C321.977 80.3266 322.833 79.2219 322.833 77.9167C322.833 76.3052 321.528 75 319.917 75C318.305 75 317 76.3053 317 77.9167C317 79.2219 317.857 80.3266 319.042 80.6985V87.9646C317.857 88.3402 317 89.4448 317 90.75C317 92.3615 318.305 93.6667 319.917 93.6667C321.528 93.6667 322.833 92.3615 322.833 90.75C322.833 89.5105 322.06 88.4495 320.967 88.0303C321.08 87.8407 321.251 87.673 321.51 87.5417C322.101 87.2428 322.983 87.1625 323.92 87.075C325.458 86.9328 327.201 86.7688 328.229 85.4927C328.74 84.8583 328.998 84.0417 329.017 83.0172C330.169 82.6235 331 81.5334 331 80.25ZM319.917 77.3334C320.238 77.3334 320.5 77.5959 320.5 77.9167C320.5 78.2375 320.238 78.5 319.917 78.5C319.596 78.5 319.333 78.2375 319.333 77.9167C319.333 77.5959 319.596 77.3334 319.917 77.3334ZM319.917 91.3334C319.596 91.3334 319.333 91.0709 319.333 90.75C319.333 90.4292 319.596 90.1667 319.917 90.1667C320.238 90.1667 320.5 90.4292 320.5 90.75C320.5 91.0709 320.238 91.3334 319.917 91.3334ZM328.083 79.6667C328.404 79.6667 328.667 79.9292 328.667 80.25C328.667 80.5709 328.404 80.8334 328.083 80.8334C327.763 80.8334 327.5 80.5709 327.5 80.25C327.5 79.9292 327.763 79.6667 328.083 79.6667Z" fill="#E1E1E1"/>
<path d="M564 77L558 80.5V87.5L564 91L570 87.5V80.5L564 77ZM568.777 80.7365L564 83.5234L559.223 80.7365L564 77.9499L568.777 80.7365ZM558.814 81.4483L563.593 84.2357V89.8125L558.814 87.025V81.4483ZM564.407 89.8125V84.2357L569.186 81.4483V87.025L564.407 89.8125Z" fill="#E1E1E1"/>
<path d="M708 77L702 80.5V87.5L708 91L714 87.5V80.5L708 77ZM712.777 80.7365L708 83.5234L703.223 80.7365L708 77.9499L712.777 80.7365ZM702.814 81.4483L707.593 84.2357V89.8125L702.814 87.025V81.4483ZM708.407 89.8125V84.2357L713.186 81.4483V87.025L708.407 89.8125Z" fill="#E1E1E1"/>
<path d="M610.75 28H613.25C613.666 28 614 28.3344 614 28.75V34H616.741C617.297 34 617.575 34.6719 617.181 35.0656L612.428 39.8219C612.194 40.0563 611.809 40.0563 611.575 39.8219L606.816 35.0656C606.422 34.6719 606.7 34 607.256 34H610V28.75C610 28.3344 610.334 28 610.75 28ZM620 39.75V43.25C620 43.6656 619.666 44 619.25 44H604.75C604.334 44 604 43.6656 604 43.25V39.75C604 39.3344 604.334 39 604.75 39H609.334L610.866 40.5313C611.494 41.1594 612.506 41.1594 613.134 40.5313L614.666 39H619.25C619.666 39 620 39.3344 620 39.75ZM616.125 42.5C616.125 42.1562 615.844 41.875 615.5 41.875C615.156 41.875 614.875 42.1563 614.875 42.5C614.875 42.8437 615.156 43.125 615.5 43.125C615.844 43.125 616.125 42.8438 616.125 42.5ZM618.125 42.5C618.125 42.1562 617.844 41.875 617.5 41.875C617.156 41.875 616.875 42.1563 616.875 42.5C616.875 42.8437 617.156 43.125 617.5 43.125C617.844 43.125 618.125 42.8438 618.125 42.5Z" fill="#E1E1E1"/>
<path d="M562.75 124H565.25C565.666 124 566 124.334 566 124.75V130H568.741C569.297 130 569.575 130.672 569.181 131.066L564.428 135.822C564.194 136.056 563.809 136.056 563.575 135.822L558.816 131.066C558.422 130.672 558.7 130 559.256 130H562V124.75C562 124.334 562.334 124 562.75 124ZM572 135.75V139.25C572 139.666 571.666 140 571.25 140H556.75C556.334 140 556 139.666 556 139.25V135.75C556 135.334 556.334 135 556.75 135H561.334L562.866 136.531C563.494 137.159 564.506 137.159 565.134 136.531L566.666 135H571.25C571.666 135 572 135.334 572 135.75ZM568.125 138.5C568.125 138.156 567.844 137.875 567.5 137.875C567.156 137.875 566.875 138.156 566.875 138.5C566.875 138.844 567.156 139.125 567.5 139.125C567.844 139.125 568.125 138.844 568.125 138.5ZM570.125 138.5C570.125 138.156 569.844 137.875 569.5 137.875C569.156 137.875 568.875 138.156 568.875 138.5C568.875 138.844 569.156 139.125 569.5 139.125C569.844 139.125 570.125 138.844 570.125 138.5Z" fill="#E1E1E1"/>
<path d="M667.5 127H665.5L665.276 126.553C665.107 126.214 664.761 126 664.382 126H662.706L661.854 125.147C661.538 124.832 661 125.056 661 125.501V130.183L665 131.612V130.5H666C667.105 130.5 668 129.605 668 128.5V127.5C668 127.224 667.776 127 667.5 127ZM664 128.5C663.724 128.5 663.5 128.276 663.5 128C663.5 127.724 663.724 127.5 664 127.5C664.276 127.5 664.5 127.724 664.5 128C664.5 128.276 664.276 128.5 664 128.5ZM655 131C654.449 131 654 130.551 654 130C654 129.448 653.552 129 653 129C652.448 129 652 129.448 652 130C652 131.302 652.838 132.402 654 132.816V139.5C654 139.776 654.224 140 654.5 140H656.5C656.776 140 657 139.776 657 139.5V136H662V139.5C662 139.776 662.224 140 662.5 140H664.5C664.776 140 665 139.776 665 139.5V132.673L660.314 131H655Z" fill="#E1E1E1"/>
<path d="M706.973 138.786L705.448 138.343C705.288 138.298 705.198 138.131 705.243 137.971L708.655 126.217C708.7 126.057 708.867 125.967 709.027 126.012L710.552 126.454C710.712 126.499 710.802 126.667 710.757 126.827L707.345 138.581C707.298 138.741 707.133 138.833 706.973 138.786ZM704.123 135.981L705.21 134.821C705.325 134.698 705.318 134.503 705.19 134.391L702.925 132.399L705.19 130.406C705.318 130.294 705.328 130.099 705.21 129.976L704.123 128.816C704.01 128.696 703.82 128.689 703.698 128.804L700.096 132.179C699.968 132.296 699.968 132.499 700.096 132.616L703.698 135.993C703.82 136.108 704.01 136.103 704.123 135.981ZM712.302 135.996L715.904 132.619C716.032 132.501 716.032 132.299 715.904 132.181L712.302 128.801C712.182 128.689 711.992 128.694 711.877 128.814L710.79 129.974C710.675 130.096 710.682 130.291 710.81 130.404L713.075 132.399L710.81 134.391C710.682 134.503 710.672 134.698 710.79 134.821L711.877 135.981C711.99 136.103 712.18 136.108 712.302 135.996Z" fill="#E1E1E1"/>
<path d="M658.973 42.7856L657.448 42.3431C657.288 42.2981 657.198 42.1307 657.243 41.9706L660.655 30.2165C660.7 30.0566 660.867 29.9666 661.027 30.0116L662.552 30.4541C662.712 30.4991 662.802 30.6665 662.757 30.8265L659.345 42.5806C659.298 42.7406 659.133 42.8331 658.973 42.7856ZM656.123 39.9808L657.21 38.8209C657.325 38.6984 657.318 38.5034 657.19 38.3909L654.925 36.3986L657.19 34.4063C657.318 34.2938 657.328 34.0988 657.21 33.9763L656.123 32.8163C656.01 32.6963 655.82 32.6888 655.698 32.8038L652.096 36.1786C651.968 36.2961 651.968 36.4986 652.096 36.6161L655.698 39.9933C655.82 40.1083 656.01 40.1033 656.123 39.9808ZM664.302 39.9958L667.904 36.6186C668.032 36.5011 668.032 36.2986 667.904 36.1811L664.302 32.8013C664.182 32.6888 663.992 32.6938 663.877 32.8138L662.79 33.9738C662.675 34.0963 662.682 34.2912 662.81 34.4037L665.075 36.3986L662.81 38.3909C662.682 38.5034 662.672 38.6984 662.79 38.8209L663.877 39.9807C663.99 40.1033 664.18 40.1083 664.302 39.9958Z" fill="#E1E1E1"/>
<path d="M610.45 83.8828L605.591 88.7414C605.357 88.9757 604.977 88.9757 604.742 88.7414L604.176 88.1747C603.942 87.9408 603.941 87.5617 604.175 87.3272L608.025 83.4585L604.175 79.5899C603.941 79.3554 603.942 78.9763 604.176 78.7424L604.742 78.1758C604.977 77.9414 605.357 77.9414 605.591 78.1758L610.449 83.0343C610.684 83.2686 610.684 83.6485 610.45 83.8828ZM620 88.4586V87.6586C620 87.3272 619.731 87.0586 619.4 87.0586H611.8C611.469 87.0586 611.2 87.3272 611.2 87.6586V88.4586C611.2 88.79 611.469 89.0586 611.8 89.0586H619.4C619.731 89.0585 620 88.7899 620 88.4586Z" fill="#E1E1E1"/>
<path d="M706.45 35.8828L701.591 40.7414C701.357 40.9757 700.977 40.9757 700.742 40.7414L700.176 40.1747C699.942 39.9408 699.941 39.5617 700.175 39.3272L704.025 35.4585L700.175 31.5899C699.941 31.3554 699.942 30.9763 700.176 30.7424L700.742 30.1758C700.977 29.9414 701.357 29.9414 701.591 30.1758L706.449 35.0343C706.684 35.2686 706.684 35.6485 706.45 35.8828ZM716 40.4586V39.6586C716 39.3272 715.731 39.0586 715.4 39.0586H707.8C707.469 39.0586 707.2 39.3272 707.2 39.6586V40.4586C707.2 40.79 707.469 41.0586 707.8 41.0586H715.4C715.731 41.0585 716 40.7899 716 40.4586Z" fill="#E1E1E1"/>
<path d="M664.571 86.4286C663.764 86.4286 663.022 86.7078 662.436 87.1748L658.776 84.8872C658.884 84.3969 658.884 83.8888 658.776 83.3985L662.436 81.1109C663.022 81.5779 663.764 81.8571 664.571 81.8571C666.465 81.8571 668 80.3221 668 78.4286C668 76.535 666.465 75 664.571 75C662.678 75 661.143 76.535 661.143 78.4286C661.143 78.6842 661.171 78.9332 661.224 79.1729L657.564 81.4605C656.978 80.9935 656.236 80.7143 655.429 80.7143C653.535 80.7143 652 82.2493 652 84.1429C652 86.0364 653.535 87.5714 655.429 87.5714C656.236 87.5714 656.978 87.2922 657.564 86.8252L661.224 89.1128C661.17 89.3572 661.143 89.6068 661.143 89.8571C661.143 91.7507 662.678 93.2857 664.571 93.2857C666.465 93.2857 668 91.7507 668 89.8571C668 87.9636 666.465 86.4286 664.571 86.4286Z" fill="#E1E1E1"/>
<path d="M571 32.25C571 30.6386 569.695 29.3334 568.083 29.3334C566.472 29.3334 565.167 30.6386 565.167 32.25C565.167 33.5771 566.053 34.6964 567.263 35.05C567.241 35.637 567.11 36.0891 566.862 36.3954C566.301 37.0953 565.065 37.212 563.756 37.3323C562.728 37.4271 561.663 37.5292 560.792 37.9484V32.6984C561.977 32.3266 562.833 31.2219 562.833 29.9167C562.833 28.3052 561.528 27 559.917 27C558.305 27 557 28.3053 557 29.9167C557 31.2219 557.857 32.3266 559.042 32.6985V39.9646C557.857 40.3402 557 41.4448 557 42.75C557 44.3615 558.305 45.6667 559.917 45.6667C561.528 45.6667 562.833 44.3615 562.833 42.75C562.833 41.5105 562.06 40.4495 560.967 40.0303C561.08 39.8407 561.251 39.673 561.51 39.5417C562.101 39.2428 562.983 39.1625 563.92 39.075C565.458 38.9328 567.201 38.7688 568.229 37.4927C568.74 36.8583 568.998 36.0417 569.017 35.0172C570.169 34.6235 571 33.5334 571 32.25ZM559.917 29.3334C560.238 29.3334 560.5 29.5959 560.5 29.9167C560.5 30.2375 560.238 30.5 559.917 30.5C559.596 30.5 559.333 30.2375 559.333 29.9167C559.333 29.5959 559.596 29.3334 559.917 29.3334ZM559.917 43.3334C559.596 43.3334 559.333 43.0709 559.333 42.75C559.333 42.4292 559.596 42.1667 559.917 42.1667C560.238 42.1667 560.5 42.4292 560.5 42.75C560.5 43.0709 560.238 43.3334 559.917 43.3334ZM568.083 31.6667C568.404 31.6667 568.667 31.9292 568.667 32.25C568.667 32.5709 568.404 32.8334 568.083 32.8334C567.763 32.8334 567.5 32.5709 567.5 32.25C567.5 31.9292 567.763 31.6667 568.083 31.6667Z" fill="#E1E1E1"/>
<path d="M619 128.25C619 126.639 617.695 125.333 616.083 125.333C614.472 125.333 613.167 126.639 613.167 128.25C613.167 129.577 614.053 130.696 615.263 131.05C615.241 131.637 615.11 132.089 614.862 132.395C614.301 133.095 613.065 133.212 611.756 133.332C610.728 133.427 609.663 133.529 608.792 133.948V128.698C609.977 128.327 610.833 127.222 610.833 125.917C610.833 124.305 609.528 123 607.917 123C606.305 123 605 124.305 605 125.917C605 127.222 605.857 128.327 607.042 128.698V135.965C605.857 136.34 605 137.445 605 138.75C605 140.362 606.305 141.667 607.917 141.667C609.528 141.667 610.833 140.362 610.833 138.75C610.833 137.51 610.06 136.45 608.967 136.03C609.08 135.841 609.251 135.673 609.51 135.542C610.101 135.243 610.983 135.163 611.92 135.075C613.458 134.933 615.201 134.769 616.229 133.493C616.74 132.858 616.998 132.042 617.017 131.017C618.169 130.623 619 129.533 619 128.25ZM607.917 125.333C608.238 125.333 608.5 125.596 608.5 125.917C608.5 126.238 608.238 126.5 607.917 126.5C607.596 126.5 607.333 126.238 607.333 125.917C607.333 125.596 607.596 125.333 607.917 125.333ZM607.917 139.333C607.596 139.333 607.333 139.071 607.333 138.75C607.333 138.429 607.596 138.167 607.917 138.167C608.238 138.167 608.5 138.429 608.5 138.75C608.5 139.071 608.238 139.333 607.917 139.333ZM616.083 127.667C616.404 127.667 616.667 127.929 616.667 128.25C616.667 128.571 616.404 128.833 616.083 128.833C615.763 128.833 615.5 128.571 615.5 128.25C615.5 127.929 615.763 127.667 616.083 127.667Z" fill="#E1E1E1"/>
</svg>
