<svg width="536" height="48" viewBox="0 0 536 48" fill="none" xmlns="http://www.w3.org/2000/svg">
<g clip-path="url(#clip0)">
<rect width="536" height="48" fill="white"/>
<path d="M132.966 18.017H137.54V31H139.301V18.017H143.875V16.4545H132.966V18.017ZM148.892 31.2557C150.795 31.2557 151.79 30.233 152.131 29.5227H152.216V31H153.892V23.8125C153.892 20.3466 151.25 19.9489 149.858 19.9489C148.21 19.9489 146.335 20.517 145.483 22.5057L147.074 23.0739C147.443 22.2784 148.317 21.4261 149.915 21.4261C151.456 21.4261 152.216 22.2429 152.216 23.642V23.6989C152.216 24.5085 151.392 24.4375 149.403 24.6932C147.379 24.956 145.17 25.4034 145.17 27.9034C145.17 30.0341 146.818 31.2557 148.892 31.2557ZM149.148 29.75C147.812 29.75 146.847 29.1534 146.847 27.9886C146.847 26.7102 148.011 26.3125 149.318 26.142C150.028 26.0568 151.932 25.858 152.216 25.517V27.0511C152.216 28.4148 151.136 29.75 149.148 29.75ZM157.751 31H159.427V26.3977H160.933L164.513 31H166.672L162.212 25.3466L166.615 20.0909H164.456L160.535 24.8352H159.427V20.0909H157.751V31ZM173.276 31.2273C175.691 31.2273 177.282 29.75 177.566 27.8182H175.89C175.577 29.0114 174.583 29.7216 173.276 29.7216C171.287 29.7216 170.009 28.0739 170.009 25.5455C170.009 23.0739 171.316 21.4545 173.276 21.4545C174.753 21.4545 175.634 22.3636 175.89 23.358H177.566C177.282 21.3125 175.549 19.9489 173.248 19.9489C170.293 19.9489 168.333 22.2784 168.333 25.6023C168.333 28.8693 170.208 31.2273 173.276 31.2273ZM185.248 31.2273C188.202 31.2273 190.191 28.983 190.191 25.6023C190.191 22.1932 188.202 19.9489 185.248 19.9489C182.293 19.9489 180.305 22.1932 180.305 25.6023C180.305 28.983 182.293 31.2273 185.248 31.2273ZM185.248 29.7216C183.004 29.7216 181.981 27.7898 181.981 25.6023C181.981 23.4148 183.004 21.4545 185.248 21.4545C187.492 21.4545 188.515 23.4148 188.515 25.6023C188.515 27.7898 187.492 29.7216 185.248 29.7216ZM197.982 34.7216H199.658V31.2273C202.612 31.2273 204.601 28.983 204.601 25.6023C204.601 22.1932 202.612 19.9489 199.658 19.9489V16.4545H197.982V19.9489C195.027 19.9489 193.038 22.1932 193.038 25.6023C193.038 28.983 195.027 31.2273 197.982 31.2273V34.7216ZM199.658 29.7216V21.4545C201.902 21.4545 202.925 23.4148 202.925 25.6023C202.925 27.7898 201.902 29.7216 199.658 29.7216ZM197.982 29.7216C195.737 29.7216 194.714 27.7898 194.714 25.6023C194.714 23.4148 195.737 21.4545 197.982 21.4545V29.7216ZM212.395 31.2273C215.349 31.2273 217.338 28.983 217.338 25.6023C217.338 22.1932 215.349 19.9489 212.395 19.9489C209.44 19.9489 207.452 22.1932 207.452 25.6023C207.452 28.983 209.44 31.2273 212.395 31.2273ZM212.395 29.7216C210.151 29.7216 209.128 27.7898 209.128 25.6023C209.128 23.4148 210.151 21.4545 212.395 21.4545C214.639 21.4545 215.662 23.4148 215.662 25.6023C215.662 27.7898 214.639 29.7216 212.395 29.7216ZM222.373 20.0909H220.697V31H222.373V26.3409H227.6V31H229.276V20.0909H227.6V24.7784H222.373V20.0909ZM234.813 20.0909H233.137V31H234.813V26.3409H240.041V31H241.717V20.0909H240.041V24.7784H234.813V20.0909ZM247.254 24.0398V20.0909H245.578V31H250.152C252.709 31 254.101 29.4375 254.101 27.4773C254.101 25.4886 252.709 24.0398 250.152 24.0398H247.254ZM255.834 31H257.51V20.0909H255.834V31ZM247.254 25.6023H250.152C251.48 25.6023 252.424 26.4119 252.424 27.5625C252.424 28.6634 251.48 29.4375 250.152 29.4375H247.254V25.6023ZM263.054 28.5284V20.0909H261.378V31H263.338L268.565 22.5625V31H270.241V20.0909H268.31L263.054 28.5284ZM267.202 16.4545C267.202 17.1932 266.804 17.8466 265.81 17.8466C264.815 17.8466 264.446 17.1932 264.446 16.4545H262.884C262.884 17.9886 264.02 19.0682 265.81 19.0682C267.628 19.0682 268.764 17.9886 268.764 16.4545H267.202ZM287.269 20.0909H280.536V31H282.213V21.6534H287.269V20.0909ZM294.524 31.2273C296.739 31.2273 298.359 30.1193 298.87 28.4716L297.251 28.017C296.825 29.1534 295.837 29.7216 294.524 29.7216C292.556 29.7216 291.2 28.4503 291.122 26.1136H299.041V25.4034C299.041 21.3409 296.626 19.9489 294.353 19.9489C291.399 19.9489 289.438 22.2784 289.438 25.6307C289.438 28.983 291.37 31.2273 294.524 31.2273ZM291.122 24.6648C291.235 22.9673 292.436 21.4545 294.353 21.4545C296.171 21.4545 297.336 22.8182 297.336 24.6648H291.122ZM302.39 35.0909H304.066V29.3239H304.209C304.578 29.9205 305.288 31.2273 307.39 31.2273C310.118 31.2273 312.021 29.0398 312.021 25.5739C312.021 22.1364 310.118 19.9489 307.362 19.9489C305.231 19.9489 304.578 21.2557 304.209 21.8239H304.01V20.0909H302.39V35.0909ZM304.038 25.5455C304.038 23.1023 305.118 21.4545 307.163 21.4545C309.294 21.4545 310.345 23.2443 310.345 25.5455C310.345 27.875 309.265 29.7216 307.163 29.7216C305.146 29.7216 304.038 28.017 304.038 25.5455ZM319.81 31.2273C322.764 31.2273 324.753 28.983 324.753 25.6023C324.753 22.1932 322.764 19.9489 319.81 19.9489C316.855 19.9489 314.866 22.1932 314.866 25.6023C314.866 28.983 316.855 31.2273 319.81 31.2273ZM319.81 29.7216C317.565 29.7216 316.543 27.7898 316.543 25.6023C316.543 23.4148 317.565 21.4545 319.81 21.4545C322.054 21.4545 323.077 23.4148 323.077 25.6023C323.077 27.7898 322.054 29.7216 319.81 29.7216ZM329.788 28.5284V20.0909H328.111V31H330.072L335.299 22.5625V31H336.975V20.0909H335.043L329.788 28.5284ZM333.935 16.4545C333.935 17.1932 333.538 17.8466 332.543 17.8466C331.549 17.8466 331.18 17.1932 331.18 16.4545H329.617C329.617 17.9886 330.753 19.0682 332.543 19.0682C334.361 19.0682 335.498 17.9886 335.498 16.4545H333.935Z" fill="#49BAF2"/>
<g clip-path="url(#clip1)" filter="url(#filter0_d)">
<path d="M73.4574 31.2598V16.8696L86.0574 9.66956L98.6574 16.8696V31.2598L86.0574 38.4598L73.4574 31.2598Z" fill="white"/>
<path d="M86.0574 8.06396L72.0574 16.064V32.064L86.0574 40.064L100.057 32.064V16.064L86.0574 8.06396ZM98.6574 31.2598L94.904 33.4052C94.5778 32.4953 93.896 31.0511 92.7242 30.4097C92.7018 30.265 92.6248 30.1301 92.496 30.0396L93.042 27.6911C93.112 27.3822 92.951 27.0678 92.6584 26.9412L89.5952 25.6361C89.3264 25.5221 89.0142 25.5986 88.8294 25.824L87.4728 27.4713C85.3448 26.4737 83.6312 24.7721 82.6274 22.656L84.285 21.3078C84.5118 21.1241 84.5888 20.8139 84.474 20.5467L83.1608 17.5026C83.0334 17.2132 82.7184 17.0546 82.409 17.1255L79.5656 17.7781C79.2674 17.8462 79.0574 18.1106 79.0574 18.4139C79.0574 25.3843 84.7428 31.0233 91.7456 31.0233C91.7764 31.0233 91.8072 31.0205 91.838 31.0149C91.9556 31.0887 92.0914 31.1123 92.2202 31.0942C93.2674 31.5881 93.889 33.0281 94.162 33.8309L86.0588 38.4612L73.4588 31.2612V16.8695L86.0588 9.66953L98.6588 16.8695V31.2598H98.6574Z" fill="#5565AF"/>
</g>
</g>
<defs>
<filter id="filter0_d" x="64" y="4" width="44" height="48" filterUnits="userSpaceOnUse" color-interpolation-filters="sRGB">
<feFlood flood-opacity="0" result="BackgroundImageFix"/>
<feColorMatrix in="SourceAlpha" type="matrix" values="0 0 0 0 0 0 0 0 0 0 0 0 0 0 0 0 0 0 127 0"/>
<feOffset dy="4"/>
<feGaussianBlur stdDeviation="4"/>
<feColorMatrix type="matrix" values="0 0 0 0 0.333333 0 0 0 0 0.396078 0 0 0 0 0.686275 0 0 0 0.15 0"/>
<feBlend mode="normal" in2="BackgroundImageFix" result="effect1_dropShadow"/>
<feBlend mode="normal" in="SourceGraphic" in2="effect1_dropShadow" result="shape"/>
</filter>
<clipPath id="clip0">
<rect width="536" height="48" fill="white"/>
</clipPath>
<clipPath id="clip1">
<rect width="28" height="32" fill="white" transform="translate(72 8)"/>
</clipPath>
</defs>
</svg>
