<svg width="536" height="100" viewBox="0 0 536 100" fill="none" xmlns="http://www.w3.org/2000/svg">
<g clip-path="url(#clip0)">
<rect width="536" height="100" fill="white"/>
<path d="M185.057 43.8125H190.494V59H193.119V43.8125H198.565V41.5455H185.057V43.8125ZM201.899 59L203.501 54.3807H210.319L211.913 59H214.709L208.427 41.5455H205.385L199.103 59H201.899ZM204.268 52.1648L206.842 44.7159H206.978L209.552 52.1648H204.268ZM228.527 59H231.74L224.539 49.4375L231.783 41.5455H228.519L221.726 48.9176H220.823V41.5455H218.189V59H220.823V51.1761H222.63L228.527 59ZM248.998 47.2216C248.401 43.4886 245.478 41.3068 241.788 41.3068C237.271 41.3068 233.938 44.6903 233.938 50.2727C233.938 55.8551 237.254 59.2386 241.788 59.2386C245.623 59.2386 248.427 56.8352 248.998 53.3835L246.339 53.375C245.887 55.608 244.012 56.8352 241.805 56.8352C238.813 56.8352 236.555 54.5426 236.555 50.2727C236.555 46.0369 238.805 43.7102 241.813 43.7102C244.038 43.7102 245.904 44.9631 246.339 47.2216H248.998ZM268.271 50.2727C268.271 44.6903 264.93 41.3068 260.413 41.3068C255.879 41.3068 252.547 44.6903 252.547 50.2727C252.547 55.8466 255.879 59.2386 260.413 59.2386C264.93 59.2386 268.271 55.8551 268.271 50.2727ZM265.663 50.2727C265.663 54.5256 263.413 56.8352 260.413 56.8352C257.405 56.8352 255.163 54.5256 255.163 50.2727C255.163 46.0199 257.405 43.7102 260.413 43.7102C263.413 43.7102 265.663 46.0199 265.663 50.2727ZM278.813 43.5568C274.833 43.5568 271.952 46.3778 271.952 50.554C271.952 54.6875 274.816 57.4574 278.813 57.4574H279.103V59.7159H281.685V57.4574H281.958C285.946 57.4574 288.81 54.6534 288.81 50.5284C288.81 46.3608 285.946 43.5568 281.958 43.5568H281.685V41.2386H279.103V43.5568H278.813ZM278.813 45.8324H279.103V55.1818H278.813C276.103 55.1818 274.5 53.4347 274.5 50.554C274.5 47.5966 276.086 45.8324 278.813 45.8324ZM281.685 45.8324H281.966C284.685 45.8324 286.253 47.6051 286.253 50.5284C286.253 53.4261 284.685 55.1818 281.966 55.1818H281.685V45.8324ZM308.207 50.2727C308.207 44.6903 304.866 41.3068 300.349 41.3068C295.815 41.3068 292.482 44.6903 292.482 50.2727C292.482 55.8466 295.815 59.2386 300.349 59.2386C304.866 59.2386 308.207 55.8551 308.207 50.2727ZM305.599 50.2727C305.599 54.5256 303.349 56.8352 300.349 56.8352C297.34 56.8352 295.099 54.5256 295.099 50.2727C295.099 46.0199 297.34 43.7102 300.349 43.7102C303.349 43.7102 305.599 46.0199 305.599 50.2727ZM312.45 59H315.084V51.3892H323.785V59H326.427V41.5455H323.785V49.1307H315.084V41.5455H312.45V59ZM331.223 59H333.856V51.3892H342.558V59H345.2V41.5455H342.558V49.1307H333.856V41.5455H331.223V59ZM352.654 48.5852V41.5455H350.012V59H356.549C360.435 59 362.66 56.8352 362.651 53.7074C362.66 50.5881 360.435 48.5852 356.549 48.5852H352.654ZM366.896 41.5455H364.262V59H366.896V41.5455ZM352.654 50.8011H356.549C358.808 50.8011 360.052 52.0966 360.052 53.6733C360.052 55.2926 358.808 56.7841 356.549 56.7841H352.654V50.8011ZM371.697 41.5455V59H374.118L382.99 46.1989H383.152V59H385.785V41.5455H383.348L374.467 54.3636H374.305V41.5455H371.697ZM380.416 37.1136C380.416 37.9744 379.939 38.733 378.746 38.733C377.535 38.733 377.084 37.9659 377.084 37.1136H374.996C374.996 39.0312 376.453 40.3523 378.746 40.3523C381.055 40.3523 382.513 39.0312 382.513 37.1136H380.416ZM408.782 41.5455H397.899V59H400.532V43.8125H408.782V41.5455ZM412.71 59H423.756V56.733H415.344V51.3892H423.082V49.1307H415.344V43.8125H423.653V41.5455H412.71V59ZM428.131 59H430.765V52.8636H434.344C438.392 52.8636 440.395 50.4176 440.395 47.196C440.395 43.983 438.409 41.5455 434.353 41.5455H428.131V59ZM430.765 50.6307V43.804H434.071C436.679 43.804 437.745 45.2188 437.745 47.196C437.745 49.1733 436.679 50.6307 434.105 50.6307H430.765ZM459.605 50.2727C459.605 44.6903 456.264 41.3068 451.747 41.3068C447.212 41.3068 443.88 44.6903 443.88 50.2727C443.88 55.8466 447.212 59.2386 451.747 59.2386C456.264 59.2386 459.605 55.8551 459.605 50.2727ZM456.997 50.2727C456.997 54.5256 454.747 56.8352 451.747 56.8352C448.738 56.8352 446.497 54.5256 446.497 50.2727C446.497 46.0199 448.738 43.7102 451.747 43.7102C454.747 43.7102 456.997 46.0199 456.997 50.2727ZM463.848 41.5455V59H466.268L475.141 46.1989H475.302V59H477.936V41.5455H475.498L466.618 54.3636H466.456V41.5455H463.848ZM472.567 37.1136C472.567 37.9744 472.089 38.733 470.896 38.733C469.686 38.733 469.234 37.9659 469.234 37.1136H467.146C467.146 39.0312 468.604 40.3523 470.896 40.3523C473.206 40.3523 474.663 39.0312 474.663 37.1136H472.567Z" fill="#49BAF2"/>
<rect x="164" y="30" width="4" height="40" fill="#49BAF2"/>
<g clip-path="url(#clip1)" filter="url(#filter0_d)">
<path d="M44.3722 71.7794V28.6087L82.1722 7.00867L119.972 28.6087V71.7794L82.1722 93.3794L44.3722 71.7794Z" fill="white"/>
<path d="M82.1722 2.19202L40.1722 26.192V74.192L82.1722 98.192L124.172 74.192V26.192L82.1722 2.19202ZM119.972 71.7795L108.712 78.2157C107.733 75.4859 105.688 71.1534 102.173 69.2292C102.105 68.7952 101.874 68.3903 101.488 68.119L103.126 61.0734C103.336 60.1468 102.853 59.2035 101.975 58.8237L92.7856 54.9085C91.9792 54.5663 91.0426 54.7958 90.4882 55.472L86.4184 60.4139C80.0344 57.4212 74.8936 52.3165 71.8822 45.968L76.855 41.9235C77.5354 41.3725 77.7664 40.4418 77.422 39.6404L73.4824 30.5078C73.1002 29.6397 72.1552 29.1638 71.227 29.3767L62.6968 31.3343C61.8022 31.5388 61.1722 32.3318 61.1722 33.2418C61.1722 54.1531 78.2284 71.0699 99.2368 71.0699C99.3292 71.0699 99.4216 71.0616 99.514 71.0449C99.8668 71.2661 100.274 71.3371 100.661 71.2828C103.802 72.7645 105.667 77.0845 106.486 79.4929L82.1764 93.3837L44.3764 71.7837V28.6087L82.1764 7.00871L119.976 28.6087V71.7795H119.972Z" fill="#5565AF"/>
</g>
</g>
<defs>
<filter id="filter0_d" x="32" y="-2" width="100" height="112" filterUnits="userSpaceOnUse" color-interpolation-filters="sRGB">
<feFlood flood-opacity="0" result="BackgroundImageFix"/>
<feColorMatrix in="SourceAlpha" type="matrix" values="0 0 0 0 0 0 0 0 0 0 0 0 0 0 0 0 0 0 127 0"/>
<feOffset dy="4"/>
<feGaussianBlur stdDeviation="4"/>
<feColorMatrix type="matrix" values="0 0 0 0 0.333333 0 0 0 0 0.396078 0 0 0 0 0.686275 0 0 0 0.15 0"/>
<feBlend mode="normal" in2="BackgroundImageFix" result="effect1_dropShadow"/>
<feBlend mode="normal" in="SourceGraphic" in2="effect1_dropShadow" result="shape"/>
</filter>
<clipPath id="clip0">
<rect width="536" height="100" fill="white"/>
</clipPath>
<clipPath id="clip1">
<rect width="84" height="96" fill="white" transform="translate(40 2)"/>
</clipPath>
</defs>
</svg>
