<svg width="202" height="280" viewBox="0 0 202 280" fill="none" xmlns="http://www.w3.org/2000/svg">
<rect width="202" height="280" fill="white"/>
<g filter="url(#filter0_d)">
<rect x="12" y="64" width="178" height="192" rx="8" fill="white"/>
<rect x="12.5" y="64.5" width="177" height="191" rx="7.5" stroke="#F5F5F5"/>
</g>
<path d="M35.0341 161.455H36.0568C36.0099 160.138 34.7954 159.153 33.1079 159.153C31.4375 159.153 30.125 160.125 30.125 161.591C30.125 162.767 30.9773 163.466 32.3409 163.858L33.4148 164.165C34.3352 164.42 35.1534 164.744 35.1534 165.614C35.1534 166.568 34.2329 167.199 33.0227 167.199C31.9829 167.199 31.0625 166.739 30.9773 165.75H29.8864C29.9886 167.182 31.1477 168.153 33.0227 168.153C35.0341 168.153 36.1761 167.045 36.1761 165.631C36.1761 163.994 34.625 163.466 33.7216 163.227L32.8352 162.989C32.1875 162.818 31.1477 162.477 31.1477 161.54C31.1477 160.705 31.9148 160.091 33.0739 160.091C34.1307 160.091 34.9318 160.594 35.0341 161.455ZM38.1537 168H43.4889V167.062H39.2105V164.097H43.148V163.159H39.2105V160.21H43.4207V159.273H38.1537V168ZM45.5656 168H46.6224V164.812H48.5315C50.5641 164.812 51.4803 163.577 51.4803 162.034C51.4803 160.491 50.5641 159.273 48.5144 159.273H45.5656V168ZM46.6224 163.875V160.21H48.4803C49.8994 160.21 50.4406 160.986 50.4406 162.034C50.4406 163.082 49.8994 163.875 48.4974 163.875H46.6224ZM59.7991 159.136C58.0264 159.119 56.8843 160.449 56.8843 162.068C56.8843 163.756 58.1287 164.966 59.6287 164.966C60.5321 164.966 61.2991 164.523 61.7764 163.807H61.8446C61.8446 165.955 61.0093 167.182 59.6628 167.182C58.7423 167.182 58.1798 166.602 57.9923 165.801H56.9525C57.1571 167.182 58.1968 168.119 59.6628 168.119C61.623 168.119 62.8332 166.381 62.8332 163.278C62.8332 160.057 61.2309 159.153 59.7991 159.136ZM59.7991 160.074C60.89 160.074 61.6912 161.011 61.6912 162.051C61.6912 163.091 60.8389 164.028 59.765 164.028C58.6912 164.028 57.9071 163.159 57.9071 162.068C57.9071 160.96 58.7253 160.074 59.7991 160.074ZM67.8087 159.136C66.0359 159.119 64.8939 160.449 64.8939 162.068C64.8939 163.756 66.1382 164.966 67.6382 164.966C68.5416 164.966 69.3087 164.523 69.7859 163.807H69.8541C69.8541 165.955 69.0189 167.182 67.6723 167.182C66.7518 167.182 66.1893 166.602 66.0018 165.801H64.9621C65.1666 167.182 66.2064 168.119 67.6723 168.119C69.6325 168.119 70.8427 166.381 70.8427 163.278C70.8427 160.057 69.2405 159.153 67.8087 159.136ZM67.8087 160.074C68.8996 160.074 69.7007 161.011 69.7007 162.051C69.7007 163.091 68.8484 164.028 67.7746 164.028C66.7007 164.028 65.9166 163.159 65.9166 162.068C65.9166 160.96 66.7348 160.074 67.8087 160.074Z" fill="#A9A9A9"/>
<path d="M99.5795 168.136C101.028 168.136 101.983 167.25 102.153 166.091H101.148C100.96 166.807 100.364 167.233 99.5795 167.233C98.3864 167.233 97.6193 166.244 97.6193 164.727C97.6193 163.244 98.4034 162.273 99.5795 162.273C100.466 162.273 100.994 162.818 101.148 163.415H102.153C101.983 162.188 100.943 161.369 99.5625 161.369C97.7898 161.369 96.6136 162.767 96.6136 164.761C96.6136 166.722 97.7386 168.136 99.5795 168.136ZM103.864 168H104.869V162.392H108.006V168H109.011V161.455H103.864V168ZM113.832 168.136C115.162 168.136 116.133 167.472 116.44 166.483L115.469 166.21C115.213 166.892 114.621 167.233 113.832 167.233C112.652 167.233 111.838 166.47 111.791 165.068H116.542V164.642C116.542 162.205 115.094 161.369 113.73 161.369C111.957 161.369 110.781 162.767 110.781 164.778C110.781 166.79 111.94 168.136 113.832 168.136ZM111.791 164.199C111.859 163.18 112.579 162.273 113.73 162.273C114.821 162.273 115.52 163.091 115.52 164.199H111.791ZM123.46 161.455H122.454V167.062H119.318V161.455H118.312V168H123.46V170.114H124.466V167.062H123.46V161.455ZM127.175 166.517V161.455H126.17V168H127.346L130.482 162.938V168H131.488V161.455H130.329L127.175 166.517ZM135.496 168.153C136.638 168.153 137.234 167.54 137.439 167.114H137.49V168H138.496V163.688C138.496 161.608 136.911 161.369 136.075 161.369C135.087 161.369 133.962 161.71 133.45 162.903L134.405 163.244C134.626 162.767 135.151 162.256 136.109 162.256C137.034 162.256 137.49 162.746 137.49 163.585V163.619C137.49 164.105 136.996 164.062 135.803 164.216C134.588 164.374 133.263 164.642 133.263 166.142C133.263 167.42 134.251 168.153 135.496 168.153ZM135.649 167.25C134.848 167.25 134.269 166.892 134.269 166.193C134.269 165.426 134.967 165.188 135.751 165.085C136.178 165.034 137.32 164.915 137.49 164.71V165.631C137.49 166.449 136.842 167.25 135.649 167.25ZM139.992 168H140.333C141.782 168 142.199 166.875 142.293 164.727L142.395 162.392H144.799V168H145.804V161.455H141.441L141.321 164.352C141.236 166.551 141.015 167.062 140.23 167.062H139.992V168ZM148.895 166.517V161.455H147.89V168H149.066L152.202 162.938V168H153.208V161.455H152.049L148.895 166.517ZM157.949 168.136C159.398 168.136 160.352 167.25 160.523 166.091H159.517C159.329 166.807 158.733 167.233 157.949 167.233C156.756 167.233 155.989 166.244 155.989 164.727C155.989 163.244 156.773 162.273 157.949 162.273C158.835 162.273 159.364 162.818 159.517 163.415H160.523C160.352 162.188 159.312 161.369 157.932 161.369C156.159 161.369 154.983 162.767 154.983 164.761C154.983 166.722 156.108 168.136 157.949 168.136ZM161.717 162.392H163.882V168H164.888V162.392H167.035V161.455H161.717V162.392Z" fill="#A9A9A9"/>
<path d="M27.1388 144L28.0167 141.528H31.5451L32.4229 144H33.5309L30.3263 135.273H29.2354L26.0309 144H27.1388ZM28.3491 140.591L29.7468 136.653H29.815L31.2127 140.591H28.3491ZM40.8575 135.273V141.051C40.8575 142.415 39.7666 143.165 38.5223 143.165C37.278 143.165 36.1871 142.415 36.1871 141.051V135.273H35.1303V141.051C35.1303 143.011 36.6814 144.153 38.5223 144.153C40.3632 144.153 41.9143 143.011 41.9143 141.051V135.273H40.8575ZM50.2307 138H51.3216C50.9977 136.312 49.583 135.153 47.7421 135.153C45.5048 135.153 43.9239 136.875 43.9239 139.636C43.9239 142.398 45.4921 144.119 47.8102 144.119C49.8898 144.119 51.3727 142.734 51.3727 140.574V139.636H48.0489V140.574H50.35C50.3202 142.142 49.2889 143.131 47.8102 143.131C46.1909 143.131 44.9466 141.903 44.9466 139.636C44.9466 137.369 46.1909 136.142 47.7421 136.142C49.0034 136.142 49.86 136.854 50.2307 138ZM59.7991 135.136C58.0264 135.119 56.8843 136.449 56.8843 138.068C56.8843 139.756 58.1287 140.966 59.6287 140.966C60.5321 140.966 61.2991 140.523 61.7764 139.807H61.8446C61.8446 141.955 61.0093 143.182 59.6628 143.182C58.7423 143.182 58.1798 142.602 57.9923 141.801H56.9525C57.1571 143.182 58.1968 144.119 59.6628 144.119C61.623 144.119 62.8332 142.381 62.8332 139.278C62.8332 136.057 61.2309 135.153 59.7991 135.136ZM59.7991 136.074C60.89 136.074 61.6912 137.011 61.6912 138.051C61.6912 139.091 60.8389 140.028 59.765 140.028C58.6912 140.028 57.9071 139.159 57.9071 138.068C57.9071 136.96 58.7253 136.074 59.7991 136.074ZM67.8087 135.136C66.0359 135.119 64.8939 136.449 64.8939 138.068C64.8939 139.756 66.1382 140.966 67.6382 140.966C68.5416 140.966 69.3087 140.523 69.7859 139.807H69.8541C69.8541 141.955 69.0189 143.182 67.6723 143.182C66.7518 143.182 66.1893 142.602 66.0018 141.801H64.9621C65.1666 143.182 66.2064 144.119 67.6723 144.119C69.6325 144.119 70.8427 142.381 70.8427 139.278C70.8427 136.057 69.2405 135.153 67.8087 135.136ZM67.8087 136.074C68.8996 136.074 69.7007 137.011 69.7007 138.051C69.7007 139.091 68.8484 140.028 67.7746 140.028C66.7007 140.028 65.9166 139.159 65.9166 138.068C65.9166 136.96 66.7348 136.074 67.8087 136.074Z" fill="#A9A9A9"/>
<path d="M98.8466 216.153C99.9886 216.153 100.585 215.54 100.79 215.114H100.841V216H101.847V211.688C101.847 209.608 100.261 209.369 99.4261 209.369C98.4375 209.369 97.3125 209.71 96.8011 210.903L97.7557 211.244C97.9773 210.767 98.5014 210.256 99.4602 210.256C100.385 210.256 100.841 210.746 100.841 211.585V211.619C100.841 212.105 100.347 212.062 99.1534 212.216C97.9389 212.374 96.6136 212.642 96.6136 214.142C96.6136 215.42 97.6023 216.153 98.8466 216.153ZM99 215.25C98.1989 215.25 97.6193 214.892 97.6193 214.193C97.6193 213.426 98.3182 213.188 99.1023 213.085C99.5284 213.034 100.67 212.915 100.841 212.71V213.631C100.841 214.449 100.193 215.25 99 215.25ZM103.922 218.455H104.928V214.994H105.013C105.235 215.352 105.661 216.136 106.922 216.136C108.559 216.136 109.701 214.824 109.701 212.744C109.701 210.682 108.559 209.369 106.905 209.369C105.627 209.369 105.235 210.153 105.013 210.494H104.894V209.455H103.922V218.455ZM104.911 212.727C104.911 211.261 105.559 210.273 106.786 210.273C108.064 210.273 108.695 211.347 108.695 212.727C108.695 214.125 108.047 215.233 106.786 215.233C105.576 215.233 104.911 214.21 104.911 212.727ZM111.955 209.455H110.796L112.876 212.727L110.796 216H111.955L113.523 213.46L115.092 216H116.251L114.137 212.727L116.251 209.455H115.092L113.523 212.131L111.955 209.455ZM118.931 214.517V209.455H117.926V216H119.102L122.238 210.938V216H123.244V209.455H122.085L118.931 214.517ZM124.435 210.392H126.6V216H127.606V210.392H129.753V209.455H124.435V210.392ZM133.865 216.136C135.194 216.136 136.166 215.472 136.473 214.483L135.501 214.21C135.245 214.892 134.653 215.233 133.865 215.233C132.684 215.233 131.87 214.47 131.824 213.068H136.575V212.642C136.575 210.205 135.126 209.369 133.763 209.369C131.99 209.369 130.814 210.767 130.814 212.778C130.814 214.79 131.973 216.136 133.865 216.136ZM131.824 212.199C131.892 211.18 132.612 210.273 133.763 210.273C134.853 210.273 135.552 211.091 135.552 212.199H131.824ZM138.345 216H139.351V213.239H140.254L142.402 216H143.697L141.021 212.608L143.663 209.455H142.368L140.015 212.301H139.351V209.455H138.345V216ZM144.655 210.392H146.82V216H147.826V210.392H149.973V209.455H144.655V210.392ZM154 216.136C155.772 216.136 156.965 214.79 156.965 212.761C156.965 210.716 155.772 209.369 154 209.369C152.227 209.369 151.034 210.716 151.034 212.761C151.034 214.79 152.227 216.136 154 216.136ZM154 215.233C152.653 215.233 152.039 214.074 152.039 212.761C152.039 211.449 152.653 210.273 154 210.273C155.346 210.273 155.96 211.449 155.96 212.761C155.96 214.074 155.346 215.233 154 215.233ZM158.741 218.455H159.746V214.994H159.832C160.053 215.352 160.479 216.136 161.741 216.136C163.377 216.136 164.519 214.824 164.519 212.744C164.519 210.682 163.377 209.369 161.724 209.369C160.445 209.369 160.053 210.153 159.832 210.494H159.712V209.455H158.741V218.455ZM159.729 212.727C159.729 211.261 160.377 210.273 161.604 210.273C162.883 210.273 163.513 211.347 163.513 212.727C163.513 214.125 162.866 215.233 161.604 215.233C160.394 215.233 159.729 214.21 159.729 212.727Z" fill="#A9A9A9"/>
<path d="M33.8835 111.273V117.511C33.8835 118.598 33.3636 119.182 32.4517 119.182C31.6207 119.182 31.0199 118.696 31.0199 117.955H29.9801C29.9801 119.297 31.0199 120.119 32.4517 120.119C33.9687 120.119 34.9403 119.186 34.9403 117.511V111.273H33.8835ZM43.0255 111.273V117.051C43.0255 118.415 41.9346 119.165 40.6903 119.165C39.446 119.165 38.355 118.415 38.355 117.051V111.273H37.2982V117.051C37.2982 119.011 38.8494 120.153 40.6903 120.153C42.5312 120.153 44.0823 119.011 44.0823 117.051V111.273H43.0255ZM46.4328 120H51.5464V119.062H47.4896V111.273H46.4328V120ZM59.7991 111.136C58.0264 111.119 56.8843 112.449 56.8843 114.068C56.8843 115.756 58.1287 116.966 59.6287 116.966C60.5321 116.966 61.2991 116.523 61.7764 115.807H61.8446C61.8446 117.955 61.0093 119.182 59.6628 119.182C58.7423 119.182 58.1798 118.602 57.9923 117.801H56.9525C57.1571 119.182 58.1968 120.119 59.6628 120.119C61.623 120.119 62.8332 118.381 62.8332 115.278C62.8332 112.057 61.2309 111.153 59.7991 111.136ZM59.7991 112.074C60.89 112.074 61.6912 113.011 61.6912 114.051C61.6912 115.091 60.8389 116.028 59.765 116.028C58.6912 116.028 57.9071 115.159 57.9071 114.068C57.9071 112.96 58.7253 112.074 59.7991 112.074ZM67.8087 111.136C66.0359 111.119 64.8939 112.449 64.8939 114.068C64.8939 115.756 66.1382 116.966 67.6382 116.966C68.5416 116.966 69.3087 116.523 69.7859 115.807H69.8541C69.8541 117.955 69.0189 119.182 67.6723 119.182C66.7518 119.182 66.1893 118.602 66.0018 117.801H64.9621C65.1666 119.182 66.2064 120.119 67.6723 120.119C69.6325 120.119 70.8427 118.381 70.8427 115.278C70.8427 112.057 69.2405 111.153 67.8087 111.136ZM67.8087 112.074C68.8996 112.074 69.7007 113.011 69.7007 114.051C69.7007 115.091 68.8484 116.028 67.7746 116.028C66.7007 116.028 65.9166 115.159 65.9166 114.068C65.9166 112.96 66.7348 112.074 67.8087 112.074Z" fill="#A9A9A9"/>
<path d="M97.9261 118.517V113.455H96.9205V120H98.0966L101.233 114.938V120H102.239V113.455H101.08L97.9261 118.517ZM105.326 113.455H104.321V120H105.326V117.205H108.463V120H109.468V113.455H108.463V116.267H105.326V113.455ZM111.136 120H112.346L114.579 117.188H115.09V120H116.096V117.188H116.607L118.823 120H120.034L117.392 116.676L120 113.455H118.806L116.625 116.25H116.096V113.455H115.09V116.25H114.545L112.363 113.455H111.17L113.795 116.676L111.136 120ZM124.186 120.136C125.515 120.136 126.487 119.472 126.794 118.483L125.822 118.21C125.566 118.892 124.974 119.233 124.186 119.233C123.005 119.233 122.191 118.47 122.144 117.068H126.896V116.642C126.896 114.205 125.447 113.369 124.083 113.369C122.311 113.369 121.134 114.767 121.134 116.778C121.134 118.79 122.294 120.136 124.186 120.136ZM122.144 116.199C122.213 115.18 122.933 114.273 124.083 114.273C125.174 114.273 125.873 115.091 125.873 116.199H122.144ZM129.671 113.455H128.666V120H129.671V117.205H132.808V120H133.813V113.455H132.808V116.267H129.671V113.455ZM138.634 120.136C139.964 120.136 140.935 119.472 141.242 118.483L140.271 118.21C140.015 118.892 139.423 119.233 138.634 119.233C137.454 119.233 136.64 118.47 136.593 117.068H141.345V116.642C141.345 114.205 139.896 113.369 138.532 113.369C136.759 113.369 135.583 114.767 135.583 116.778C135.583 118.79 136.742 120.136 138.634 120.136ZM136.593 116.199C136.661 115.18 137.381 114.273 138.532 114.273C139.623 114.273 140.322 115.091 140.322 116.199H136.593ZM143.114 122.455H144.12V118.994H144.205C144.427 119.352 144.853 120.136 146.114 120.136C147.751 120.136 148.893 118.824 148.893 116.744C148.893 114.682 147.751 113.369 146.097 113.369C144.819 113.369 144.427 114.153 144.205 114.494H144.086V113.455H143.114V122.455ZM144.103 116.727C144.103 115.261 144.751 114.273 145.978 114.273C147.256 114.273 147.887 115.347 147.887 116.727C147.887 118.125 147.239 119.233 145.978 119.233C144.768 119.233 144.103 118.21 144.103 116.727Z" fill="#A9A9A9"/>
<path d="M31.0132 79.2727H29.9564V88H31.0132V79.2727ZM37.0254 88C39.6845 88 41.1845 86.3466 41.1845 83.6193C41.1845 80.9091 39.6845 79.2727 37.1447 79.2727H34.3322V88H37.0254ZM35.389 87.0625V80.2102H37.0765C39.122 80.2102 40.1618 81.5057 40.1618 83.6193C40.1618 85.75 39.122 87.0625 36.9572 87.0625H35.389Z" fill="#49BAF2"/>
<path d="M104.42 83.6364C104.42 80.875 102.801 79.1534 100.568 79.1534C98.3352 79.1534 96.7159 80.875 96.7159 83.6364C96.7159 86.3977 98.3352 88.1193 100.568 88.1193C102.801 88.1193 104.42 86.3977 104.42 83.6364ZM103.398 83.6364C103.398 85.9034 102.153 87.1307 100.568 87.1307C98.983 87.1307 97.7386 85.9034 97.7386 83.6364C97.7386 81.3693 98.983 80.142 100.568 80.142C102.153 80.142 103.398 81.3693 103.398 83.6364ZM113.46 82C113.136 80.2102 111.704 79.1534 109.949 79.1534C107.716 79.1534 106.097 80.875 106.097 83.6364C106.097 86.3977 107.716 88.1193 109.949 88.1193C111.704 88.1193 113.136 87.0625 113.46 85.2727H112.403C112.148 86.483 111.108 87.1307 109.949 87.1307C108.364 87.1307 107.119 85.9034 107.119 83.6364C107.119 81.3693 108.364 80.142 109.949 80.142C111.108 80.142 112.148 80.7898 112.403 82H113.46ZM122.431 82C122.107 80.2102 120.675 79.1534 118.919 79.1534C116.686 79.1534 115.067 80.875 115.067 83.6364C115.067 86.3977 116.686 88.1193 118.919 88.1193C120.675 88.1193 122.107 87.0625 122.431 85.2727H121.374C121.118 86.483 120.078 87.1307 118.919 87.1307C117.334 87.1307 116.09 85.9034 116.09 83.6364C116.09 81.3693 117.334 80.142 118.919 80.142C120.078 80.142 121.118 80.7898 121.374 82H122.431ZM130.106 79.2727V85.0511C130.106 86.4148 129.015 87.1648 127.77 87.1648C126.526 87.1648 125.435 86.4148 125.435 85.0511V79.2727H124.378V85.0511C124.378 87.0114 125.93 88.1534 127.77 88.1534C129.611 88.1534 131.162 87.0114 131.162 85.0511V79.2727H130.106ZM133.513 88H134.57V84.8125H136.479C138.511 84.8125 139.428 83.5767 139.428 82.0341C139.428 80.4915 138.511 79.2727 136.462 79.2727H133.513V88ZM134.57 83.875V80.2102H136.428C137.847 80.2102 138.388 80.9858 138.388 82.0341C138.388 83.0824 137.847 83.875 136.445 83.875H134.57ZM140.837 88L141.715 85.5284H145.244L146.122 88H147.229L144.025 79.2727H142.934L139.729 88H140.837ZM142.048 84.5909L143.445 80.6534H143.514L144.911 84.5909H142.048ZM147.332 80.2102H150.076V88H151.133V80.2102H153.877V79.2727H147.332V80.2102ZM156.805 79.2727H155.749V88H156.805V79.2727ZM166.528 83.6364C166.528 80.875 164.909 79.1534 162.676 79.1534C160.443 79.1534 158.823 80.875 158.823 83.6364C158.823 86.3977 160.443 88.1193 162.676 88.1193C164.909 88.1193 166.528 86.3977 166.528 83.6364ZM165.505 83.6364C165.505 85.9034 164.261 87.1307 162.676 87.1307C161.09 87.1307 159.846 85.9034 159.846 83.6364C159.846 81.3693 161.09 80.142 162.676 80.142C164.261 80.142 165.505 81.3693 165.505 83.6364ZM175.465 79.2727H174.426V86.142H174.34L169.568 79.2727H168.545V88H169.602V81.1477H169.687L174.443 88H175.465V79.2727Z" fill="#49BAF2"/>
<path d="M73.9261 36.0625C73.9261 34.9205 74.6548 34.2727 75.6477 34.2727C76.5938 34.2727 77.1648 34.8693 77.1648 35.9091V40H78.1705V35.8409C78.1705 34.1577 77.2756 33.3693 75.9375 33.3693C74.9062 33.3693 74.3182 33.7997 74.0114 34.4773H73.9261V31.2727H72.9205V40H73.9261V36.0625ZM82.9946 40.1364C84.3242 40.1364 85.2958 39.4716 85.6026 38.483L84.631 38.2102C84.3753 38.892 83.783 39.233 82.9946 39.233C81.8142 39.233 81.0003 38.4702 80.9534 37.0682H85.7048V36.642C85.7048 34.2045 84.256 33.3693 82.8923 33.3693C81.1196 33.3693 79.9435 34.767 79.9435 36.7784C79.9435 38.7898 81.1026 40.1364 82.9946 40.1364ZM80.9534 36.1989C81.0216 35.1804 81.7418 34.2727 82.8923 34.2727C83.9833 34.2727 84.6821 35.0909 84.6821 36.1989H80.9534ZM87.4747 40H88.4804V35.858C88.4804 34.9716 89.1792 34.3239 90.1338 34.3239C90.4022 34.3239 90.6792 34.375 90.7474 34.392V33.3693C90.6323 33.3608 90.3681 33.3523 90.219 33.3523C89.4349 33.3523 88.7531 33.7955 88.5144 34.4432H88.4463V33.4545H87.4747V40ZM94.6394 40.1364C96.4121 40.1364 97.6053 38.7898 97.6053 36.7614C97.6053 34.7159 96.4121 33.3693 94.6394 33.3693C92.8667 33.3693 91.6735 34.7159 91.6735 36.7614C91.6735 38.7898 92.8667 40.1364 94.6394 40.1364ZM94.6394 39.233C93.2928 39.233 92.6792 38.0739 92.6792 36.7614C92.6792 35.4489 93.2928 34.2727 94.6394 34.2727C95.986 34.2727 96.5996 35.4489 96.5996 36.7614C96.5996 38.0739 95.986 39.233 94.6394 39.233ZM102.04 40.1364C103.488 40.1364 104.443 39.25 104.613 38.0909H103.608C103.42 38.8068 102.824 39.233 102.04 39.233C100.846 39.233 100.079 38.2443 100.079 36.7273C100.079 35.2443 100.863 34.2727 102.04 34.2727C102.926 34.2727 103.454 34.8182 103.608 35.4148H104.613C104.443 34.1875 103.403 33.3693 102.022 33.3693C100.25 33.3693 99.0736 34.767 99.0736 36.7614C99.0736 38.7216 100.199 40.1364 102.04 40.1364ZM108.25 40.1534C109.392 40.1534 109.988 39.5398 110.193 39.1136H110.244V40H111.25V35.6875C111.25 33.608 109.664 33.3693 108.829 33.3693C107.841 33.3693 106.716 33.7102 106.204 34.9034L107.159 35.2443C107.38 34.767 107.905 34.2557 108.863 34.2557C109.788 34.2557 110.244 34.7457 110.244 35.5852V35.6193C110.244 36.1051 109.75 36.0625 108.557 36.2159C107.342 36.3736 106.017 36.642 106.017 38.142C106.017 39.4205 107.005 40.1534 108.25 40.1534ZM108.403 39.25C107.602 39.25 107.022 38.892 107.022 38.1932C107.022 37.4261 107.721 37.1875 108.505 37.0852C108.932 37.0341 110.074 36.9148 110.244 36.7102V37.6307C110.244 38.4489 109.596 39.25 108.403 39.25ZM116.172 33.4545H114.774V31.8864H113.768V33.4545H112.78V34.3068H113.768V38.3977C113.768 39.5398 114.689 40.0852 115.541 40.0852C115.916 40.0852 116.155 40.017 116.291 39.9659L116.087 39.0625C116.001 39.0795 115.865 39.1136 115.643 39.1136C115.2 39.1136 114.774 38.9773 114.774 38.125V34.3068H116.172V33.4545ZM120.599 40.1364C121.928 40.1364 122.9 39.4716 123.207 38.483L122.235 38.2102C121.979 38.892 121.387 39.233 120.599 39.233C119.418 39.233 118.604 38.4702 118.557 37.0682H123.309V36.642C123.309 34.2045 121.86 33.3693 120.496 33.3693C118.724 33.3693 117.548 34.767 117.548 36.7784C117.548 38.7898 118.707 40.1364 120.599 40.1364ZM118.557 36.1989C118.626 35.1804 119.346 34.2727 120.496 34.2727C121.587 34.2727 122.286 35.0909 122.286 36.1989H118.557ZM127.721 42.5909C129.289 42.5909 130.55 41.875 130.55 40.1875V33.4545H129.579V34.4943H129.476C129.255 34.1534 128.846 33.3693 127.567 33.3693C125.914 33.3693 124.772 34.6818 124.772 36.6932C124.772 38.7386 125.965 39.8977 127.55 39.8977C128.829 39.8977 129.238 39.1477 129.459 38.7898H129.545V40.1193C129.545 41.2102 128.778 41.7045 127.721 41.7045C126.532 41.7045 126.114 41.0781 125.846 40.7159L125.045 41.2784C125.454 41.9645 126.259 42.5909 127.721 42.5909ZM127.687 38.9943C126.425 38.9943 125.778 38.0398 125.778 36.6761C125.778 35.3466 126.408 34.2727 127.687 34.2727C128.914 34.2727 129.562 35.2614 129.562 36.6761C129.562 38.125 128.897 38.9943 127.687 38.9943ZM135.29 40.1364C137.063 40.1364 138.256 38.7898 138.256 36.7614C138.256 34.7159 137.063 33.3693 135.29 33.3693C133.518 33.3693 132.324 34.7159 132.324 36.7614C132.324 38.7898 133.518 40.1364 135.29 40.1364ZM135.29 39.233C133.944 39.233 133.33 38.0739 133.33 36.7614C133.33 35.4489 133.944 34.2727 135.29 34.2727C136.637 34.2727 137.251 35.4489 137.251 36.7614C137.251 38.0739 136.637 39.233 135.29 39.233ZM140.031 40H141.037V35.858C141.037 34.9716 141.736 34.3239 142.69 34.3239C142.959 34.3239 143.236 34.375 143.304 34.392V33.3693C143.189 33.3608 142.925 33.3523 142.776 33.3523C141.992 33.3523 141.31 33.7955 141.071 34.4432H141.003V33.4545H140.031V40ZM145.583 42.4375C146.491 42.4375 147.134 41.956 147.509 40.9545L150.296 33.4716L149.197 33.4545L147.39 38.6705H147.322L145.515 33.4545H144.424L146.845 40.0341L146.657 40.5455C146.299 41.5256 145.839 41.6193 145.106 41.4318L144.85 42.3182C144.952 42.3693 145.242 42.4375 145.583 42.4375Z" fill="#49BAF2"/>
<path d="M34.4961 187.636C34.4961 184.875 32.8768 183.153 30.6438 183.153C28.4109 183.153 26.7915 184.875 26.7915 187.636C26.7915 190.398 28.4109 192.119 30.6438 192.119C32.8768 192.119 34.4961 190.398 34.4961 187.636ZM33.4734 187.636C33.4734 189.903 32.229 191.131 30.6438 191.131C29.0586 191.131 27.8143 189.903 27.8143 187.636C27.8143 185.369 29.0586 184.142 30.6438 184.142C32.229 184.142 33.4734 185.369 33.4734 187.636ZM43.5358 186C43.2119 184.21 41.7801 183.153 40.0244 183.153C37.7915 183.153 36.1722 184.875 36.1722 187.636C36.1722 190.398 37.7915 192.119 40.0244 192.119C41.7801 192.119 43.2119 191.062 43.5358 189.273H42.479C42.2233 190.483 41.1835 191.131 40.0244 191.131C38.4392 191.131 37.1949 189.903 37.1949 187.636C37.1949 185.369 38.4392 184.142 40.0244 184.142C41.1835 184.142 42.2233 184.79 42.479 186H43.5358ZM45.0063 184.21H47.7506V192H48.8074V184.21H51.5517V183.273H45.0063V184.21ZM59.7991 183.136C58.0264 183.119 56.8843 184.449 56.8843 186.068C56.8843 187.756 58.1287 188.966 59.6287 188.966C60.5321 188.966 61.2991 188.523 61.7764 187.807H61.8446C61.8446 189.955 61.0093 191.182 59.6628 191.182C58.7423 191.182 58.1798 190.602 57.9923 189.801H56.9525C57.1571 191.182 58.1968 192.119 59.6628 192.119C61.623 192.119 62.8332 190.381 62.8332 187.278C62.8332 184.057 61.2309 183.153 59.7991 183.136ZM59.7991 184.074C60.89 184.074 61.6912 185.011 61.6912 186.051C61.6912 187.091 60.8389 188.028 59.765 188.028C58.6912 188.028 57.9071 187.159 57.9071 186.068C57.9071 184.96 58.7253 184.074 59.7991 184.074ZM67.8087 183.136C66.0359 183.119 64.8939 184.449 64.8939 186.068C64.8939 187.756 66.1382 188.966 67.6382 188.966C68.5416 188.966 69.3087 188.523 69.7859 187.807H69.8541C69.8541 189.955 69.0189 191.182 67.6723 191.182C66.7518 191.182 66.1893 190.602 66.0018 189.801H64.9621C65.1666 191.182 66.2064 192.119 67.6723 192.119C69.6325 192.119 70.8427 190.381 70.8427 187.278C70.8427 184.057 69.2405 183.153 67.8087 183.136ZM67.8087 184.074C68.8996 184.074 69.7007 185.011 69.7007 186.051C69.7007 187.091 68.8484 188.028 67.7746 188.028C66.7007 188.028 65.9166 187.159 65.9166 186.068C65.9166 184.96 66.7348 184.074 67.8087 184.074Z" fill="#A9A9A9"/>
<path d="M99.5795 192.136C101.028 192.136 101.983 191.25 102.153 190.091H101.148C100.96 190.807 100.364 191.233 99.5795 191.233C98.3864 191.233 97.6193 190.244 97.6193 188.727C97.6193 187.244 98.4034 186.273 99.5795 186.273C100.466 186.273 100.994 186.818 101.148 187.415H102.153C101.983 186.188 100.943 185.369 99.5625 185.369C97.7898 185.369 96.6136 186.767 96.6136 188.761C96.6136 190.722 97.7386 192.136 99.5795 192.136ZM106.608 192.136C107.937 192.136 108.909 191.472 109.216 190.483L108.244 190.21C107.989 190.892 107.396 191.233 106.608 191.233C105.427 191.233 104.614 190.47 104.567 189.068H109.318V188.642C109.318 186.205 107.869 185.369 106.506 185.369C104.733 185.369 103.557 186.767 103.557 188.778C103.557 190.79 104.716 192.136 106.608 192.136ZM104.567 188.199C104.635 187.18 105.355 186.273 106.506 186.273C107.597 186.273 108.295 187.091 108.295 188.199H104.567ZM110.479 186.392H112.643V192H113.649V186.392H115.797V185.455H110.479V186.392ZM119.908 192.136C121.238 192.136 122.209 191.472 122.516 190.483L121.545 190.21C121.289 190.892 120.697 191.233 119.908 191.233C118.728 191.233 117.914 190.47 117.867 189.068H122.618V188.642C122.618 186.205 121.17 185.369 119.806 185.369C118.033 185.369 116.857 186.767 116.857 188.778C116.857 190.79 118.016 192.136 119.908 192.136ZM117.867 188.199C117.935 187.18 118.655 186.273 119.806 186.273C120.897 186.273 121.596 187.091 121.596 188.199H117.867ZM124.388 192H127.473C128.803 192 129.604 191.25 129.604 190.244C129.604 189.217 128.824 188.663 128.104 188.557C128.841 188.403 129.366 187.99 129.366 187.193C129.366 186.149 128.471 185.455 127.064 185.455H124.388V192ZM125.343 191.08V189.068H127.473C128.164 189.068 128.581 189.482 128.581 190.159C128.581 190.73 128.164 191.08 127.473 191.08H125.343ZM125.343 188.199V186.375H127.064C127.87 186.375 128.36 186.712 128.36 187.261C128.36 187.845 127.87 188.199 127.064 188.199H125.343ZM132.372 190.517V185.455H131.367V192H132.543L135.679 186.938V192H136.685V185.455H135.526L132.372 190.517ZM138.767 192H139.772V189.239H140.676L142.824 192H144.119L141.443 188.608L144.085 185.455H142.789L140.437 188.301H139.772V185.455H138.767V192Z" fill="#A9A9A9"/>
<path d="M33.7482 207.273H32.7084V214.142H32.6232L27.8505 207.273H26.8278V216H27.8846V209.148H27.9698L32.7255 216H33.7482V207.273ZM43.4665 211.636C43.4665 208.875 41.8472 207.153 39.6143 207.153C37.3813 207.153 35.762 208.875 35.762 211.636C35.762 214.398 37.3813 216.119 39.6143 216.119C41.8472 216.119 43.4665 214.398 43.4665 211.636ZM42.4438 211.636C42.4438 213.903 41.1995 215.131 39.6143 215.131C38.029 215.131 36.7847 213.903 36.7847 211.636C36.7847 209.369 38.029 208.142 39.6143 208.142C41.1995 208.142 42.4438 209.369 42.4438 211.636ZM45.4313 207.273H44.3234L47.5279 216H48.6188L51.8234 207.273H50.7154L48.1245 214.619H48.0222L45.4313 207.273ZM59.7991 207.136C58.0264 207.119 56.8843 208.449 56.8843 210.068C56.8843 211.756 58.1287 212.966 59.6287 212.966C60.5321 212.966 61.2991 212.523 61.7764 211.807H61.8446C61.8446 213.955 61.0093 215.182 59.6628 215.182C58.7423 215.182 58.1798 214.602 57.9923 213.801H56.9525C57.1571 215.182 58.1968 216.119 59.6628 216.119C61.623 216.119 62.8332 214.381 62.8332 211.278C62.8332 208.057 61.2309 207.153 59.7991 207.136ZM59.7991 208.074C60.89 208.074 61.6912 209.011 61.6912 210.051C61.6912 211.091 60.8389 212.028 59.765 212.028C58.6912 212.028 57.9071 211.159 57.9071 210.068C57.9071 208.96 58.7253 208.074 59.7991 208.074ZM67.8087 207.136C66.0359 207.119 64.8939 208.449 64.8939 210.068C64.8939 211.756 66.1382 212.966 67.6382 212.966C68.5416 212.966 69.3087 212.523 69.7859 211.807H69.8541C69.8541 213.955 69.0189 215.182 67.6723 215.182C66.7518 215.182 66.1893 214.602 66.0018 213.801H64.9621C65.1666 215.182 66.2064 216.119 67.6723 216.119C69.6325 216.119 70.8427 214.381 70.8427 211.278C70.8427 208.057 69.2405 207.153 67.8087 207.136ZM67.8087 208.074C68.8996 208.074 69.7007 209.011 69.7007 210.051C69.7007 211.091 68.8484 212.028 67.7746 212.028C66.7007 212.028 65.9166 211.159 65.9166 210.068C65.9166 208.96 66.7348 208.074 67.8087 208.074Z" fill="#A9A9A9"/>
<path d="M100.5 142.636L98.25 137.455H96.9205V144H97.9261V138.899L100.091 144H100.909L103.074 138.993V144H104.08V137.455H102.784L100.5 142.636ZM108.82 144.136C110.592 144.136 111.785 142.79 111.785 140.761C111.785 138.716 110.592 137.369 108.82 137.369C107.047 137.369 105.854 138.716 105.854 140.761C105.854 142.79 107.047 144.136 108.82 144.136ZM108.82 143.233C107.473 143.233 106.859 142.074 106.859 140.761C106.859 139.449 107.473 138.273 108.82 138.273C110.166 138.273 110.78 139.449 110.78 140.761C110.78 142.074 110.166 143.233 108.82 143.233ZM114.566 137.455H113.561V144H114.566V141.205H117.703V144H118.708V137.455H117.703V140.267H114.566V137.455ZM119.894 138.392H122.059V144H123.065V138.392H125.213V137.455H119.894V138.392ZM128.506 144.153C129.648 144.153 130.244 143.54 130.449 143.114H130.5V144H131.506V139.688C131.506 137.608 129.921 137.369 129.085 137.369C128.097 137.369 126.972 137.71 126.46 138.903L127.415 139.244C127.636 138.767 128.161 138.256 129.119 138.256C130.044 138.256 130.5 138.746 130.5 139.585V139.619C130.5 140.105 130.006 140.062 128.813 140.216C127.598 140.374 126.273 140.642 126.273 142.142C126.273 143.42 127.261 144.153 128.506 144.153ZM128.659 143.25C127.858 143.25 127.279 142.892 127.279 142.193C127.279 141.426 127.977 141.188 128.761 141.085C129.188 141.034 130.33 140.915 130.5 140.71V141.631C130.5 142.449 129.852 143.25 128.659 143.25ZM133.172 144H134.383L136.615 141.188H137.127V144H138.133V141.188H138.644L140.86 144H142.07L139.428 140.676L142.036 137.455H140.843L138.661 140.25H138.133V137.455H137.127V140.25H136.581L134.4 137.455H133.206L135.831 140.676L133.172 144ZM144.753 137.455H143.747V144H144.753V141.205H147.889V144H148.895V137.455H147.889V140.267H144.753V137.455ZM151.977 142.517V137.455H150.972V144H152.148L155.284 138.938V144H156.29V137.455H155.131L151.977 142.517ZM158.372 144H159.377V141.239H160.281L162.429 144H163.724L161.048 140.608L163.69 137.455H162.394L160.042 140.301H159.377V137.455H158.372V144Z" fill="#A9A9A9"/>
<path d="M30.8686 240C33.5277 240 35.0277 238.347 35.0277 235.619C35.0277 232.909 33.5277 231.273 30.9879 231.273H28.1754V240H30.8686ZM29.2322 239.062V232.21H30.9197C32.9652 232.21 34.005 233.506 34.005 235.619C34.005 237.75 32.9652 239.062 30.8004 239.062H29.2322ZM37.0404 240H42.3756V239.062H38.0972V236.097H42.0347V235.159H38.0972V232.21H42.3075V231.273H37.0404V240ZM51.475 234C51.1512 232.21 49.7193 231.153 47.9637 231.153C45.7307 231.153 44.1114 232.875 44.1114 235.636C44.1114 238.398 45.7307 240.119 47.9637 240.119C49.7193 240.119 51.1512 239.062 51.475 237.273H50.4182C50.1625 238.483 49.1227 239.131 47.9637 239.131C46.3784 239.131 45.1341 237.903 45.1341 235.636C45.1341 233.369 46.3784 232.142 47.9637 232.142C49.1227 232.142 50.1625 232.79 50.4182 234H51.475ZM59.7991 231.136C58.0264 231.119 56.8843 232.449 56.8843 234.068C56.8843 235.756 58.1287 236.966 59.6287 236.966C60.5321 236.966 61.2991 236.523 61.7764 235.807H61.8446C61.8446 237.955 61.0093 239.182 59.6628 239.182C58.7423 239.182 58.1798 238.602 57.9923 237.801H56.9525C57.1571 239.182 58.1968 240.119 59.6628 240.119C61.623 240.119 62.8332 238.381 62.8332 235.278C62.8332 232.057 61.2309 231.153 59.7991 231.136ZM59.7991 232.074C60.89 232.074 61.6912 233.011 61.6912 234.051C61.6912 235.091 60.8389 236.028 59.765 236.028C58.6912 236.028 57.9071 235.159 57.9071 234.068C57.9071 232.96 58.7253 232.074 59.7991 232.074ZM67.8087 231.136C66.0359 231.119 64.8939 232.449 64.8939 234.068C64.8939 235.756 66.1382 236.966 67.6382 236.966C68.5416 236.966 69.3087 236.523 69.7859 235.807H69.8541C69.8541 237.955 69.0189 239.182 67.6723 239.182C66.7518 239.182 66.1893 238.602 66.0018 237.801H64.9621C65.1666 239.182 66.2064 240.119 67.6723 240.119C69.6325 240.119 70.8427 238.381 70.8427 235.278C70.8427 232.057 69.2405 231.153 67.8087 231.136ZM67.8087 232.074C68.8996 232.074 69.7007 233.011 69.7007 234.051C69.7007 235.091 68.8484 236.028 67.7746 236.028C66.7007 236.028 65.9166 235.159 65.9166 234.068C65.9166 232.96 66.7348 232.074 67.8087 232.074Z" fill="#A9A9A9"/>
<path d="M97.9261 233.455H96.9205V240H97.9261V237.205H101.062V240H102.068V233.455H101.062V236.267H97.9261V233.455ZM106.071 240.153C107.213 240.153 107.81 239.54 108.014 239.114H108.065V240H109.071V235.688C109.071 233.608 107.486 233.369 106.651 233.369C105.662 233.369 104.537 233.71 104.026 234.903L104.98 235.244C105.202 234.767 105.726 234.256 106.685 234.256C107.609 234.256 108.065 234.746 108.065 235.585V235.619C108.065 236.105 107.571 236.062 106.378 236.216C105.163 236.374 103.838 236.642 103.838 238.142C103.838 239.42 104.827 240.153 106.071 240.153ZM106.224 239.25C105.423 239.25 104.844 238.892 104.844 238.193C104.844 237.426 105.543 237.188 106.327 237.085C106.753 237.034 107.895 236.915 108.065 236.71V237.631C108.065 238.449 107.418 239.25 106.224 239.25ZM111.147 240H114.232C115.561 240 116.362 239.25 116.362 238.244C116.362 237.217 115.583 236.663 114.862 236.557C115.6 236.403 116.124 235.99 116.124 235.193C116.124 234.149 115.229 233.455 113.823 233.455H111.147V240ZM112.101 239.08V237.068H114.232C114.922 237.068 115.34 237.482 115.34 238.159C115.34 238.73 114.922 239.08 114.232 239.08H112.101ZM112.101 236.199V234.375H113.823C114.628 234.375 115.118 234.712 115.118 235.261C115.118 235.845 114.628 236.199 113.823 236.199H112.101ZM119.131 238.517V233.455H118.125V240H119.301L122.437 234.938V240H123.443V233.455H122.284L119.131 238.517ZM129.565 233.455H125.525V240H126.531V234.392H129.565V233.455ZM132.859 240.153C134.001 240.153 134.598 239.54 134.802 239.114H134.853V240H135.859V235.688C135.859 233.608 134.274 233.369 133.439 233.369C132.45 233.369 131.325 233.71 130.814 234.903L131.768 235.244C131.99 234.767 132.514 234.256 133.473 234.256C134.397 234.256 134.853 234.746 134.853 235.585V235.619C134.853 236.105 134.359 236.062 133.166 236.216C131.951 236.374 130.626 236.642 130.626 238.142C130.626 239.42 131.615 240.153 132.859 240.153ZM133.013 239.25C132.211 239.25 131.632 238.892 131.632 238.193C131.632 237.426 132.331 237.188 133.115 237.085C133.541 237.034 134.683 236.915 134.853 236.71V237.631C134.853 238.449 134.206 239.25 133.013 239.25ZM137.044 234.392H139.209V240H140.215V234.392H142.362V233.455H137.044V234.392ZM146.388 240.136C148.161 240.136 149.354 238.79 149.354 236.761C149.354 234.716 148.161 233.369 146.388 233.369C144.616 233.369 143.423 234.716 143.423 236.761C143.423 238.79 144.616 240.136 146.388 240.136ZM146.388 239.233C145.042 239.233 144.428 238.074 144.428 236.761C144.428 235.449 145.042 234.273 146.388 234.273C147.735 234.273 148.349 235.449 148.349 236.761C148.349 238.074 147.735 239.233 146.388 239.233ZM151.13 242.455H152.135V238.994H152.22C152.442 239.352 152.868 240.136 154.13 240.136C155.766 240.136 156.908 238.824 156.908 236.744C156.908 234.682 155.766 233.369 154.112 233.369C152.834 233.369 152.442 234.153 152.22 234.494H152.101V233.455H151.13V242.455ZM152.118 236.727C152.118 235.261 152.766 234.273 153.993 234.273C155.272 234.273 155.902 235.347 155.902 236.727C155.902 238.125 155.255 239.233 153.993 239.233C152.783 239.233 152.118 238.21 152.118 236.727Z" fill="#A9A9A9"/>
<rect x="24" y="99" width="154" height="1" fill="#F5F5F5"/>
<path d="M35.1417 28.5327L33.1888 32.4923L28.8195 33.1293C28.0359 33.243 27.7219 34.209 28.2901 34.7622L31.4512 37.8426L30.7036 42.194C30.569 42.9805 31.3974 43.5697 32.0912 43.2018L36 41.1473L39.9088 43.2018C40.6026 43.5667 41.431 42.9805 41.2964 42.194L40.5488 37.8426L43.7099 34.7622C44.2781 34.209 43.9641 33.243 43.1805 33.1293L38.8112 32.4923L36.8583 28.5327C36.5084 27.8269 35.4946 27.8179 35.1417 28.5327Z" fill="#49BAF2"/>
<defs>
<filter id="filter0_d" x="8" y="61" width="186" height="200" filterUnits="userSpaceOnUse" color-interpolation-filters="sRGB">
<feFlood flood-opacity="0" result="BackgroundImageFix"/>
<feColorMatrix in="SourceAlpha" type="matrix" values="0 0 0 0 0 0 0 0 0 0 0 0 0 0 0 0 0 0 127 0"/>
<feOffset dy="1"/>
<feGaussianBlur stdDeviation="2"/>
<feColorMatrix type="matrix" values="0 0 0 0 0.882353 0 0 0 0 0.882353 0 0 0 0 0.882353 0 0 0 0.4 0"/>
<feBlend mode="normal" in2="BackgroundImageFix" result="effect1_dropShadow"/>
<feBlend mode="normal" in="SourceGraphic" in2="effect1_dropShadow" result="shape"/>
</filter>
</defs>
</svg>
