<svg width="536" height="100" viewBox="0 0 536 100" fill="none" xmlns="http://www.w3.org/2000/svg">
<g clip-path="url(#clip0)">
<rect width="536" height="100" fill="white"/>
<path d="M200.415 47.2216C199.818 43.4886 196.895 41.3068 193.205 41.3068C188.688 41.3068 185.355 44.6903 185.355 50.2727C185.355 55.8551 188.67 59.2386 193.205 59.2386C197.04 59.2386 199.844 56.8352 200.415 53.3835L197.756 53.375C197.304 55.608 195.429 56.8352 193.222 56.8352C190.23 56.8352 187.972 54.5426 187.972 50.2727C187.972 46.0369 190.222 43.7102 193.23 43.7102C195.455 43.7102 197.321 44.9631 197.756 47.2216H200.415ZM218.171 41.5455H204.705V59H207.33V43.7955H215.546V59H218.171V41.5455ZM224.632 59L226.235 54.3807H233.053L234.647 59H237.442L231.161 41.5455H228.118L221.837 59H224.632ZM227.002 52.1648L229.576 44.7159H229.712L232.286 52.1648H227.002ZM254.599 47.2216C254.003 43.4886 251.08 41.3068 247.389 41.3068C242.872 41.3068 239.54 44.6903 239.54 50.2727C239.54 55.8551 242.855 59.2386 247.389 59.2386C251.224 59.2386 254.028 56.8352 254.599 53.3835L251.94 53.375C251.489 55.608 249.614 56.8352 247.406 56.8352C244.415 56.8352 242.156 54.5426 242.156 50.2727C242.156 46.0369 244.406 43.7102 247.415 43.7102C249.639 43.7102 251.506 44.9631 251.94 47.2216H254.599ZM260.185 59L261.787 54.3807H268.606L270.199 59H272.995L266.714 41.5455H263.671L257.39 59H260.185ZM262.554 52.1648L265.128 44.7159H265.265L267.839 52.1648H262.554ZM273.529 43.8125H278.966V59H281.591V43.8125H287.037V41.5455H273.529V43.8125ZM290.982 59H302.028V56.733H293.616V51.3892H301.354V49.1307H293.616V43.8125H301.925V41.5455H290.982V59ZM305.082 59H305.832C309.804 59 310.758 56.0511 310.988 50.4432L311.261 43.7784H317.219V59H319.818V41.5455H308.781L308.483 49.7443C308.295 54.7983 307.682 56.6477 305.594 56.6989L305.082 56.7159V59ZM327.272 48.5852V41.5455H324.63V59H331.167C335.054 59 337.278 56.8352 337.269 53.7074C337.278 50.5881 335.054 48.5852 331.167 48.5852H327.272ZM327.272 50.8011H331.167C333.426 50.8011 334.67 52.0966 334.67 53.6733C334.67 55.2926 333.426 56.7841 331.167 56.7841H327.272V50.8011ZM341.44 59H344.074V51.3892H352.776V59H355.418V41.5455H352.776V49.1307H344.074V41.5455H341.44V59ZM362.872 48.5852V41.5455H360.23V59H366.767C370.653 59 372.878 56.8352 372.869 53.7074C372.878 50.5881 370.653 48.5852 366.767 48.5852H362.872ZM377.114 41.5455H374.48V59H377.114V41.5455ZM362.872 50.8011H366.767C369.025 50.8011 370.27 52.0966 370.27 53.6733C370.27 55.2926 369.025 56.7841 366.767 56.7841H362.872V50.8011ZM381.915 41.5455V59H384.336L393.208 46.1989H393.37V59H396.003V41.5455H393.566L384.685 54.3636H384.523V41.5455H381.915ZM390.634 37.1136C390.634 37.9744 390.157 38.733 388.963 38.733C387.753 38.733 387.301 37.9659 387.301 37.1136H385.213C385.213 39.0312 386.671 40.3523 388.963 40.3523C391.273 40.3523 392.73 39.0312 392.73 37.1136H390.634ZM408.466 41.5455V47.3068C408.457 51.2017 410.818 52.7358 414.636 52.7358C416.315 52.7358 417.764 52.5227 419.017 52.1648V59H421.625V41.5455H419.017V49.9148C417.713 50.2642 416.094 50.4773 414.636 50.4773C412.361 50.4773 411.065 49.7102 411.065 47.3068V41.5455H408.466ZM426.631 59H437.677V56.733H429.265V51.3892H437.003V49.1307H429.265V43.8125H437.574V41.5455H426.631V59ZM440.731 59H441.481C445.453 59 446.407 56.0511 446.637 50.4432L446.91 43.7784H452.867V59H455.467V41.5455H444.43L444.132 49.7443C443.944 54.7983 443.33 56.6477 441.242 56.6989L440.731 56.7159V59ZM460.262 59H462.895V51.3892H471.597V59H474.239V41.5455H471.597V49.1307H462.895V41.5455H460.262V59ZM494.196 50.2727C494.196 44.6903 490.856 41.3068 486.338 41.3068C481.804 41.3068 478.472 44.6903 478.472 50.2727C478.472 55.8466 481.804 59.2386 486.338 59.2386C490.856 59.2386 494.196 55.8551 494.196 50.2727ZM491.588 50.2727C491.588 54.5256 489.338 56.8352 486.338 56.8352C483.33 56.8352 481.088 54.5256 481.088 50.2727C481.088 46.0199 483.33 43.7102 486.338 43.7102C489.338 43.7102 491.588 46.0199 491.588 50.2727ZM508.778 59H511.991L504.789 49.4375L512.034 41.5455H508.769L501.977 48.9176H501.073V41.5455H498.44V59H501.073V51.1761H502.88L508.778 59Z" fill="#49BAF2"/>
<rect x="164" y="30" width="4" height="40" fill="#49BAF2"/>
<g filter="url(#filter0_d)">
<path d="M44.2 71.5833V28.4167L82 6.81665L119.8 28.4167V71.5833L82 93.1833L44.2 71.5833Z" fill="white"/>
<path d="M87.124 41.1931C87.124 41.1931 88.993 28.1872 82 19.8644C75.007 28.1872 76.876 41.1931 76.876 41.1931C71.5378 45.6174 76.6324 57.4296 76.6324 57.4296C76.6324 51.5945 78.829 50.4007 78.829 50.4007C78.829 50.4007 78.7492 51.7739 79.8034 52.3416H82H84.1966C85.255 51.7781 85.171 50.4007 85.171 50.4007C85.171 50.4007 87.3676 51.5945 87.3676 57.4296C87.3676 57.4296 92.458 45.6133 87.124 41.1931ZM82 32.9496C80.5174 32.9496 79.3162 31.7559 79.3162 30.2825C79.3162 28.8091 80.5174 27.6153 82 27.6153C83.4826 27.6153 84.6838 28.8091 84.6838 30.2825C84.6838 31.7559 83.4826 32.9496 82 32.9496Z" fill="#FFA800"/>
<path d="M82 2L40 26V74L82 98L124 74V26L82 2ZM119.8 71.5833L111.366 76.4042C109.518 74.263 106.78 72.9064 103.722 72.9064C101.706 72.9064 99.8248 73.495 98.2498 74.5134C96.973 73.5367 95.377 72.9565 93.6424 72.9565C92.4412 72.9565 91.303 73.2362 90.295 73.7329C89.4214 71.3287 87.1072 69.609 84.3856 69.6007L83.512 56.4278H80.488L79.6144 69.6007C76.8928 69.609 74.5786 71.3287 73.705 73.7329C72.697 73.2362 71.5588 72.9565 70.3576 72.9565C68.623 72.9565 67.027 73.5367 65.7502 74.5134C64.1752 73.4991 62.2936 72.9064 60.2776 72.9064C57.2158 72.9064 54.4816 74.263 52.6336 76.4042L44.2 71.5833V28.4167L82 6.8167L119.8 28.4167V71.5833Z" fill="#FFA800"/>
</g>
</g>
<defs>
<filter id="filter0_d" x="32" y="-2" width="100" height="112" filterUnits="userSpaceOnUse" color-interpolation-filters="sRGB">
<feFlood flood-opacity="0" result="BackgroundImageFix"/>
<feColorMatrix in="SourceAlpha" type="matrix" values="0 0 0 0 0 0 0 0 0 0 0 0 0 0 0 0 0 0 127 0"/>
<feOffset dy="4"/>
<feGaussianBlur stdDeviation="4"/>
<feColorMatrix type="matrix" values="0 0 0 0 1 0 0 0 0 0.658824 0 0 0 0 0 0 0 0 0.15 0"/>
<feBlend mode="normal" in2="BackgroundImageFix" result="effect1_dropShadow"/>
<feBlend mode="normal" in="SourceGraphic" in2="effect1_dropShadow" result="shape"/>
</filter>
<clipPath id="clip0">
<rect width="536" height="100" fill="white"/>
</clipPath>
</defs>
</svg>
