<svg width="328" height="312" viewBox="0 0 328 312" fill="none" xmlns="http://www.w3.org/2000/svg">
<rect width="328" height="312" fill="white"/>
<path d="M67.1124 111.636C67.1124 113.784 67.6919 115.574 68.7317 117.091H69.6181C68.7999 115.966 68.1522 113.665 68.1522 111.636C68.1522 109.608 68.7999 107.307 69.6181 106.182H68.7317C67.6919 107.699 67.1124 109.489 67.1124 111.636ZM72.285 116H77.7907V115.062H73.7339V114.994L75.6941 112.898C77.1941 111.291 77.6373 110.541 77.6373 109.574C77.6373 108.227 76.5464 107.153 75.0123 107.153C73.4825 107.153 72.3191 108.193 72.3191 109.727H73.3248C73.3248 108.734 73.9683 108.074 74.9782 108.074C75.9243 108.074 76.6487 108.653 76.6487 109.574C76.6487 110.379 76.1757 110.976 75.1657 112.08L72.285 115.233V116ZM82.2677 114.807H81.1768L81.1257 115.284C81.0021 116.439 80.7592 117.589 80.6484 118.131H81.4154C81.62 117.551 82.0547 116.239 82.1995 115.267L82.2677 114.807ZM87.7312 116.119C89.4954 116.141 90.646 114.811 90.646 113.188C90.646 111.5 89.3974 110.29 87.9017 110.29C87.0025 110.29 86.2312 110.729 85.7539 111.449H85.6858C85.69 109.305 86.5167 108.074 87.8676 108.074C88.788 108.074 89.342 108.653 89.538 109.455H90.5778C90.3647 108.082 89.3335 107.136 87.8676 107.136C85.9031 107.136 84.6971 108.875 84.6971 111.977C84.6971 115.203 86.2994 116.102 87.7312 116.119ZM87.7312 115.182C86.636 115.182 85.8349 114.249 85.8392 113.205C85.8434 112.161 86.6829 111.227 87.7653 111.227C88.8349 111.227 89.6233 112.105 89.6233 113.188C89.6233 114.295 88.8008 115.182 87.7312 115.182ZM95.6865 111.636C95.6865 109.489 95.107 107.699 94.0672 106.182H93.1809C93.999 107.307 94.6468 109.608 94.6468 111.636C94.6468 113.665 93.999 115.966 93.1809 117.091H94.0672C95.107 115.574 95.6865 113.784 95.6865 111.636Z" fill="#E1E1E1"/>
<path d="M127.171 191.636C127.171 193.784 127.751 195.574 128.79 197.091H129.677C128.858 195.966 128.211 193.665 128.211 191.636C128.211 189.608 128.858 187.307 129.677 186.182H128.79C127.751 187.699 127.171 189.489 127.171 191.636ZM135.071 196.119C136.733 196.119 137.952 194.892 137.952 193.222C137.952 191.53 136.775 190.29 135.173 190.29C134.585 190.29 134.014 190.499 133.656 190.784H133.605L133.912 188.21H137.56V187.273H133.025L132.497 191.568L133.486 191.688C133.848 191.428 134.466 191.24 135.003 191.244C136.115 191.253 136.929 192.097 136.929 193.239C136.929 194.359 136.145 195.182 135.071 195.182C134.176 195.182 133.464 194.607 133.383 193.818H132.361C132.425 195.148 133.571 196.119 135.071 196.119ZM141.951 194.807H140.86L140.809 195.284C140.686 196.439 140.443 197.589 140.332 198.131H141.099C141.304 197.551 141.738 196.239 141.883 195.267L141.951 194.807ZM144.998 196H150.503V195.062H146.446V194.994L148.407 192.898C149.907 191.291 150.35 190.541 150.35 189.574C150.35 188.227 149.259 187.153 147.725 187.153C146.195 187.153 145.032 188.193 145.032 189.727H146.037C146.037 188.734 146.681 188.074 147.691 188.074C148.637 188.074 149.361 188.653 149.361 189.574C149.361 190.379 148.888 190.976 147.878 192.08L144.998 195.233V196ZM155.628 191.636C155.628 189.489 155.048 187.699 154.009 186.182H153.122C153.94 187.307 154.588 189.608 154.588 191.636C154.588 193.665 153.94 195.966 153.122 197.091H154.009C155.048 195.574 155.628 193.784 155.628 191.636Z" fill="#E1E1E1"/>
<path d="M183.969 271.636C183.969 273.784 184.549 275.574 185.589 277.091H186.475C185.657 275.966 185.009 273.665 185.009 271.636C185.009 269.608 185.657 267.307 186.475 266.182H185.589C184.549 267.699 183.969 269.489 183.969 271.636ZM191.938 276.119C193.68 276.119 194.895 275.101 194.903 273.682C194.895 272.578 194.158 271.641 193.216 271.466V271.415C194.034 271.202 194.571 270.401 194.58 269.472C194.571 268.142 193.455 267.153 191.938 267.153C190.403 267.153 189.287 268.142 189.295 269.472C189.287 270.401 189.824 271.202 190.659 271.415V271.466C189.7 271.641 188.963 272.578 188.972 273.682C188.963 275.101 190.178 276.119 191.938 276.119ZM191.938 275.182C190.74 275.182 190.003 274.568 190.011 273.631C190.003 272.646 190.817 271.943 191.938 271.943C193.041 271.943 193.855 272.646 193.864 273.631C193.855 274.568 193.118 275.182 191.938 275.182ZM191.938 271.04C190.983 271.04 190.31 270.443 190.318 269.54C190.31 268.653 190.957 268.074 191.938 268.074C192.901 268.074 193.548 268.653 193.557 269.54C193.548 270.443 192.875 271.04 191.938 271.04ZM198.844 274.807H197.753L197.701 275.284C197.578 276.439 197.335 277.589 197.224 278.131H197.991C198.196 277.551 198.63 276.239 198.775 275.267L198.844 274.807ZM205.657 271.168H201.839V272.105H205.657V271.168ZM208.199 276H213.705V275.062H209.648V274.994L211.608 272.898C213.108 271.291 213.551 270.541 213.551 269.574C213.551 268.227 212.46 267.153 210.926 267.153C209.397 267.153 208.233 268.193 208.233 269.727H209.239C209.239 268.734 209.882 268.074 210.892 268.074C211.838 268.074 212.563 268.653 212.563 269.574C212.563 270.379 212.09 270.976 211.08 272.08L208.199 275.233V276ZM218.83 271.636C218.83 269.489 218.25 267.699 217.21 266.182H216.324C217.142 267.307 217.79 269.608 217.79 271.636C217.79 273.665 217.142 275.966 216.324 277.091H217.21C218.25 275.574 218.83 273.784 218.83 271.636Z" fill="#E1E1E1"/>
<path d="M223.26 151.636C223.26 153.784 223.84 155.574 224.88 157.091H225.766C224.948 155.966 224.3 153.665 224.3 151.636C224.3 149.608 224.948 147.307 225.766 146.182H224.88C223.84 147.699 223.26 149.489 223.26 151.636ZM231.501 147.273H230.444L228.263 148.722V149.795L230.393 148.381H230.444V156H231.501V147.273ZM238.058 156.119C239.984 156.119 241.092 154.487 241.092 151.636C241.092 148.807 239.967 147.153 238.058 147.153C236.149 147.153 235.024 148.807 235.024 151.636C235.024 154.487 236.132 156.119 238.058 156.119ZM238.058 155.182C236.788 155.182 236.046 153.908 236.046 151.636C236.046 149.369 236.796 148.074 238.058 148.074C239.319 148.074 240.069 149.369 240.069 151.636C240.069 153.908 239.328 155.182 238.058 155.182ZM245.428 154.807H244.337L244.286 155.284C244.163 156.439 243.92 157.589 243.809 158.131H244.576C244.781 157.551 245.215 156.239 245.36 155.267L245.428 154.807ZM248.27 154.21H252.378V156H253.384V154.21H254.577V153.273H253.384V147.273H252.105L248.27 153.341V154.21ZM252.378 153.273H249.412V153.205L252.31 148.619H252.378V153.273ZM259.538 151.636C259.538 149.489 258.959 147.699 257.919 146.182H257.033C257.851 147.307 258.499 149.608 258.499 151.636C258.499 153.665 257.851 155.966 257.033 157.091H257.919C258.959 155.574 259.538 153.784 259.538 151.636Z" fill="#E1E1E1"/>
<path d="M242.05 119H241.95C241.482 123.727 237.727 127.482 233 127.95V128.05C237.727 128.518 241.482 132.273 241.95 137H242.05C242.518 132.273 246.273 128.518 251 128.05V127.95C246.273 127.482 242.518 123.727 242.05 119Z" fill="#E1E1E1"/>
<path d="M293.83 204.455H292.671L294.751 207.727L292.671 211H293.83L295.398 208.46L296.967 211H298.126L296.012 207.727L298.126 204.455H296.967L295.398 207.131L293.83 204.455Z" fill="#E1E1E1"/>
<path d="M282 205V210L286.2 207.5L282 205Z" fill="#E1E1E1"/>
<rect x="62" y="205" width="1" height="5" fill="#E1E1E1"/>
<rect x="82" y="205" width="1" height="5" fill="#E1E1E1"/>
<rect x="102" y="205" width="1" height="5" fill="#E1E1E1"/>
<rect x="122" y="205" width="1" height="5" fill="#E1E1E1"/>
<rect x="142" y="205" width="1" height="5" fill="#E1E1E1"/>
<rect x="162" y="205" width="1" height="5" fill="#E1E1E1"/>
<rect x="182" y="205" width="1" height="5" fill="#E1E1E1"/>
<rect x="202" y="205" width="1" height="5" fill="#E1E1E1"/>
<rect x="222" y="205" width="1" height="5" fill="#E1E1E1"/>
<rect x="242" y="205" width="1" height="5" fill="#E1E1E1"/>
<rect x="262" y="205" width="1" height="5" fill="#E1E1E1"/>
<rect x="42" y="207" width="240" height="1" fill="#E1E1E1"/>
<path d="M40.6225 38.4375C41.5301 38.4375 42.1736 37.956 42.5486 36.9545L45.3355 29.4716L44.2361 29.4545L42.4293 34.6705H42.3611L40.5543 29.4545H39.4634L41.8838 36.0341L41.6963 36.5455C41.3384 37.5256 40.8782 37.6193 40.1452 37.4318L39.8895 38.3182C39.9918 38.3693 40.2816 38.4375 40.6225 38.4375Z" fill="#E1E1E1"/>
<path d="M40 48H45L42.5 43.8L40 48Z" fill="#E1E1E1"/>
<rect x="40" y="268" width="1" height="5" transform="rotate(-90 40 268)" fill="#E1E1E1"/>
<rect x="40" y="248" width="1" height="5" transform="rotate(-90 40 248)" fill="#E1E1E1"/>
<rect x="40" y="228" width="1" height="5" transform="rotate(-90 40 228)" fill="#E1E1E1"/>
<rect x="40" y="188" width="1" height="5" transform="rotate(-90 40 188)" fill="#E1E1E1"/>
<rect x="40" y="168" width="1" height="5" transform="rotate(-90 40 168)" fill="#E1E1E1"/>
<rect x="40" y="148" width="1" height="5" transform="rotate(-90 40 148)" fill="#E1E1E1"/>
<rect x="40" y="128" width="1" height="5" transform="rotate(-90 40 128)" fill="#E1E1E1"/>
<rect x="40" y="108" width="1" height="5" transform="rotate(-90 40 108)" fill="#E1E1E1"/>
<rect x="40" y="88" width="1" height="5" transform="rotate(-90 40 88)" fill="#E1E1E1"/>
<rect x="40" y="68" width="1" height="5" transform="rotate(-90 40 68)" fill="#E1E1E1"/>
<rect x="42" y="48" width="1" height="240" fill="#E1E1E1"/>
<rect x="30" y="187" width="33" height="61" fill="white"/>
<path d="M26.9893 230.636C26.9893 232.784 27.5689 234.574 28.6087 236.091H29.495C28.6768 234.966 28.0291 232.665 28.0291 230.636C28.0291 228.608 28.6768 226.307 29.495 225.182H28.6087C27.5689 226.699 26.9893 228.489 26.9893 230.636ZM35.0086 235.119C36.9347 235.119 38.0427 233.487 38.0427 230.636C38.0427 227.807 36.9177 226.153 35.0086 226.153C33.0995 226.153 31.9745 227.807 31.9745 230.636C31.9745 233.487 33.0825 235.119 35.0086 235.119ZM35.0086 234.182C33.7387 234.182 32.9972 232.908 32.9972 230.636C32.9972 228.369 33.7472 227.074 35.0086 227.074C36.27 227.074 37.02 228.369 37.02 230.636C37.02 232.908 36.2785 234.182 35.0086 234.182ZM42.379 233.807H41.2881L41.237 234.284C41.1134 235.439 40.8705 236.589 40.7597 237.131H41.5268C41.7313 236.551 42.166 235.239 42.3109 234.267L42.379 233.807ZM47.7914 235.119C49.7175 235.119 50.8255 233.487 50.8255 230.636C50.8255 227.807 49.7005 226.153 47.7914 226.153C45.8823 226.153 44.7573 227.807 44.7573 230.636C44.7573 233.487 45.8653 235.119 47.7914 235.119ZM47.7914 234.182C46.5215 234.182 45.78 232.908 45.78 230.636C45.78 228.369 46.53 227.074 47.7914 227.074C49.0528 227.074 49.8028 228.369 49.8028 230.636C49.8028 232.908 49.0613 234.182 47.7914 234.182ZM55.8096 230.636C55.8096 228.489 55.23 226.699 54.1903 225.182H53.3039C54.1221 226.307 54.7698 228.608 54.7698 230.636C54.7698 232.665 54.1221 234.966 53.3039 236.091H54.1903C55.23 234.574 55.8096 232.784 55.8096 230.636Z" fill="#A9A9A9"/>
<path d="M44.2818 210.571C44.2818 210.571 50.5182 205.893 51.0944 199.485C44.6864 200.061 40.0086 206.297 40.0086 206.297C35.9263 205.928 33.0944 213.009 33.0944 213.009C35.5428 210.56 36.9596 210.975 36.9596 210.975C36.9596 210.975 36.3501 211.518 36.5515 212.196L38.3834 214.028C39.0611 214.233 39.6041 213.62 39.6041 213.62C39.6041 213.62 40.0191 215.037 37.5708 217.485C37.5708 217.485 44.6513 214.649 44.2818 210.571ZM45.6041 204.975C44.9858 204.357 44.9858 203.355 45.6041 202.737C46.2223 202.119 47.224 202.119 47.8422 202.737C48.4604 203.355 48.4604 204.357 47.8422 204.975C47.224 205.593 46.2223 205.593 45.6041 204.975Z" fill="#A9A9A9"/>
<path d="M57.5 55.5L228 283" stroke="#49BAF2"/>
<circle cx="82" cy="88" r="16" fill="white"/>
<circle cx="142" cy="168" r="16" fill="white"/>
<circle cx="202" cy="248" r="16" fill="white"/>
<path d="M82.0495 79H81.9505C81.4822 83.7274 77.7274 87.4822 73 87.9505V88.0495C77.7274 88.5178 81.4822 92.2726 81.9505 97H82.0495C82.5178 92.2726 86.2726 88.5178 91 88.0495V87.9505C86.2726 87.4822 82.5178 83.7274 82.0495 79Z" fill="#49BAF2"/>
<path d="M142.05 159H141.95C141.482 163.727 137.727 167.482 133 167.95V168.05C137.727 168.518 141.482 172.273 141.95 177H142.05C142.518 172.273 146.273 168.518 151 168.05V167.95C146.273 167.482 142.518 163.727 142.05 159Z" fill="#49BAF2"/>
<path d="M202.05 239H201.95C201.482 243.727 197.727 247.482 193 247.95V248.05C197.727 248.518 201.482 252.273 201.95 257H202.05C202.518 252.273 206.273 248.518 211 248.05V247.95C206.273 247.482 202.518 243.727 202.05 239Z" fill="#49BAF2"/>
</svg>
