<svg width="328" height="312" viewBox="0 0 328 312" fill="none" xmlns="http://www.w3.org/2000/svg">
<rect width="328" height="312" fill="white"/>
<path d="M67.1124 111.636C67.1124 113.784 67.6919 115.574 68.7317 117.091H69.6181C68.7999 115.966 68.1522 113.665 68.1522 111.636C68.1522 109.608 68.7999 107.307 69.6181 106.182H68.7317C67.6919 107.699 67.1124 109.489 67.1124 111.636ZM72.285 116H77.7907V115.062H73.7339V114.994L75.6941 112.898C77.1941 111.291 77.6373 110.541 77.6373 109.574C77.6373 108.227 76.5464 107.153 75.0123 107.153C73.4825 107.153 72.3191 108.193 72.3191 109.727H73.3248C73.3248 108.734 73.9683 108.074 74.9782 108.074C75.9243 108.074 76.6487 108.653 76.6487 109.574C76.6487 110.379 76.1757 110.976 75.1657 112.08L72.285 115.233V116ZM82.2677 114.807H81.1768L81.1257 115.284C81.0021 116.439 80.7592 117.589 80.6484 118.131H81.4154C81.62 117.551 82.0547 116.239 82.1995 115.267L82.2677 114.807ZM87.7312 116.119C89.4954 116.141 90.646 114.811 90.646 113.188C90.646 111.5 89.3974 110.29 87.9017 110.29C87.0025 110.29 86.2312 110.729 85.7539 111.449H85.6858C85.69 109.305 86.5167 108.074 87.8676 108.074C88.788 108.074 89.342 108.653 89.538 109.455H90.5778C90.3647 108.082 89.3335 107.136 87.8676 107.136C85.9031 107.136 84.6971 108.875 84.6971 111.977C84.6971 115.203 86.2994 116.102 87.7312 116.119ZM87.7312 115.182C86.636 115.182 85.8349 114.249 85.8392 113.205C85.8434 112.161 86.6829 111.227 87.7653 111.227C88.8349 111.227 89.6233 112.105 89.6233 113.188C89.6233 114.295 88.8008 115.182 87.7312 115.182ZM95.6865 111.636C95.6865 109.489 95.107 107.699 94.0672 106.182H93.1809C93.999 107.307 94.6468 109.608 94.6468 111.636C94.6468 113.665 93.999 115.966 93.1809 117.091H94.0672C95.107 115.574 95.6865 113.784 95.6865 111.636Z" fill="#E1E1E1"/>
<path d="M127.171 191.636C127.171 193.784 127.751 195.574 128.79 197.091H129.677C128.858 195.966 128.211 193.665 128.211 191.636C128.211 189.608 128.858 187.307 129.677 186.182H128.79C127.751 187.699 127.171 189.489 127.171 191.636ZM135.071 196.119C136.733 196.119 137.952 194.892 137.952 193.222C137.952 191.53 136.775 190.29 135.173 190.29C134.585 190.29 134.014 190.499 133.656 190.784H133.605L133.912 188.21H137.56V187.273H133.025L132.497 191.568L133.486 191.688C133.848 191.428 134.466 191.24 135.003 191.244C136.115 191.253 136.929 192.097 136.929 193.239C136.929 194.359 136.145 195.182 135.071 195.182C134.176 195.182 133.464 194.607 133.383 193.818H132.361C132.425 195.148 133.571 196.119 135.071 196.119ZM141.951 194.807H140.86L140.809 195.284C140.686 196.439 140.443 197.589 140.332 198.131H141.099C141.304 197.551 141.738 196.239 141.883 195.267L141.951 194.807ZM144.998 196H150.503V195.062H146.446V194.994L148.407 192.898C149.907 191.291 150.35 190.541 150.35 189.574C150.35 188.227 149.259 187.153 147.725 187.153C146.195 187.153 145.032 188.193 145.032 189.727H146.037C146.037 188.734 146.681 188.074 147.691 188.074C148.637 188.074 149.361 188.653 149.361 189.574C149.361 190.379 148.888 190.976 147.878 192.08L144.998 195.233V196ZM155.628 191.636C155.628 189.489 155.048 187.699 154.009 186.182H153.122C153.94 187.307 154.588 189.608 154.588 191.636C154.588 193.665 153.94 195.966 153.122 197.091H154.009C155.048 195.574 155.628 193.784 155.628 191.636Z" fill="#E1E1E1"/>
<path d="M183.969 271.636C183.969 273.784 184.549 275.574 185.589 277.091H186.475C185.657 275.966 185.009 273.665 185.009 271.636C185.009 269.608 185.657 267.307 186.475 266.182H185.589C184.549 267.699 183.969 269.489 183.969 271.636ZM191.938 276.119C193.68 276.119 194.895 275.101 194.903 273.682C194.895 272.578 194.158 271.641 193.216 271.466V271.415C194.034 271.202 194.571 270.401 194.58 269.472C194.571 268.142 193.455 267.153 191.938 267.153C190.403 267.153 189.287 268.142 189.295 269.472C189.287 270.401 189.824 271.202 190.659 271.415V271.466C189.7 271.641 188.963 272.578 188.972 273.682C188.963 275.101 190.178 276.119 191.938 276.119ZM191.938 275.182C190.74 275.182 190.003 274.568 190.011 273.631C190.003 272.646 190.817 271.943 191.938 271.943C193.041 271.943 193.855 272.646 193.864 273.631C193.855 274.568 193.118 275.182 191.938 275.182ZM191.938 271.04C190.983 271.04 190.31 270.443 190.318 269.54C190.31 268.653 190.957 268.074 191.938 268.074C192.901 268.074 193.548 268.653 193.557 269.54C193.548 270.443 192.875 271.04 191.938 271.04ZM198.844 274.807H197.753L197.701 275.284C197.578 276.439 197.335 277.589 197.224 278.131H197.991C198.196 277.551 198.63 276.239 198.775 275.267L198.844 274.807ZM205.657 271.168H201.839V272.105H205.657V271.168ZM208.199 276H213.705V275.062H209.648V274.994L211.608 272.898C213.108 271.291 213.551 270.541 213.551 269.574C213.551 268.227 212.46 267.153 210.926 267.153C209.397 267.153 208.233 268.193 208.233 269.727H209.239C209.239 268.734 209.882 268.074 210.892 268.074C211.838 268.074 212.563 268.653 212.563 269.574C212.563 270.379 212.09 270.976 211.08 272.08L208.199 275.233V276ZM218.83 271.636C218.83 269.489 218.25 267.699 217.21 266.182H216.324C217.142 267.307 217.79 269.608 217.79 271.636C217.79 273.665 217.142 275.966 216.324 277.091H217.21C218.25 275.574 218.83 273.784 218.83 271.636Z" fill="#E1E1E1"/>
<path d="M223.26 151.636C223.26 153.784 223.84 155.574 224.88 157.091H225.766C224.948 155.966 224.3 153.665 224.3 151.636C224.3 149.608 224.948 147.307 225.766 146.182H224.88C223.84 147.699 223.26 149.489 223.26 151.636ZM231.501 147.273H230.444L228.263 148.722V149.795L230.393 148.381H230.444V156H231.501V147.273ZM238.058 156.119C239.984 156.119 241.092 154.487 241.092 151.636C241.092 148.807 239.967 147.153 238.058 147.153C236.149 147.153 235.024 148.807 235.024 151.636C235.024 154.487 236.132 156.119 238.058 156.119ZM238.058 155.182C236.788 155.182 236.046 153.908 236.046 151.636C236.046 149.369 236.796 148.074 238.058 148.074C239.319 148.074 240.069 149.369 240.069 151.636C240.069 153.908 239.328 155.182 238.058 155.182ZM245.428 154.807H244.337L244.286 155.284C244.163 156.439 243.92 157.589 243.809 158.131H244.576C244.781 157.551 245.215 156.239 245.36 155.267L245.428 154.807ZM248.27 154.21H252.378V156H253.384V154.21H254.577V153.273H253.384V147.273H252.105L248.27 153.341V154.21ZM252.378 153.273H249.412V153.205L252.31 148.619H252.378V153.273ZM259.538 151.636C259.538 149.489 258.959 147.699 257.919 146.182H257.033C257.851 147.307 258.499 149.608 258.499 151.636C258.499 153.665 257.851 155.966 257.033 157.091H257.919C258.959 155.574 259.538 153.784 259.538 151.636Z" fill="#E1E1E1"/>
<path d="M242.05 119H241.95C241.482 123.727 237.727 127.482 233 127.95V128.05C237.727 128.518 241.482 132.273 241.95 137H242.05C242.518 132.273 246.273 128.518 251 128.05V127.95C246.273 127.482 242.518 123.727 242.05 119Z" fill="#E1E1E1"/>
<path d="M293.83 204.455H292.671L294.751 207.727L292.671 211H293.83L295.398 208.46L296.967 211H298.126L296.012 207.727L298.126 204.455H296.967L295.398 207.131L293.83 204.455Z" fill="#E1E1E1"/>
<path d="M282 205V210L286.2 207.5L282 205Z" fill="#E1E1E1"/>
<rect x="62" y="205" width="1" height="5" fill="#E1E1E1"/>
<rect x="82" y="205" width="1" height="5" fill="#E1E1E1"/>
<rect x="102" y="205" width="1" height="5" fill="#E1E1E1"/>
<rect x="122" y="205" width="1" height="5" fill="#E1E1E1"/>
<rect x="142" y="205" width="1" height="5" fill="#E1E1E1"/>
<rect x="162" y="205" width="1" height="5" fill="#E1E1E1"/>
<rect x="182" y="205" width="1" height="5" fill="#E1E1E1"/>
<rect x="202" y="205" width="1" height="5" fill="#E1E1E1"/>
<rect x="222" y="205" width="1" height="5" fill="#E1E1E1"/>
<rect x="242" y="205" width="1" height="5" fill="#E1E1E1"/>
<rect x="262" y="205" width="1" height="5" fill="#E1E1E1"/>
<rect x="42" y="207" width="240" height="1" fill="#E1E1E1"/>
<path d="M40.6225 38.4375C41.5301 38.4375 42.1736 37.956 42.5486 36.9545L45.3355 29.4716L44.2361 29.4545L42.4293 34.6705H42.3611L40.5543 29.4545H39.4634L41.8838 36.0341L41.6963 36.5455C41.3384 37.5256 40.8782 37.6193 40.1452 37.4318L39.8895 38.3182C39.9918 38.3693 40.2816 38.4375 40.6225 38.4375Z" fill="#E1E1E1"/>
<path d="M40 48H45L42.5 43.8L40 48Z" fill="#E1E1E1"/>
<rect x="40" y="268" width="1" height="5" transform="rotate(-90 40 268)" fill="#E1E1E1"/>
<rect x="40" y="248" width="1" height="5" transform="rotate(-90 40 248)" fill="#E1E1E1"/>
<rect x="40" y="228" width="1" height="5" transform="rotate(-90 40 228)" fill="#E1E1E1"/>
<rect x="40" y="188" width="1" height="5" transform="rotate(-90 40 188)" fill="#E1E1E1"/>
<rect x="40" y="168" width="1" height="5" transform="rotate(-90 40 168)" fill="#E1E1E1"/>
<rect x="40" y="148" width="1" height="5" transform="rotate(-90 40 148)" fill="#E1E1E1"/>
<rect x="40" y="128" width="1" height="5" transform="rotate(-90 40 128)" fill="#E1E1E1"/>
<rect x="40" y="108" width="1" height="5" transform="rotate(-90 40 108)" fill="#E1E1E1"/>
<rect x="40" y="88" width="1" height="5" transform="rotate(-90 40 88)" fill="#E1E1E1"/>
<rect x="40" y="68" width="1" height="5" transform="rotate(-90 40 68)" fill="#E1E1E1"/>
<rect x="42" y="48" width="1" height="240" fill="#E1E1E1"/>
<line x1="124.307" y1="144.395" x2="43.307" y2="207.395" stroke="#49BAF2"/>
<path d="M30 187H43C54.0457 187 63 195.954 63 207V248H30V187Z" fill="white"/>
<path d="M26.9893 230.636C26.9893 232.784 27.5689 234.574 28.6087 236.091H29.495C28.6768 234.966 28.0291 232.665 28.0291 230.636C28.0291 228.608 28.6768 226.307 29.495 225.182H28.6087C27.5689 226.699 26.9893 228.489 26.9893 230.636ZM35.0086 235.119C36.9347 235.119 38.0427 233.487 38.0427 230.636C38.0427 227.807 36.9177 226.153 35.0086 226.153C33.0995 226.153 31.9745 227.807 31.9745 230.636C31.9745 233.487 33.0825 235.119 35.0086 235.119ZM35.0086 234.182C33.7387 234.182 32.9972 232.908 32.9972 230.636C32.9972 228.369 33.7472 227.074 35.0086 227.074C36.27 227.074 37.02 228.369 37.02 230.636C37.02 232.908 36.2785 234.182 35.0086 234.182ZM42.379 233.807H41.2881L41.237 234.284C41.1134 235.439 40.8705 236.589 40.7597 237.131H41.5268C41.7313 236.551 42.166 235.239 42.3109 234.267L42.379 233.807ZM47.7914 235.119C49.7175 235.119 50.8255 233.487 50.8255 230.636C50.8255 227.807 49.7005 226.153 47.7914 226.153C45.8823 226.153 44.7573 227.807 44.7573 230.636C44.7573 233.487 45.8653 235.119 47.7914 235.119ZM47.7914 234.182C46.5215 234.182 45.78 232.908 45.78 230.636C45.78 228.369 46.53 227.074 47.7914 227.074C49.0528 227.074 49.8028 228.369 49.8028 230.636C49.8028 232.908 49.0613 234.182 47.7914 234.182ZM55.8096 230.636C55.8096 228.489 55.23 226.699 54.1903 225.182H53.3039C54.1221 226.307 54.7698 228.608 54.7698 230.636C54.7698 232.665 54.1221 234.966 53.3039 236.091H54.1903C55.23 234.574 55.8096 232.784 55.8096 230.636Z" fill="#E1E1E1"/>
<path d="M130.003 134.136C131.264 134.136 131.69 133.352 131.912 132.994H132.031V134H133.003V125.273H131.997V128.494H131.912C131.69 128.153 131.298 127.369 130.02 127.369C128.366 127.369 127.224 128.682 127.224 130.744C127.224 132.824 128.366 134.136 130.003 134.136ZM130.139 133.233C128.878 133.233 128.23 132.125 128.23 130.727C128.23 129.347 128.86 128.273 130.139 128.273C131.366 128.273 132.014 129.261 132.014 130.727C132.014 132.21 131.349 133.233 130.139 133.233ZM135.464 134H136.47V127.455H135.464V134ZM135.975 126.364C136.367 126.364 136.691 126.057 136.691 125.682C136.691 125.307 136.367 125 135.975 125C135.583 125 135.26 125.307 135.26 125.682C135.26 126.057 135.583 126.364 135.975 126.364ZM143.428 128.92C143.113 127.991 142.405 127.369 141.11 127.369C139.729 127.369 138.706 128.153 138.706 129.261C138.706 130.165 139.243 130.77 140.445 131.051L141.536 131.307C142.197 131.46 142.508 131.776 142.508 132.227C142.508 132.79 141.911 133.25 140.974 133.25C140.151 133.25 139.635 132.896 139.456 132.193L138.502 132.432C138.736 133.544 139.653 134.136 140.991 134.136C142.512 134.136 143.547 133.305 143.547 132.176C143.547 131.264 142.976 130.689 141.809 130.403L140.837 130.165C140.062 129.973 139.712 129.713 139.712 129.21C139.712 128.648 140.309 128.239 141.11 128.239C141.988 128.239 142.35 128.724 142.525 129.176L143.428 128.92ZM148.388 127.455H146.99V125.886H145.984V127.455H144.996V128.307H145.984V132.398C145.984 133.54 146.905 134.085 147.757 134.085C148.132 134.085 148.371 134.017 148.507 133.966L148.303 133.062C148.217 133.08 148.081 133.114 147.859 133.114C147.416 133.114 146.99 132.977 146.99 132.125V128.307H148.388V127.455ZM152.307 134.153C153.449 134.153 154.045 133.54 154.25 133.114H154.301V134H155.307V129.688C155.307 127.608 153.722 127.369 152.886 127.369C151.898 127.369 150.773 127.71 150.261 128.903L151.216 129.244C151.437 128.767 151.962 128.256 152.92 128.256C153.845 128.256 154.301 128.746 154.301 129.585V129.619C154.301 130.105 153.807 130.062 152.614 130.216C151.399 130.374 150.074 130.642 150.074 132.142C150.074 133.42 151.062 134.153 152.307 134.153ZM152.46 133.25C151.659 133.25 151.079 132.892 151.079 132.193C151.079 131.426 151.778 131.188 152.562 131.085C152.989 131.034 154.131 130.915 154.301 130.71V131.631C154.301 132.449 153.653 133.25 152.46 133.25ZM158.628 130.062C158.628 128.92 159.335 128.273 160.298 128.273C161.232 128.273 161.798 128.882 161.798 129.909V134H162.804V129.841C162.804 128.17 161.914 127.369 160.588 127.369C159.6 127.369 158.986 127.812 158.679 128.477H158.594V127.455H157.622V134H158.628V130.062ZM167.781 134.136C169.23 134.136 170.184 133.25 170.355 132.091H169.349C169.162 132.807 168.565 133.233 167.781 133.233C166.588 133.233 165.821 132.244 165.821 130.727C165.821 129.244 166.605 128.273 167.781 128.273C168.667 128.273 169.196 128.818 169.349 129.415H170.355C170.184 128.188 169.145 127.369 167.764 127.369C165.991 127.369 164.815 128.767 164.815 130.761C164.815 132.722 165.94 134.136 167.781 134.136ZM175.049 134.136C176.379 134.136 177.35 133.472 177.657 132.483L176.686 132.21C176.43 132.892 175.838 133.233 175.049 133.233C173.869 133.233 173.055 132.47 173.008 131.068H177.76V130.642C177.76 128.205 176.311 127.369 174.947 127.369C173.174 127.369 171.998 128.767 171.998 130.778C171.998 132.79 173.157 134.136 175.049 134.136ZM173.008 130.199C173.076 129.18 173.796 128.273 174.947 128.273C176.038 128.273 176.737 129.091 176.737 130.199H173.008ZM180.502 134.068C180.924 134.068 181.269 133.723 181.269 133.301C181.269 132.879 180.924 132.534 180.502 132.534C180.08 132.534 179.735 132.879 179.735 133.301C179.735 133.723 180.08 134.068 180.502 134.068ZM180.502 129.21C180.924 129.21 181.269 128.865 181.269 128.443C181.269 128.021 180.924 127.676 180.502 127.676C180.08 127.676 179.735 128.021 179.735 128.443C179.735 128.865 180.08 129.21 180.502 129.21ZM190.119 134.119C191.781 134.119 193 132.892 193 131.222C193 129.53 191.824 128.29 190.222 128.29C189.633 128.29 189.062 128.499 188.705 128.784H188.653L188.96 126.21H192.608V125.273H188.074L187.545 129.568L188.534 129.688C188.896 129.428 189.514 129.24 190.051 129.244C191.163 129.253 191.977 130.097 191.977 131.239C191.977 132.359 191.193 133.182 190.119 133.182C189.224 133.182 188.513 132.607 188.432 131.818H187.409C187.473 133.148 188.619 134.119 190.119 134.119ZM195.513 134.068C195.935 134.068 196.28 133.723 196.28 133.301C196.28 132.879 195.935 132.534 195.513 132.534C195.091 132.534 194.746 132.879 194.746 133.301C194.746 133.723 195.091 134.068 195.513 134.068ZM198.547 134H204.053V133.062H199.996V132.994L201.956 130.898C203.456 129.291 203.9 128.541 203.9 127.574C203.9 126.227 202.809 125.153 201.275 125.153C199.745 125.153 198.581 126.193 198.581 127.727H199.587C199.587 126.734 200.231 126.074 201.24 126.074C202.187 126.074 202.911 126.653 202.911 127.574C202.911 128.379 202.438 128.976 201.428 130.08L198.547 133.233V134Z" fill="#49BAF2"/>
<path d="M44.2818 210.571C44.2818 210.571 50.5182 205.893 51.0944 199.485C44.6864 200.061 40.0086 206.297 40.0086 206.297C35.9263 205.928 33.0944 213.009 33.0944 213.009C35.5428 210.56 36.9596 210.975 36.9596 210.975C36.9596 210.975 36.3501 211.518 36.5515 212.196L38.3834 214.028C39.0611 214.233 39.6041 213.62 39.6041 213.62C39.6041 213.62 40.0191 215.037 37.5708 217.485C37.5708 217.485 44.6513 214.649 44.2818 210.571ZM45.6041 204.975C44.9858 204.357 44.9858 203.355 45.6041 202.737C46.2223 202.119 47.224 202.119 47.8422 202.737C48.4604 203.355 48.4604 204.357 47.8422 204.975C47.224 205.593 46.2223 205.593 45.6041 204.975Z" fill="#49BAF2"/>
<path d="M57.5 55.5L228 283" stroke="#A9A9A9"/>
<circle cx="82" cy="88" r="16" fill="white"/>
<circle cx="142" cy="168" r="16" fill="white"/>
<circle cx="202" cy="248" r="16" fill="white"/>
<path d="M82.0495 79H81.9505C81.4822 83.7274 77.7274 87.4822 73 87.9505V88.0495C77.7274 88.5178 81.4822 92.2726 81.9505 97H82.0495C82.5178 92.2726 86.2726 88.5178 91 88.0495V87.9505C86.2726 87.4822 82.5178 83.7274 82.0495 79Z" fill="#A9A9A9"/>
<path d="M142.05 159H141.95C141.482 163.727 137.727 167.482 133 167.95V168.05C137.727 168.518 141.482 172.273 141.95 177H142.05C142.518 172.273 146.273 168.518 151 168.05V167.95C146.273 167.482 142.518 163.727 142.05 159Z" fill="#A9A9A9"/>
<path d="M202.05 239H201.95C201.482 243.727 197.727 247.482 193 247.95V248.05C197.727 248.518 201.482 252.273 201.95 257H202.05C202.518 252.273 206.273 248.518 211 248.05V247.95C206.273 247.482 202.518 243.727 202.05 239Z" fill="#A9A9A9"/>
<circle cx="124" cy="144.5" r="3" fill="#49BAF2"/>
</svg>
