<svg width="336" height="184" viewBox="0 0 336 184" fill="none" xmlns="http://www.w3.org/2000/svg">
<rect width="336" height="184" fill="white"/>
<path d="M80.1329 31.2727H79.0761L76.8943 32.7216V33.7955L79.025 32.3807H79.0761V40H80.1329V31.2727ZM83.6383 38.2102H87.7463V40H88.752V38.2102H89.9451V37.2727H88.752V31.2727H87.4735L83.6383 37.3409V38.2102ZM87.7463 37.2727H84.7804V37.2045L87.6781 32.6193H87.7463V37.2727Z" fill="#49BAF2"/>
<path d="M76.0302 125.875L75.2802 125.125H70.625V125.875H74.9698L75.7198 126.625H77.75V125.875H76.0302Z" fill="#A9A9A9"/>
<path d="M68.2198 127.75H65V128.5H68.5302L69.2802 127.75H71.375V127H68.9698L68.2198 127.75Z" fill="#A9A9A9"/>
<path d="M68.375 123.25H69.875V124H68.375V123.25Z" fill="#A9A9A9"/>
<path d="M60.125 123.25C59.075 123.25 58.25 124.403 58.25 125.875C58.25 127.347 59.075 128.5 60.125 128.5C61.175 128.5 62 127.347 62 125.875C62 124.403 61.175 123.25 60.125 123.25ZM60.125 127.75C59.5152 127.75 59 126.891 59 125.875C59 124.859 59.5152 124 60.125 124C60.7348 124 61.25 124.859 61.25 125.875C61.25 126.891 60.7348 127.75 60.125 127.75Z" fill="#A9A9A9"/>
<path d="M75.875 121.75H60.125C58.2641 121.75 56.75 123.601 56.75 125.875C56.75 128.149 58.2641 130 60.125 130H75.875C77.7359 130 79.25 128.149 79.25 125.875C79.25 123.601 77.7359 121.75 75.875 121.75ZM60.125 129.25C58.6775 129.25 57.5 127.736 57.5 125.875C57.5 124.014 58.6775 122.5 60.125 122.5C61.5725 122.5 62.75 124.014 62.75 125.875C62.75 127.736 61.5725 129.25 60.125 129.25ZM73.25 127.375V128.125H77.825C77.4003 128.799 76.6709 129.22 75.875 129.25H62.0591C62.9098 128.476 63.4222 127.398 63.4841 126.25H66.6547L67.4047 125.5H68.75V124.75H67.0948L66.3448 125.5H63.4845C63.447 124.984 63.3266 124.478 63.1273 124H66.875V123.25H62.7266C62.5386 122.972 62.3141 122.719 62.0595 122.5H75.875C76.5036 122.513 77.0989 122.785 77.5212 123.25H72.125V124H78.0561C78.3523 124.58 78.5047 125.223 78.5 125.875C78.5014 126.388 78.4072 126.896 78.223 127.375H73.25Z" fill="#A9A9A9"/>
<path d="M44.0302 125.875L43.2802 125.125H38.625V125.875H42.9698L43.7198 126.625H45.75V125.875H44.0302Z" fill="#A9A9A9"/>
<path d="M36.2198 127.75H33V128.5H36.5302L37.2802 127.75H39.375V127H36.9698L36.2198 127.75Z" fill="#A9A9A9"/>
<path d="M36.375 123.25H37.875V124H36.375V123.25Z" fill="#A9A9A9"/>
<path d="M28.125 123.25C27.075 123.25 26.25 124.403 26.25 125.875C26.25 127.347 27.075 128.5 28.125 128.5C29.175 128.5 30 127.347 30 125.875C30 124.403 29.175 123.25 28.125 123.25ZM28.125 127.75C27.5152 127.75 27 126.891 27 125.875C27 124.859 27.5152 124 28.125 124C28.7348 124 29.25 124.859 29.25 125.875C29.25 126.891 28.7348 127.75 28.125 127.75Z" fill="#A9A9A9"/>
<path d="M43.875 121.75H28.125C26.2641 121.75 24.75 123.601 24.75 125.875C24.75 128.149 26.2641 130 28.125 130H43.875C45.7359 130 47.25 128.149 47.25 125.875C47.25 123.601 45.7359 121.75 43.875 121.75ZM28.125 129.25C26.6775 129.25 25.5 127.736 25.5 125.875C25.5 124.014 26.6775 122.5 28.125 122.5C29.5725 122.5 30.75 124.014 30.75 125.875C30.75 127.736 29.5725 129.25 28.125 129.25ZM41.25 127.375V128.125H45.825C45.4003 128.799 44.6709 129.22 43.875 129.25H30.0591C30.9098 128.476 31.4222 127.398 31.4841 126.25H34.6547L35.4047 125.5H36.75V124.75H35.0948L34.3448 125.5H31.4845C31.447 124.984 31.3266 124.478 31.1273 124H34.875V123.25H30.7266C30.5386 122.972 30.3141 122.719 30.0595 122.5H43.875C44.5036 122.513 45.0989 122.785 45.5212 123.25H40.125V124H46.0561C46.3523 124.58 46.5047 125.223 46.5 125.875C46.5014 126.388 46.4072 126.896 46.223 127.375H41.25Z" fill="#A9A9A9"/>
<path d="M76.0302 69.875L75.2802 69.125H70.625V69.875H74.9698L75.7198 70.625H77.75V69.875H76.0302Z" fill="#A9A9A9"/>
<path d="M68.2198 71.75H65V72.5H68.5302L69.2802 71.75H71.375V71H68.9698L68.2198 71.75Z" fill="#A9A9A9"/>
<path d="M68.375 67.25H69.875V68H68.375V67.25Z" fill="#A9A9A9"/>
<path d="M60.125 67.25C59.075 67.25 58.25 68.4031 58.25 69.875C58.25 71.3469 59.075 72.5 60.125 72.5C61.175 72.5 62 71.3469 62 69.875C62 68.4031 61.175 67.25 60.125 67.25ZM60.125 71.75C59.5152 71.75 59 70.8913 59 69.875C59 68.8587 59.5152 68 60.125 68C60.7348 68 61.25 68.8587 61.25 69.875C61.25 70.8913 60.7348 71.75 60.125 71.75Z" fill="#A9A9A9"/>
<path d="M75.875 65.75H60.125C58.2641 65.75 56.75 67.6006 56.75 69.875C56.75 72.1494 58.2641 74 60.125 74H75.875C77.7359 74 79.25 72.1494 79.25 69.875C79.25 67.6006 77.7359 65.75 75.875 65.75ZM60.125 73.25C58.6775 73.25 57.5 71.7359 57.5 69.875C57.5 68.0141 58.6775 66.5 60.125 66.5C61.5725 66.5 62.75 68.0141 62.75 69.875C62.75 71.7359 61.5725 73.25 60.125 73.25ZM73.25 71.375V72.125H77.825C77.4003 72.7991 76.6709 73.22 75.875 73.25H62.0591C62.9098 72.4761 63.4222 71.3984 63.4841 70.25H66.6547L67.4047 69.5H68.75V68.75H67.0948L66.3448 69.5H63.4845C63.447 68.9839 63.3266 68.4777 63.1273 68H66.875V67.25H62.7266C62.5386 66.9716 62.3141 66.7194 62.0595 66.5H75.875C76.5036 66.5131 77.0989 66.7845 77.5212 67.25H72.125V68H78.0561C78.3523 68.5803 78.5047 69.2234 78.5 69.875C78.5014 70.3878 78.4072 70.8964 78.223 71.375H73.25Z" fill="#A9A9A9"/>
<path d="M108.03 125.875L107.28 125.125H102.625V125.875H106.97L107.72 126.625H109.75V125.875H108.03Z" fill="#A9A9A9"/>
<path d="M100.22 127.75H97V128.5H100.53L101.28 127.75H103.375V127H100.97L100.22 127.75Z" fill="#A9A9A9"/>
<path d="M100.375 123.25H101.875V124H100.375V123.25Z" fill="#A9A9A9"/>
<path d="M92.125 123.25C91.075 123.25 90.25 124.403 90.25 125.875C90.25 127.347 91.075 128.5 92.125 128.5C93.175 128.5 94 127.347 94 125.875C94 124.403 93.175 123.25 92.125 123.25ZM92.125 127.75C91.5152 127.75 91 126.891 91 125.875C91 124.859 91.5152 124 92.125 124C92.7348 124 93.25 124.859 93.25 125.875C93.25 126.891 92.7348 127.75 92.125 127.75Z" fill="#A9A9A9"/>
<path d="M107.875 121.75H92.125C90.2641 121.75 88.75 123.601 88.75 125.875C88.75 128.149 90.2641 130 92.125 130H107.875C109.736 130 111.25 128.149 111.25 125.875C111.25 123.601 109.736 121.75 107.875 121.75ZM92.125 129.25C90.6775 129.25 89.5 127.736 89.5 125.875C89.5 124.014 90.6775 122.5 92.125 122.5C93.5725 122.5 94.75 124.014 94.75 125.875C94.75 127.736 93.5725 129.25 92.125 129.25ZM105.25 127.375V128.125H109.825C109.4 128.799 108.671 129.22 107.875 129.25H94.0591C94.9098 128.476 95.4222 127.398 95.4841 126.25H98.6547L99.4047 125.5H100.75V124.75H99.0948L98.3448 125.5H95.4845C95.447 124.984 95.3266 124.478 95.1273 124H98.875V123.25H94.7266C94.5386 122.972 94.3141 122.719 94.0595 122.5H107.875C108.504 122.513 109.099 122.785 109.521 123.25H104.125V124H110.056C110.352 124.58 110.505 125.223 110.5 125.875C110.501 126.388 110.407 126.896 110.223 127.375H105.25Z" fill="#A9A9A9"/>
<path d="M204.03 69.875L203.28 69.125H198.625V69.875H202.97L203.72 70.625H205.75V69.875H204.03Z" fill="#A9A9A9"/>
<path d="M196.22 71.75H193V72.5H196.53L197.28 71.75H199.375V71H196.97L196.22 71.75Z" fill="#A9A9A9"/>
<path d="M196.375 67.25H197.875V68H196.375V67.25Z" fill="#A9A9A9"/>
<path d="M188.125 67.25C187.075 67.25 186.25 68.4031 186.25 69.875C186.25 71.3469 187.075 72.5 188.125 72.5C189.175 72.5 190 71.3469 190 69.875C190 68.4031 189.175 67.25 188.125 67.25ZM188.125 71.75C187.515 71.75 187 70.8913 187 69.875C187 68.8587 187.515 68 188.125 68C188.735 68 189.25 68.8587 189.25 69.875C189.25 70.8913 188.735 71.75 188.125 71.75Z" fill="#A9A9A9"/>
<path d="M203.875 65.75H188.125C186.264 65.75 184.75 67.6006 184.75 69.875C184.75 72.1494 186.264 74 188.125 74H203.875C205.736 74 207.25 72.1494 207.25 69.875C207.25 67.6006 205.736 65.75 203.875 65.75ZM188.125 73.25C186.678 73.25 185.5 71.7359 185.5 69.875C185.5 68.0141 186.678 66.5 188.125 66.5C189.572 66.5 190.75 68.0141 190.75 69.875C190.75 71.7359 189.572 73.25 188.125 73.25ZM201.25 71.375V72.125H205.825C205.4 72.7991 204.671 73.22 203.875 73.25H190.059C190.91 72.4761 191.422 71.3984 191.484 70.25H194.655L195.405 69.5H196.75V68.75H195.095L194.345 69.5H191.485C191.447 68.9839 191.327 68.4777 191.127 68H194.875V67.25H190.727C190.539 66.9716 190.314 66.7194 190.06 66.5H203.875C204.504 66.5131 205.099 66.7845 205.521 67.25H200.125V68H206.056C206.352 68.5803 206.505 69.2234 206.5 69.875C206.501 70.3878 206.407 70.8964 206.223 71.375H201.25Z" fill="#A9A9A9"/>
<path d="M236.03 69.875L235.28 69.125H230.625V69.875H234.97L235.72 70.625H237.75V69.875H236.03Z" fill="#A9A9A9"/>
<path d="M228.22 71.75H225V72.5H228.53L229.28 71.75H231.375V71H228.97L228.22 71.75Z" fill="#A9A9A9"/>
<path d="M228.375 67.25H229.875V68H228.375V67.25Z" fill="#A9A9A9"/>
<path d="M220.125 67.25C219.075 67.25 218.25 68.4031 218.25 69.875C218.25 71.3469 219.075 72.5 220.125 72.5C221.175 72.5 222 71.3469 222 69.875C222 68.4031 221.175 67.25 220.125 67.25ZM220.125 71.75C219.515 71.75 219 70.8913 219 69.875C219 68.8587 219.515 68 220.125 68C220.735 68 221.25 68.8587 221.25 69.875C221.25 70.8913 220.735 71.75 220.125 71.75Z" fill="#A9A9A9"/>
<path d="M235.875 65.75H220.125C218.264 65.75 216.75 67.6006 216.75 69.875C216.75 72.1494 218.264 74 220.125 74H235.875C237.736 74 239.25 72.1494 239.25 69.875C239.25 67.6006 237.736 65.75 235.875 65.75ZM220.125 73.25C218.678 73.25 217.5 71.7359 217.5 69.875C217.5 68.0141 218.678 66.5 220.125 66.5C221.572 66.5 222.75 68.0141 222.75 69.875C222.75 71.7359 221.572 73.25 220.125 73.25ZM233.25 71.375V72.125H237.825C237.4 72.7991 236.671 73.22 235.875 73.25H222.059C222.91 72.4761 223.422 71.3984 223.484 70.25H226.655L227.405 69.5H228.75V68.75H227.095L226.345 69.5H223.485C223.447 68.9839 223.327 68.4777 223.127 68H226.875V67.25H222.727C222.539 66.9716 222.314 66.7194 222.06 66.5H235.875C236.504 66.5131 237.099 66.7845 237.521 67.25H232.125V68H238.056C238.352 68.5803 238.505 69.2234 238.5 69.875C238.501 70.3878 238.407 70.8964 238.223 71.375H233.25Z" fill="#A9A9A9"/>
<path d="M172.03 125.875L171.28 125.125H166.625V125.875H170.97L171.72 126.625H173.75V125.875H172.03Z" fill="#A9A9A9"/>
<path d="M164.22 127.75H161V128.5H164.53L165.28 127.75H167.375V127H164.97L164.22 127.75Z" fill="#A9A9A9"/>
<path d="M164.375 123.25H165.875V124H164.375V123.25Z" fill="#A9A9A9"/>
<path d="M156.125 123.25C155.075 123.25 154.25 124.403 154.25 125.875C154.25 127.347 155.075 128.5 156.125 128.5C157.175 128.5 158 127.347 158 125.875C158 124.403 157.175 123.25 156.125 123.25ZM156.125 127.75C155.515 127.75 155 126.891 155 125.875C155 124.859 155.515 124 156.125 124C156.735 124 157.25 124.859 157.25 125.875C157.25 126.891 156.735 127.75 156.125 127.75Z" fill="#A9A9A9"/>
<path d="M171.875 121.75H156.125C154.264 121.75 152.75 123.601 152.75 125.875C152.75 128.149 154.264 130 156.125 130H171.875C173.736 130 175.25 128.149 175.25 125.875C175.25 123.601 173.736 121.75 171.875 121.75ZM156.125 129.25C154.678 129.25 153.5 127.736 153.5 125.875C153.5 124.014 154.678 122.5 156.125 122.5C157.572 122.5 158.75 124.014 158.75 125.875C158.75 127.736 157.572 129.25 156.125 129.25ZM169.25 127.375V128.125H173.825C173.4 128.799 172.671 129.22 171.875 129.25H158.059C158.91 128.476 159.422 127.398 159.484 126.25H162.655L163.405 125.5H164.75V124.75H163.095L162.345 125.5H159.485C159.447 124.984 159.327 124.478 159.127 124H162.875V123.25H158.727C158.539 122.972 158.314 122.719 158.06 122.5H171.875C172.504 122.513 173.099 122.785 173.521 123.25H168.125V124H174.056C174.352 124.58 174.505 125.223 174.5 125.875C174.501 126.388 174.407 126.896 174.223 127.375H169.25Z" fill="#A9A9A9"/>
<path d="M44.0302 69.875L43.2802 69.125H38.625V69.875H42.9698L43.7198 70.625H45.75V69.875H44.0302Z" fill="#A9A9A9"/>
<path d="M36.2198 71.75H33V72.5H36.5302L37.2802 71.75H39.375V71H36.9698L36.2198 71.75Z" fill="#A9A9A9"/>
<path d="M36.375 67.25H37.875V68H36.375V67.25Z" fill="#A9A9A9"/>
<path d="M28.125 67.25C27.075 67.25 26.25 68.4031 26.25 69.875C26.25 71.3469 27.075 72.5 28.125 72.5C29.175 72.5 30 71.3469 30 69.875C30 68.4031 29.175 67.25 28.125 67.25ZM28.125 71.75C27.5152 71.75 27 70.8913 27 69.875C27 68.8587 27.5152 68 28.125 68C28.7348 68 29.25 68.8587 29.25 69.875C29.25 70.8913 28.7348 71.75 28.125 71.75Z" fill="#A9A9A9"/>
<path d="M43.875 65.75H28.125C26.2641 65.75 24.75 67.6006 24.75 69.875C24.75 72.1494 26.2641 74 28.125 74H43.875C45.7359 74 47.25 72.1494 47.25 69.875C47.25 67.6006 45.7359 65.75 43.875 65.75ZM28.125 73.25C26.6775 73.25 25.5 71.7359 25.5 69.875C25.5 68.0141 26.6775 66.5 28.125 66.5C29.5725 66.5 30.75 68.0141 30.75 69.875C30.75 71.7359 29.5725 73.25 28.125 73.25ZM41.25 71.375V72.125H45.825C45.4003 72.7991 44.6709 73.22 43.875 73.25H30.0591C30.9098 72.4761 31.4222 71.3984 31.4841 70.25H34.6547L35.4047 69.5H36.75V68.75H35.0948L34.3448 69.5H31.4845C31.447 68.9839 31.3266 68.4777 31.1273 68H34.875V67.25H30.7266C30.5386 66.9716 30.3141 66.7194 30.0595 66.5H43.875C44.5036 66.5131 45.0989 66.7845 45.5212 67.25H40.125V68H46.0561C46.3523 68.5803 46.5047 69.2234 46.5 69.875C46.5014 70.3878 46.4072 70.8964 46.223 71.375H41.25Z" fill="#A9A9A9"/>
<path d="M172.03 69.875L171.28 69.125H166.625V69.875H170.97L171.72 70.625H173.75V69.875H172.03Z" fill="#A9A9A9"/>
<path d="M164.22 71.75H161V72.5H164.53L165.28 71.75H167.375V71H164.97L164.22 71.75Z" fill="#A9A9A9"/>
<path d="M164.375 67.25H165.875V68H164.375V67.25Z" fill="#A9A9A9"/>
<path d="M156.125 67.25C155.075 67.25 154.25 68.4031 154.25 69.875C154.25 71.3469 155.075 72.5 156.125 72.5C157.175 72.5 158 71.3469 158 69.875C158 68.4031 157.175 67.25 156.125 67.25ZM156.125 71.75C155.515 71.75 155 70.8913 155 69.875C155 68.8587 155.515 68 156.125 68C156.735 68 157.25 68.8587 157.25 69.875C157.25 70.8913 156.735 71.75 156.125 71.75Z" fill="#A9A9A9"/>
<path d="M171.875 65.75H156.125C154.264 65.75 152.75 67.6006 152.75 69.875C152.75 72.1494 154.264 74 156.125 74H171.875C173.736 74 175.25 72.1494 175.25 69.875C175.25 67.6006 173.736 65.75 171.875 65.75ZM156.125 73.25C154.678 73.25 153.5 71.7359 153.5 69.875C153.5 68.0141 154.678 66.5 156.125 66.5C157.572 66.5 158.75 68.0141 158.75 69.875C158.75 71.7359 157.572 73.25 156.125 73.25ZM169.25 71.375V72.125H173.825C173.4 72.7991 172.671 73.22 171.875 73.25H158.059C158.91 72.4761 159.422 71.3984 159.484 70.25H162.655L163.405 69.5H164.75V68.75H163.095L162.345 69.5H159.485C159.447 68.9839 159.327 68.4777 159.127 68H162.875V67.25H158.727C158.539 66.9716 158.314 66.7194 158.06 66.5H171.875C172.504 66.5131 173.099 66.7845 173.521 67.25H168.125V68H174.056C174.352 68.5803 174.505 69.2234 174.5 69.875C174.501 70.3878 174.407 70.8964 174.223 71.375H169.25Z" fill="#A9A9A9"/>
<path d="M268.03 69.875L267.28 69.125H262.625V69.875H266.97L267.72 70.625H269.75V69.875H268.03Z" fill="#A9A9A9"/>
<path d="M260.22 71.75H257V72.5H260.53L261.28 71.75H263.375V71H260.97L260.22 71.75Z" fill="#A9A9A9"/>
<path d="M260.375 67.25H261.875V68H260.375V67.25Z" fill="#A9A9A9"/>
<path d="M252.125 67.25C251.075 67.25 250.25 68.4031 250.25 69.875C250.25 71.3469 251.075 72.5 252.125 72.5C253.175 72.5 254 71.3469 254 69.875C254 68.4031 253.175 67.25 252.125 67.25ZM252.125 71.75C251.515 71.75 251 70.8913 251 69.875C251 68.8587 251.515 68 252.125 68C252.735 68 253.25 68.8587 253.25 69.875C253.25 70.8913 252.735 71.75 252.125 71.75Z" fill="#A9A9A9"/>
<path d="M267.875 65.75H252.125C250.264 65.75 248.75 67.6006 248.75 69.875C248.75 72.1494 250.264 74 252.125 74H267.875C269.736 74 271.25 72.1494 271.25 69.875C271.25 67.6006 269.736 65.75 267.875 65.75ZM252.125 73.25C250.678 73.25 249.5 71.7359 249.5 69.875C249.5 68.0141 250.678 66.5 252.125 66.5C253.572 66.5 254.75 68.0141 254.75 69.875C254.75 71.7359 253.572 73.25 252.125 73.25ZM265.25 71.375V72.125H269.825C269.4 72.7991 268.671 73.22 267.875 73.25H254.059C254.91 72.4761 255.422 71.3984 255.484 70.25H258.655L259.405 69.5H260.75V68.75H259.095L258.345 69.5H255.485C255.447 68.9839 255.327 68.4777 255.127 68H258.875V67.25H254.727C254.539 66.9716 254.314 66.7194 254.06 66.5H267.875C268.504 66.5131 269.099 66.7845 269.521 67.25H264.125V68H270.056C270.352 68.5803 270.505 69.2234 270.5 69.875C270.501 70.3878 270.407 70.8964 270.223 71.375H265.25Z" fill="#A9A9A9"/>
<path d="M300.03 69.875L299.28 69.125H294.625V69.875H298.97L299.72 70.625H301.75V69.875H300.03Z" fill="#A9A9A9"/>
<path d="M292.22 71.75H289V72.5H292.53L293.28 71.75H295.375V71H292.97L292.22 71.75Z" fill="#A9A9A9"/>
<path d="M292.375 67.25H293.875V68H292.375V67.25Z" fill="#A9A9A9"/>
<path d="M284.125 67.25C283.075 67.25 282.25 68.4031 282.25 69.875C282.25 71.3469 283.075 72.5 284.125 72.5C285.175 72.5 286 71.3469 286 69.875C286 68.4031 285.175 67.25 284.125 67.25ZM284.125 71.75C283.515 71.75 283 70.8913 283 69.875C283 68.8587 283.515 68 284.125 68C284.735 68 285.25 68.8587 285.25 69.875C285.25 70.8913 284.735 71.75 284.125 71.75Z" fill="#A9A9A9"/>
<path d="M299.875 65.75H284.125C282.264 65.75 280.75 67.6006 280.75 69.875C280.75 72.1494 282.264 74 284.125 74H299.875C301.736 74 303.25 72.1494 303.25 69.875C303.25 67.6006 301.736 65.75 299.875 65.75ZM284.125 73.25C282.678 73.25 281.5 71.7359 281.5 69.875C281.5 68.0141 282.678 66.5 284.125 66.5C285.572 66.5 286.75 68.0141 286.75 69.875C286.75 71.7359 285.572 73.25 284.125 73.25ZM297.25 71.375V72.125H301.825C301.4 72.7991 300.671 73.22 299.875 73.25H286.059C286.91 72.4761 287.422 71.3984 287.484 70.25H290.655L291.405 69.5H292.75V68.75H291.095L290.345 69.5H287.485C287.447 68.9839 287.327 68.4777 287.127 68H290.875V67.25H286.727C286.539 66.9716 286.314 66.7194 286.06 66.5H299.875C300.504 66.5131 301.099 66.7845 301.521 67.25H296.125V68H302.056C302.352 68.5803 302.505 69.2234 302.5 69.875C302.501 70.3878 302.407 70.8964 302.223 71.375H297.25Z" fill="#A9A9A9"/>
<path d="M108.03 69.875L107.28 69.125H102.625V69.875H106.97L107.72 70.625H109.75V69.875H108.03Z" fill="#A9A9A9"/>
<path d="M100.22 71.75H97V72.5H100.53L101.28 71.75H103.375V71H100.97L100.22 71.75Z" fill="#A9A9A9"/>
<path d="M100.375 67.25H101.875V68H100.375V67.25Z" fill="#A9A9A9"/>
<path d="M92.125 67.25C91.075 67.25 90.25 68.4031 90.25 69.875C90.25 71.3469 91.075 72.5 92.125 72.5C93.175 72.5 94 71.3469 94 69.875C94 68.4031 93.175 67.25 92.125 67.25ZM92.125 71.75C91.5152 71.75 91 70.8913 91 69.875C91 68.8587 91.5152 68 92.125 68C92.7348 68 93.25 68.8587 93.25 69.875C93.25 70.8913 92.7348 71.75 92.125 71.75Z" fill="#A9A9A9"/>
<path d="M107.875 65.75H92.125C90.2641 65.75 88.75 67.6006 88.75 69.875C88.75 72.1494 90.2641 74 92.125 74H107.875C109.736 74 111.25 72.1494 111.25 69.875C111.25 67.6006 109.736 65.75 107.875 65.75ZM92.125 73.25C90.6775 73.25 89.5 71.7359 89.5 69.875C89.5 68.0141 90.6775 66.5 92.125 66.5C93.5725 66.5 94.75 68.0141 94.75 69.875C94.75 71.7359 93.5725 73.25 92.125 73.25ZM105.25 71.375V72.125H109.825C109.4 72.7991 108.671 73.22 107.875 73.25H94.0591C94.9098 72.4761 95.4222 71.3984 95.4841 70.25H98.6547L99.4047 69.5H100.75V68.75H99.0948L98.3448 69.5H95.4845C95.447 68.9839 95.3266 68.4777 95.1273 68H98.875V67.25H94.7266C94.5386 66.9716 94.3141 66.7194 94.0595 66.5H107.875C108.504 66.5131 109.099 66.7845 109.521 67.25H104.125V68H110.056C110.352 68.5803 110.505 69.2234 110.5 69.875C110.501 70.3878 110.407 70.8964 110.223 71.375H105.25Z" fill="#A9A9A9"/>
<path d="M140.03 69.875L139.28 69.125H134.625V69.875H138.97L139.72 70.625H141.75V69.875H140.03Z" fill="#A9A9A9"/>
<path d="M132.22 71.75H129V72.5H132.53L133.28 71.75H135.375V71H132.97L132.22 71.75Z" fill="#A9A9A9"/>
<path d="M132.375 67.25H133.875V68H132.375V67.25Z" fill="#A9A9A9"/>
<path d="M124.125 67.25C123.075 67.25 122.25 68.4031 122.25 69.875C122.25 71.3469 123.075 72.5 124.125 72.5C125.175 72.5 126 71.3469 126 69.875C126 68.4031 125.175 67.25 124.125 67.25ZM124.125 71.75C123.515 71.75 123 70.8913 123 69.875C123 68.8587 123.515 68 124.125 68C124.735 68 125.25 68.8587 125.25 69.875C125.25 70.8913 124.735 71.75 124.125 71.75Z" fill="#A9A9A9"/>
<path d="M139.875 65.75H124.125C122.264 65.75 120.75 67.6006 120.75 69.875C120.75 72.1494 122.264 74 124.125 74H139.875C141.736 74 143.25 72.1494 143.25 69.875C143.25 67.6006 141.736 65.75 139.875 65.75ZM124.125 73.25C122.678 73.25 121.5 71.7359 121.5 69.875C121.5 68.0141 122.678 66.5 124.125 66.5C125.572 66.5 126.75 68.0141 126.75 69.875C126.75 71.7359 125.572 73.25 124.125 73.25ZM137.25 71.375V72.125H141.825C141.4 72.7991 140.671 73.22 139.875 73.25H126.059C126.91 72.4761 127.422 71.3984 127.484 70.25H130.655L131.405 69.5H132.75V68.75H131.095L130.345 69.5H127.485C127.447 68.9839 127.327 68.4777 127.127 68H130.875V67.25H126.727C126.539 66.9716 126.314 66.7194 126.06 66.5H139.875C140.504 66.5131 141.099 66.7845 141.521 67.25H136.125V68H142.056C142.352 68.5803 142.505 69.2234 142.5 69.875C142.501 70.3878 142.407 70.8964 142.223 71.375H137.25Z" fill="#A9A9A9"/>
<path d="M140.03 125.875L139.28 125.125H134.625V125.875H138.97L139.72 126.625H141.75V125.875H140.03Z" fill="#A9A9A9"/>
<path d="M132.22 127.75H129V128.5H132.53L133.28 127.75H135.375V127H132.97L132.22 127.75Z" fill="#A9A9A9"/>
<path d="M132.375 123.25H133.875V124H132.375V123.25Z" fill="#A9A9A9"/>
<path d="M124.125 123.25C123.075 123.25 122.25 124.403 122.25 125.875C122.25 127.347 123.075 128.5 124.125 128.5C125.175 128.5 126 127.347 126 125.875C126 124.403 125.175 123.25 124.125 123.25ZM124.125 127.75C123.515 127.75 123 126.891 123 125.875C123 124.859 123.515 124 124.125 124C124.735 124 125.25 124.859 125.25 125.875C125.25 126.891 124.735 127.75 124.125 127.75Z" fill="#A9A9A9"/>
<path d="M139.875 121.75H124.125C122.264 121.75 120.75 123.601 120.75 125.875C120.75 128.149 122.264 130 124.125 130H139.875C141.736 130 143.25 128.149 143.25 125.875C143.25 123.601 141.736 121.75 139.875 121.75ZM124.125 129.25C122.678 129.25 121.5 127.736 121.5 125.875C121.5 124.014 122.678 122.5 124.125 122.5C125.572 122.5 126.75 124.014 126.75 125.875C126.75 127.736 125.572 129.25 124.125 129.25ZM137.25 127.375V128.125H141.825C141.4 128.799 140.671 129.22 139.875 129.25H126.059C126.91 128.476 127.422 127.398 127.484 126.25H130.655L131.405 125.5H132.75V124.75H131.095L130.345 125.5H127.485C127.447 124.984 127.327 124.478 127.127 124H130.875V123.25H126.727C126.539 122.972 126.314 122.719 126.06 122.5H139.875C140.504 122.513 141.099 122.785 141.521 123.25H136.125V124H142.056C142.352 124.58 142.505 125.223 142.5 125.875C142.501 126.388 142.407 126.896 142.223 127.375H137.25Z" fill="#A9A9A9"/>
<path d="M27.3 32.4C27.1343 32.4 27 32.5343 27 32.7V39.3C27 39.4657 27.1343 39.6 27.3 39.6H30.9C30.9322 39.5999 30.9642 39.5948 30.9948 39.5847L32.7948 38.9847C32.8527 38.9654 32.9034 38.9289 32.94 38.88L33.5853 38.0208L33.9501 38.5681C34 38.6427 34.0806 38.6912 34.17 38.7001C34.2599 38.7091 34.349 38.6768 34.4121 38.6122L35.4 37.6243L36.0897 38.3122C36.0975 38.32 36.1058 38.3273 36.1144 38.3343C36.2438 38.4379 36.4326 38.4169 36.5361 38.2876L37.5261 37.0492L38.1891 37.7122C38.2491 37.7729 38.3325 37.8049 38.4177 37.7998C38.503 37.7951 38.5822 37.7543 38.6355 37.6876L39.6255 36.4492L40.2885 37.1122C40.3483 37.1732 40.4318 37.2052 40.5171 37.1998C40.6024 37.1951 40.6816 37.1543 40.7349 37.0876L41.7249 35.8492L42.3879 36.5122C42.5051 36.6293 42.695 36.6293 42.8122 36.5122L43.8381 35.4862L44.5336 35.9497C44.5829 35.9826 44.6408 36.0002 44.7001 36.0002C44.8658 36 45 35.8657 45 35.7V33.3C45 32.803 44.5971 32.4 44.1 32.4H27.3ZM31.7163 38.7117L32.94 37.08C32.9789 37.0281 33 36.9649 33 36.9V34.2H36.9V33.6H33V33H44.1C44.2657 33 44.4 33.1343 44.4 33.3V33.6H39.3V34.2H44.4V35.1393L43.9665 34.8504C43.8475 34.7711 43.689 34.7868 43.5879 34.8879L42.6 35.8758L41.9121 35.1876C41.8512 35.1281 41.7685 35.0964 41.6835 35.1C41.598 35.1046 41.5186 35.1454 41.4651 35.2122L40.4751 36.4506L39.8121 35.7876C39.7515 35.7277 39.6686 35.6959 39.5835 35.7C39.4977 35.7044 39.4181 35.7454 39.3645 35.8125L38.3745 37.0508L37.7115 36.3878C37.7037 36.38 37.6954 36.3726 37.6868 36.3657C37.5574 36.2621 37.3686 36.2831 37.2651 36.4124L36.2751 37.6508L35.6121 36.9878C35.495 36.8707 35.3051 36.8707 35.1879 36.9878L34.2465 37.929L33.8496 37.3335C33.8307 37.3052 33.8072 37.2803 33.78 37.2599C33.6474 37.1606 33.4594 37.1874 33.36 37.32L32.5161 38.445L31.7163 38.7117ZM27.6 39V34.2H30.6V33.6H27.6V33H32.4V36.8001L30.75 39H27.6Z" fill="#E1E1E1"/>
<path d="M28.2 35.1V38.1C28.2 38.2657 28.3343 38.4 28.5 38.4H30.3C30.3911 38.4001 30.4773 38.3587 30.5343 38.2875L31.7343 36.7875C31.7769 36.7343 31.8 36.6682 31.8 36.6V35.1C31.8 34.9344 31.6657 34.8 31.5 34.8H28.5C28.3343 34.8 28.2 34.9344 28.2 35.1ZM28.8 35.4H31.2V36.4947L30.156 37.8H28.8V35.4Z" fill="#E1E1E1"/>
<path d="M31.8 34.2H31.2V33.6H31.8V34.2Z" fill="#E1E1E1"/>
<path d="M38.7 34.2H37.5V33.6H38.7V34.2Z" fill="#E1E1E1"/>
<path d="M108 29L102 32.5V39.5L108 43L114 39.5V32.5L108 29ZM112.777 32.7365L108 35.5234L103.223 32.7365L108 29.9499L112.777 32.7365ZM102.814 33.4483L107.593 36.2357V41.8125L102.814 39.025V33.4483ZM108.407 41.8125V36.2357L113.186 33.4483V39.025L108.407 41.8125Z" fill="#49BAF2"/>
<path d="M36.5825 87.2727H35.5257L33.3439 88.7216V89.7955L35.4746 88.3807H35.5257V96H36.5825V87.2727Z" fill="#E1E1E1"/>
<path d="M100.583 87.2727H99.5257L97.3439 88.7216V89.7955L99.4746 88.3807H99.5257V96H100.583V87.2727Z" fill="#E1E1E1"/>
<path d="M132.583 87.2727H131.526L129.344 88.7216V89.7955L131.475 88.3807H131.526V96H132.583V87.2727Z" fill="#E1E1E1"/>
<path d="M132.583 143.273H131.526L129.344 144.722V145.795L131.475 144.381H131.526V152H132.583V143.273Z" fill="#E1E1E1"/>
<path d="M164.583 87.2727H163.526L161.344 88.7216V89.7955L163.475 88.3807H163.526V96H164.583V87.2727Z" fill="#E1E1E1"/>
<path d="M100.583 143.273H99.5257L97.3439 144.722V145.795L99.4746 144.381H99.5257V152H100.583V143.273Z" fill="#E1E1E1"/>
<path d="M196.583 87.2727H195.526L193.344 88.7216V89.7955L195.475 88.3807H195.526V96H196.583V87.2727Z" fill="#E1E1E1"/>
<path d="M228.583 87.2727H227.526L225.344 88.7216V89.7955L227.475 88.3807H227.526V96H228.583V87.2727Z" fill="#E1E1E1"/>
<path d="M164.583 143.273H163.526L161.344 144.722V145.795L163.475 144.381H163.526V152H164.583V143.273Z" fill="#E1E1E1"/>
<path d="M68.5825 87.2727H67.5257L65.3439 88.7216V89.7955L67.4746 88.3807H67.5257V96H68.5825V87.2727Z" fill="#E1E1E1"/>
<path d="M36.5825 143.273H35.5257L33.3439 144.722V145.795L35.4746 144.381H35.5257V152H36.5825V143.273Z" fill="#E1E1E1"/>
<path d="M68.5825 143.273H67.5257L65.3439 144.722V145.795L67.4746 144.381H67.5257V152H68.5825V143.273Z" fill="#E1E1E1"/>
<path d="M260.583 87.2727H259.526L257.344 88.7216V89.7955L259.475 88.3807H259.526V96H260.583V87.2727Z" fill="#E1E1E1"/>
<path d="M292.583 87.2727H291.526L289.344 88.7216V89.7955L291.475 88.3807H291.526V96H292.583V87.2727Z" fill="#E1E1E1"/>
</svg>
