<svg width="360" height="240" viewBox="0 0 360 240" fill="none" xmlns="http://www.w3.org/2000/svg">
<rect width="360" height="240" fill="white"/>
<path d="M80.1329 31.2727H79.0761L76.8943 32.7216V33.7955L79.025 32.3807H79.0761V40H80.1329V31.2727ZM83.6383 38.2102H87.7463V40H88.752V38.2102H89.9451V37.2727H88.752V31.2727H87.4735L83.6383 37.3409V38.2102ZM87.7463 37.2727H84.7804V37.2045L87.6781 32.6193H87.7463V37.2727Z" fill="#E1E1E1"/>
<path d="M236.03 181.875L235.28 181.125H230.625V181.875H234.97L235.72 182.625H237.75V181.875H236.03Z" fill="#A9A9A9"/>
<path d="M228.22 183.75H225V184.5H228.53L229.28 183.75H231.375V183H228.97L228.22 183.75Z" fill="#A9A9A9"/>
<path d="M228.375 179.25H229.875V180H228.375V179.25Z" fill="#A9A9A9"/>
<path d="M220.125 179.25C219.075 179.25 218.25 180.403 218.25 181.875C218.25 183.347 219.075 184.5 220.125 184.5C221.175 184.5 222 183.347 222 181.875C222 180.403 221.175 179.25 220.125 179.25ZM220.125 183.75C219.515 183.75 219 182.891 219 181.875C219 180.859 219.515 180 220.125 180C220.735 180 221.25 180.859 221.25 181.875C221.25 182.891 220.735 183.75 220.125 183.75Z" fill="#A9A9A9"/>
<path d="M235.875 177.75H220.125C218.264 177.75 216.75 179.601 216.75 181.875C216.75 184.149 218.264 186 220.125 186H235.875C237.736 186 239.25 184.149 239.25 181.875C239.25 179.601 237.736 177.75 235.875 177.75ZM220.125 185.25C218.678 185.25 217.5 183.736 217.5 181.875C217.5 180.014 218.678 178.5 220.125 178.5C221.572 178.5 222.75 180.014 222.75 181.875C222.75 183.736 221.572 185.25 220.125 185.25ZM233.25 183.375V184.125H237.825C237.4 184.799 236.671 185.22 235.875 185.25H222.059C222.91 184.476 223.422 183.398 223.484 182.25H226.655L227.405 181.5H228.75V180.75H227.095L226.345 181.5H223.485C223.447 180.984 223.327 180.478 223.127 180H226.875V179.25H222.727C222.539 178.972 222.314 178.719 222.06 178.5H235.875C236.504 178.513 237.099 178.785 237.521 179.25H232.125V180H238.056C238.352 180.58 238.505 181.223 238.5 181.875C238.501 182.388 238.407 182.896 238.223 183.375H233.25Z" fill="#A9A9A9"/>
<path d="M204.03 181.875L203.28 181.125H198.625V181.875H202.97L203.72 182.625H205.75V181.875H204.03Z" fill="#A9A9A9"/>
<path d="M196.22 183.75H193V184.5H196.53L197.28 183.75H199.375V183H196.97L196.22 183.75Z" fill="#A9A9A9"/>
<path d="M196.375 179.25H197.875V180H196.375V179.25Z" fill="#A9A9A9"/>
<path d="M188.125 179.25C187.075 179.25 186.25 180.403 186.25 181.875C186.25 183.347 187.075 184.5 188.125 184.5C189.175 184.5 190 183.347 190 181.875C190 180.403 189.175 179.25 188.125 179.25ZM188.125 183.75C187.515 183.75 187 182.891 187 181.875C187 180.859 187.515 180 188.125 180C188.735 180 189.25 180.859 189.25 181.875C189.25 182.891 188.735 183.75 188.125 183.75Z" fill="#A9A9A9"/>
<path d="M203.875 177.75H188.125C186.264 177.75 184.75 179.601 184.75 181.875C184.75 184.149 186.264 186 188.125 186H203.875C205.736 186 207.25 184.149 207.25 181.875C207.25 179.601 205.736 177.75 203.875 177.75ZM188.125 185.25C186.678 185.25 185.5 183.736 185.5 181.875C185.5 180.014 186.678 178.5 188.125 178.5C189.572 178.5 190.75 180.014 190.75 181.875C190.75 183.736 189.572 185.25 188.125 185.25ZM201.25 183.375V184.125H205.825C205.4 184.799 204.671 185.22 203.875 185.25H190.059C190.91 184.476 191.422 183.398 191.484 182.25H194.655L195.405 181.5H196.75V180.75H195.095L194.345 181.5H191.485C191.447 180.984 191.327 180.478 191.127 180H194.875V179.25H190.727C190.539 178.972 190.314 178.719 190.06 178.5H203.875C204.504 178.513 205.099 178.785 205.521 179.25H200.125V180H206.056C206.352 180.58 206.505 181.223 206.5 181.875C206.501 182.388 206.407 182.896 206.223 183.375H201.25Z" fill="#A9A9A9"/>
<path d="M100.03 181.875L99.2802 181.125H94.625V181.875H98.9698L99.7198 182.625H101.75V181.875H100.03Z" fill="#A9A9A9"/>
<path d="M92.2198 183.75H89V184.5H92.5302L93.2802 183.75H95.375V183H92.9698L92.2198 183.75Z" fill="#A9A9A9"/>
<path d="M92.375 179.25H93.875V180H92.375V179.25Z" fill="#A9A9A9"/>
<path d="M84.125 179.25C83.075 179.25 82.25 180.403 82.25 181.875C82.25 183.347 83.075 184.5 84.125 184.5C85.175 184.5 86 183.347 86 181.875C86 180.403 85.175 179.25 84.125 179.25ZM84.125 183.75C83.5152 183.75 83 182.891 83 181.875C83 180.859 83.5152 180 84.125 180C84.7348 180 85.25 180.859 85.25 181.875C85.25 182.891 84.7348 183.75 84.125 183.75Z" fill="#A9A9A9"/>
<path d="M99.875 177.75H84.125C82.2641 177.75 80.75 179.601 80.75 181.875C80.75 184.149 82.2641 186 84.125 186H99.875C101.736 186 103.25 184.149 103.25 181.875C103.25 179.601 101.736 177.75 99.875 177.75ZM84.125 185.25C82.6775 185.25 81.5 183.736 81.5 181.875C81.5 180.014 82.6775 178.5 84.125 178.5C85.5725 178.5 86.75 180.014 86.75 181.875C86.75 183.736 85.5725 185.25 84.125 185.25ZM97.25 183.375V184.125H101.825C101.4 184.799 100.671 185.22 99.875 185.25H86.0591C86.9098 184.476 87.4222 183.398 87.4841 182.25H90.6547L91.4047 181.5H92.75V180.75H91.0948L90.3448 181.5H87.4845C87.447 180.984 87.3266 180.478 87.1273 180H90.875V179.25H86.7266C86.5386 178.972 86.3141 178.719 86.0595 178.5H99.875C100.504 178.513 101.099 178.785 101.521 179.25H96.125V180H102.056C102.352 180.58 102.505 181.223 102.5 181.875C102.501 182.388 102.407 182.896 102.223 183.375H97.25Z" fill="#A9A9A9"/>
<path d="M76.0302 125.875L75.2802 125.125H70.625V125.875H74.9698L75.7198 126.625H77.75V125.875H76.0302Z" fill="#A9A9A9"/>
<path d="M68.2198 127.75H65V128.5H68.5302L69.2802 127.75H71.375V127H68.9698L68.2198 127.75Z" fill="#A9A9A9"/>
<path d="M68.375 123.25H69.875V124H68.375V123.25Z" fill="#A9A9A9"/>
<path d="M60.125 123.25C59.075 123.25 58.25 124.403 58.25 125.875C58.25 127.347 59.075 128.5 60.125 128.5C61.175 128.5 62 127.347 62 125.875C62 124.403 61.175 123.25 60.125 123.25ZM60.125 127.75C59.5152 127.75 59 126.891 59 125.875C59 124.859 59.5152 124 60.125 124C60.7348 124 61.25 124.859 61.25 125.875C61.25 126.891 60.7348 127.75 60.125 127.75Z" fill="#A9A9A9"/>
<path d="M75.875 121.75H60.125C58.2641 121.75 56.75 123.601 56.75 125.875C56.75 128.149 58.2641 130 60.125 130H75.875C77.7359 130 79.25 128.149 79.25 125.875C79.25 123.601 77.7359 121.75 75.875 121.75ZM60.125 129.25C58.6775 129.25 57.5 127.736 57.5 125.875C57.5 124.014 58.6775 122.5 60.125 122.5C61.5725 122.5 62.75 124.014 62.75 125.875C62.75 127.736 61.5725 129.25 60.125 129.25ZM73.25 127.375V128.125H77.825C77.4003 128.799 76.6709 129.22 75.875 129.25H62.0591C62.9098 128.476 63.4222 127.398 63.4841 126.25H66.6547L67.4047 125.5H68.75V124.75H67.0948L66.3448 125.5H63.4845C63.447 124.984 63.3266 124.478 63.1273 124H66.875V123.25H62.7266C62.5386 122.972 62.3141 122.719 62.0595 122.5H75.875C76.5036 122.513 77.0989 122.785 77.5212 123.25H72.125V124H78.0561C78.3523 124.58 78.5047 125.223 78.5 125.875C78.5014 126.388 78.4072 126.896 78.223 127.375H73.25Z" fill="#A9A9A9"/>
<path d="M228.03 125.875L227.28 125.125H222.625V125.875H226.97L227.72 126.625H229.75V125.875H228.03Z" fill="#A9A9A9"/>
<path d="M220.22 127.75H217V128.5H220.53L221.28 127.75H223.375V127H220.97L220.22 127.75Z" fill="#A9A9A9"/>
<path d="M220.375 123.25H221.875V124H220.375V123.25Z" fill="#A9A9A9"/>
<path d="M212.125 123.25C211.075 123.25 210.25 124.403 210.25 125.875C210.25 127.347 211.075 128.5 212.125 128.5C213.175 128.5 214 127.347 214 125.875C214 124.403 213.175 123.25 212.125 123.25ZM212.125 127.75C211.515 127.75 211 126.891 211 125.875C211 124.859 211.515 124 212.125 124C212.735 124 213.25 124.859 213.25 125.875C213.25 126.891 212.735 127.75 212.125 127.75Z" fill="#A9A9A9"/>
<path d="M227.875 121.75H212.125C210.264 121.75 208.75 123.601 208.75 125.875C208.75 128.149 210.264 130 212.125 130H227.875C229.736 130 231.25 128.149 231.25 125.875C231.25 123.601 229.736 121.75 227.875 121.75ZM212.125 129.25C210.678 129.25 209.5 127.736 209.5 125.875C209.5 124.014 210.678 122.5 212.125 122.5C213.572 122.5 214.75 124.014 214.75 125.875C214.75 127.736 213.572 129.25 212.125 129.25ZM225.25 127.375V128.125H229.825C229.4 128.799 228.671 129.22 227.875 129.25H214.059C214.91 128.476 215.422 127.398 215.484 126.25H218.655L219.405 125.5H220.75V124.75H219.095L218.345 125.5H215.485C215.447 124.984 215.327 124.478 215.127 124H218.875V123.25H214.727C214.539 122.972 214.314 122.719 214.06 122.5H227.875C228.504 122.513 229.099 122.785 229.521 123.25H224.125V124H230.056C230.352 124.58 230.505 125.223 230.5 125.875C230.501 126.388 230.407 126.896 230.223 127.375H225.25Z" fill="#A9A9A9"/>
<path d="M260.03 125.875L259.28 125.125H254.625V125.875H258.97L259.72 126.625H261.75V125.875H260.03Z" fill="#A9A9A9"/>
<path d="M252.22 127.75H249V128.5H252.53L253.28 127.75H255.375V127H252.97L252.22 127.75Z" fill="#A9A9A9"/>
<path d="M252.375 123.25H253.875V124H252.375V123.25Z" fill="#A9A9A9"/>
<path d="M244.125 123.25C243.075 123.25 242.25 124.403 242.25 125.875C242.25 127.347 243.075 128.5 244.125 128.5C245.175 128.5 246 127.347 246 125.875C246 124.403 245.175 123.25 244.125 123.25ZM244.125 127.75C243.515 127.75 243 126.891 243 125.875C243 124.859 243.515 124 244.125 124C244.735 124 245.25 124.859 245.25 125.875C245.25 126.891 244.735 127.75 244.125 127.75Z" fill="#A9A9A9"/>
<path d="M259.875 121.75H244.125C242.264 121.75 240.75 123.601 240.75 125.875C240.75 128.149 242.264 130 244.125 130H259.875C261.736 130 263.25 128.149 263.25 125.875C263.25 123.601 261.736 121.75 259.875 121.75ZM244.125 129.25C242.678 129.25 241.5 127.736 241.5 125.875C241.5 124.014 242.678 122.5 244.125 122.5C245.572 122.5 246.75 124.014 246.75 125.875C246.75 127.736 245.572 129.25 244.125 129.25ZM257.25 127.375V128.125H261.825C261.4 128.799 260.671 129.22 259.875 129.25H246.059C246.91 128.476 247.422 127.398 247.484 126.25H250.655L251.405 125.5H252.75V124.75H251.095L250.345 125.5H247.485C247.447 124.984 247.327 124.478 247.127 124H250.875V123.25H246.727C246.539 122.972 246.314 122.719 246.06 122.5H259.875C260.504 122.513 261.099 122.785 261.521 123.25H256.125V124H262.056C262.352 124.58 262.505 125.223 262.5 125.875C262.501 126.388 262.407 126.896 262.223 127.375H257.25Z" fill="#A9A9A9"/>
<path d="M292.03 125.875L291.28 125.125H286.625V125.875H290.97L291.72 126.625H293.75V125.875H292.03Z" fill="#A9A9A9"/>
<path d="M284.22 127.75H281V128.5H284.53L285.28 127.75H287.375V127H284.97L284.22 127.75Z" fill="#A9A9A9"/>
<path d="M284.375 123.25H285.875V124H284.375V123.25Z" fill="#A9A9A9"/>
<path d="M276.125 123.25C275.075 123.25 274.25 124.403 274.25 125.875C274.25 127.347 275.075 128.5 276.125 128.5C277.175 128.5 278 127.347 278 125.875C278 124.403 277.175 123.25 276.125 123.25ZM276.125 127.75C275.515 127.75 275 126.891 275 125.875C275 124.859 275.515 124 276.125 124C276.735 124 277.25 124.859 277.25 125.875C277.25 126.891 276.735 127.75 276.125 127.75Z" fill="#A9A9A9"/>
<path d="M291.875 121.75H276.125C274.264 121.75 272.75 123.601 272.75 125.875C272.75 128.149 274.264 130 276.125 130H291.875C293.736 130 295.25 128.149 295.25 125.875C295.25 123.601 293.736 121.75 291.875 121.75ZM276.125 129.25C274.678 129.25 273.5 127.736 273.5 125.875C273.5 124.014 274.678 122.5 276.125 122.5C277.572 122.5 278.75 124.014 278.75 125.875C278.75 127.736 277.572 129.25 276.125 129.25ZM289.25 127.375V128.125H293.825C293.4 128.799 292.671 129.22 291.875 129.25H278.059C278.91 128.476 279.422 127.398 279.484 126.25H282.655L283.405 125.5H284.75V124.75H283.095L282.345 125.5H279.485C279.447 124.984 279.327 124.478 279.127 124H282.875V123.25H278.727C278.539 122.972 278.314 122.719 278.06 122.5H291.875C292.504 122.513 293.099 122.785 293.521 123.25H288.125V124H294.056C294.352 124.58 294.505 125.223 294.5 125.875C294.501 126.388 294.407 126.896 294.223 127.375H289.25Z" fill="#A9A9A9"/>
<path d="M44.0302 69.875L43.2802 69.125H38.625V69.875H42.9698L43.7198 70.625H45.75V69.875H44.0302Z" fill="#A9A9A9"/>
<path d="M36.2198 71.75H33V72.5H36.5302L37.2802 71.75H39.375V71H36.9698L36.2198 71.75Z" fill="#A9A9A9"/>
<path d="M36.375 67.25H37.875V68H36.375V67.25Z" fill="#A9A9A9"/>
<path d="M28.125 67.25C27.075 67.25 26.25 68.4031 26.25 69.875C26.25 71.3469 27.075 72.5 28.125 72.5C29.175 72.5 30 71.3469 30 69.875C30 68.4031 29.175 67.25 28.125 67.25ZM28.125 71.75C27.5152 71.75 27 70.8913 27 69.875C27 68.8587 27.5152 68 28.125 68C28.7348 68 29.25 68.8587 29.25 69.875C29.25 70.8913 28.7348 71.75 28.125 71.75Z" fill="#A9A9A9"/>
<path d="M43.875 65.75H28.125C26.2641 65.75 24.75 67.6006 24.75 69.875C24.75 72.1494 26.2641 74 28.125 74H43.875C45.7359 74 47.25 72.1494 47.25 69.875C47.25 67.6006 45.7359 65.75 43.875 65.75ZM28.125 73.25C26.6775 73.25 25.5 71.7359 25.5 69.875C25.5 68.0141 26.6775 66.5 28.125 66.5C29.5725 66.5 30.75 68.0141 30.75 69.875C30.75 71.7359 29.5725 73.25 28.125 73.25ZM41.25 71.375V72.125H45.825C45.4003 72.7991 44.6709 73.22 43.875 73.25H30.0591C30.9098 72.4761 31.4222 71.3984 31.4841 70.25H34.6547L35.4047 69.5H36.75V68.75H35.0948L34.3448 69.5H31.4845C31.447 68.9839 31.3266 68.4777 31.1273 68H34.875V67.25H30.7266C30.5386 66.9716 30.3141 66.7194 30.0595 66.5H43.875C44.5036 66.5131 45.0989 66.7845 45.5212 67.25H40.125V68H46.0561C46.3523 68.5803 46.5047 69.2234 46.5 69.875C46.5014 70.3878 46.4072 70.8964 46.223 71.375H41.25Z" fill="#A9A9A9"/>
<path d="M220.03 69.875L219.28 69.125H214.625V69.875H218.97L219.72 70.625H221.75V69.875H220.03Z" fill="#A9A9A9"/>
<path d="M212.22 71.75H209V72.5H212.53L213.28 71.75H215.375V71H212.97L212.22 71.75Z" fill="#A9A9A9"/>
<path d="M212.375 67.25H213.875V68H212.375V67.25Z" fill="#A9A9A9"/>
<path d="M204.125 67.25C203.075 67.25 202.25 68.4031 202.25 69.875C202.25 71.3469 203.075 72.5 204.125 72.5C205.175 72.5 206 71.3469 206 69.875C206 68.4031 205.175 67.25 204.125 67.25ZM204.125 71.75C203.515 71.75 203 70.8913 203 69.875C203 68.8587 203.515 68 204.125 68C204.735 68 205.25 68.8587 205.25 69.875C205.25 70.8913 204.735 71.75 204.125 71.75Z" fill="#A9A9A9"/>
<path d="M219.875 65.75H204.125C202.264 65.75 200.75 67.6006 200.75 69.875C200.75 72.1494 202.264 74 204.125 74H219.875C221.736 74 223.25 72.1494 223.25 69.875C223.25 67.6006 221.736 65.75 219.875 65.75ZM204.125 73.25C202.678 73.25 201.5 71.7359 201.5 69.875C201.5 68.0141 202.678 66.5 204.125 66.5C205.572 66.5 206.75 68.0141 206.75 69.875C206.75 71.7359 205.572 73.25 204.125 73.25ZM217.25 71.375V72.125H221.825C221.4 72.7991 220.671 73.22 219.875 73.25H206.059C206.91 72.4761 207.422 71.3984 207.484 70.25H210.655L211.405 69.5H212.75V68.75H211.095L210.345 69.5H207.485C207.447 68.9839 207.327 68.4777 207.127 68H210.875V67.25H206.727C206.539 66.9716 206.314 66.7194 206.06 66.5H219.875C220.504 66.5131 221.099 66.7845 221.521 67.25H216.125V68H222.056C222.352 68.5803 222.505 69.2234 222.5 69.875C222.501 70.3878 222.407 70.8964 222.223 71.375H217.25Z" fill="#A9A9A9"/>
<path d="M300.03 69.875L299.28 69.125H294.625V69.875H298.97L299.72 70.625H301.75V69.875H300.03Z" fill="#A9A9A9"/>
<path d="M292.22 71.75H289V72.5H292.53L293.28 71.75H295.375V71H292.97L292.22 71.75Z" fill="#A9A9A9"/>
<path d="M292.375 67.25H293.875V68H292.375V67.25Z" fill="#A9A9A9"/>
<path d="M284.125 67.25C283.075 67.25 282.25 68.4031 282.25 69.875C282.25 71.3469 283.075 72.5 284.125 72.5C285.175 72.5 286 71.3469 286 69.875C286 68.4031 285.175 67.25 284.125 67.25ZM284.125 71.75C283.515 71.75 283 70.8913 283 69.875C283 68.8587 283.515 68 284.125 68C284.735 68 285.25 68.8587 285.25 69.875C285.25 70.8913 284.735 71.75 284.125 71.75Z" fill="#A9A9A9"/>
<path d="M299.875 65.75H284.125C282.264 65.75 280.75 67.6006 280.75 69.875C280.75 72.1494 282.264 74 284.125 74H299.875C301.736 74 303.25 72.1494 303.25 69.875C303.25 67.6006 301.736 65.75 299.875 65.75ZM284.125 73.25C282.678 73.25 281.5 71.7359 281.5 69.875C281.5 68.0141 282.678 66.5 284.125 66.5C285.572 66.5 286.75 68.0141 286.75 69.875C286.75 71.7359 285.572 73.25 284.125 73.25ZM297.25 71.375V72.125H301.825C301.4 72.7991 300.671 73.22 299.875 73.25H286.059C286.91 72.4761 287.422 71.3984 287.484 70.25H290.655L291.405 69.5H292.75V68.75H291.095L290.345 69.5H287.485C287.447 68.9839 287.327 68.4777 287.127 68H290.875V67.25H286.727C286.539 66.9716 286.314 66.7194 286.06 66.5H299.875C300.504 66.5131 301.099 66.7845 301.521 67.25H296.125V68H302.056C302.352 68.5803 302.505 69.2234 302.5 69.875C302.501 70.3878 302.407 70.8964 302.223 71.375H297.25Z" fill="#A9A9A9"/>
<path d="M332.03 69.875L331.28 69.125H326.625V69.875H330.97L331.72 70.625H333.75V69.875H332.03Z" fill="#A9A9A9"/>
<path d="M324.22 71.75H321V72.5H324.53L325.28 71.75H327.375V71H324.97L324.22 71.75Z" fill="#A9A9A9"/>
<path d="M324.375 67.25H325.875V68H324.375V67.25Z" fill="#A9A9A9"/>
<path d="M316.125 67.25C315.075 67.25 314.25 68.4031 314.25 69.875C314.25 71.3469 315.075 72.5 316.125 72.5C317.175 72.5 318 71.3469 318 69.875C318 68.4031 317.175 67.25 316.125 67.25ZM316.125 71.75C315.515 71.75 315 70.8913 315 69.875C315 68.8587 315.515 68 316.125 68C316.735 68 317.25 68.8587 317.25 69.875C317.25 70.8913 316.735 71.75 316.125 71.75Z" fill="#A9A9A9"/>
<path d="M331.875 65.75H316.125C314.264 65.75 312.75 67.6006 312.75 69.875C312.75 72.1494 314.264 74 316.125 74H331.875C333.736 74 335.25 72.1494 335.25 69.875C335.25 67.6006 333.736 65.75 331.875 65.75ZM316.125 73.25C314.678 73.25 313.5 71.7359 313.5 69.875C313.5 68.0141 314.678 66.5 316.125 66.5C317.572 66.5 318.75 68.0141 318.75 69.875C318.75 71.7359 317.572 73.25 316.125 73.25ZM329.25 71.375V72.125H333.825C333.4 72.7991 332.671 73.22 331.875 73.25H318.059C318.91 72.4761 319.422 71.3984 319.484 70.25H322.655L323.405 69.5H324.75V68.75H323.095L322.345 69.5H319.485C319.447 68.9839 319.327 68.4777 319.127 68H322.875V67.25H318.727C318.539 66.9716 318.314 66.7194 318.06 66.5H331.875C332.504 66.5131 333.099 66.7845 333.521 67.25H328.125V68H334.056C334.352 68.5803 334.505 69.2234 334.5 69.875C334.501 70.3878 334.407 70.8964 334.223 71.375H329.25Z" fill="#A9A9A9"/>
<path d="M124.03 69.875L123.28 69.125H118.625V69.875H122.97L123.72 70.625H125.75V69.875H124.03Z" fill="#A9A9A9"/>
<path d="M116.22 71.75H113V72.5H116.53L117.28 71.75H119.375V71H116.97L116.22 71.75Z" fill="#A9A9A9"/>
<path d="M116.375 67.25H117.875V68H116.375V67.25Z" fill="#A9A9A9"/>
<path d="M108.125 67.25C107.075 67.25 106.25 68.4031 106.25 69.875C106.25 71.3469 107.075 72.5 108.125 72.5C109.175 72.5 110 71.3469 110 69.875C110 68.4031 109.175 67.25 108.125 67.25ZM108.125 71.75C107.515 71.75 107 70.8913 107 69.875C107 68.8587 107.515 68 108.125 68C108.735 68 109.25 68.8587 109.25 69.875C109.25 70.8913 108.735 71.75 108.125 71.75Z" fill="#A9A9A9"/>
<path d="M123.875 65.75H108.125C106.264 65.75 104.75 67.6006 104.75 69.875C104.75 72.1494 106.264 74 108.125 74H123.875C125.736 74 127.25 72.1494 127.25 69.875C127.25 67.6006 125.736 65.75 123.875 65.75ZM108.125 73.25C106.678 73.25 105.5 71.7359 105.5 69.875C105.5 68.0141 106.678 66.5 108.125 66.5C109.572 66.5 110.75 68.0141 110.75 69.875C110.75 71.7359 109.572 73.25 108.125 73.25ZM121.25 71.375V72.125H125.825C125.4 72.7991 124.671 73.22 123.875 73.25H110.059C110.91 72.4761 111.422 71.3984 111.484 70.25H114.655L115.405 69.5H116.75V68.75H115.095L114.345 69.5H111.485C111.447 68.9839 111.327 68.4777 111.127 68H114.875V67.25H110.727C110.539 66.9716 110.314 66.7194 110.06 66.5H123.875C124.504 66.5131 125.099 66.7845 125.521 67.25H120.125V68H126.056C126.352 68.5803 126.505 69.2234 126.5 69.875C126.501 70.3878 126.407 70.8964 126.223 71.375H121.25Z" fill="#A9A9A9"/>
<path d="M156.03 69.875L155.28 69.125H150.625V69.875H154.97L155.72 70.625H157.75V69.875H156.03Z" fill="#A9A9A9"/>
<path d="M148.22 71.75H145V72.5H148.53L149.28 71.75H151.375V71H148.97L148.22 71.75Z" fill="#A9A9A9"/>
<path d="M148.375 67.25H149.875V68H148.375V67.25Z" fill="#A9A9A9"/>
<path d="M140.125 67.25C139.075 67.25 138.25 68.4031 138.25 69.875C138.25 71.3469 139.075 72.5 140.125 72.5C141.175 72.5 142 71.3469 142 69.875C142 68.4031 141.175 67.25 140.125 67.25ZM140.125 71.75C139.515 71.75 139 70.8913 139 69.875C139 68.8587 139.515 68 140.125 68C140.735 68 141.25 68.8587 141.25 69.875C141.25 70.8913 140.735 71.75 140.125 71.75Z" fill="#A9A9A9"/>
<path d="M155.875 65.75H140.125C138.264 65.75 136.75 67.6006 136.75 69.875C136.75 72.1494 138.264 74 140.125 74H155.875C157.736 74 159.25 72.1494 159.25 69.875C159.25 67.6006 157.736 65.75 155.875 65.75ZM140.125 73.25C138.678 73.25 137.5 71.7359 137.5 69.875C137.5 68.0141 138.678 66.5 140.125 66.5C141.572 66.5 142.75 68.0141 142.75 69.875C142.75 71.7359 141.572 73.25 140.125 73.25ZM153.25 71.375V72.125H157.825C157.4 72.7991 156.671 73.22 155.875 73.25H142.059C142.91 72.4761 143.422 71.3984 143.484 70.25H146.655L147.405 69.5H148.75V68.75H147.095L146.345 69.5H143.485C143.447 68.9839 143.327 68.4777 143.127 68H146.875V67.25H142.727C142.539 66.9716 142.314 66.7194 142.06 66.5H155.875C156.504 66.5131 157.099 66.7845 157.521 67.25H152.125V68H158.056C158.352 68.5803 158.505 69.2234 158.5 69.875C158.501 70.3878 158.407 70.8964 158.223 71.375H153.25Z" fill="#A9A9A9"/>
<path d="M188.03 69.875L187.28 69.125H182.625V69.875H186.97L187.72 70.625H189.75V69.875H188.03Z" fill="#A9A9A9"/>
<path d="M180.22 71.75H177V72.5H180.53L181.28 71.75H183.375V71H180.97L180.22 71.75Z" fill="#A9A9A9"/>
<path d="M180.375 67.25H181.875V68H180.375V67.25Z" fill="#A9A9A9"/>
<path d="M172.125 67.25C171.075 67.25 170.25 68.4031 170.25 69.875C170.25 71.3469 171.075 72.5 172.125 72.5C173.175 72.5 174 71.3469 174 69.875C174 68.4031 173.175 67.25 172.125 67.25ZM172.125 71.75C171.515 71.75 171 70.8913 171 69.875C171 68.8587 171.515 68 172.125 68C172.735 68 173.25 68.8587 173.25 69.875C173.25 70.8913 172.735 71.75 172.125 71.75Z" fill="#A9A9A9"/>
<path d="M187.875 65.75H172.125C170.264 65.75 168.75 67.6006 168.75 69.875C168.75 72.1494 170.264 74 172.125 74H187.875C189.736 74 191.25 72.1494 191.25 69.875C191.25 67.6006 189.736 65.75 187.875 65.75ZM172.125 73.25C170.678 73.25 169.5 71.7359 169.5 69.875C169.5 68.0141 170.678 66.5 172.125 66.5C173.572 66.5 174.75 68.0141 174.75 69.875C174.75 71.7359 173.572 73.25 172.125 73.25ZM185.25 71.375V72.125H189.825C189.4 72.7991 188.671 73.22 187.875 73.25H174.059C174.91 72.4761 175.422 71.3984 175.484 70.25H178.655L179.405 69.5H180.75V68.75H179.095L178.345 69.5H175.485C175.447 68.9839 175.327 68.4777 175.127 68H178.875V67.25H174.727C174.539 66.9716 174.314 66.7194 174.06 66.5H187.875C188.504 66.5131 189.099 66.7845 189.521 67.25H184.125V68H190.056C190.352 68.5803 190.505 69.2234 190.5 69.875C190.501 70.3878 190.407 70.8964 190.223 71.375H185.25Z" fill="#A9A9A9"/>
<path d="M108 29L102 32.5V39.5L108 43L114 39.5V32.5L108 29ZM112.777 32.7365L108 35.5234L103.223 32.7365L108 29.9499L112.777 32.7365ZM102.814 33.4483L107.593 36.2357V41.8125L102.814 39.025V33.4483ZM108.407 41.8125V36.2357L113.186 33.4483V39.025L108.407 41.8125Z" fill="#E1E1E1"/>
<path d="M36.5825 87.2727H35.5257L33.3439 88.7216V89.7955L35.4746 88.3807H35.5257V96H36.5825V87.2727Z" fill="#A9A9A9"/>
<path d="M116.583 87.2727H115.526L113.344 88.7216V89.7955L115.475 88.3807H115.526V96H116.583V87.2727Z" fill="#A9A9A9"/>
<path d="M148.583 87.2727H147.526L145.344 88.7216V89.7955L147.475 88.3807H147.526V96H148.583V87.2727Z" fill="#A9A9A9"/>
<path d="M180.583 87.2727H179.526L177.344 88.7216V89.7955L179.475 88.3807H179.526V96H180.583V87.2727Z" fill="#A9A9A9"/>
<path d="M212.583 87.2727H211.526L209.344 88.7216V89.7955L211.475 88.3807H211.526V96H212.583V87.2727Z" fill="#A9A9A9"/>
<path d="M68.5825 143.273H67.5257L65.3439 144.722V145.795L67.4746 144.381H67.5257V152H68.5825V143.273Z" fill="#A9A9A9"/>
<path d="M220.583 143.273H219.526L217.344 144.722V145.795L219.475 144.381H219.526V152H220.583V143.273Z" fill="#A9A9A9"/>
<path d="M252.583 143.273H251.526L249.344 144.722V145.795L251.475 144.381H251.526V152H252.583V143.273Z" fill="#A9A9A9"/>
<path d="M284.583 143.273H283.526L281.344 144.722V145.795L283.475 144.381H283.526V152H284.583V143.273Z" fill="#A9A9A9"/>
<path d="M92.5825 199.273H91.5257L89.3439 200.722V201.795L91.4746 200.381H91.5257V208H92.5825V199.273Z" fill="#A9A9A9"/>
<path d="M196.583 199.273H195.526L193.344 200.722V201.795L195.475 200.381H195.526V208H196.583V199.273Z" fill="#A9A9A9"/>
<path d="M228.583 199.273H227.526L225.344 200.722V201.795L227.475 200.381H227.526V208H228.583V199.273Z" fill="#A9A9A9"/>
<path d="M292.583 87.2727H291.526L289.344 88.7216V89.7955L291.475 88.3807H291.526V96H292.583V87.2727Z" fill="#A9A9A9"/>
<path d="M324.583 87.2727H323.526L321.344 88.7216V89.7955L323.475 88.3807H323.526V96H324.583V87.2727Z" fill="#A9A9A9"/>
<rect x="211" y="172" width="2" height="4" fill="#49BAF2"/>
<rect x="211" y="166" width="2" height="4" fill="#49BAF2"/>
<rect x="211" y="178" width="2" height="4" fill="#49BAF2"/>
<rect x="211" y="184" width="2" height="4" fill="#49BAF2"/>
<rect x="211" y="190" width="2" height="4" fill="#49BAF2"/>
<rect x="235" y="116" width="2" height="4" fill="#49BAF2"/>
<rect x="235" y="110" width="2" height="4" fill="#49BAF2"/>
<rect x="235" y="122" width="2" height="4" fill="#49BAF2"/>
<rect x="235" y="128" width="2" height="4" fill="#49BAF2"/>
<rect x="235" y="134" width="2" height="4" fill="#49BAF2"/>
<rect x="267" y="116" width="2" height="4" fill="#49BAF2"/>
<rect x="267" y="110" width="2" height="4" fill="#49BAF2"/>
<rect x="267" y="122" width="2" height="4" fill="#49BAF2"/>
<rect x="267" y="128" width="2" height="4" fill="#49BAF2"/>
<rect x="267" y="134" width="2" height="4" fill="#49BAF2"/>
<rect x="307" y="60" width="2" height="4" fill="#49BAF2"/>
<rect x="307" y="54" width="2" height="4" fill="#49BAF2"/>
<rect x="307" y="66" width="2" height="4" fill="#49BAF2"/>
<rect x="307" y="72" width="2" height="4" fill="#49BAF2"/>
<rect x="307" y="78" width="2" height="4" fill="#49BAF2"/>
<rect x="195" y="60" width="2" height="4" fill="#49BAF2"/>
<rect x="195" y="54" width="2" height="4" fill="#49BAF2"/>
<rect x="195" y="66" width="2" height="4" fill="#49BAF2"/>
<rect x="195" y="72" width="2" height="4" fill="#49BAF2"/>
<rect x="195" y="78" width="2" height="4" fill="#49BAF2"/>
<rect x="163" y="60" width="2" height="4" fill="#49BAF2"/>
<rect x="163" y="54" width="2" height="4" fill="#49BAF2"/>
<rect x="163" y="66" width="2" height="4" fill="#49BAF2"/>
<rect x="163" y="72" width="2" height="4" fill="#49BAF2"/>
<rect x="163" y="78" width="2" height="4" fill="#49BAF2"/>
<rect x="131" y="60" width="2" height="4" fill="#49BAF2"/>
<rect x="131" y="54" width="2" height="4" fill="#49BAF2"/>
<rect x="131" y="66" width="2" height="4" fill="#49BAF2"/>
<rect x="131" y="72" width="2" height="4" fill="#49BAF2"/>
<rect x="131" y="78" width="2" height="4" fill="#49BAF2"/>
<rect x="51" y="60" width="2" height="4" fill="#49BAF2"/>
<rect x="51" y="54" width="2" height="4" fill="#49BAF2"/>
<rect x="51" y="66" width="2" height="4" fill="#49BAF2"/>
<rect x="51" y="72" width="2" height="4" fill="#49BAF2"/>
<rect x="51" y="78" width="2" height="4" fill="#49BAF2"/>
<path d="M27.3 32.4C27.1343 32.4 27 32.5343 27 32.7V39.3C27 39.4657 27.1343 39.6 27.3 39.6H30.9C30.9322 39.5999 30.9642 39.5948 30.9948 39.5847L32.7948 38.9847C32.8527 38.9654 32.9034 38.9289 32.94 38.88L33.5853 38.0208L33.9501 38.5681C34 38.6427 34.0806 38.6912 34.17 38.7001C34.2599 38.7091 34.349 38.6768 34.4121 38.6122L35.4 37.6243L36.0897 38.3122C36.0975 38.32 36.1058 38.3273 36.1144 38.3343C36.2438 38.4379 36.4326 38.4169 36.5361 38.2876L37.5261 37.0492L38.1891 37.7122C38.2491 37.7729 38.3325 37.8049 38.4177 37.7998C38.503 37.7951 38.5822 37.7543 38.6355 37.6876L39.6255 36.4492L40.2885 37.1122C40.3483 37.1732 40.4318 37.2052 40.5171 37.1998C40.6024 37.1951 40.6816 37.1543 40.7349 37.0876L41.7249 35.8492L42.3879 36.5122C42.5051 36.6293 42.695 36.6293 42.8122 36.5122L43.8381 35.4862L44.5336 35.9497C44.5829 35.9826 44.6408 36.0002 44.7001 36.0002C44.8658 36 45 35.8657 45 35.7V33.3C45 32.803 44.5971 32.4 44.1 32.4H27.3ZM31.7163 38.7117L32.94 37.08C32.9789 37.0281 33 36.9649 33 36.9V34.2H36.9V33.6H33V33H44.1C44.2657 33 44.4 33.1343 44.4 33.3V33.6H39.3V34.2H44.4V35.1393L43.9665 34.8504C43.8475 34.7711 43.689 34.7868 43.5879 34.8879L42.6 35.8758L41.9121 35.1876C41.8512 35.1281 41.7685 35.0964 41.6835 35.1C41.598 35.1046 41.5186 35.1454 41.4651 35.2122L40.4751 36.4506L39.8121 35.7876C39.7515 35.7277 39.6686 35.6959 39.5835 35.7C39.4977 35.7044 39.4181 35.7454 39.3645 35.8125L38.3745 37.0508L37.7115 36.3878C37.7037 36.38 37.6954 36.3726 37.6868 36.3657C37.5574 36.2621 37.3686 36.2831 37.2651 36.4124L36.2751 37.6508L35.6121 36.9878C35.495 36.8707 35.3051 36.8707 35.1879 36.9878L34.2465 37.929L33.8496 37.3335C33.8307 37.3052 33.8072 37.2803 33.78 37.2599C33.6474 37.1606 33.4594 37.1874 33.36 37.32L32.5161 38.445L31.7163 38.7117ZM27.6 39V34.2H30.6V33.6H27.6V33H32.4V36.8001L30.75 39H27.6Z" fill="#49BAF2"/>
<path d="M28.2 35.1V38.1C28.2 38.2657 28.3343 38.4 28.5 38.4H30.3C30.3911 38.4001 30.4773 38.3587 30.5343 38.2875L31.7343 36.7875C31.7769 36.7343 31.8 36.6682 31.8 36.6V35.1C31.8 34.9344 31.6657 34.8 31.5 34.8H28.5C28.3343 34.8 28.2 34.9344 28.2 35.1ZM28.8 35.4H31.2V36.4947L30.156 37.8H28.8V35.4Z" fill="#49BAF2"/>
<path d="M31.8 34.2H31.2V33.6H31.8V34.2Z" fill="#49BAF2"/>
<path d="M38.7 34.2H37.5V33.6H38.7V34.2Z" fill="#49BAF2"/>
</svg>
