<svg width="336" height="240" viewBox="0 0 336 240" fill="none" xmlns="http://www.w3.org/2000/svg">
<rect width="336" height="240" fill="white"/>
<path d="M76.3733 40H81.879V39.0625H77.8222V38.9943L79.7824 36.8977C81.2824 35.2912 81.7256 34.5412 81.7256 33.5739C81.7256 32.2273 80.6347 31.1534 79.1006 31.1534C77.5708 31.1534 76.4074 32.1932 76.4074 33.7273H77.4131C77.4131 32.7344 78.0566 32.0739 79.0665 32.0739C80.0125 32.0739 80.737 32.6534 80.737 33.5739C80.737 34.3793 80.264 34.9759 79.254 36.0795L76.3733 39.233V40ZM87.6344 40.1193C89.3773 40.1193 90.5918 39.1009 90.6003 37.6818C90.5918 36.5781 89.8546 35.6406 88.9128 35.4659V35.4148C89.731 35.2017 90.2679 34.4006 90.2765 33.4716C90.2679 32.142 89.1515 31.1534 87.6344 31.1534C86.1003 31.1534 84.9838 32.142 84.9924 33.4716C84.9838 34.4006 85.5208 35.2017 86.356 35.4148V35.4659C85.3972 35.6406 84.66 36.5781 84.6685 37.6818C84.66 39.1009 85.8745 40.1193 87.6344 40.1193ZM87.6344 39.1818C86.437 39.1818 85.6998 38.5682 85.7083 37.6307C85.6998 36.6463 86.5137 35.9432 87.6344 35.9432C88.7381 35.9432 89.552 36.6463 89.5605 37.6307C89.552 38.5682 88.8148 39.1818 87.6344 39.1818ZM87.6344 35.0398C86.6799 35.0398 86.0066 34.4432 86.0151 33.5398C86.0066 32.6534 86.6543 32.0739 87.6344 32.0739C88.5975 32.0739 89.2452 32.6534 89.2537 33.5398C89.2452 34.4432 88.5719 35.0398 87.6344 35.0398Z" fill="#E1E1E1"/>
<path d="M236.03 181.875L235.28 181.125H230.625V181.875H234.97L235.72 182.625H237.75V181.875H236.03Z" fill="#E1E1E1"/>
<path d="M228.22 183.75H225V184.5H228.53L229.28 183.75H231.375V183H228.97L228.22 183.75Z" fill="#E1E1E1"/>
<path d="M228.375 179.25H229.875V180H228.375V179.25Z" fill="#E1E1E1"/>
<path d="M220.125 179.25C219.075 179.25 218.25 180.403 218.25 181.875C218.25 183.347 219.075 184.5 220.125 184.5C221.175 184.5 222 183.347 222 181.875C222 180.403 221.175 179.25 220.125 179.25ZM220.125 183.75C219.515 183.75 219 182.891 219 181.875C219 180.859 219.515 180 220.125 180C220.735 180 221.25 180.859 221.25 181.875C221.25 182.891 220.735 183.75 220.125 183.75Z" fill="#E1E1E1"/>
<path d="M235.875 177.75H234.791C234.857 177.338 235.029 176.951 235.29 176.625H236.625C237.66 176.624 238.499 175.785 238.5 174.75V174.375H236.625C235.656 174.378 234.849 175.121 234.766 176.087C234.366 176.559 234.111 177.136 234.032 177.75H232.395L231.645 175.5H228.855L228.105 177.75H225.419C225.441 176.881 224.982 176.071 224.226 175.642C224.111 174.707 223.318 174.003 222.375 174H220.5V174.375C220.501 175.41 221.34 176.249 222.375 176.25H223.777C224.343 176.531 224.691 177.118 224.667 177.75H220.125C218.264 177.75 216.75 179.601 216.75 181.875C216.75 184.149 218.264 186 220.125 186H235.875C237.736 186 239.25 184.149 239.25 181.875C239.25 179.601 237.736 177.75 235.875 177.75ZM236.625 175.125H237.686C237.526 175.574 237.102 175.874 236.625 175.875H235.564C235.724 175.426 236.148 175.126 236.625 175.125ZM222.375 175.5C221.898 175.499 221.474 175.199 221.314 174.75H222.375C222.852 174.751 223.276 175.051 223.436 175.5H222.375ZM217.5 181.875C217.5 180.014 218.678 178.5 220.125 178.5C221.572 178.5 222.75 180.014 222.75 181.875C222.75 183.736 221.572 185.25 220.125 185.25C218.678 185.25 217.5 183.736 217.5 181.875ZM238.223 183.375H233.25V184.125H237.825C237.401 184.799 236.671 185.22 235.875 185.25H222.059C222.91 184.476 223.422 183.398 223.484 182.25H226.655L227.405 181.5H228.75V180.75H227.095L226.345 181.5H223.485C223.447 180.984 223.327 180.477 223.127 180H226.875V179.25H222.726C222.538 178.971 222.314 178.719 222.059 178.5H228.645L229.395 176.25H231.105L231.605 177.75H230.25V178.5H235.875C236.503 178.513 237.099 178.784 237.521 179.25H232.125V180H238.056C238.352 180.58 238.505 181.223 238.5 181.875C238.501 182.388 238.407 182.896 238.223 183.375Z" fill="#E1E1E1"/>
<path d="M260.03 181.875L259.28 181.125H254.625V181.875H258.97L259.72 182.625H261.75V181.875H260.03Z" fill="#E1E1E1"/>
<path d="M252.22 183.75H249V184.5H252.53L253.28 183.75H255.375V183H252.97L252.22 183.75Z" fill="#E1E1E1"/>
<path d="M252.375 179.25H253.875V180H252.375V179.25Z" fill="#E1E1E1"/>
<path d="M244.125 179.25C243.075 179.25 242.25 180.403 242.25 181.875C242.25 183.347 243.075 184.5 244.125 184.5C245.175 184.5 246 183.347 246 181.875C246 180.403 245.175 179.25 244.125 179.25ZM244.125 183.75C243.515 183.75 243 182.891 243 181.875C243 180.859 243.515 180 244.125 180C244.735 180 245.25 180.859 245.25 181.875C245.25 182.891 244.735 183.75 244.125 183.75Z" fill="#E1E1E1"/>
<path d="M259.875 177.75H258.791C258.857 177.338 259.029 176.951 259.29 176.625H260.625C261.66 176.624 262.499 175.785 262.5 174.75V174.375H260.625C259.656 174.378 258.849 175.121 258.766 176.087C258.366 176.559 258.111 177.136 258.032 177.75H256.395L255.645 175.5H252.855L252.105 177.75H249.419C249.441 176.881 248.982 176.071 248.226 175.642C248.111 174.707 247.318 174.003 246.375 174H244.5V174.375C244.501 175.41 245.34 176.249 246.375 176.25H247.777C248.343 176.531 248.691 177.118 248.667 177.75H244.125C242.264 177.75 240.75 179.601 240.75 181.875C240.75 184.149 242.264 186 244.125 186H259.875C261.736 186 263.25 184.149 263.25 181.875C263.25 179.601 261.736 177.75 259.875 177.75ZM260.625 175.125H261.686C261.526 175.574 261.102 175.874 260.625 175.875H259.564C259.724 175.426 260.148 175.126 260.625 175.125ZM246.375 175.5C245.898 175.499 245.474 175.199 245.314 174.75H246.375C246.852 174.751 247.276 175.051 247.436 175.5H246.375ZM241.5 181.875C241.5 180.014 242.678 178.5 244.125 178.5C245.572 178.5 246.75 180.014 246.75 181.875C246.75 183.736 245.572 185.25 244.125 185.25C242.678 185.25 241.5 183.736 241.5 181.875ZM262.223 183.375H257.25V184.125H261.825C261.401 184.799 260.671 185.22 259.875 185.25H246.059C246.91 184.476 247.422 183.398 247.484 182.25H250.655L251.405 181.5H252.75V180.75H251.095L250.345 181.5H247.485C247.447 180.984 247.327 180.477 247.127 180H250.875V179.25H246.726C246.538 178.971 246.314 178.719 246.059 178.5H252.645L253.395 176.25H255.105L255.605 177.75H254.25V178.5H259.875C260.503 178.513 261.099 178.784 261.521 179.25H256.125V180H262.056C262.352 180.58 262.505 181.223 262.5 181.875C262.501 182.388 262.407 182.896 262.223 183.375Z" fill="#E1E1E1"/>
<path d="M212.03 181.875L211.28 181.125H206.625V181.875H210.97L211.72 182.625H213.75V181.875H212.03Z" fill="#A9A9A9"/>
<path d="M204.22 183.75H201V184.5H204.53L205.28 183.75H207.375V183H204.97L204.22 183.75Z" fill="#A9A9A9"/>
<path d="M204.375 179.25H205.875V180H204.375V179.25Z" fill="#A9A9A9"/>
<path d="M196.125 179.25C195.075 179.25 194.25 180.403 194.25 181.875C194.25 183.347 195.075 184.5 196.125 184.5C197.175 184.5 198 183.347 198 181.875C198 180.403 197.175 179.25 196.125 179.25ZM196.125 183.75C195.515 183.75 195 182.891 195 181.875C195 180.859 195.515 180 196.125 180C196.735 180 197.25 180.859 197.25 181.875C197.25 182.891 196.735 183.75 196.125 183.75Z" fill="#A9A9A9"/>
<path d="M211.875 177.75H196.125C194.264 177.75 192.75 179.601 192.75 181.875C192.75 184.149 194.264 186 196.125 186H211.875C213.736 186 215.25 184.149 215.25 181.875C215.25 179.601 213.736 177.75 211.875 177.75ZM196.125 185.25C194.678 185.25 193.5 183.736 193.5 181.875C193.5 180.014 194.678 178.5 196.125 178.5C197.572 178.5 198.75 180.014 198.75 181.875C198.75 183.736 197.572 185.25 196.125 185.25ZM209.25 183.375V184.125H213.825C213.4 184.799 212.671 185.22 211.875 185.25H198.059C198.91 184.476 199.422 183.398 199.484 182.25H202.655L203.405 181.5H204.75V180.75H203.095L202.345 181.5H199.485C199.447 180.984 199.327 180.478 199.127 180H202.875V179.25H198.727C198.539 178.972 198.314 178.719 198.06 178.5H211.875C212.504 178.513 213.099 178.785 213.521 179.25H208.125V180H214.056C214.352 180.58 214.505 181.223 214.5 181.875C214.501 182.388 214.407 182.896 214.223 183.375H209.25Z" fill="#A9A9A9"/>
<path d="M188.03 181.875L187.28 181.125H182.625V181.875H186.97L187.72 182.625H189.75V181.875H188.03Z" fill="#A9A9A9"/>
<path d="M180.22 183.75H177V184.5H180.53L181.28 183.75H183.375V183H180.97L180.22 183.75Z" fill="#A9A9A9"/>
<path d="M180.375 179.25H181.875V180H180.375V179.25Z" fill="#A9A9A9"/>
<path d="M172.125 179.25C171.075 179.25 170.25 180.403 170.25 181.875C170.25 183.347 171.075 184.5 172.125 184.5C173.175 184.5 174 183.347 174 181.875C174 180.403 173.175 179.25 172.125 179.25ZM172.125 183.75C171.515 183.75 171 182.891 171 181.875C171 180.859 171.515 180 172.125 180C172.735 180 173.25 180.859 173.25 181.875C173.25 182.891 172.735 183.75 172.125 183.75Z" fill="#A9A9A9"/>
<path d="M187.875 177.75H172.125C170.264 177.75 168.75 179.601 168.75 181.875C168.75 184.149 170.264 186 172.125 186H187.875C189.736 186 191.25 184.149 191.25 181.875C191.25 179.601 189.736 177.75 187.875 177.75ZM172.125 185.25C170.678 185.25 169.5 183.736 169.5 181.875C169.5 180.014 170.678 178.5 172.125 178.5C173.572 178.5 174.75 180.014 174.75 181.875C174.75 183.736 173.572 185.25 172.125 185.25ZM185.25 183.375V184.125H189.825C189.4 184.799 188.671 185.22 187.875 185.25H174.059C174.91 184.476 175.422 183.398 175.484 182.25H178.655L179.405 181.5H180.75V180.75H179.095L178.345 181.5H175.485C175.447 180.984 175.327 180.478 175.127 180H178.875V179.25H174.727C174.539 178.972 174.314 178.719 174.06 178.5H187.875C188.504 178.513 189.099 178.785 189.521 179.25H184.125V180H190.056C190.352 180.58 190.505 181.223 190.5 181.875C190.501 182.388 190.407 182.896 190.223 183.375H185.25Z" fill="#A9A9A9"/>
<path d="M68.0303 181.875L67.2803 181.125H62.625V181.875H66.9697L67.7197 182.625H69.75V181.875H68.0303Z" fill="#E1E1E1"/>
<path d="M60.2197 183.75H57V184.5H60.5303L61.2803 183.75H63.375V183H60.9697L60.2197 183.75Z" fill="#E1E1E1"/>
<path d="M60.375 179.25H61.875V180H60.375V179.25Z" fill="#E1E1E1"/>
<path d="M52.125 179.25C51.075 179.25 50.25 180.403 50.25 181.875C50.25 183.347 51.075 184.5 52.125 184.5C53.175 184.5 54 183.347 54 181.875C54 180.403 53.175 179.25 52.125 179.25ZM52.125 183.75C51.5152 183.75 51 182.891 51 181.875C51 180.859 51.5152 180 52.125 180C52.7348 180 53.25 180.859 53.25 181.875C53.25 182.891 52.7348 183.75 52.125 183.75Z" fill="#E1E1E1"/>
<path d="M67.875 177.75H66.7909C66.8572 177.338 67.0291 176.951 67.29 176.625H68.625C69.66 176.624 70.4988 175.785 70.5 174.75V174.375H68.625C67.6556 174.378 66.849 175.121 66.7665 176.087C66.3663 176.559 66.1113 177.136 66.0322 177.75H64.3954L63.6454 175.5H60.8547L60.1047 177.75H57.4193C57.4406 176.881 56.9822 176.071 56.2264 175.642C56.1113 174.707 55.3178 174.003 54.375 174H52.5V174.375C52.5012 175.41 53.34 176.249 54.375 176.25H55.7768C56.3426 176.531 56.6909 177.118 56.6666 177.75H52.125C50.2643 177.75 48.75 179.601 48.75 181.875C48.75 184.149 50.2643 186 52.125 186H67.875C69.7357 186 71.25 184.149 71.25 181.875C71.25 179.601 69.7357 177.75 67.875 177.75ZM68.625 175.125H69.6859C69.5264 175.574 69.1016 175.874 68.625 175.875H67.5641C67.7236 175.426 68.1484 175.126 68.625 175.125ZM54.375 175.5C53.8984 175.499 53.4736 175.199 53.3141 174.75H54.375C54.8516 174.751 55.2764 175.051 55.4359 175.5H54.375ZM49.5 181.875C49.5 180.014 50.6775 178.5 52.125 178.5C53.5725 178.5 54.75 180.014 54.75 181.875C54.75 183.736 53.5725 185.25 52.125 185.25C50.6775 185.25 49.5 183.736 49.5 181.875ZM70.2229 183.375H65.25V184.125H69.825C69.4005 184.799 68.6708 185.22 67.875 185.25H54.0593C54.9102 184.476 55.4221 183.398 55.4843 182.25H58.6549L59.4049 181.5H60.75V180.75H59.0948L58.3448 181.5H55.4846C55.4472 180.984 55.3265 180.477 55.1273 180H58.875V179.25H54.7264C54.5384 178.971 54.314 178.719 54.0593 178.5H60.6453L61.3953 176.25H63.1046L63.6049 177.75H62.25V178.5H67.875C68.5035 178.513 69.0989 178.784 69.5212 179.25H64.125V180H70.056C70.3522 180.58 70.5045 181.223 70.5 181.875C70.5013 182.388 70.4073 182.896 70.2229 183.375Z" fill="#E1E1E1"/>
<path d="M44.0303 181.875L43.2803 181.125H38.625V181.875H42.9697L43.7197 182.625H45.75V181.875H44.0303Z" fill="#E1E1E1"/>
<path d="M36.2197 183.75H33V184.5H36.5303L37.2803 183.75H39.375V183H36.9697L36.2197 183.75Z" fill="#E1E1E1"/>
<path d="M36.375 179.25H37.875V180H36.375V179.25Z" fill="#E1E1E1"/>
<path d="M28.125 179.25C27.075 179.25 26.25 180.403 26.25 181.875C26.25 183.347 27.075 184.5 28.125 184.5C29.175 184.5 30 183.347 30 181.875C30 180.403 29.175 179.25 28.125 179.25ZM28.125 183.75C27.5152 183.75 27 182.891 27 181.875C27 180.859 27.5152 180 28.125 180C28.7348 180 29.25 180.859 29.25 181.875C29.25 182.891 28.7348 183.75 28.125 183.75Z" fill="#E1E1E1"/>
<path d="M43.875 177.75H42.7909C42.8572 177.338 43.0291 176.951 43.29 176.625H44.625C45.66 176.624 46.4988 175.785 46.5 174.75V174.375H44.625C43.6556 174.378 42.849 175.121 42.7665 176.087C42.3663 176.559 42.1113 177.136 42.0322 177.75H40.3954L39.6454 175.5H36.8547L36.1047 177.75H33.4193C33.4406 176.881 32.9822 176.071 32.2264 175.642C32.1113 174.707 31.3178 174.003 30.375 174H28.5V174.375C28.5012 175.41 29.34 176.249 30.375 176.25H31.7768C32.3426 176.531 32.6909 177.118 32.6666 177.75H28.125C26.2643 177.75 24.75 179.601 24.75 181.875C24.75 184.149 26.2643 186 28.125 186H43.875C45.7357 186 47.25 184.149 47.25 181.875C47.25 179.601 45.7357 177.75 43.875 177.75ZM44.625 175.125H45.6859C45.5264 175.574 45.1016 175.874 44.625 175.875H43.5641C43.7236 175.426 44.1484 175.126 44.625 175.125ZM30.375 175.5C29.8984 175.499 29.4736 175.199 29.3141 174.75H30.375C30.8516 174.751 31.2764 175.051 31.4359 175.5H30.375ZM25.5 181.875C25.5 180.014 26.6775 178.5 28.125 178.5C29.5725 178.5 30.75 180.014 30.75 181.875C30.75 183.736 29.5725 185.25 28.125 185.25C26.6775 185.25 25.5 183.736 25.5 181.875ZM46.2229 183.375H41.25V184.125H45.825C45.4005 184.799 44.6708 185.22 43.875 185.25H30.0593C30.9102 184.476 31.4221 183.398 31.4843 182.25H34.6549L35.4049 181.5H36.75V180.75H35.0948L34.3448 181.5H31.4846C31.4472 180.984 31.3265 180.477 31.1273 180H34.875V179.25H30.7264C30.5384 178.971 30.314 178.719 30.0593 178.5H36.6453L37.3953 176.25H39.1046L39.6049 177.75H38.25V178.5H43.875C44.5035 178.513 45.0989 178.784 45.5212 179.25H40.125V180H46.056C46.3522 180.58 46.5045 181.223 46.5 181.875C46.5013 182.388 46.4073 182.896 46.2229 183.375Z" fill="#E1E1E1"/>
<path d="M116.03 181.875L115.28 181.125H110.625V181.875H114.97L115.72 182.625H117.75V181.875H116.03Z" fill="#E1E1E1"/>
<path d="M108.22 183.75H105V184.5H108.53L109.28 183.75H111.375V183H108.97L108.22 183.75Z" fill="#E1E1E1"/>
<path d="M108.375 179.25H109.875V180H108.375V179.25Z" fill="#E1E1E1"/>
<path d="M100.125 179.25C99.075 179.25 98.25 180.403 98.25 181.875C98.25 183.347 99.075 184.5 100.125 184.5C101.175 184.5 102 183.347 102 181.875C102 180.403 101.175 179.25 100.125 179.25ZM100.125 183.75C99.5152 183.75 99 182.891 99 181.875C99 180.859 99.5152 180 100.125 180C100.735 180 101.25 180.859 101.25 181.875C101.25 182.891 100.735 183.75 100.125 183.75Z" fill="#E1E1E1"/>
<path d="M115.875 177.75H114.791C114.857 177.338 115.029 176.951 115.29 176.625H116.625C117.66 176.624 118.499 175.785 118.5 174.75V174.375H116.625C115.656 174.378 114.849 175.121 114.766 176.087C114.366 176.559 114.111 177.136 114.032 177.75H112.395L111.645 175.5H108.855L108.105 177.75H105.419C105.441 176.881 104.982 176.071 104.226 175.642C104.111 174.707 103.318 174.003 102.375 174H100.5V174.375C100.501 175.41 101.34 176.249 102.375 176.25H103.777C104.343 176.531 104.691 177.118 104.667 177.75H100.125C98.2643 177.75 96.75 179.601 96.75 181.875C96.75 184.149 98.2643 186 100.125 186H115.875C117.736 186 119.25 184.149 119.25 181.875C119.25 179.601 117.736 177.75 115.875 177.75ZM116.625 175.125H117.686C117.526 175.574 117.102 175.874 116.625 175.875H115.564C115.724 175.426 116.148 175.126 116.625 175.125ZM102.375 175.5C101.898 175.499 101.474 175.199 101.314 174.75H102.375C102.852 174.751 103.276 175.051 103.436 175.5H102.375ZM97.5 181.875C97.5 180.014 98.6775 178.5 100.125 178.5C101.572 178.5 102.75 180.014 102.75 181.875C102.75 183.736 101.572 185.25 100.125 185.25C98.6775 185.25 97.5 183.736 97.5 181.875ZM118.223 183.375H113.25V184.125H117.825C117.401 184.799 116.671 185.22 115.875 185.25H102.059C102.91 184.476 103.422 183.398 103.484 182.25H106.655L107.405 181.5H108.75V180.75H107.095L106.345 181.5H103.485C103.447 180.984 103.327 180.477 103.127 180H106.875V179.25H102.726C102.538 178.971 102.314 178.719 102.059 178.5H108.645L109.395 176.25H111.105L111.605 177.75H110.25V178.5H115.875C116.503 178.513 117.099 178.784 117.521 179.25H112.125V180H118.056C118.352 180.58 118.505 181.223 118.5 181.875C118.501 182.388 118.407 182.896 118.223 183.375Z" fill="#E1E1E1"/>
<path d="M140.03 181.875L139.28 181.125H134.625V181.875H138.97L139.72 182.625H141.75V181.875H140.03Z" fill="#E1E1E1"/>
<path d="M132.22 183.75H129V184.5H132.53L133.28 183.75H135.375V183H132.97L132.22 183.75Z" fill="#E1E1E1"/>
<path d="M132.375 179.25H133.875V180H132.375V179.25Z" fill="#E1E1E1"/>
<path d="M124.125 179.25C123.075 179.25 122.25 180.403 122.25 181.875C122.25 183.347 123.075 184.5 124.125 184.5C125.175 184.5 126 183.347 126 181.875C126 180.403 125.175 179.25 124.125 179.25ZM124.125 183.75C123.515 183.75 123 182.891 123 181.875C123 180.859 123.515 180 124.125 180C124.735 180 125.25 180.859 125.25 181.875C125.25 182.891 124.735 183.75 124.125 183.75Z" fill="#E1E1E1"/>
<path d="M139.875 177.75H138.791C138.857 177.338 139.029 176.951 139.29 176.625H140.625C141.66 176.624 142.499 175.785 142.5 174.75V174.375H140.625C139.656 174.378 138.849 175.121 138.766 176.087C138.366 176.559 138.111 177.136 138.032 177.75H136.395L135.645 175.5H132.855L132.105 177.75H129.419C129.441 176.881 128.982 176.071 128.226 175.642C128.111 174.707 127.318 174.003 126.375 174H124.5V174.375C124.501 175.41 125.34 176.249 126.375 176.25H127.777C128.343 176.531 128.691 177.118 128.667 177.75H124.125C122.264 177.75 120.75 179.601 120.75 181.875C120.75 184.149 122.264 186 124.125 186H139.875C141.736 186 143.25 184.149 143.25 181.875C143.25 179.601 141.736 177.75 139.875 177.75ZM140.625 175.125H141.686C141.526 175.574 141.102 175.874 140.625 175.875H139.564C139.724 175.426 140.148 175.126 140.625 175.125ZM126.375 175.5C125.898 175.499 125.474 175.199 125.314 174.75H126.375C126.852 174.751 127.276 175.051 127.436 175.5H126.375ZM121.5 181.875C121.5 180.014 122.678 178.5 124.125 178.5C125.572 178.5 126.75 180.014 126.75 181.875C126.75 183.736 125.572 185.25 124.125 185.25C122.678 185.25 121.5 183.736 121.5 181.875ZM142.223 183.375H137.25V184.125H141.825C141.401 184.799 140.671 185.22 139.875 185.25H126.059C126.91 184.476 127.422 183.398 127.484 182.25H130.655L131.405 181.5H132.75V180.75H131.095L130.345 181.5H127.485C127.447 180.984 127.327 180.477 127.127 180H130.875V179.25H126.726C126.538 178.971 126.314 178.719 126.059 178.5H132.645L133.395 176.25H135.105L135.605 177.75H134.25V178.5H139.875C140.503 178.513 141.099 178.784 141.521 179.25H136.125V180H142.056C142.352 180.58 142.505 181.223 142.5 181.875C142.501 182.388 142.407 182.896 142.223 183.375Z" fill="#E1E1E1"/>
<path d="M92.0302 181.875L91.2802 181.125H86.625V181.875H90.9698L91.7198 182.625H93.75V181.875H92.0302Z" fill="#A9A9A9"/>
<path d="M84.2198 183.75H81V184.5H84.5302L85.2802 183.75H87.375V183H84.9698L84.2198 183.75Z" fill="#A9A9A9"/>
<path d="M84.375 179.25H85.875V180H84.375V179.25Z" fill="#A9A9A9"/>
<path d="M76.125 179.25C75.075 179.25 74.25 180.403 74.25 181.875C74.25 183.347 75.075 184.5 76.125 184.5C77.175 184.5 78 183.347 78 181.875C78 180.403 77.175 179.25 76.125 179.25ZM76.125 183.75C75.5152 183.75 75 182.891 75 181.875C75 180.859 75.5152 180 76.125 180C76.7348 180 77.25 180.859 77.25 181.875C77.25 182.891 76.7348 183.75 76.125 183.75Z" fill="#A9A9A9"/>
<path d="M91.875 177.75H76.125C74.2641 177.75 72.75 179.601 72.75 181.875C72.75 184.149 74.2641 186 76.125 186H91.875C93.7359 186 95.25 184.149 95.25 181.875C95.25 179.601 93.7359 177.75 91.875 177.75ZM76.125 185.25C74.6775 185.25 73.5 183.736 73.5 181.875C73.5 180.014 74.6775 178.5 76.125 178.5C77.5725 178.5 78.75 180.014 78.75 181.875C78.75 183.736 77.5725 185.25 76.125 185.25ZM89.25 183.375V184.125H93.825C93.4003 184.799 92.6709 185.22 91.875 185.25H78.0591C78.9098 184.476 79.4222 183.398 79.4841 182.25H82.6547L83.4047 181.5H84.75V180.75H83.0948L82.3448 181.5H79.4845C79.447 180.984 79.3266 180.478 79.1273 180H82.875V179.25H78.7266C78.5386 178.972 78.3141 178.719 78.0595 178.5H91.875C92.5036 178.513 93.0989 178.785 93.5212 179.25H88.125V180H94.0561C94.3523 180.58 94.5047 181.223 94.5 181.875C94.5014 182.388 94.4072 182.896 94.223 183.375H89.25Z" fill="#A9A9A9"/>
<path d="M44.0303 125.875L43.2803 125.125H38.625V125.875H42.9697L43.7197 126.625H45.75V125.875H44.0303Z" fill="#E1E1E1"/>
<path d="M36.2197 127.75H33V128.5H36.5303L37.2803 127.75H39.375V127H36.9697L36.2197 127.75Z" fill="#E1E1E1"/>
<path d="M36.375 123.25H37.875V124H36.375V123.25Z" fill="#E1E1E1"/>
<path d="M28.125 123.25C27.075 123.25 26.25 124.403 26.25 125.875C26.25 127.347 27.075 128.5 28.125 128.5C29.175 128.5 30 127.347 30 125.875C30 124.403 29.175 123.25 28.125 123.25ZM28.125 127.75C27.5152 127.75 27 126.891 27 125.875C27 124.859 27.5152 124 28.125 124C28.7348 124 29.25 124.859 29.25 125.875C29.25 126.891 28.7348 127.75 28.125 127.75Z" fill="#E1E1E1"/>
<path d="M43.875 121.75H42.7909C42.8572 121.338 43.0291 120.951 43.29 120.625H44.625C45.66 120.624 46.4988 119.785 46.5 118.75V118.375H44.625C43.6556 118.378 42.849 119.121 42.7665 120.087C42.3663 120.559 42.1113 121.136 42.0322 121.75H40.3954L39.6454 119.5H36.8547L36.1047 121.75H33.4193C33.4406 120.881 32.9822 120.071 32.2264 119.642C32.1113 118.707 31.3178 118.003 30.375 118H28.5V118.375C28.5012 119.41 29.34 120.249 30.375 120.25H31.7768C32.3426 120.531 32.6909 121.118 32.6666 121.75H28.125C26.2643 121.75 24.75 123.601 24.75 125.875C24.75 128.149 26.2643 130 28.125 130H43.875C45.7357 130 47.25 128.149 47.25 125.875C47.25 123.601 45.7357 121.75 43.875 121.75ZM44.625 119.125H45.6859C45.5264 119.574 45.1016 119.874 44.625 119.875H43.5641C43.7236 119.426 44.1484 119.126 44.625 119.125ZM30.375 119.5C29.8984 119.499 29.4736 119.199 29.3141 118.75H30.375C30.8516 118.751 31.2764 119.051 31.4359 119.5H30.375ZM25.5 125.875C25.5 124.014 26.6775 122.5 28.125 122.5C29.5725 122.5 30.75 124.014 30.75 125.875C30.75 127.736 29.5725 129.25 28.125 129.25C26.6775 129.25 25.5 127.736 25.5 125.875ZM46.2229 127.375H41.25V128.125H45.825C45.4005 128.799 44.6708 129.22 43.875 129.25H30.0593C30.9102 128.476 31.4221 127.398 31.4843 126.25H34.6549L35.4049 125.5H36.75V124.75H35.0948L34.3448 125.5H31.4846C31.4472 124.984 31.3265 124.477 31.1273 124H34.875V123.25H30.7264C30.5384 122.971 30.314 122.719 30.0593 122.5H36.6453L37.3953 120.25H39.1046L39.6049 121.75H38.25V122.5H43.875C44.5035 122.513 45.0989 122.784 45.5212 123.25H40.125V124H46.056C46.3522 124.58 46.5045 125.223 46.5 125.875C46.5013 126.388 46.4073 126.896 46.2229 127.375Z" fill="#E1E1E1"/>
<path d="M92.0303 125.875L91.2803 125.125H86.625V125.875H90.9697L91.7197 126.625H93.75V125.875H92.0303Z" fill="#E1E1E1"/>
<path d="M84.2197 127.75H81V128.5H84.5303L85.2803 127.75H87.375V127H84.9697L84.2197 127.75Z" fill="#E1E1E1"/>
<path d="M84.375 123.25H85.875V124H84.375V123.25Z" fill="#E1E1E1"/>
<path d="M76.125 123.25C75.075 123.25 74.25 124.403 74.25 125.875C74.25 127.347 75.075 128.5 76.125 128.5C77.175 128.5 78 127.347 78 125.875C78 124.403 77.175 123.25 76.125 123.25ZM76.125 127.75C75.5152 127.75 75 126.891 75 125.875C75 124.859 75.5152 124 76.125 124C76.7348 124 77.25 124.859 77.25 125.875C77.25 126.891 76.7348 127.75 76.125 127.75Z" fill="#E1E1E1"/>
<path d="M91.875 121.75H90.7909C90.8572 121.338 91.0291 120.951 91.29 120.625H92.625C93.66 120.624 94.4988 119.785 94.5 118.75V118.375H92.625C91.6556 118.378 90.849 119.121 90.7665 120.087C90.3663 120.559 90.1113 121.136 90.0322 121.75H88.3954L87.6454 119.5H84.8547L84.1047 121.75H81.4193C81.4406 120.881 80.9822 120.071 80.2264 119.642C80.1113 118.707 79.3178 118.003 78.375 118H76.5V118.375C76.5012 119.41 77.34 120.249 78.375 120.25H79.7768C80.3426 120.531 80.6909 121.118 80.6666 121.75H76.125C74.2643 121.75 72.75 123.601 72.75 125.875C72.75 128.149 74.2643 130 76.125 130H91.875C93.7357 130 95.25 128.149 95.25 125.875C95.25 123.601 93.7357 121.75 91.875 121.75ZM92.625 119.125H93.6859C93.5264 119.574 93.1016 119.874 92.625 119.875H91.5641C91.7236 119.426 92.1484 119.126 92.625 119.125ZM78.375 119.5C77.8984 119.499 77.4736 119.199 77.3141 118.75H78.375C78.8516 118.751 79.2764 119.051 79.4359 119.5H78.375ZM73.5 125.875C73.5 124.014 74.6775 122.5 76.125 122.5C77.5725 122.5 78.75 124.014 78.75 125.875C78.75 127.736 77.5725 129.25 76.125 129.25C74.6775 129.25 73.5 127.736 73.5 125.875ZM94.2229 127.375H89.25V128.125H93.825C93.4005 128.799 92.6708 129.22 91.875 129.25H78.0593C78.9102 128.476 79.4221 127.398 79.4843 126.25H82.6549L83.4049 125.5H84.75V124.75H83.0948L82.3448 125.5H79.4846C79.4472 124.984 79.3265 124.477 79.1273 124H82.875V123.25H78.7264C78.5384 122.971 78.314 122.719 78.0593 122.5H84.6453L85.3953 120.25H87.1046L87.6049 121.75H86.25V122.5H91.875C92.5035 122.513 93.0989 122.784 93.5212 123.25H88.125V124H94.056C94.3522 124.58 94.5045 125.223 94.5 125.875C94.5013 126.388 94.4073 126.896 94.2229 127.375Z" fill="#E1E1E1"/>
<path d="M116.03 125.875L115.28 125.125H110.625V125.875H114.97L115.72 126.625H117.75V125.875H116.03Z" fill="#E1E1E1"/>
<path d="M108.22 127.75H105V128.5H108.53L109.28 127.75H111.375V127H108.97L108.22 127.75Z" fill="#E1E1E1"/>
<path d="M108.375 123.25H109.875V124H108.375V123.25Z" fill="#E1E1E1"/>
<path d="M100.125 123.25C99.075 123.25 98.25 124.403 98.25 125.875C98.25 127.347 99.075 128.5 100.125 128.5C101.175 128.5 102 127.347 102 125.875C102 124.403 101.175 123.25 100.125 123.25ZM100.125 127.75C99.5152 127.75 99 126.891 99 125.875C99 124.859 99.5152 124 100.125 124C100.735 124 101.25 124.859 101.25 125.875C101.25 126.891 100.735 127.75 100.125 127.75Z" fill="#E1E1E1"/>
<path d="M115.875 121.75H114.791C114.857 121.338 115.029 120.951 115.29 120.625H116.625C117.66 120.624 118.499 119.785 118.5 118.75V118.375H116.625C115.656 118.378 114.849 119.121 114.766 120.087C114.366 120.559 114.111 121.136 114.032 121.75H112.395L111.645 119.5H108.855L108.105 121.75H105.419C105.441 120.881 104.982 120.071 104.226 119.642C104.111 118.707 103.318 118.003 102.375 118H100.5V118.375C100.501 119.41 101.34 120.249 102.375 120.25H103.777C104.343 120.531 104.691 121.118 104.667 121.75H100.125C98.2643 121.75 96.75 123.601 96.75 125.875C96.75 128.149 98.2643 130 100.125 130H115.875C117.736 130 119.25 128.149 119.25 125.875C119.25 123.601 117.736 121.75 115.875 121.75ZM116.625 119.125H117.686C117.526 119.574 117.102 119.874 116.625 119.875H115.564C115.724 119.426 116.148 119.126 116.625 119.125ZM102.375 119.5C101.898 119.499 101.474 119.199 101.314 118.75H102.375C102.852 118.751 103.276 119.051 103.436 119.5H102.375ZM97.5 125.875C97.5 124.014 98.6775 122.5 100.125 122.5C101.572 122.5 102.75 124.014 102.75 125.875C102.75 127.736 101.572 129.25 100.125 129.25C98.6775 129.25 97.5 127.736 97.5 125.875ZM118.223 127.375H113.25V128.125H117.825C117.401 128.799 116.671 129.22 115.875 129.25H102.059C102.91 128.476 103.422 127.398 103.484 126.25H106.655L107.405 125.5H108.75V124.75H107.095L106.345 125.5H103.485C103.447 124.984 103.327 124.477 103.127 124H106.875V123.25H102.726C102.538 122.971 102.314 122.719 102.059 122.5H108.645L109.395 120.25H111.105L111.605 121.75H110.25V122.5H115.875C116.503 122.513 117.099 122.784 117.521 123.25H112.125V124H118.056C118.352 124.58 118.505 125.223 118.5 125.875C118.501 126.388 118.407 126.896 118.223 127.375Z" fill="#E1E1E1"/>
<path d="M68.0302 125.875L67.2802 125.125H62.625V125.875H66.9698L67.7198 126.625H69.75V125.875H68.0302Z" fill="#A9A9A9"/>
<path d="M60.2198 127.75H57V128.5H60.5302L61.2802 127.75H63.375V127H60.9698L60.2198 127.75Z" fill="#A9A9A9"/>
<path d="M60.375 123.25H61.875V124H60.375V123.25Z" fill="#A9A9A9"/>
<path d="M52.125 123.25C51.075 123.25 50.25 124.403 50.25 125.875C50.25 127.347 51.075 128.5 52.125 128.5C53.175 128.5 54 127.347 54 125.875C54 124.403 53.175 123.25 52.125 123.25ZM52.125 127.75C51.5152 127.75 51 126.891 51 125.875C51 124.859 51.5152 124 52.125 124C52.7348 124 53.25 124.859 53.25 125.875C53.25 126.891 52.7348 127.75 52.125 127.75Z" fill="#A9A9A9"/>
<path d="M67.875 121.75H52.125C50.2641 121.75 48.75 123.601 48.75 125.875C48.75 128.149 50.2641 130 52.125 130H67.875C69.7359 130 71.25 128.149 71.25 125.875C71.25 123.601 69.7359 121.75 67.875 121.75ZM52.125 129.25C50.6775 129.25 49.5 127.736 49.5 125.875C49.5 124.014 50.6775 122.5 52.125 122.5C53.5725 122.5 54.75 124.014 54.75 125.875C54.75 127.736 53.5725 129.25 52.125 129.25ZM65.25 127.375V128.125H69.825C69.4003 128.799 68.6709 129.22 67.875 129.25H54.0591C54.9098 128.476 55.4222 127.398 55.4841 126.25H58.6547L59.4047 125.5H60.75V124.75H59.0948L58.3448 125.5H55.4845C55.447 124.984 55.3266 124.478 55.1273 124H58.875V123.25H54.7266C54.5386 122.972 54.3141 122.719 54.0595 122.5H67.875C68.5036 122.513 69.0989 122.785 69.5212 123.25H64.125V124H70.0561C70.3523 124.58 70.5047 125.223 70.5 125.875C70.5014 126.388 70.4072 126.896 70.223 127.375H65.25Z" fill="#A9A9A9"/>
<path d="M164.03 125.875L163.28 125.125H158.625V125.875H162.97L163.72 126.625H165.75V125.875H164.03Z" fill="#E1E1E1"/>
<path d="M156.22 127.75H153V128.5H156.53L157.28 127.75H159.375V127H156.97L156.22 127.75Z" fill="#E1E1E1"/>
<path d="M156.375 123.25H157.875V124H156.375V123.25Z" fill="#E1E1E1"/>
<path d="M148.125 123.25C147.075 123.25 146.25 124.403 146.25 125.875C146.25 127.347 147.075 128.5 148.125 128.5C149.175 128.5 150 127.347 150 125.875C150 124.403 149.175 123.25 148.125 123.25ZM148.125 127.75C147.515 127.75 147 126.891 147 125.875C147 124.859 147.515 124 148.125 124C148.735 124 149.25 124.859 149.25 125.875C149.25 126.891 148.735 127.75 148.125 127.75Z" fill="#E1E1E1"/>
<path d="M163.875 121.75H162.791C162.857 121.338 163.029 120.951 163.29 120.625H164.625C165.66 120.624 166.499 119.785 166.5 118.75V118.375H164.625C163.656 118.378 162.849 119.121 162.766 120.087C162.366 120.559 162.111 121.136 162.032 121.75H160.395L159.645 119.5H156.855L156.105 121.75H153.419C153.441 120.881 152.982 120.071 152.226 119.642C152.111 118.707 151.318 118.003 150.375 118H148.5V118.375C148.501 119.41 149.34 120.249 150.375 120.25H151.777C152.343 120.531 152.691 121.118 152.667 121.75H148.125C146.264 121.75 144.75 123.601 144.75 125.875C144.75 128.149 146.264 130 148.125 130H163.875C165.736 130 167.25 128.149 167.25 125.875C167.25 123.601 165.736 121.75 163.875 121.75ZM164.625 119.125H165.686C165.526 119.574 165.102 119.874 164.625 119.875H163.564C163.724 119.426 164.148 119.126 164.625 119.125ZM150.375 119.5C149.898 119.499 149.474 119.199 149.314 118.75H150.375C150.852 118.751 151.276 119.051 151.436 119.5H150.375ZM145.5 125.875C145.5 124.014 146.678 122.5 148.125 122.5C149.572 122.5 150.75 124.014 150.75 125.875C150.75 127.736 149.572 129.25 148.125 129.25C146.678 129.25 145.5 127.736 145.5 125.875ZM166.223 127.375H161.25V128.125H165.825C165.401 128.799 164.671 129.22 163.875 129.25H150.059C150.91 128.476 151.422 127.398 151.484 126.25H154.655L155.405 125.5H156.75V124.75H155.095L154.345 125.5H151.485C151.447 124.984 151.327 124.477 151.127 124H154.875V123.25H150.726C150.538 122.971 150.314 122.719 150.059 122.5H156.645L157.395 120.25H159.105L159.605 121.75H158.25V122.5H163.875C164.503 122.513 165.099 122.784 165.521 123.25H160.125V124H166.056C166.352 124.58 166.505 125.223 166.5 125.875C166.501 126.388 166.407 126.896 166.223 127.375Z" fill="#E1E1E1"/>
<path d="M188.03 125.875L187.28 125.125H182.625V125.875H186.97L187.72 126.625H189.75V125.875H188.03Z" fill="#E1E1E1"/>
<path d="M180.22 127.75H177V128.5H180.53L181.28 127.75H183.375V127H180.97L180.22 127.75Z" fill="#E1E1E1"/>
<path d="M180.375 123.25H181.875V124H180.375V123.25Z" fill="#E1E1E1"/>
<path d="M172.125 123.25C171.075 123.25 170.25 124.403 170.25 125.875C170.25 127.347 171.075 128.5 172.125 128.5C173.175 128.5 174 127.347 174 125.875C174 124.403 173.175 123.25 172.125 123.25ZM172.125 127.75C171.515 127.75 171 126.891 171 125.875C171 124.859 171.515 124 172.125 124C172.735 124 173.25 124.859 173.25 125.875C173.25 126.891 172.735 127.75 172.125 127.75Z" fill="#E1E1E1"/>
<path d="M187.875 121.75H186.791C186.857 121.338 187.029 120.951 187.29 120.625H188.625C189.66 120.624 190.499 119.785 190.5 118.75V118.375H188.625C187.656 118.378 186.849 119.121 186.766 120.087C186.366 120.559 186.111 121.136 186.032 121.75H184.395L183.645 119.5H180.855L180.105 121.75H177.419C177.441 120.881 176.982 120.071 176.226 119.642C176.111 118.707 175.318 118.003 174.375 118H172.5V118.375C172.501 119.41 173.34 120.249 174.375 120.25H175.777C176.343 120.531 176.691 121.118 176.667 121.75H172.125C170.264 121.75 168.75 123.601 168.75 125.875C168.75 128.149 170.264 130 172.125 130H187.875C189.736 130 191.25 128.149 191.25 125.875C191.25 123.601 189.736 121.75 187.875 121.75ZM188.625 119.125H189.686C189.526 119.574 189.102 119.874 188.625 119.875H187.564C187.724 119.426 188.148 119.126 188.625 119.125ZM174.375 119.5C173.898 119.499 173.474 119.199 173.314 118.75H174.375C174.852 118.751 175.276 119.051 175.436 119.5H174.375ZM169.5 125.875C169.5 124.014 170.678 122.5 172.125 122.5C173.572 122.5 174.75 124.014 174.75 125.875C174.75 127.736 173.572 129.25 172.125 129.25C170.678 129.25 169.5 127.736 169.5 125.875ZM190.223 127.375H185.25V128.125H189.825C189.401 128.799 188.671 129.22 187.875 129.25H174.059C174.91 128.476 175.422 127.398 175.484 126.25H178.655L179.405 125.5H180.75V124.75H179.095L178.345 125.5H175.485C175.447 124.984 175.327 124.477 175.127 124H178.875V123.25H174.726C174.538 122.971 174.314 122.719 174.059 122.5H180.645L181.395 120.25H183.105L183.605 121.75H182.25V122.5H187.875C188.503 122.513 189.099 122.784 189.521 123.25H184.125V124H190.056C190.352 124.58 190.505 125.223 190.5 125.875C190.501 126.388 190.407 126.896 190.223 127.375Z" fill="#E1E1E1"/>
<path d="M212.03 125.875L211.28 125.125H206.625V125.875H210.97L211.72 126.625H213.75V125.875H212.03Z" fill="#A9A9A9"/>
<path d="M204.22 127.75H201V128.5H204.53L205.28 127.75H207.375V127H204.97L204.22 127.75Z" fill="#A9A9A9"/>
<path d="M204.375 123.25H205.875V124H204.375V123.25Z" fill="#A9A9A9"/>
<path d="M196.125 123.25C195.075 123.25 194.25 124.403 194.25 125.875C194.25 127.347 195.075 128.5 196.125 128.5C197.175 128.5 198 127.347 198 125.875C198 124.403 197.175 123.25 196.125 123.25ZM196.125 127.75C195.515 127.75 195 126.891 195 125.875C195 124.859 195.515 124 196.125 124C196.735 124 197.25 124.859 197.25 125.875C197.25 126.891 196.735 127.75 196.125 127.75Z" fill="#A9A9A9"/>
<path d="M211.875 121.75H196.125C194.264 121.75 192.75 123.601 192.75 125.875C192.75 128.149 194.264 130 196.125 130H211.875C213.736 130 215.25 128.149 215.25 125.875C215.25 123.601 213.736 121.75 211.875 121.75ZM196.125 129.25C194.678 129.25 193.5 127.736 193.5 125.875C193.5 124.014 194.678 122.5 196.125 122.5C197.572 122.5 198.75 124.014 198.75 125.875C198.75 127.736 197.572 129.25 196.125 129.25ZM209.25 127.375V128.125H213.825C213.4 128.799 212.671 129.22 211.875 129.25H198.059C198.91 128.476 199.422 127.398 199.484 126.25H202.655L203.405 125.5H204.75V124.75H203.095L202.345 125.5H199.485C199.447 124.984 199.327 124.478 199.127 124H202.875V123.25H198.727C198.539 122.972 198.314 122.719 198.06 122.5H211.875C212.504 122.513 213.099 122.785 213.521 123.25H208.125V124H214.056C214.352 124.58 214.505 125.223 214.5 125.875C214.501 126.388 214.407 126.896 214.223 127.375H209.25Z" fill="#A9A9A9"/>
<path d="M236.03 125.875L235.28 125.125H230.625V125.875H234.97L235.72 126.625H237.75V125.875H236.03Z" fill="#A9A9A9"/>
<path d="M228.22 127.75H225V128.5H228.53L229.28 127.75H231.375V127H228.97L228.22 127.75Z" fill="#A9A9A9"/>
<path d="M228.375 123.25H229.875V124H228.375V123.25Z" fill="#A9A9A9"/>
<path d="M220.125 123.25C219.075 123.25 218.25 124.403 218.25 125.875C218.25 127.347 219.075 128.5 220.125 128.5C221.175 128.5 222 127.347 222 125.875C222 124.403 221.175 123.25 220.125 123.25ZM220.125 127.75C219.515 127.75 219 126.891 219 125.875C219 124.859 219.515 124 220.125 124C220.735 124 221.25 124.859 221.25 125.875C221.25 126.891 220.735 127.75 220.125 127.75Z" fill="#A9A9A9"/>
<path d="M235.875 121.75H220.125C218.264 121.75 216.75 123.601 216.75 125.875C216.75 128.149 218.264 130 220.125 130H235.875C237.736 130 239.25 128.149 239.25 125.875C239.25 123.601 237.736 121.75 235.875 121.75ZM220.125 129.25C218.678 129.25 217.5 127.736 217.5 125.875C217.5 124.014 218.678 122.5 220.125 122.5C221.572 122.5 222.75 124.014 222.75 125.875C222.75 127.736 221.572 129.25 220.125 129.25ZM233.25 127.375V128.125H237.825C237.4 128.799 236.671 129.22 235.875 129.25H222.059C222.91 128.476 223.422 127.398 223.484 126.25H226.655L227.405 125.5H228.75V124.75H227.095L226.345 125.5H223.485C223.447 124.984 223.327 124.478 223.127 124H226.875V123.25H222.727C222.539 122.972 222.314 122.719 222.06 122.5H235.875C236.504 122.513 237.099 122.785 237.521 123.25H232.125V124H238.056C238.352 124.58 238.505 125.223 238.5 125.875C238.501 126.388 238.407 126.896 238.223 127.375H233.25Z" fill="#A9A9A9"/>
<path d="M260.03 125.875L259.28 125.125H254.625V125.875H258.97L259.72 126.625H261.75V125.875H260.03Z" fill="#A9A9A9"/>
<path d="M252.22 127.75H249V128.5H252.53L253.28 127.75H255.375V127H252.97L252.22 127.75Z" fill="#A9A9A9"/>
<path d="M252.375 123.25H253.875V124H252.375V123.25Z" fill="#A9A9A9"/>
<path d="M244.125 123.25C243.075 123.25 242.25 124.403 242.25 125.875C242.25 127.347 243.075 128.5 244.125 128.5C245.175 128.5 246 127.347 246 125.875C246 124.403 245.175 123.25 244.125 123.25ZM244.125 127.75C243.515 127.75 243 126.891 243 125.875C243 124.859 243.515 124 244.125 124C244.735 124 245.25 124.859 245.25 125.875C245.25 126.891 244.735 127.75 244.125 127.75Z" fill="#A9A9A9"/>
<path d="M259.875 121.75H244.125C242.264 121.75 240.75 123.601 240.75 125.875C240.75 128.149 242.264 130 244.125 130H259.875C261.736 130 263.25 128.149 263.25 125.875C263.25 123.601 261.736 121.75 259.875 121.75ZM244.125 129.25C242.678 129.25 241.5 127.736 241.5 125.875C241.5 124.014 242.678 122.5 244.125 122.5C245.572 122.5 246.75 124.014 246.75 125.875C246.75 127.736 245.572 129.25 244.125 129.25ZM257.25 127.375V128.125H261.825C261.4 128.799 260.671 129.22 259.875 129.25H246.059C246.91 128.476 247.422 127.398 247.484 126.25H250.655L251.405 125.5H252.75V124.75H251.095L250.345 125.5H247.485C247.447 124.984 247.327 124.478 247.127 124H250.875V123.25H246.727C246.539 122.972 246.314 122.719 246.06 122.5H259.875C260.504 122.513 261.099 122.785 261.521 123.25H256.125V124H262.056C262.352 124.58 262.505 125.223 262.5 125.875C262.501 126.388 262.407 126.896 262.223 127.375H257.25Z" fill="#A9A9A9"/>
<path d="M68.0303 69.875L67.2803 69.125H62.625V69.875H66.9697L67.7197 70.625H69.75V69.875H68.0303Z" fill="#E1E1E1"/>
<path d="M60.2197 71.75H57V72.5H60.5303L61.2803 71.75H63.375V71H60.9697L60.2197 71.75Z" fill="#E1E1E1"/>
<path d="M60.375 67.25H61.875V68H60.375V67.25Z" fill="#E1E1E1"/>
<path d="M52.125 67.25C51.075 67.25 50.25 68.4031 50.25 69.875C50.25 71.3469 51.075 72.5 52.125 72.5C53.175 72.5 54 71.3469 54 69.875C54 68.4031 53.175 67.25 52.125 67.25ZM52.125 71.75C51.5152 71.75 51 70.8913 51 69.875C51 68.8587 51.5152 68 52.125 68C52.7348 68 53.25 68.8587 53.25 69.875C53.25 70.8913 52.7348 71.75 52.125 71.75Z" fill="#E1E1E1"/>
<path d="M67.875 65.75H66.7909C66.8572 65.3382 67.0291 64.9505 67.29 64.625H68.625C69.66 64.6238 70.4988 63.785 70.5 62.75V62.375H68.625C67.6556 62.3781 66.849 63.121 66.7665 64.0869C66.3663 64.5587 66.1113 65.1364 66.0322 65.75H64.3954L63.6454 63.5H60.8547L60.1047 65.75H57.4193C57.4406 64.8813 56.9822 64.0713 56.2264 63.6425C56.1113 62.7067 55.3178 62.0028 54.375 62H52.5V62.375C52.5012 63.41 53.34 64.2488 54.375 64.25H55.7768C56.3426 64.5314 56.6909 65.1185 56.6666 65.75H52.125C50.2643 65.75 48.75 67.6006 48.75 69.875C48.75 72.1494 50.2643 74 52.125 74H67.875C69.7357 74 71.25 72.1494 71.25 69.875C71.25 67.6006 69.7357 65.75 67.875 65.75ZM68.625 63.125H69.6859C69.5264 63.5742 69.1016 63.8744 68.625 63.875H67.5641C67.7236 63.4258 68.1484 63.1256 68.625 63.125ZM54.375 63.5C53.8984 63.4994 53.4736 63.1992 53.3141 62.75H54.375C54.8516 62.7506 55.2764 63.0508 55.4359 63.5H54.375ZM49.5 69.875C49.5 68.0139 50.6775 66.5 52.125 66.5C53.5725 66.5 54.75 68.0139 54.75 69.875C54.75 71.7361 53.5725 73.25 52.125 73.25C50.6775 73.25 49.5 71.7361 49.5 69.875ZM70.2229 71.375H65.25V72.125H69.825C69.4005 72.7988 68.6708 73.2198 67.875 73.25H54.0593C54.9102 72.4762 55.4221 71.3984 55.4843 70.25H58.6549L59.4049 69.5H60.75V68.75H59.0948L58.3448 69.5H55.4846C55.4472 68.984 55.3265 68.4775 55.1273 68H58.875V67.25H54.7264C54.5384 66.9714 54.314 66.7192 54.0593 66.5H60.6453L61.3953 64.25H63.1046L63.6049 65.75H62.25V66.5H67.875C68.5035 66.5132 69.0989 66.7844 69.5212 67.25H64.125V68H70.056C70.3522 68.5804 70.5045 69.2234 70.5 69.875C70.5013 70.3878 70.4073 70.8965 70.2229 71.375Z" fill="#E1E1E1"/>
<path d="M44.0302 69.875L43.2802 69.125H38.625V69.875H42.9698L43.7198 70.625H45.75V69.875H44.0302Z" fill="#A9A9A9"/>
<path d="M36.2198 71.75H33V72.5H36.5302L37.2802 71.75H39.375V71H36.9698L36.2198 71.75Z" fill="#A9A9A9"/>
<path d="M36.375 67.25H37.875V68H36.375V67.25Z" fill="#A9A9A9"/>
<path d="M28.125 67.25C27.075 67.25 26.25 68.4031 26.25 69.875C26.25 71.3469 27.075 72.5 28.125 72.5C29.175 72.5 30 71.3469 30 69.875C30 68.4031 29.175 67.25 28.125 67.25ZM28.125 71.75C27.5152 71.75 27 70.8913 27 69.875C27 68.8587 27.5152 68 28.125 68C28.7348 68 29.25 68.8587 29.25 69.875C29.25 70.8913 28.7348 71.75 28.125 71.75Z" fill="#A9A9A9"/>
<path d="M43.875 65.75H28.125C26.2641 65.75 24.75 67.6006 24.75 69.875C24.75 72.1494 26.2641 74 28.125 74H43.875C45.7359 74 47.25 72.1494 47.25 69.875C47.25 67.6006 45.7359 65.75 43.875 65.75ZM28.125 73.25C26.6775 73.25 25.5 71.7359 25.5 69.875C25.5 68.0141 26.6775 66.5 28.125 66.5C29.5725 66.5 30.75 68.0141 30.75 69.875C30.75 71.7359 29.5725 73.25 28.125 73.25ZM41.25 71.375V72.125H45.825C45.4003 72.7991 44.6709 73.22 43.875 73.25H30.0591C30.9098 72.4761 31.4222 71.3984 31.4841 70.25H34.6547L35.4047 69.5H36.75V68.75H35.0948L34.3448 69.5H31.4845C31.447 68.9839 31.3266 68.4777 31.1273 68H34.875V67.25H30.7266C30.5386 66.9716 30.3141 66.7194 30.0595 66.5H43.875C44.5036 66.5131 45.0989 66.7845 45.5212 67.25H40.125V68H46.0561C46.3523 68.5803 46.5047 69.2234 46.5 69.875C46.5014 70.3878 46.4072 70.8964 46.223 71.375H41.25Z" fill="#A9A9A9"/>
<path d="M212.03 69.875L211.28 69.125H206.625V69.875H210.97L211.72 70.625H213.75V69.875H212.03Z" fill="#E1E1E1"/>
<path d="M204.22 71.75H201V72.5H204.53L205.28 71.75H207.375V71H204.97L204.22 71.75Z" fill="#E1E1E1"/>
<path d="M204.375 67.25H205.875V68H204.375V67.25Z" fill="#E1E1E1"/>
<path d="M196.125 67.25C195.075 67.25 194.25 68.4031 194.25 69.875C194.25 71.3469 195.075 72.5 196.125 72.5C197.175 72.5 198 71.3469 198 69.875C198 68.4031 197.175 67.25 196.125 67.25ZM196.125 71.75C195.515 71.75 195 70.8913 195 69.875C195 68.8587 195.515 68 196.125 68C196.735 68 197.25 68.8587 197.25 69.875C197.25 70.8913 196.735 71.75 196.125 71.75Z" fill="#E1E1E1"/>
<path d="M211.875 65.75H210.791C210.857 65.3382 211.029 64.9505 211.29 64.625H212.625C213.66 64.6238 214.499 63.785 214.5 62.75V62.375H212.625C211.656 62.3781 210.849 63.121 210.766 64.0869C210.366 64.5587 210.111 65.1364 210.032 65.75H208.395L207.645 63.5H204.855L204.105 65.75H201.419C201.441 64.8813 200.982 64.0713 200.226 63.6425C200.111 62.7067 199.318 62.0028 198.375 62H196.5V62.375C196.501 63.41 197.34 64.2488 198.375 64.25H199.777C200.343 64.5314 200.691 65.1185 200.667 65.75H196.125C194.264 65.75 192.75 67.6006 192.75 69.875C192.75 72.1494 194.264 74 196.125 74H211.875C213.736 74 215.25 72.1494 215.25 69.875C215.25 67.6006 213.736 65.75 211.875 65.75ZM212.625 63.125H213.686C213.526 63.5742 213.102 63.8744 212.625 63.875H211.564C211.724 63.4258 212.148 63.1256 212.625 63.125ZM198.375 63.5C197.898 63.4994 197.474 63.1992 197.314 62.75H198.375C198.852 62.7506 199.276 63.0508 199.436 63.5H198.375ZM193.5 69.875C193.5 68.0139 194.678 66.5 196.125 66.5C197.572 66.5 198.75 68.0139 198.75 69.875C198.75 71.7361 197.572 73.25 196.125 73.25C194.678 73.25 193.5 71.7361 193.5 69.875ZM214.223 71.375H209.25V72.125H213.825C213.401 72.7988 212.671 73.2198 211.875 73.25H198.059C198.91 72.4762 199.422 71.3984 199.484 70.25H202.655L203.405 69.5H204.75V68.75H203.095L202.345 69.5H199.485C199.447 68.984 199.327 68.4775 199.127 68H202.875V67.25H198.726C198.538 66.9714 198.314 66.7192 198.059 66.5H204.645L205.395 64.25H207.105L207.605 65.75H206.25V66.5H211.875C212.503 66.5132 213.099 66.7844 213.521 67.25H208.125V68H214.056C214.352 68.5804 214.505 69.2234 214.5 69.875C214.501 70.3878 214.407 70.8965 214.223 71.375Z" fill="#E1E1E1"/>
<path d="M188.03 69.875L187.28 69.125H182.625V69.875H186.97L187.72 70.625H189.75V69.875H188.03Z" fill="#A9A9A9"/>
<path d="M180.22 71.75H177V72.5H180.53L181.28 71.75H183.375V71H180.97L180.22 71.75Z" fill="#A9A9A9"/>
<path d="M180.375 67.25H181.875V68H180.375V67.25Z" fill="#A9A9A9"/>
<path d="M172.125 67.25C171.075 67.25 170.25 68.4031 170.25 69.875C170.25 71.3469 171.075 72.5 172.125 72.5C173.175 72.5 174 71.3469 174 69.875C174 68.4031 173.175 67.25 172.125 67.25ZM172.125 71.75C171.515 71.75 171 70.8913 171 69.875C171 68.8587 171.515 68 172.125 68C172.735 68 173.25 68.8587 173.25 69.875C173.25 70.8913 172.735 71.75 172.125 71.75Z" fill="#A9A9A9"/>
<path d="M187.875 65.75H172.125C170.264 65.75 168.75 67.6006 168.75 69.875C168.75 72.1494 170.264 74 172.125 74H187.875C189.736 74 191.25 72.1494 191.25 69.875C191.25 67.6006 189.736 65.75 187.875 65.75ZM172.125 73.25C170.678 73.25 169.5 71.7359 169.5 69.875C169.5 68.0141 170.678 66.5 172.125 66.5C173.572 66.5 174.75 68.0141 174.75 69.875C174.75 71.7359 173.572 73.25 172.125 73.25ZM185.25 71.375V72.125H189.825C189.4 72.7991 188.671 73.22 187.875 73.25H174.059C174.91 72.4761 175.422 71.3984 175.484 70.25H178.655L179.405 69.5H180.75V68.75H179.095L178.345 69.5H175.485C175.447 68.9839 175.327 68.4777 175.127 68H178.875V67.25H174.727C174.539 66.9716 174.314 66.7194 174.06 66.5H187.875C188.504 66.5131 189.099 66.7845 189.521 67.25H184.125V68H190.056C190.352 68.5803 190.505 69.2234 190.5 69.875C190.501 70.3878 190.407 70.8964 190.223 71.375H185.25Z" fill="#A9A9A9"/>
<path d="M260.03 69.875L259.28 69.125H254.625V69.875H258.97L259.72 70.625H261.75V69.875H260.03Z" fill="#E1E1E1"/>
<path d="M252.22 71.75H249V72.5H252.53L253.28 71.75H255.375V71H252.97L252.22 71.75Z" fill="#E1E1E1"/>
<path d="M252.375 67.25H253.875V68H252.375V67.25Z" fill="#E1E1E1"/>
<path d="M244.125 67.25C243.075 67.25 242.25 68.4031 242.25 69.875C242.25 71.3469 243.075 72.5 244.125 72.5C245.175 72.5 246 71.3469 246 69.875C246 68.4031 245.175 67.25 244.125 67.25ZM244.125 71.75C243.515 71.75 243 70.8913 243 69.875C243 68.8587 243.515 68 244.125 68C244.735 68 245.25 68.8587 245.25 69.875C245.25 70.8913 244.735 71.75 244.125 71.75Z" fill="#E1E1E1"/>
<path d="M259.875 65.75H258.791C258.857 65.3382 259.029 64.9505 259.29 64.625H260.625C261.66 64.6238 262.499 63.785 262.5 62.75V62.375H260.625C259.656 62.3781 258.849 63.121 258.766 64.0869C258.366 64.5587 258.111 65.1364 258.032 65.75H256.395L255.645 63.5H252.855L252.105 65.75H249.419C249.441 64.8813 248.982 64.0713 248.226 63.6425C248.111 62.7067 247.318 62.0028 246.375 62H244.5V62.375C244.501 63.41 245.34 64.2488 246.375 64.25H247.777C248.343 64.5314 248.691 65.1185 248.667 65.75H244.125C242.264 65.75 240.75 67.6006 240.75 69.875C240.75 72.1494 242.264 74 244.125 74H259.875C261.736 74 263.25 72.1494 263.25 69.875C263.25 67.6006 261.736 65.75 259.875 65.75ZM260.625 63.125H261.686C261.526 63.5742 261.102 63.8744 260.625 63.875H259.564C259.724 63.4258 260.148 63.1256 260.625 63.125ZM246.375 63.5C245.898 63.4994 245.474 63.1992 245.314 62.75H246.375C246.852 62.7506 247.276 63.0508 247.436 63.5H246.375ZM241.5 69.875C241.5 68.0139 242.678 66.5 244.125 66.5C245.572 66.5 246.75 68.0139 246.75 69.875C246.75 71.7361 245.572 73.25 244.125 73.25C242.678 73.25 241.5 71.7361 241.5 69.875ZM262.223 71.375H257.25V72.125H261.825C261.401 72.7988 260.671 73.2198 259.875 73.25H246.059C246.91 72.4762 247.422 71.3984 247.484 70.25H250.655L251.405 69.5H252.75V68.75H251.095L250.345 69.5H247.485C247.447 68.984 247.327 68.4775 247.127 68H250.875V67.25H246.726C246.538 66.9714 246.314 66.7192 246.059 66.5H252.645L253.395 64.25H255.105L255.605 65.75H254.25V66.5H259.875C260.503 66.5132 261.099 66.7844 261.521 67.25H256.125V68H262.056C262.352 68.5804 262.505 69.2234 262.5 69.875C262.501 70.3878 262.407 70.8965 262.223 71.375Z" fill="#E1E1E1"/>
<path d="M284.03 69.875L283.28 69.125H278.625V69.875H282.97L283.72 70.625H285.75V69.875H284.03Z" fill="#A9A9A9"/>
<path d="M276.22 71.75H273V72.5H276.53L277.28 71.75H279.375V71H276.97L276.22 71.75Z" fill="#A9A9A9"/>
<path d="M276.375 67.25H277.875V68H276.375V67.25Z" fill="#A9A9A9"/>
<path d="M268.125 67.25C267.075 67.25 266.25 68.4031 266.25 69.875C266.25 71.3469 267.075 72.5 268.125 72.5C269.175 72.5 270 71.3469 270 69.875C270 68.4031 269.175 67.25 268.125 67.25ZM268.125 71.75C267.515 71.75 267 70.8913 267 69.875C267 68.8587 267.515 68 268.125 68C268.735 68 269.25 68.8587 269.25 69.875C269.25 70.8913 268.735 71.75 268.125 71.75Z" fill="#A9A9A9"/>
<path d="M283.875 65.75H268.125C266.264 65.75 264.75 67.6006 264.75 69.875C264.75 72.1494 266.264 74 268.125 74H283.875C285.736 74 287.25 72.1494 287.25 69.875C287.25 67.6006 285.736 65.75 283.875 65.75ZM268.125 73.25C266.678 73.25 265.5 71.7359 265.5 69.875C265.5 68.0141 266.678 66.5 268.125 66.5C269.572 66.5 270.75 68.0141 270.75 69.875C270.75 71.7359 269.572 73.25 268.125 73.25ZM281.25 71.375V72.125H285.825C285.4 72.7991 284.671 73.22 283.875 73.25H270.059C270.91 72.4761 271.422 71.3984 271.484 70.25H274.655L275.405 69.5H276.75V68.75H275.095L274.345 69.5H271.485C271.447 68.9839 271.327 68.4777 271.127 68H274.875V67.25H270.727C270.539 66.9716 270.314 66.7194 270.06 66.5H283.875C284.504 66.5131 285.099 66.7845 285.521 67.25H280.125V68H286.056C286.352 68.5803 286.505 69.2234 286.5 69.875C286.501 70.3878 286.407 70.8964 286.223 71.375H281.25Z" fill="#A9A9A9"/>
<path d="M308.03 69.875L307.28 69.125H302.625V69.875H306.97L307.72 70.625H309.75V69.875H308.03Z" fill="#A9A9A9"/>
<path d="M300.22 71.75H297V72.5H300.53L301.28 71.75H303.375V71H300.97L300.22 71.75Z" fill="#A9A9A9"/>
<path d="M300.375 67.25H301.875V68H300.375V67.25Z" fill="#A9A9A9"/>
<path d="M292.125 67.25C291.075 67.25 290.25 68.4031 290.25 69.875C290.25 71.3469 291.075 72.5 292.125 72.5C293.175 72.5 294 71.3469 294 69.875C294 68.4031 293.175 67.25 292.125 67.25ZM292.125 71.75C291.515 71.75 291 70.8913 291 69.875C291 68.8587 291.515 68 292.125 68C292.735 68 293.25 68.8587 293.25 69.875C293.25 70.8913 292.735 71.75 292.125 71.75Z" fill="#A9A9A9"/>
<path d="M307.875 65.75H292.125C290.264 65.75 288.75 67.6006 288.75 69.875C288.75 72.1494 290.264 74 292.125 74H307.875C309.736 74 311.25 72.1494 311.25 69.875C311.25 67.6006 309.736 65.75 307.875 65.75ZM292.125 73.25C290.678 73.25 289.5 71.7359 289.5 69.875C289.5 68.0141 290.678 66.5 292.125 66.5C293.572 66.5 294.75 68.0141 294.75 69.875C294.75 71.7359 293.572 73.25 292.125 73.25ZM305.25 71.375V72.125H309.825C309.4 72.7991 308.671 73.22 307.875 73.25H294.059C294.91 72.4761 295.422 71.3984 295.484 70.25H298.655L299.405 69.5H300.75V68.75H299.095L298.345 69.5H295.485C295.447 68.9839 295.327 68.4777 295.127 68H298.875V67.25H294.727C294.539 66.9716 294.314 66.7194 294.06 66.5H307.875C308.504 66.5131 309.099 66.7845 309.521 67.25H304.125V68H310.056C310.352 68.5803 310.505 69.2234 310.5 69.875C310.501 70.3878 310.407 70.8964 310.223 71.375H305.25Z" fill="#A9A9A9"/>
<path d="M116.03 69.875L115.28 69.125H110.625V69.875H114.97L115.72 70.625H117.75V69.875H116.03Z" fill="#A9A9A9"/>
<path d="M108.22 71.75H105V72.5H108.53L109.28 71.75H111.375V71H108.97L108.22 71.75Z" fill="#A9A9A9"/>
<path d="M108.375 67.25H109.875V68H108.375V67.25Z" fill="#A9A9A9"/>
<path d="M100.125 67.25C99.075 67.25 98.25 68.4031 98.25 69.875C98.25 71.3469 99.075 72.5 100.125 72.5C101.175 72.5 102 71.3469 102 69.875C102 68.4031 101.175 67.25 100.125 67.25ZM100.125 71.75C99.5152 71.75 99 70.8913 99 69.875C99 68.8587 99.5152 68 100.125 68C100.735 68 101.25 68.8587 101.25 69.875C101.25 70.8913 100.735 71.75 100.125 71.75Z" fill="#A9A9A9"/>
<path d="M115.875 65.75H100.125C98.2641 65.75 96.75 67.6006 96.75 69.875C96.75 72.1494 98.2641 74 100.125 74H115.875C117.736 74 119.25 72.1494 119.25 69.875C119.25 67.6006 117.736 65.75 115.875 65.75ZM100.125 73.25C98.6775 73.25 97.5 71.7359 97.5 69.875C97.5 68.0141 98.6775 66.5 100.125 66.5C101.572 66.5 102.75 68.0141 102.75 69.875C102.75 71.7359 101.572 73.25 100.125 73.25ZM113.25 71.375V72.125H117.825C117.4 72.7991 116.671 73.22 115.875 73.25H102.059C102.91 72.4761 103.422 71.3984 103.484 70.25H106.655L107.405 69.5H108.75V68.75H107.095L106.345 69.5H103.485C103.447 68.9839 103.327 68.4777 103.127 68H106.875V67.25H102.727C102.539 66.9716 102.314 66.7194 102.06 66.5H115.875C116.504 66.5131 117.099 66.7845 117.521 67.25H112.125V68H118.056C118.352 68.5803 118.505 69.2234 118.5 69.875C118.501 70.3878 118.407 70.8964 118.223 71.375H113.25Z" fill="#A9A9A9"/>
<path d="M140.03 69.875L139.28 69.125H134.625V69.875H138.97L139.72 70.625H141.75V69.875H140.03Z" fill="#A9A9A9"/>
<path d="M132.22 71.75H129V72.5H132.53L133.28 71.75H135.375V71H132.97L132.22 71.75Z" fill="#A9A9A9"/>
<path d="M132.375 67.25H133.875V68H132.375V67.25Z" fill="#A9A9A9"/>
<path d="M124.125 67.25C123.075 67.25 122.25 68.4031 122.25 69.875C122.25 71.3469 123.075 72.5 124.125 72.5C125.175 72.5 126 71.3469 126 69.875C126 68.4031 125.175 67.25 124.125 67.25ZM124.125 71.75C123.515 71.75 123 70.8913 123 69.875C123 68.8587 123.515 68 124.125 68C124.735 68 125.25 68.8587 125.25 69.875C125.25 70.8913 124.735 71.75 124.125 71.75Z" fill="#A9A9A9"/>
<path d="M139.875 65.75H124.125C122.264 65.75 120.75 67.6006 120.75 69.875C120.75 72.1494 122.264 74 124.125 74H139.875C141.736 74 143.25 72.1494 143.25 69.875C143.25 67.6006 141.736 65.75 139.875 65.75ZM124.125 73.25C122.678 73.25 121.5 71.7359 121.5 69.875C121.5 68.0141 122.678 66.5 124.125 66.5C125.572 66.5 126.75 68.0141 126.75 69.875C126.75 71.7359 125.572 73.25 124.125 73.25ZM137.25 71.375V72.125H141.825C141.4 72.7991 140.671 73.22 139.875 73.25H126.059C126.91 72.4761 127.422 71.3984 127.484 70.25H130.655L131.405 69.5H132.75V68.75H131.095L130.345 69.5H127.485C127.447 68.9839 127.327 68.4777 127.127 68H130.875V67.25H126.727C126.539 66.9716 126.314 66.7194 126.06 66.5H139.875C140.504 66.5131 141.099 66.7845 141.521 67.25H136.125V68H142.056C142.352 68.5803 142.505 69.2234 142.5 69.875C142.501 70.3878 142.407 70.8964 142.223 71.375H137.25Z" fill="#A9A9A9"/>
<path d="M164.03 69.875L163.28 69.125H158.625V69.875H162.97L163.72 70.625H165.75V69.875H164.03Z" fill="#A9A9A9"/>
<path d="M156.22 71.75H153V72.5H156.53L157.28 71.75H159.375V71H156.97L156.22 71.75Z" fill="#A9A9A9"/>
<path d="M156.375 67.25H157.875V68H156.375V67.25Z" fill="#A9A9A9"/>
<path d="M148.125 67.25C147.075 67.25 146.25 68.4031 146.25 69.875C146.25 71.3469 147.075 72.5 148.125 72.5C149.175 72.5 150 71.3469 150 69.875C150 68.4031 149.175 67.25 148.125 67.25ZM148.125 71.75C147.515 71.75 147 70.8913 147 69.875C147 68.8587 147.515 68 148.125 68C148.735 68 149.25 68.8587 149.25 69.875C149.25 70.8913 148.735 71.75 148.125 71.75Z" fill="#A9A9A9"/>
<path d="M163.875 65.75H148.125C146.264 65.75 144.75 67.6006 144.75 69.875C144.75 72.1494 146.264 74 148.125 74H163.875C165.736 74 167.25 72.1494 167.25 69.875C167.25 67.6006 165.736 65.75 163.875 65.75ZM148.125 73.25C146.678 73.25 145.5 71.7359 145.5 69.875C145.5 68.0141 146.678 66.5 148.125 66.5C149.572 66.5 150.75 68.0141 150.75 69.875C150.75 71.7359 149.572 73.25 148.125 73.25ZM161.25 71.375V72.125H165.825C165.4 72.7991 164.671 73.22 163.875 73.25H150.059C150.91 72.4761 151.422 71.3984 151.484 70.25H154.655L155.405 69.5H156.75V68.75H155.095L154.345 69.5H151.485C151.447 68.9839 151.327 68.4777 151.127 68H154.875V67.25H150.727C150.539 66.9716 150.314 66.7194 150.06 66.5H163.875C164.504 66.5131 165.099 66.7845 165.521 67.25H160.125V68H166.056C166.352 68.5803 166.505 69.2234 166.5 69.875C166.501 70.3878 166.407 70.8964 166.223 71.375H161.25Z" fill="#A9A9A9"/>
<path d="M30.2977 38.9978C29.8028 38.9978 29.3979 39.4027 29.3979 39.8976C29.3979 40.3925 29.8028 40.7974 30.2977 40.7974C30.7925 40.7974 31.1974 40.3925 31.1974 39.8976C31.1974 39.4027 30.797 38.9978 30.2977 38.9978ZM30.2977 40.199C30.1312 40.199 29.9962 40.064 29.9962 39.8976C29.9962 39.7311 30.1312 39.5962 30.2977 39.5962C30.4641 39.5962 30.5991 39.7311 30.5991 39.8976C30.5991 40.064 30.4641 40.199 30.2977 40.199Z" fill="#E1E1E1"/>
<path d="M35.098 38.9978C34.6031 38.9978 34.1982 39.4027 34.1982 39.8976C34.1982 40.3925 34.6031 40.7974 35.098 40.7974C35.5929 40.7974 35.9978 40.3925 35.9978 39.8976C35.9978 39.4027 35.5929 38.9978 35.098 38.9978ZM35.098 40.199C34.9315 40.199 34.7966 40.064 34.7966 39.8976C34.7966 39.7311 34.9315 39.5962 35.098 39.5962C35.2644 39.5962 35.3994 39.7311 35.3994 39.8976C35.3994 40.064 35.2644 40.199 35.098 40.199Z" fill="#E1E1E1"/>
<path d="M41.6978 38.9978C41.2029 38.9978 40.798 39.4027 40.798 39.8976C40.798 40.3925 41.2029 40.7974 41.6978 40.7974C42.1972 40.7974 42.5976 40.3925 42.5976 39.8976C42.5976 39.4027 42.1927 38.9978 41.6978 38.9978ZM41.6978 40.199C41.5314 40.199 41.3964 40.064 41.3964 39.8976C41.3964 39.7311 41.5314 39.5962 41.6978 39.5962C41.8643 39.5962 41.9992 39.7311 41.9992 39.8976C41.9992 40.064 41.8643 40.199 41.6978 40.199Z" fill="#E1E1E1"/>
<path d="M44.964 33.7656L43.7628 31.3677C43.7133 31.2642 43.6053 31.2012 43.4929 31.2012H38.3957V30.3014C38.3957 30.135 38.2607 30 38.0942 30H27.2969C27.135 30 27 30.135 27 30.3014V39.8975C27 40.064 27.135 40.1989 27.3014 40.1989H28.2237C28.3902 41.3462 29.4519 42.1425 30.5991 41.976C31.5214 41.8455 32.2457 41.1212 32.3762 40.1989H33.024C33.1905 41.3462 34.2522 42.1425 35.3994 41.976C36.3217 41.8455 37.046 41.1212 37.1765 40.1989H39.6238C39.7903 41.3462 40.852 42.1425 41.9992 41.976C42.9215 41.8455 43.6458 41.1212 43.7763 40.1989H44.6986C44.865 40.1989 45 40.064 45 39.8975V33.9005C44.9955 33.851 44.9865 33.806 44.964 33.7656ZM30.2977 41.3957C29.4699 41.3957 28.7996 40.7253 28.7996 39.8975C28.7996 39.0697 29.4699 38.3994 30.2977 38.3994C31.1255 38.3994 31.7958 39.0697 31.7958 39.8975C31.7958 40.7253 31.1255 41.3957 30.2977 41.3957ZM35.098 41.3957C34.2702 41.3957 33.5998 40.7253 33.5998 39.8975C33.5998 39.0697 34.2702 38.3994 35.098 38.3994C35.9258 38.3994 36.5961 39.0697 36.5961 39.8975C36.5961 40.7253 35.9258 41.3957 35.098 41.3957ZM37.7973 39.5961H37.172C37.0055 38.4489 35.9438 37.6526 34.7966 37.819C33.8743 37.9495 33.15 38.6738 33.0195 39.5961H32.3717C32.2052 38.4489 31.1435 37.6526 29.9963 37.819C29.074 37.9495 28.3497 38.6738 28.2192 39.5961H27.5939V37.1982H37.7973V39.5961ZM37.7973 36.5998H27.5984V30.5984H37.7973V36.5998ZM41.6978 41.3957C40.87 41.3957 40.1997 40.7253 40.1997 39.8975C40.1997 39.0697 40.87 38.3994 41.6978 38.3994C42.5256 38.3994 43.196 39.0697 43.196 39.8975C43.196 40.7253 42.5256 41.3957 41.6978 41.3957ZM44.3971 37.1982H43.7988V36.5998H44.3971V37.1982ZM44.3971 35.997H43.4974C43.3309 35.997 43.196 36.132 43.196 36.2984V37.4996C43.196 37.6661 43.3309 37.801 43.4974 37.801H44.3971V39.6006H43.7718C43.6053 38.4534 42.5436 37.6571 41.3964 37.8235C40.4741 37.954 39.7498 38.6783 39.6193 39.6006H38.3957V31.7996H43.3084L44.3927 33.968V35.997H44.3971Z" fill="#E1E1E1"/>
<path d="M43.4659 33.7655L42.8675 32.5643C42.818 32.4608 42.7101 32.3978 42.5976 32.3978H39.2999C39.1335 32.3978 38.9985 32.5328 38.9985 32.6993V35.0972C38.9985 35.2636 39.1335 35.3986 39.2999 35.3986H43.196C43.3624 35.3986 43.4974 35.2636 43.4974 35.0972V33.896C43.4974 33.851 43.4839 33.806 43.4659 33.7655ZM42.8945 34.8002H39.5969V33.0007H42.4087L42.8945 33.9724V34.8002Z" fill="#E1E1E1"/>
<path d="M40.4966 35.9969H39.2954C39.129 35.9969 38.994 36.1319 38.994 36.2984C38.994 36.4648 39.129 36.5998 39.2954 36.5998H40.4966C40.6631 36.5998 40.798 36.4648 40.798 36.2984C40.798 36.1319 40.6631 35.9969 40.4966 35.9969Z" fill="#E1E1E1"/>
<path d="M31.4989 32.3978H28.4981C28.3317 32.3978 28.1967 32.5328 28.1967 32.6993C28.1967 32.8657 28.3317 33.0007 28.4981 33.0007H31.4989C31.6653 33.0007 31.8003 32.8657 31.8003 32.6993C31.8003 32.5328 31.6653 32.3978 31.4989 32.3978Z" fill="#E1E1E1"/>
<path d="M32.7001 33.5991H29.6993C29.5329 33.5991 29.3979 33.7341 29.3979 33.9005C29.3979 34.067 29.5329 34.202 29.6993 34.202H32.7001C32.8665 34.202 33.0015 34.067 33.0015 33.9005C33.0015 33.7341 32.862 33.5991 32.7001 33.5991Z" fill="#E1E1E1"/>
<path d="M36.8975 31.2013C36.7311 31.2013 36.5961 31.3363 36.5961 31.5027V32.1011C36.5961 32.2675 36.7311 32.4025 36.8975 32.4025C37.064 32.4025 37.1989 32.2675 37.1989 32.1011V31.4982C37.1989 31.3363 37.064 31.2013 36.8975 31.2013Z" fill="#E1E1E1"/>
<path d="M36.8975 33.0007C36.7311 33.0007 36.5961 33.1357 36.5961 33.3022V35.7001C36.5961 35.8665 36.7311 36.0015 36.8975 36.0015C37.064 36.0015 37.1989 35.8665 37.1989 35.7001V33.3022C37.1989 33.1357 37.064 33.0007 36.8975 33.0007Z" fill="#E1E1E1"/>
<path d="M108 29L102 32.5V39.5L108 43L114 39.5V32.5L108 29ZM112.777 32.7365L108 35.5234L103.223 32.7365L108 29.9499L112.777 32.7365ZM102.814 33.4483L107.593 36.2357V41.8125L102.814 39.025V33.4483ZM108.407 41.8125V36.2357L113.186 33.4483V39.025L108.407 41.8125Z" fill="#E1E1E1"/>
<path d="M36.5825 87.2727H35.5257L33.3439 88.7216V89.7955L35.4746 88.3807H35.5257V96H36.5825V87.2727Z" fill="#49BAF2"/>
<path d="M59.4 96.1193C61.3261 96.1193 62.4341 94.4872 62.4341 91.6364C62.4341 88.8068 61.3091 87.1534 59.4 87.1534C57.4909 87.1534 56.3659 88.8068 56.3659 91.6364C56.3659 94.4872 57.4739 96.1193 59.4 96.1193ZM59.4 95.1818C58.1301 95.1818 57.3886 93.9077 57.3886 91.6364C57.3886 89.3693 58.1386 88.0739 59.4 88.0739C60.6614 88.0739 61.4114 89.3693 61.4114 91.6364C61.4114 93.9077 60.6699 95.1818 59.4 95.1818Z" fill="#E1E1E1"/>
<path d="M108.583 87.2727H107.526L105.344 88.7216V89.7955L107.475 88.3807H107.526V96H108.583V87.2727Z" fill="#49BAF2"/>
<path d="M132.583 87.2727H131.526L129.344 88.7216V89.7955L131.475 88.3807H131.526V96H132.583V87.2727Z" fill="#49BAF2"/>
<path d="M156.583 87.2727H155.526L153.344 88.7216V89.7955L155.475 88.3807H155.526V96H156.583V87.2727Z" fill="#49BAF2"/>
<path d="M180.583 87.2727H179.526L177.344 88.7216V89.7955L179.475 88.3807H179.526V96H180.583V87.2727Z" fill="#49BAF2"/>
<path d="M203.4 96.1193C205.326 96.1193 206.434 94.4872 206.434 91.6364C206.434 88.8068 205.309 87.1534 203.4 87.1534C201.491 87.1534 200.366 88.8068 200.366 91.6364C200.366 94.4872 201.474 96.1193 203.4 96.1193ZM203.4 95.1818C202.13 95.1818 201.389 93.9077 201.389 91.6364C201.389 89.3693 202.139 88.0739 203.4 88.0739C204.661 88.0739 205.411 89.3693 205.411 91.6364C205.411 93.9077 204.67 95.1818 203.4 95.1818Z" fill="#E1E1E1"/>
<path d="M35.4 152.119C37.3261 152.119 38.4341 150.487 38.4341 147.636C38.4341 144.807 37.3091 143.153 35.4 143.153C33.4909 143.153 32.3659 144.807 32.3659 147.636C32.3659 150.487 33.4739 152.119 35.4 152.119ZM35.4 151.182C34.1301 151.182 33.3886 149.908 33.3886 147.636C33.3886 145.369 34.1386 144.074 35.4 144.074C36.6614 144.074 37.4114 145.369 37.4114 147.636C37.4114 149.908 36.6699 151.182 35.4 151.182Z" fill="#E1E1E1"/>
<path d="M60.5825 143.273H59.5257L57.3439 144.722V145.795L59.4746 144.381H59.5257V152H60.5825V143.273Z" fill="#49BAF2"/>
<path d="M83.4 152.119C85.3261 152.119 86.4341 150.487 86.4341 147.636C86.4341 144.807 85.3091 143.153 83.4 143.153C81.4909 143.153 80.3659 144.807 80.3659 147.636C80.3659 150.487 81.4739 152.119 83.4 152.119ZM83.4 151.182C82.1301 151.182 81.3886 149.908 81.3886 147.636C81.3886 145.369 82.1386 144.074 83.4 144.074C84.6614 144.074 85.4114 145.369 85.4114 147.636C85.4114 149.908 84.6699 151.182 83.4 151.182Z" fill="#E1E1E1"/>
<path d="M107.4 152.119C109.326 152.119 110.434 150.487 110.434 147.636C110.434 144.807 109.309 143.153 107.4 143.153C105.491 143.153 104.366 144.807 104.366 147.636C104.366 150.487 105.474 152.119 107.4 152.119ZM107.4 151.182C106.13 151.182 105.389 149.908 105.389 147.636C105.389 145.369 106.139 144.074 107.4 144.074C108.661 144.074 109.411 145.369 109.411 147.636C109.411 149.908 108.67 151.182 107.4 151.182Z" fill="#E1E1E1"/>
<path d="M155.4 152.119C157.326 152.119 158.434 150.487 158.434 147.636C158.434 144.807 157.309 143.153 155.4 143.153C153.491 143.153 152.366 144.807 152.366 147.636C152.366 150.487 153.474 152.119 155.4 152.119ZM155.4 151.182C154.13 151.182 153.389 149.908 153.389 147.636C153.389 145.369 154.139 144.074 155.4 144.074C156.661 144.074 157.411 145.369 157.411 147.636C157.411 149.908 156.67 151.182 155.4 151.182Z" fill="#E1E1E1"/>
<path d="M179.4 152.119C181.326 152.119 182.434 150.487 182.434 147.636C182.434 144.807 181.309 143.153 179.4 143.153C177.491 143.153 176.366 144.807 176.366 147.636C176.366 150.487 177.474 152.119 179.4 152.119ZM179.4 151.182C178.13 151.182 177.389 149.908 177.389 147.636C177.389 145.369 178.139 144.074 179.4 144.074C180.661 144.074 181.411 145.369 181.411 147.636C181.411 149.908 180.67 151.182 179.4 151.182Z" fill="#E1E1E1"/>
<path d="M204.583 143.273H203.526L201.344 144.722V145.795L203.475 144.381H203.526V152H204.583V143.273Z" fill="#49BAF2"/>
<path d="M228.583 143.273H227.526L225.344 144.722V145.795L227.475 144.381H227.526V152H228.583V143.273Z" fill="#49BAF2"/>
<path d="M252.583 143.273H251.526L249.344 144.722V145.795L251.475 144.381H251.526V152H252.583V143.273Z" fill="#49BAF2"/>
<path d="M35.4 208.119C37.3261 208.119 38.4341 206.487 38.4341 203.636C38.4341 200.807 37.3091 199.153 35.4 199.153C33.4909 199.153 32.3659 200.807 32.3659 203.636C32.3659 206.487 33.4739 208.119 35.4 208.119ZM35.4 207.182C34.1301 207.182 33.3886 205.908 33.3886 203.636C33.3886 201.369 34.1386 200.074 35.4 200.074C36.6614 200.074 37.4114 201.369 37.4114 203.636C37.4114 205.908 36.6699 207.182 35.4 207.182Z" fill="#E1E1E1"/>
<path d="M59.4 208.119C61.3261 208.119 62.4341 206.487 62.4341 203.636C62.4341 200.807 61.3091 199.153 59.4 199.153C57.4909 199.153 56.3659 200.807 56.3659 203.636C56.3659 206.487 57.4739 208.119 59.4 208.119ZM59.4 207.182C58.1301 207.182 57.3886 205.908 57.3886 203.636C57.3886 201.369 58.1386 200.074 59.4 200.074C60.6614 200.074 61.4114 201.369 61.4114 203.636C61.4114 205.908 60.6699 207.182 59.4 207.182Z" fill="#E1E1E1"/>
<path d="M84.5825 199.273H83.5257L81.3439 200.722V201.795L83.4746 200.381H83.5257V208H84.5825V199.273Z" fill="#49BAF2"/>
<path d="M107.4 208.119C109.326 208.119 110.434 206.487 110.434 203.636C110.434 200.807 109.309 199.153 107.4 199.153C105.491 199.153 104.366 200.807 104.366 203.636C104.366 206.487 105.474 208.119 107.4 208.119ZM107.4 207.182C106.13 207.182 105.389 205.908 105.389 203.636C105.389 201.369 106.139 200.074 107.4 200.074C108.661 200.074 109.411 201.369 109.411 203.636C109.411 205.908 108.67 207.182 107.4 207.182Z" fill="#E1E1E1"/>
<path d="M131.4 208.119C133.326 208.119 134.434 206.487 134.434 203.636C134.434 200.807 133.309 199.153 131.4 199.153C129.491 199.153 128.366 200.807 128.366 203.636C128.366 206.487 129.474 208.119 131.4 208.119ZM131.4 207.182C130.13 207.182 129.389 205.908 129.389 203.636C129.389 201.369 130.139 200.074 131.4 200.074C132.661 200.074 133.411 201.369 133.411 203.636C133.411 205.908 132.67 207.182 131.4 207.182Z" fill="#E1E1E1"/>
<path d="M180.583 199.273H179.526L177.344 200.722V201.795L179.475 200.381H179.526V208H180.583V199.273Z" fill="#49BAF2"/>
<path d="M204.583 199.273H203.526L201.344 200.722V201.795L203.475 200.381H203.526V208H204.583V199.273Z" fill="#49BAF2"/>
<path d="M227.4 208.119C229.326 208.119 230.434 206.487 230.434 203.636C230.434 200.807 229.309 199.153 227.4 199.153C225.491 199.153 224.366 200.807 224.366 203.636C224.366 206.487 225.474 208.119 227.4 208.119ZM227.4 207.182C226.13 207.182 225.389 205.908 225.389 203.636C225.389 201.369 226.139 200.074 227.4 200.074C228.661 200.074 229.411 201.369 229.411 203.636C229.411 205.908 228.67 207.182 227.4 207.182Z" fill="#E1E1E1"/>
<path d="M251.4 208.119C253.326 208.119 254.434 206.487 254.434 203.636C254.434 200.807 253.309 199.153 251.4 199.153C249.491 199.153 248.366 200.807 248.366 203.636C248.366 206.487 249.474 208.119 251.4 208.119ZM251.4 207.182C250.13 207.182 249.389 205.908 249.389 203.636C249.389 201.369 250.139 200.074 251.4 200.074C252.661 200.074 253.411 201.369 253.411 203.636C253.411 205.908 252.67 207.182 251.4 207.182Z" fill="#E1E1E1"/>
<path d="M251.4 96.1193C253.326 96.1193 254.434 94.4872 254.434 91.6364C254.434 88.8068 253.309 87.1534 251.4 87.1534C249.491 87.1534 248.366 88.8068 248.366 91.6364C248.366 94.4872 249.474 96.1193 251.4 96.1193ZM251.4 95.1818C250.13 95.1818 249.389 93.9077 249.389 91.6364C249.389 89.3693 250.139 88.0739 251.4 88.0739C252.661 88.0739 253.411 89.3693 253.411 91.6364C253.411 93.9077 252.67 95.1818 251.4 95.1818Z" fill="#E1E1E1"/>
<path d="M276.583 87.2727H275.526L273.344 88.7216V89.7955L275.475 88.3807H275.526V96H276.583V87.2727Z" fill="#49BAF2"/>
<path d="M300.583 87.2727H299.526L297.344 88.7216V89.7955L299.475 88.3807H299.526V96H300.583V87.2727Z" fill="#49BAF2"/>
</svg>
