<svg width="360" height="240" viewBox="0 0 360 240" fill="none" xmlns="http://www.w3.org/2000/svg">
<rect width="360" height="240" fill="white"/>
<path d="M76.3733 40H81.879V39.0625H77.8222V38.9943L79.7824 36.8977C81.2824 35.2912 81.7256 34.5412 81.7256 33.5739C81.7256 32.2273 80.6347 31.1534 79.1006 31.1534C77.5708 31.1534 76.4074 32.1932 76.4074 33.7273H77.4131C77.4131 32.7344 78.0566 32.0739 79.0665 32.0739C80.0125 32.0739 80.737 32.6534 80.737 33.5739C80.737 34.3793 80.264 34.9759 79.254 36.0795L76.3733 39.233V40ZM87.6344 40.1193C89.3773 40.1193 90.5918 39.1009 90.6003 37.6818C90.5918 36.5781 89.8546 35.6406 88.9128 35.4659V35.4148C89.731 35.2017 90.2679 34.4006 90.2765 33.4716C90.2679 32.142 89.1515 31.1534 87.6344 31.1534C86.1003 31.1534 84.9838 32.142 84.9924 33.4716C84.9838 34.4006 85.5208 35.2017 86.356 35.4148V35.4659C85.3972 35.6406 84.66 36.5781 84.6685 37.6818C84.66 39.1009 85.8745 40.1193 87.6344 40.1193ZM87.6344 39.1818C86.437 39.1818 85.6998 38.5682 85.7083 37.6307C85.6998 36.6463 86.5137 35.9432 87.6344 35.9432C88.7381 35.9432 89.552 36.6463 89.5605 37.6307C89.552 38.5682 88.8148 39.1818 87.6344 39.1818ZM87.6344 35.0398C86.6799 35.0398 86.0066 34.4432 86.0151 33.5398C86.0066 32.6534 86.6543 32.0739 87.6344 32.0739C88.5975 32.0739 89.2452 32.6534 89.2537 33.5398C89.2452 34.4432 88.5719 35.0398 87.6344 35.0398Z" fill="#E1E1E1"/>
<path d="M260.03 181.875L259.28 181.125H254.625V181.875H258.97L259.72 182.625H261.75V181.875H260.03Z" fill="#E1E1E1"/>
<path d="M252.22 183.75H249V184.5H252.53L253.28 183.75H255.375V183H252.97L252.22 183.75Z" fill="#E1E1E1"/>
<path d="M252.375 179.25H253.875V180H252.375V179.25Z" fill="#E1E1E1"/>
<path d="M244.125 179.25C243.075 179.25 242.25 180.403 242.25 181.875C242.25 183.347 243.075 184.5 244.125 184.5C245.175 184.5 246 183.347 246 181.875C246 180.403 245.175 179.25 244.125 179.25ZM244.125 183.75C243.515 183.75 243 182.891 243 181.875C243 180.859 243.515 180 244.125 180C244.735 180 245.25 180.859 245.25 181.875C245.25 182.891 244.735 183.75 244.125 183.75Z" fill="#E1E1E1"/>
<path d="M259.875 177.75H258.791C258.857 177.338 259.029 176.951 259.29 176.625H260.625C261.66 176.624 262.499 175.785 262.5 174.75V174.375H260.625C259.656 174.378 258.849 175.121 258.766 176.087C258.366 176.559 258.111 177.136 258.032 177.75H256.395L255.645 175.5H252.855L252.105 177.75H249.419C249.441 176.881 248.982 176.071 248.226 175.642C248.111 174.707 247.318 174.003 246.375 174H244.5V174.375C244.501 175.41 245.34 176.249 246.375 176.25H247.777C248.343 176.531 248.691 177.118 248.667 177.75H244.125C242.264 177.75 240.75 179.601 240.75 181.875C240.75 184.149 242.264 186 244.125 186H259.875C261.736 186 263.25 184.149 263.25 181.875C263.25 179.601 261.736 177.75 259.875 177.75ZM260.625 175.125H261.686C261.526 175.574 261.102 175.874 260.625 175.875H259.564C259.724 175.426 260.148 175.126 260.625 175.125ZM246.375 175.5C245.898 175.499 245.474 175.199 245.314 174.75H246.375C246.852 174.751 247.276 175.051 247.436 175.5H246.375ZM241.5 181.875C241.5 180.014 242.678 178.5 244.125 178.5C245.572 178.5 246.75 180.014 246.75 181.875C246.75 183.736 245.572 185.25 244.125 185.25C242.678 185.25 241.5 183.736 241.5 181.875ZM262.223 183.375H257.25V184.125H261.825C261.401 184.799 260.671 185.22 259.875 185.25H246.059C246.91 184.476 247.422 183.398 247.484 182.25H250.655L251.405 181.5H252.75V180.75H251.095L250.345 181.5H247.485C247.447 180.984 247.327 180.477 247.127 180H250.875V179.25H246.726C246.538 178.971 246.314 178.719 246.059 178.5H252.645L253.395 176.25H255.105L255.605 177.75H254.25V178.5H259.875C260.503 178.513 261.099 178.784 261.521 179.25H256.125V180H262.056C262.352 180.58 262.505 181.223 262.5 181.875C262.501 182.388 262.407 182.896 262.223 183.375Z" fill="#E1E1E1"/>
<path d="M284.03 181.875L283.28 181.125H278.625V181.875H282.97L283.72 182.625H285.75V181.875H284.03Z" fill="#E1E1E1"/>
<path d="M276.22 183.75H273V184.5H276.53L277.28 183.75H279.375V183H276.97L276.22 183.75Z" fill="#E1E1E1"/>
<path d="M276.375 179.25H277.875V180H276.375V179.25Z" fill="#E1E1E1"/>
<path d="M268.125 179.25C267.075 179.25 266.25 180.403 266.25 181.875C266.25 183.347 267.075 184.5 268.125 184.5C269.175 184.5 270 183.347 270 181.875C270 180.403 269.175 179.25 268.125 179.25ZM268.125 183.75C267.515 183.75 267 182.891 267 181.875C267 180.859 267.515 180 268.125 180C268.735 180 269.25 180.859 269.25 181.875C269.25 182.891 268.735 183.75 268.125 183.75Z" fill="#E1E1E1"/>
<path d="M283.875 177.75H282.791C282.857 177.338 283.029 176.951 283.29 176.625H284.625C285.66 176.624 286.499 175.785 286.5 174.75V174.375H284.625C283.656 174.378 282.849 175.121 282.766 176.087C282.366 176.559 282.111 177.136 282.032 177.75H280.395L279.645 175.5H276.855L276.105 177.75H273.419C273.441 176.881 272.982 176.071 272.226 175.642C272.111 174.707 271.318 174.003 270.375 174H268.5V174.375C268.501 175.41 269.34 176.249 270.375 176.25H271.777C272.343 176.531 272.691 177.118 272.667 177.75H268.125C266.264 177.75 264.75 179.601 264.75 181.875C264.75 184.149 266.264 186 268.125 186H283.875C285.736 186 287.25 184.149 287.25 181.875C287.25 179.601 285.736 177.75 283.875 177.75ZM284.625 175.125H285.686C285.526 175.574 285.102 175.874 284.625 175.875H283.564C283.724 175.426 284.148 175.126 284.625 175.125ZM270.375 175.5C269.898 175.499 269.474 175.199 269.314 174.75H270.375C270.852 174.751 271.276 175.051 271.436 175.5H270.375ZM265.5 181.875C265.5 180.014 266.678 178.5 268.125 178.5C269.572 178.5 270.75 180.014 270.75 181.875C270.75 183.736 269.572 185.25 268.125 185.25C266.678 185.25 265.5 183.736 265.5 181.875ZM286.223 183.375H281.25V184.125H285.825C285.401 184.799 284.671 185.22 283.875 185.25H270.059C270.91 184.476 271.422 183.398 271.484 182.25H274.655L275.405 181.5H276.75V180.75H275.095L274.345 181.5H271.485C271.447 180.984 271.327 180.477 271.127 180H274.875V179.25H270.726C270.538 178.971 270.314 178.719 270.059 178.5H276.645L277.395 176.25H279.105L279.605 177.75H278.25V178.5H283.875C284.503 178.513 285.099 178.784 285.521 179.25H280.125V180H286.056C286.352 180.58 286.505 181.223 286.5 181.875C286.501 182.388 286.407 182.896 286.223 183.375Z" fill="#E1E1E1"/>
<path d="M228.03 181.875L227.28 181.125H222.625V181.875H226.97L227.72 182.625H229.75V181.875H228.03Z" fill="#A9A9A9"/>
<path d="M220.22 183.75H217V184.5H220.53L221.28 183.75H223.375V183H220.97L220.22 183.75Z" fill="#A9A9A9"/>
<path d="M220.375 179.25H221.875V180H220.375V179.25Z" fill="#A9A9A9"/>
<path d="M212.125 179.25C211.075 179.25 210.25 180.403 210.25 181.875C210.25 183.347 211.075 184.5 212.125 184.5C213.175 184.5 214 183.347 214 181.875C214 180.403 213.175 179.25 212.125 179.25ZM212.125 183.75C211.515 183.75 211 182.891 211 181.875C211 180.859 211.515 180 212.125 180C212.735 180 213.25 180.859 213.25 181.875C213.25 182.891 212.735 183.75 212.125 183.75Z" fill="#A9A9A9"/>
<path d="M227.875 177.75H212.125C210.264 177.75 208.75 179.601 208.75 181.875C208.75 184.149 210.264 186 212.125 186H227.875C229.736 186 231.25 184.149 231.25 181.875C231.25 179.601 229.736 177.75 227.875 177.75ZM212.125 185.25C210.678 185.25 209.5 183.736 209.5 181.875C209.5 180.014 210.678 178.5 212.125 178.5C213.572 178.5 214.75 180.014 214.75 181.875C214.75 183.736 213.572 185.25 212.125 185.25ZM225.25 183.375V184.125H229.825C229.4 184.799 228.671 185.22 227.875 185.25H214.059C214.91 184.476 215.422 183.398 215.484 182.25H218.655L219.405 181.5H220.75V180.75H219.095L218.345 181.5H215.485C215.447 180.984 215.327 180.478 215.127 180H218.875V179.25H214.727C214.539 178.972 214.314 178.719 214.06 178.5H227.875C228.504 178.513 229.099 178.785 229.521 179.25H224.125V180H230.056C230.352 180.58 230.505 181.223 230.5 181.875C230.501 182.388 230.407 182.896 230.223 183.375H225.25Z" fill="#A9A9A9"/>
<path d="M204.03 181.875L203.28 181.125H198.625V181.875H202.97L203.72 182.625H205.75V181.875H204.03Z" fill="#A9A9A9"/>
<path d="M196.22 183.75H193V184.5H196.53L197.28 183.75H199.375V183H196.97L196.22 183.75Z" fill="#A9A9A9"/>
<path d="M196.375 179.25H197.875V180H196.375V179.25Z" fill="#A9A9A9"/>
<path d="M188.125 179.25C187.075 179.25 186.25 180.403 186.25 181.875C186.25 183.347 187.075 184.5 188.125 184.5C189.175 184.5 190 183.347 190 181.875C190 180.403 189.175 179.25 188.125 179.25ZM188.125 183.75C187.515 183.75 187 182.891 187 181.875C187 180.859 187.515 180 188.125 180C188.735 180 189.25 180.859 189.25 181.875C189.25 182.891 188.735 183.75 188.125 183.75Z" fill="#A9A9A9"/>
<path d="M203.875 177.75H188.125C186.264 177.75 184.75 179.601 184.75 181.875C184.75 184.149 186.264 186 188.125 186H203.875C205.736 186 207.25 184.149 207.25 181.875C207.25 179.601 205.736 177.75 203.875 177.75ZM188.125 185.25C186.678 185.25 185.5 183.736 185.5 181.875C185.5 180.014 186.678 178.5 188.125 178.5C189.572 178.5 190.75 180.014 190.75 181.875C190.75 183.736 189.572 185.25 188.125 185.25ZM201.25 183.375V184.125H205.825C205.4 184.799 204.671 185.22 203.875 185.25H190.059C190.91 184.476 191.422 183.398 191.484 182.25H194.655L195.405 181.5H196.75V180.75H195.095L194.345 181.5H191.485C191.447 180.984 191.327 180.478 191.127 180H194.875V179.25H190.727C190.539 178.972 190.314 178.719 190.06 178.5H203.875C204.504 178.513 205.099 178.785 205.521 179.25H200.125V180H206.056C206.352 180.58 206.505 181.223 206.5 181.875C206.501 182.388 206.407 182.896 206.223 183.375H201.25Z" fill="#A9A9A9"/>
<path d="M68.0303 181.875L67.2803 181.125H62.625V181.875H66.9697L67.7197 182.625H69.75V181.875H68.0303Z" fill="#E1E1E1"/>
<path d="M60.2197 183.75H57V184.5H60.5303L61.2803 183.75H63.375V183H60.9697L60.2197 183.75Z" fill="#E1E1E1"/>
<path d="M60.375 179.25H61.875V180H60.375V179.25Z" fill="#E1E1E1"/>
<path d="M52.125 179.25C51.075 179.25 50.25 180.403 50.25 181.875C50.25 183.347 51.075 184.5 52.125 184.5C53.175 184.5 54 183.347 54 181.875C54 180.403 53.175 179.25 52.125 179.25ZM52.125 183.75C51.5152 183.75 51 182.891 51 181.875C51 180.859 51.5152 180 52.125 180C52.7348 180 53.25 180.859 53.25 181.875C53.25 182.891 52.7348 183.75 52.125 183.75Z" fill="#E1E1E1"/>
<path d="M67.875 177.75H66.7909C66.8572 177.338 67.0291 176.951 67.29 176.625H68.625C69.66 176.624 70.4988 175.785 70.5 174.75V174.375H68.625C67.6556 174.378 66.849 175.121 66.7665 176.087C66.3663 176.559 66.1113 177.136 66.0322 177.75H64.3954L63.6454 175.5H60.8547L60.1047 177.75H57.4193C57.4406 176.881 56.9822 176.071 56.2264 175.642C56.1113 174.707 55.3178 174.003 54.375 174H52.5V174.375C52.5012 175.41 53.34 176.249 54.375 176.25H55.7768C56.3426 176.531 56.6909 177.118 56.6666 177.75H52.125C50.2643 177.75 48.75 179.601 48.75 181.875C48.75 184.149 50.2643 186 52.125 186H67.875C69.7357 186 71.25 184.149 71.25 181.875C71.25 179.601 69.7357 177.75 67.875 177.75ZM68.625 175.125H69.6859C69.5264 175.574 69.1016 175.874 68.625 175.875H67.5641C67.7236 175.426 68.1484 175.126 68.625 175.125ZM54.375 175.5C53.8984 175.499 53.4736 175.199 53.3141 174.75H54.375C54.8516 174.751 55.2764 175.051 55.4359 175.5H54.375ZM49.5 181.875C49.5 180.014 50.6775 178.5 52.125 178.5C53.5725 178.5 54.75 180.014 54.75 181.875C54.75 183.736 53.5725 185.25 52.125 185.25C50.6775 185.25 49.5 183.736 49.5 181.875ZM70.2229 183.375H65.25V184.125H69.825C69.4005 184.799 68.6708 185.22 67.875 185.25H54.0593C54.9102 184.476 55.4221 183.398 55.4843 182.25H58.6549L59.4049 181.5H60.75V180.75H59.0948L58.3448 181.5H55.4846C55.4472 180.984 55.3265 180.477 55.1273 180H58.875V179.25H54.7264C54.5384 178.971 54.314 178.719 54.0593 178.5H60.6453L61.3953 176.25H63.1046L63.6049 177.75H62.25V178.5H67.875C68.5035 178.513 69.0989 178.784 69.5212 179.25H64.125V180H70.056C70.3522 180.58 70.5045 181.223 70.5 181.875C70.5013 182.388 70.4073 182.896 70.2229 183.375Z" fill="#E1E1E1"/>
<path d="M44.0303 181.875L43.2803 181.125H38.625V181.875H42.9697L43.7197 182.625H45.75V181.875H44.0303Z" fill="#E1E1E1"/>
<path d="M36.2197 183.75H33V184.5H36.5303L37.2803 183.75H39.375V183H36.9697L36.2197 183.75Z" fill="#E1E1E1"/>
<path d="M36.375 179.25H37.875V180H36.375V179.25Z" fill="#E1E1E1"/>
<path d="M28.125 179.25C27.075 179.25 26.25 180.403 26.25 181.875C26.25 183.347 27.075 184.5 28.125 184.5C29.175 184.5 30 183.347 30 181.875C30 180.403 29.175 179.25 28.125 179.25ZM28.125 183.75C27.5152 183.75 27 182.891 27 181.875C27 180.859 27.5152 180 28.125 180C28.7348 180 29.25 180.859 29.25 181.875C29.25 182.891 28.7348 183.75 28.125 183.75Z" fill="#E1E1E1"/>
<path d="M43.875 177.75H42.7909C42.8572 177.338 43.0291 176.951 43.29 176.625H44.625C45.66 176.624 46.4988 175.785 46.5 174.75V174.375H44.625C43.6556 174.378 42.849 175.121 42.7665 176.087C42.3663 176.559 42.1113 177.136 42.0322 177.75H40.3954L39.6454 175.5H36.8547L36.1047 177.75H33.4193C33.4406 176.881 32.9822 176.071 32.2264 175.642C32.1113 174.707 31.3178 174.003 30.375 174H28.5V174.375C28.5012 175.41 29.34 176.249 30.375 176.25H31.7768C32.3426 176.531 32.6909 177.118 32.6666 177.75H28.125C26.2643 177.75 24.75 179.601 24.75 181.875C24.75 184.149 26.2643 186 28.125 186H43.875C45.7357 186 47.25 184.149 47.25 181.875C47.25 179.601 45.7357 177.75 43.875 177.75ZM44.625 175.125H45.6859C45.5264 175.574 45.1016 175.874 44.625 175.875H43.5641C43.7236 175.426 44.1484 175.126 44.625 175.125ZM30.375 175.5C29.8984 175.499 29.4736 175.199 29.3141 174.75H30.375C30.8516 174.751 31.2764 175.051 31.4359 175.5H30.375ZM25.5 181.875C25.5 180.014 26.6775 178.5 28.125 178.5C29.5725 178.5 30.75 180.014 30.75 181.875C30.75 183.736 29.5725 185.25 28.125 185.25C26.6775 185.25 25.5 183.736 25.5 181.875ZM46.2229 183.375H41.25V184.125H45.825C45.4005 184.799 44.6708 185.22 43.875 185.25H30.0593C30.9102 184.476 31.4221 183.398 31.4843 182.25H34.6549L35.4049 181.5H36.75V180.75H35.0948L34.3448 181.5H31.4846C31.4472 180.984 31.3265 180.477 31.1273 180H34.875V179.25H30.7264C30.5384 178.971 30.314 178.719 30.0593 178.5H36.6453L37.3953 176.25H39.1046L39.6049 177.75H38.25V178.5H43.875C44.5035 178.513 45.0989 178.784 45.5212 179.25H40.125V180H46.056C46.3522 180.58 46.5045 181.223 46.5 181.875C46.5013 182.388 46.4073 182.896 46.2229 183.375Z" fill="#E1E1E1"/>
<path d="M132.03 181.875L131.28 181.125H126.625V181.875H130.97L131.72 182.625H133.75V181.875H132.03Z" fill="#E1E1E1"/>
<path d="M124.22 183.75H121V184.5H124.53L125.28 183.75H127.375V183H124.97L124.22 183.75Z" fill="#E1E1E1"/>
<path d="M124.375 179.25H125.875V180H124.375V179.25Z" fill="#E1E1E1"/>
<path d="M116.125 179.25C115.075 179.25 114.25 180.403 114.25 181.875C114.25 183.347 115.075 184.5 116.125 184.5C117.175 184.5 118 183.347 118 181.875C118 180.403 117.175 179.25 116.125 179.25ZM116.125 183.75C115.515 183.75 115 182.891 115 181.875C115 180.859 115.515 180 116.125 180C116.735 180 117.25 180.859 117.25 181.875C117.25 182.891 116.735 183.75 116.125 183.75Z" fill="#E1E1E1"/>
<path d="M131.875 177.75H130.791C130.857 177.338 131.029 176.951 131.29 176.625H132.625C133.66 176.624 134.499 175.785 134.5 174.75V174.375H132.625C131.656 174.378 130.849 175.121 130.766 176.087C130.366 176.559 130.111 177.136 130.032 177.75H128.395L127.645 175.5H124.855L124.105 177.75H121.419C121.441 176.881 120.982 176.071 120.226 175.642C120.111 174.707 119.318 174.003 118.375 174H116.5V174.375C116.501 175.41 117.34 176.249 118.375 176.25H119.777C120.343 176.531 120.691 177.118 120.667 177.75H116.125C114.264 177.75 112.75 179.601 112.75 181.875C112.75 184.149 114.264 186 116.125 186H131.875C133.736 186 135.25 184.149 135.25 181.875C135.25 179.601 133.736 177.75 131.875 177.75ZM132.625 175.125H133.686C133.526 175.574 133.102 175.874 132.625 175.875H131.564C131.724 175.426 132.148 175.126 132.625 175.125ZM118.375 175.5C117.898 175.499 117.474 175.199 117.314 174.75H118.375C118.852 174.751 119.276 175.051 119.436 175.5H118.375ZM113.5 181.875C113.5 180.014 114.678 178.5 116.125 178.5C117.572 178.5 118.75 180.014 118.75 181.875C118.75 183.736 117.572 185.25 116.125 185.25C114.678 185.25 113.5 183.736 113.5 181.875ZM134.223 183.375H129.25V184.125H133.825C133.401 184.799 132.671 185.22 131.875 185.25H118.059C118.91 184.476 119.422 183.398 119.484 182.25H122.655L123.405 181.5H124.75V180.75H123.095L122.345 181.5H119.485C119.447 180.984 119.327 180.477 119.127 180H122.875V179.25H118.726C118.538 178.971 118.314 178.719 118.059 178.5H124.645L125.395 176.25H127.105L127.605 177.75H126.25V178.5H131.875C132.503 178.513 133.099 178.784 133.521 179.25H128.125V180H134.056C134.352 180.58 134.505 181.223 134.5 181.875C134.501 182.388 134.407 182.896 134.223 183.375Z" fill="#E1E1E1"/>
<path d="M156.03 181.875L155.28 181.125H150.625V181.875H154.97L155.72 182.625H157.75V181.875H156.03Z" fill="#E1E1E1"/>
<path d="M148.22 183.75H145V184.5H148.53L149.28 183.75H151.375V183H148.97L148.22 183.75Z" fill="#E1E1E1"/>
<path d="M148.375 179.25H149.875V180H148.375V179.25Z" fill="#E1E1E1"/>
<path d="M140.125 179.25C139.075 179.25 138.25 180.403 138.25 181.875C138.25 183.347 139.075 184.5 140.125 184.5C141.175 184.5 142 183.347 142 181.875C142 180.403 141.175 179.25 140.125 179.25ZM140.125 183.75C139.515 183.75 139 182.891 139 181.875C139 180.859 139.515 180 140.125 180C140.735 180 141.25 180.859 141.25 181.875C141.25 182.891 140.735 183.75 140.125 183.75Z" fill="#E1E1E1"/>
<path d="M155.875 177.75H154.791C154.857 177.338 155.029 176.951 155.29 176.625H156.625C157.66 176.624 158.499 175.785 158.5 174.75V174.375H156.625C155.656 174.378 154.849 175.121 154.766 176.087C154.366 176.559 154.111 177.136 154.032 177.75H152.395L151.645 175.5H148.855L148.105 177.75H145.419C145.441 176.881 144.982 176.071 144.226 175.642C144.111 174.707 143.318 174.003 142.375 174H140.5V174.375C140.501 175.41 141.34 176.249 142.375 176.25H143.777C144.343 176.531 144.691 177.118 144.667 177.75H140.125C138.264 177.75 136.75 179.601 136.75 181.875C136.75 184.149 138.264 186 140.125 186H155.875C157.736 186 159.25 184.149 159.25 181.875C159.25 179.601 157.736 177.75 155.875 177.75ZM156.625 175.125H157.686C157.526 175.574 157.102 175.874 156.625 175.875H155.564C155.724 175.426 156.148 175.126 156.625 175.125ZM142.375 175.5C141.898 175.499 141.474 175.199 141.314 174.75H142.375C142.852 174.751 143.276 175.051 143.436 175.5H142.375ZM137.5 181.875C137.5 180.014 138.678 178.5 140.125 178.5C141.572 178.5 142.75 180.014 142.75 181.875C142.75 183.736 141.572 185.25 140.125 185.25C138.678 185.25 137.5 183.736 137.5 181.875ZM158.223 183.375H153.25V184.125H157.825C157.401 184.799 156.671 185.22 155.875 185.25H142.059C142.91 184.476 143.422 183.398 143.484 182.25H146.655L147.405 181.5H148.75V180.75H147.095L146.345 181.5H143.485C143.447 180.984 143.327 180.477 143.127 180H146.875V179.25H142.726C142.538 178.971 142.314 178.719 142.059 178.5H148.645L149.395 176.25H151.105L151.605 177.75H150.25V178.5H155.875C156.503 178.513 157.099 178.784 157.521 179.25H152.125V180H158.056C158.352 180.58 158.505 181.223 158.5 181.875C158.501 182.388 158.407 182.896 158.223 183.375Z" fill="#E1E1E1"/>
<path d="M100.03 181.875L99.2802 181.125H94.625V181.875H98.9698L99.7198 182.625H101.75V181.875H100.03Z" fill="#A9A9A9"/>
<path d="M92.2198 183.75H89V184.5H92.5302L93.2802 183.75H95.375V183H92.9698L92.2198 183.75Z" fill="#A9A9A9"/>
<path d="M92.375 179.25H93.875V180H92.375V179.25Z" fill="#A9A9A9"/>
<path d="M84.125 179.25C83.075 179.25 82.25 180.403 82.25 181.875C82.25 183.347 83.075 184.5 84.125 184.5C85.175 184.5 86 183.347 86 181.875C86 180.403 85.175 179.25 84.125 179.25ZM84.125 183.75C83.5152 183.75 83 182.891 83 181.875C83 180.859 83.5152 180 84.125 180C84.7348 180 85.25 180.859 85.25 181.875C85.25 182.891 84.7348 183.75 84.125 183.75Z" fill="#A9A9A9"/>
<path d="M99.875 177.75H84.125C82.2641 177.75 80.75 179.601 80.75 181.875C80.75 184.149 82.2641 186 84.125 186H99.875C101.736 186 103.25 184.149 103.25 181.875C103.25 179.601 101.736 177.75 99.875 177.75ZM84.125 185.25C82.6775 185.25 81.5 183.736 81.5 181.875C81.5 180.014 82.6775 178.5 84.125 178.5C85.5725 178.5 86.75 180.014 86.75 181.875C86.75 183.736 85.5725 185.25 84.125 185.25ZM97.25 183.375V184.125H101.825C101.4 184.799 100.671 185.22 99.875 185.25H86.0591C86.9098 184.476 87.4222 183.398 87.4841 182.25H90.6547L91.4047 181.5H92.75V180.75H91.0948L90.3448 181.5H87.4845C87.447 180.984 87.3266 180.478 87.1273 180H90.875V179.25H86.7266C86.5386 178.972 86.3141 178.719 86.0595 178.5H99.875C100.504 178.513 101.099 178.785 101.521 179.25H96.125V180H102.056C102.352 180.58 102.505 181.223 102.5 181.875C102.501 182.388 102.407 182.896 102.223 183.375H97.25Z" fill="#A9A9A9"/>
<path d="M44.0303 125.875L43.2803 125.125H38.625V125.875H42.9697L43.7197 126.625H45.75V125.875H44.0303Z" fill="#E1E1E1"/>
<path d="M36.2197 127.75H33V128.5H36.5303L37.2803 127.75H39.375V127H36.9697L36.2197 127.75Z" fill="#E1E1E1"/>
<path d="M36.375 123.25H37.875V124H36.375V123.25Z" fill="#E1E1E1"/>
<path d="M28.125 123.25C27.075 123.25 26.25 124.403 26.25 125.875C26.25 127.347 27.075 128.5 28.125 128.5C29.175 128.5 30 127.347 30 125.875C30 124.403 29.175 123.25 28.125 123.25ZM28.125 127.75C27.5152 127.75 27 126.891 27 125.875C27 124.859 27.5152 124 28.125 124C28.7348 124 29.25 124.859 29.25 125.875C29.25 126.891 28.7348 127.75 28.125 127.75Z" fill="#E1E1E1"/>
<path d="M43.875 121.75H42.7909C42.8572 121.338 43.0291 120.951 43.29 120.625H44.625C45.66 120.624 46.4988 119.785 46.5 118.75V118.375H44.625C43.6556 118.378 42.849 119.121 42.7665 120.087C42.3663 120.559 42.1113 121.136 42.0322 121.75H40.3954L39.6454 119.5H36.8547L36.1047 121.75H33.4193C33.4406 120.881 32.9822 120.071 32.2264 119.642C32.1113 118.707 31.3178 118.003 30.375 118H28.5V118.375C28.5012 119.41 29.34 120.249 30.375 120.25H31.7768C32.3426 120.531 32.6909 121.118 32.6666 121.75H28.125C26.2643 121.75 24.75 123.601 24.75 125.875C24.75 128.149 26.2643 130 28.125 130H43.875C45.7357 130 47.25 128.149 47.25 125.875C47.25 123.601 45.7357 121.75 43.875 121.75ZM44.625 119.125H45.6859C45.5264 119.574 45.1016 119.874 44.625 119.875H43.5641C43.7236 119.426 44.1484 119.126 44.625 119.125ZM30.375 119.5C29.8984 119.499 29.4736 119.199 29.3141 118.75H30.375C30.8516 118.751 31.2764 119.051 31.4359 119.5H30.375ZM25.5 125.875C25.5 124.014 26.6775 122.5 28.125 122.5C29.5725 122.5 30.75 124.014 30.75 125.875C30.75 127.736 29.5725 129.25 28.125 129.25C26.6775 129.25 25.5 127.736 25.5 125.875ZM46.2229 127.375H41.25V128.125H45.825C45.4005 128.799 44.6708 129.22 43.875 129.25H30.0593C30.9102 128.476 31.4221 127.398 31.4843 126.25H34.6549L35.4049 125.5H36.75V124.75H35.0948L34.3448 125.5H31.4846C31.4472 124.984 31.3265 124.477 31.1273 124H34.875V123.25H30.7264C30.5384 122.971 30.314 122.719 30.0593 122.5H36.6453L37.3953 120.25H39.1046L39.6049 121.75H38.25V122.5H43.875C44.5035 122.513 45.0989 122.784 45.5212 123.25H40.125V124H46.056C46.3522 124.58 46.5045 125.223 46.5 125.875C46.5013 126.388 46.4073 126.896 46.2229 127.375Z" fill="#E1E1E1"/>
<path d="M108.03 125.875L107.28 125.125H102.625V125.875H106.97L107.72 126.625H109.75V125.875H108.03Z" fill="#E1E1E1"/>
<path d="M100.22 127.75H97V128.5H100.53L101.28 127.75H103.375V127H100.97L100.22 127.75Z" fill="#E1E1E1"/>
<path d="M100.375 123.25H101.875V124H100.375V123.25Z" fill="#E1E1E1"/>
<path d="M92.125 123.25C91.075 123.25 90.25 124.403 90.25 125.875C90.25 127.347 91.075 128.5 92.125 128.5C93.175 128.5 94 127.347 94 125.875C94 124.403 93.175 123.25 92.125 123.25ZM92.125 127.75C91.5152 127.75 91 126.891 91 125.875C91 124.859 91.5152 124 92.125 124C92.7348 124 93.25 124.859 93.25 125.875C93.25 126.891 92.7348 127.75 92.125 127.75Z" fill="#E1E1E1"/>
<path d="M107.875 121.75H106.791C106.857 121.338 107.029 120.951 107.29 120.625H108.625C109.66 120.624 110.499 119.785 110.5 118.75V118.375H108.625C107.656 118.378 106.849 119.121 106.766 120.087C106.366 120.559 106.111 121.136 106.032 121.75H104.395L103.645 119.5H100.855L100.105 121.75H97.4193C97.4406 120.881 96.9822 120.071 96.2264 119.642C96.1113 118.707 95.3178 118.003 94.375 118H92.5V118.375C92.5012 119.41 93.34 120.249 94.375 120.25H95.7768C96.3426 120.531 96.6909 121.118 96.6666 121.75H92.125C90.2643 121.75 88.75 123.601 88.75 125.875C88.75 128.149 90.2643 130 92.125 130H107.875C109.736 130 111.25 128.149 111.25 125.875C111.25 123.601 109.736 121.75 107.875 121.75ZM108.625 119.125H109.686C109.526 119.574 109.102 119.874 108.625 119.875H107.564C107.724 119.426 108.148 119.126 108.625 119.125ZM94.375 119.5C93.8984 119.499 93.4736 119.199 93.3141 118.75H94.375C94.8516 118.751 95.2764 119.051 95.4359 119.5H94.375ZM89.5 125.875C89.5 124.014 90.6775 122.5 92.125 122.5C93.5725 122.5 94.75 124.014 94.75 125.875C94.75 127.736 93.5725 129.25 92.125 129.25C90.6775 129.25 89.5 127.736 89.5 125.875ZM110.223 127.375H105.25V128.125H109.825C109.401 128.799 108.671 129.22 107.875 129.25H94.0593C94.9102 128.476 95.4221 127.398 95.4843 126.25H98.6549L99.4049 125.5H100.75V124.75H99.0948L98.3448 125.5H95.4846C95.4472 124.984 95.3265 124.477 95.1273 124H98.875V123.25H94.7264C94.5384 122.971 94.314 122.719 94.0593 122.5H100.645L101.395 120.25H103.105L103.605 121.75H102.25V122.5H107.875C108.503 122.513 109.099 122.784 109.521 123.25H104.125V124H110.056C110.352 124.58 110.505 125.223 110.5 125.875C110.501 126.388 110.407 126.896 110.223 127.375Z" fill="#E1E1E1"/>
<path d="M132.03 125.875L131.28 125.125H126.625V125.875H130.97L131.72 126.625H133.75V125.875H132.03Z" fill="#E1E1E1"/>
<path d="M124.22 127.75H121V128.5H124.53L125.28 127.75H127.375V127H124.97L124.22 127.75Z" fill="#E1E1E1"/>
<path d="M124.375 123.25H125.875V124H124.375V123.25Z" fill="#E1E1E1"/>
<path d="M116.125 123.25C115.075 123.25 114.25 124.403 114.25 125.875C114.25 127.347 115.075 128.5 116.125 128.5C117.175 128.5 118 127.347 118 125.875C118 124.403 117.175 123.25 116.125 123.25ZM116.125 127.75C115.515 127.75 115 126.891 115 125.875C115 124.859 115.515 124 116.125 124C116.735 124 117.25 124.859 117.25 125.875C117.25 126.891 116.735 127.75 116.125 127.75Z" fill="#E1E1E1"/>
<path d="M131.875 121.75H130.791C130.857 121.338 131.029 120.951 131.29 120.625H132.625C133.66 120.624 134.499 119.785 134.5 118.75V118.375H132.625C131.656 118.378 130.849 119.121 130.766 120.087C130.366 120.559 130.111 121.136 130.032 121.75H128.395L127.645 119.5H124.855L124.105 121.75H121.419C121.441 120.881 120.982 120.071 120.226 119.642C120.111 118.707 119.318 118.003 118.375 118H116.5V118.375C116.501 119.41 117.34 120.249 118.375 120.25H119.777C120.343 120.531 120.691 121.118 120.667 121.75H116.125C114.264 121.75 112.75 123.601 112.75 125.875C112.75 128.149 114.264 130 116.125 130H131.875C133.736 130 135.25 128.149 135.25 125.875C135.25 123.601 133.736 121.75 131.875 121.75ZM132.625 119.125H133.686C133.526 119.574 133.102 119.874 132.625 119.875H131.564C131.724 119.426 132.148 119.126 132.625 119.125ZM118.375 119.5C117.898 119.499 117.474 119.199 117.314 118.75H118.375C118.852 118.751 119.276 119.051 119.436 119.5H118.375ZM113.5 125.875C113.5 124.014 114.678 122.5 116.125 122.5C117.572 122.5 118.75 124.014 118.75 125.875C118.75 127.736 117.572 129.25 116.125 129.25C114.678 129.25 113.5 127.736 113.5 125.875ZM134.223 127.375H129.25V128.125H133.825C133.401 128.799 132.671 129.22 131.875 129.25H118.059C118.91 128.476 119.422 127.398 119.484 126.25H122.655L123.405 125.5H124.75V124.75H123.095L122.345 125.5H119.485C119.447 124.984 119.327 124.477 119.127 124H122.875V123.25H118.726C118.538 122.971 118.314 122.719 118.059 122.5H124.645L125.395 120.25H127.105L127.605 121.75H126.25V122.5H131.875C132.503 122.513 133.099 122.784 133.521 123.25H128.125V124H134.056C134.352 124.58 134.505 125.223 134.5 125.875C134.501 126.388 134.407 126.896 134.223 127.375Z" fill="#E1E1E1"/>
<path d="M76.0302 125.875L75.2802 125.125H70.625V125.875H74.9698L75.7198 126.625H77.75V125.875H76.0302Z" fill="#A9A9A9"/>
<path d="M68.2198 127.75H65V128.5H68.5302L69.2802 127.75H71.375V127H68.9698L68.2198 127.75Z" fill="#A9A9A9"/>
<path d="M68.375 123.25H69.875V124H68.375V123.25Z" fill="#A9A9A9"/>
<path d="M60.125 123.25C59.075 123.25 58.25 124.403 58.25 125.875C58.25 127.347 59.075 128.5 60.125 128.5C61.175 128.5 62 127.347 62 125.875C62 124.403 61.175 123.25 60.125 123.25ZM60.125 127.75C59.5152 127.75 59 126.891 59 125.875C59 124.859 59.5152 124 60.125 124C60.7348 124 61.25 124.859 61.25 125.875C61.25 126.891 60.7348 127.75 60.125 127.75Z" fill="#A9A9A9"/>
<path d="M75.875 121.75H60.125C58.2641 121.75 56.75 123.601 56.75 125.875C56.75 128.149 58.2641 130 60.125 130H75.875C77.7359 130 79.25 128.149 79.25 125.875C79.25 123.601 77.7359 121.75 75.875 121.75ZM60.125 129.25C58.6775 129.25 57.5 127.736 57.5 125.875C57.5 124.014 58.6775 122.5 60.125 122.5C61.5725 122.5 62.75 124.014 62.75 125.875C62.75 127.736 61.5725 129.25 60.125 129.25ZM73.25 127.375V128.125H77.825C77.4003 128.799 76.6709 129.22 75.875 129.25H62.0591C62.9098 128.476 63.4222 127.398 63.4841 126.25H66.6547L67.4047 125.5H68.75V124.75H67.0948L66.3448 125.5H63.4845C63.447 124.984 63.3266 124.478 63.1273 124H66.875V123.25H62.7266C62.5386 122.972 62.3141 122.719 62.0595 122.5H75.875C76.5036 122.513 77.0989 122.785 77.5212 123.25H72.125V124H78.0561C78.3523 124.58 78.5047 125.223 78.5 125.875C78.5014 126.388 78.4072 126.896 78.223 127.375H73.25Z" fill="#A9A9A9"/>
<path d="M180.03 125.875L179.28 125.125H174.625V125.875H178.97L179.72 126.625H181.75V125.875H180.03Z" fill="#E1E1E1"/>
<path d="M172.22 127.75H169V128.5H172.53L173.28 127.75H175.375V127H172.97L172.22 127.75Z" fill="#E1E1E1"/>
<path d="M172.375 123.25H173.875V124H172.375V123.25Z" fill="#E1E1E1"/>
<path d="M164.125 123.25C163.075 123.25 162.25 124.403 162.25 125.875C162.25 127.347 163.075 128.5 164.125 128.5C165.175 128.5 166 127.347 166 125.875C166 124.403 165.175 123.25 164.125 123.25ZM164.125 127.75C163.515 127.75 163 126.891 163 125.875C163 124.859 163.515 124 164.125 124C164.735 124 165.25 124.859 165.25 125.875C165.25 126.891 164.735 127.75 164.125 127.75Z" fill="#E1E1E1"/>
<path d="M179.875 121.75H178.791C178.857 121.338 179.029 120.951 179.29 120.625H180.625C181.66 120.624 182.499 119.785 182.5 118.75V118.375H180.625C179.656 118.378 178.849 119.121 178.766 120.087C178.366 120.559 178.111 121.136 178.032 121.75H176.395L175.645 119.5H172.855L172.105 121.75H169.419C169.441 120.881 168.982 120.071 168.226 119.642C168.111 118.707 167.318 118.003 166.375 118H164.5V118.375C164.501 119.41 165.34 120.249 166.375 120.25H167.777C168.343 120.531 168.691 121.118 168.667 121.75H164.125C162.264 121.75 160.75 123.601 160.75 125.875C160.75 128.149 162.264 130 164.125 130H179.875C181.736 130 183.25 128.149 183.25 125.875C183.25 123.601 181.736 121.75 179.875 121.75ZM180.625 119.125H181.686C181.526 119.574 181.102 119.874 180.625 119.875H179.564C179.724 119.426 180.148 119.126 180.625 119.125ZM166.375 119.5C165.898 119.499 165.474 119.199 165.314 118.75H166.375C166.852 118.751 167.276 119.051 167.436 119.5H166.375ZM161.5 125.875C161.5 124.014 162.678 122.5 164.125 122.5C165.572 122.5 166.75 124.014 166.75 125.875C166.75 127.736 165.572 129.25 164.125 129.25C162.678 129.25 161.5 127.736 161.5 125.875ZM182.223 127.375H177.25V128.125H181.825C181.401 128.799 180.671 129.22 179.875 129.25H166.059C166.91 128.476 167.422 127.398 167.484 126.25H170.655L171.405 125.5H172.75V124.75H171.095L170.345 125.5H167.485C167.447 124.984 167.327 124.477 167.127 124H170.875V123.25H166.726C166.538 122.971 166.314 122.719 166.059 122.5H172.645L173.395 120.25H175.105L175.605 121.75H174.25V122.5H179.875C180.503 122.513 181.099 122.784 181.521 123.25H176.125V124H182.056C182.352 124.58 182.505 125.223 182.5 125.875C182.501 126.388 182.407 126.896 182.223 127.375Z" fill="#E1E1E1"/>
<path d="M204.03 125.875L203.28 125.125H198.625V125.875H202.97L203.72 126.625H205.75V125.875H204.03Z" fill="#E1E1E1"/>
<path d="M196.22 127.75H193V128.5H196.53L197.28 127.75H199.375V127H196.97L196.22 127.75Z" fill="#E1E1E1"/>
<path d="M196.375 123.25H197.875V124H196.375V123.25Z" fill="#E1E1E1"/>
<path d="M188.125 123.25C187.075 123.25 186.25 124.403 186.25 125.875C186.25 127.347 187.075 128.5 188.125 128.5C189.175 128.5 190 127.347 190 125.875C190 124.403 189.175 123.25 188.125 123.25ZM188.125 127.75C187.515 127.75 187 126.891 187 125.875C187 124.859 187.515 124 188.125 124C188.735 124 189.25 124.859 189.25 125.875C189.25 126.891 188.735 127.75 188.125 127.75Z" fill="#E1E1E1"/>
<path d="M203.875 121.75H202.791C202.857 121.338 203.029 120.951 203.29 120.625H204.625C205.66 120.624 206.499 119.785 206.5 118.75V118.375H204.625C203.656 118.378 202.849 119.121 202.766 120.087C202.366 120.559 202.111 121.136 202.032 121.75H200.395L199.645 119.5H196.855L196.105 121.75H193.419C193.441 120.881 192.982 120.071 192.226 119.642C192.111 118.707 191.318 118.003 190.375 118H188.5V118.375C188.501 119.41 189.34 120.249 190.375 120.25H191.777C192.343 120.531 192.691 121.118 192.667 121.75H188.125C186.264 121.75 184.75 123.601 184.75 125.875C184.75 128.149 186.264 130 188.125 130H203.875C205.736 130 207.25 128.149 207.25 125.875C207.25 123.601 205.736 121.75 203.875 121.75ZM204.625 119.125H205.686C205.526 119.574 205.102 119.874 204.625 119.875H203.564C203.724 119.426 204.148 119.126 204.625 119.125ZM190.375 119.5C189.898 119.499 189.474 119.199 189.314 118.75H190.375C190.852 118.751 191.276 119.051 191.436 119.5H190.375ZM185.5 125.875C185.5 124.014 186.678 122.5 188.125 122.5C189.572 122.5 190.75 124.014 190.75 125.875C190.75 127.736 189.572 129.25 188.125 129.25C186.678 129.25 185.5 127.736 185.5 125.875ZM206.223 127.375H201.25V128.125H205.825C205.401 128.799 204.671 129.22 203.875 129.25H190.059C190.91 128.476 191.422 127.398 191.484 126.25H194.655L195.405 125.5H196.75V124.75H195.095L194.345 125.5H191.485C191.447 124.984 191.327 124.477 191.127 124H194.875V123.25H190.726C190.538 122.971 190.314 122.719 190.059 122.5H196.645L197.395 120.25H199.105L199.605 121.75H198.25V122.5H203.875C204.503 122.513 205.099 122.784 205.521 123.25H200.125V124H206.056C206.352 124.58 206.505 125.223 206.5 125.875C206.501 126.388 206.407 126.896 206.223 127.375Z" fill="#E1E1E1"/>
<path d="M236.03 125.875L235.28 125.125H230.625V125.875H234.97L235.72 126.625H237.75V125.875H236.03Z" fill="#A9A9A9"/>
<path d="M228.22 127.75H225V128.5H228.53L229.28 127.75H231.375V127H228.97L228.22 127.75Z" fill="#A9A9A9"/>
<path d="M228.375 123.25H229.875V124H228.375V123.25Z" fill="#A9A9A9"/>
<path d="M220.125 123.25C219.075 123.25 218.25 124.403 218.25 125.875C218.25 127.347 219.075 128.5 220.125 128.5C221.175 128.5 222 127.347 222 125.875C222 124.403 221.175 123.25 220.125 123.25ZM220.125 127.75C219.515 127.75 219 126.891 219 125.875C219 124.859 219.515 124 220.125 124C220.735 124 221.25 124.859 221.25 125.875C221.25 126.891 220.735 127.75 220.125 127.75Z" fill="#A9A9A9"/>
<path d="M235.875 121.75H220.125C218.264 121.75 216.75 123.601 216.75 125.875C216.75 128.149 218.264 130 220.125 130H235.875C237.736 130 239.25 128.149 239.25 125.875C239.25 123.601 237.736 121.75 235.875 121.75ZM220.125 129.25C218.678 129.25 217.5 127.736 217.5 125.875C217.5 124.014 218.678 122.5 220.125 122.5C221.572 122.5 222.75 124.014 222.75 125.875C222.75 127.736 221.572 129.25 220.125 129.25ZM233.25 127.375V128.125H237.825C237.4 128.799 236.671 129.22 235.875 129.25H222.059C222.91 128.476 223.422 127.398 223.484 126.25H226.655L227.405 125.5H228.75V124.75H227.095L226.345 125.5H223.485C223.447 124.984 223.327 124.478 223.127 124H226.875V123.25H222.727C222.539 122.972 222.314 122.719 222.06 122.5H235.875C236.504 122.513 237.099 122.785 237.521 123.25H232.125V124H238.056C238.352 124.58 238.505 125.223 238.5 125.875C238.501 126.388 238.407 126.896 238.223 127.375H233.25Z" fill="#A9A9A9"/>
<path d="M260.03 125.875L259.28 125.125H254.625V125.875H258.97L259.72 126.625H261.75V125.875H260.03Z" fill="#A9A9A9"/>
<path d="M252.22 127.75H249V128.5H252.53L253.28 127.75H255.375V127H252.97L252.22 127.75Z" fill="#A9A9A9"/>
<path d="M252.375 123.25H253.875V124H252.375V123.25Z" fill="#A9A9A9"/>
<path d="M244.125 123.25C243.075 123.25 242.25 124.403 242.25 125.875C242.25 127.347 243.075 128.5 244.125 128.5C245.175 128.5 246 127.347 246 125.875C246 124.403 245.175 123.25 244.125 123.25ZM244.125 127.75C243.515 127.75 243 126.891 243 125.875C243 124.859 243.515 124 244.125 124C244.735 124 245.25 124.859 245.25 125.875C245.25 126.891 244.735 127.75 244.125 127.75Z" fill="#A9A9A9"/>
<path d="M259.875 121.75H244.125C242.264 121.75 240.75 123.601 240.75 125.875C240.75 128.149 242.264 130 244.125 130H259.875C261.736 130 263.25 128.149 263.25 125.875C263.25 123.601 261.736 121.75 259.875 121.75ZM244.125 129.25C242.678 129.25 241.5 127.736 241.5 125.875C241.5 124.014 242.678 122.5 244.125 122.5C245.572 122.5 246.75 124.014 246.75 125.875C246.75 127.736 245.572 129.25 244.125 129.25ZM257.25 127.375V128.125H261.825C261.4 128.799 260.671 129.22 259.875 129.25H246.059C246.91 128.476 247.422 127.398 247.484 126.25H250.655L251.405 125.5H252.75V124.75H251.095L250.345 125.5H247.485C247.447 124.984 247.327 124.478 247.127 124H250.875V123.25H246.727C246.539 122.972 246.314 122.719 246.06 122.5H259.875C260.504 122.513 261.099 122.785 261.521 123.25H256.125V124H262.056C262.352 124.58 262.505 125.223 262.5 125.875C262.501 126.388 262.407 126.896 262.223 127.375H257.25Z" fill="#A9A9A9"/>
<path d="M284.03 125.875L283.28 125.125H278.625V125.875H282.97L283.72 126.625H285.75V125.875H284.03Z" fill="#A9A9A9"/>
<path d="M276.22 127.75H273V128.5H276.53L277.28 127.75H279.375V127H276.97L276.22 127.75Z" fill="#A9A9A9"/>
<path d="M276.375 123.25H277.875V124H276.375V123.25Z" fill="#A9A9A9"/>
<path d="M268.125 123.25C267.075 123.25 266.25 124.403 266.25 125.875C266.25 127.347 267.075 128.5 268.125 128.5C269.175 128.5 270 127.347 270 125.875C270 124.403 269.175 123.25 268.125 123.25ZM268.125 127.75C267.515 127.75 267 126.891 267 125.875C267 124.859 267.515 124 268.125 124C268.735 124 269.25 124.859 269.25 125.875C269.25 126.891 268.735 127.75 268.125 127.75Z" fill="#A9A9A9"/>
<path d="M283.875 121.75H268.125C266.264 121.75 264.75 123.601 264.75 125.875C264.75 128.149 266.264 130 268.125 130H283.875C285.736 130 287.25 128.149 287.25 125.875C287.25 123.601 285.736 121.75 283.875 121.75ZM268.125 129.25C266.678 129.25 265.5 127.736 265.5 125.875C265.5 124.014 266.678 122.5 268.125 122.5C269.572 122.5 270.75 124.014 270.75 125.875C270.75 127.736 269.572 129.25 268.125 129.25ZM281.25 127.375V128.125H285.825C285.4 128.799 284.671 129.22 283.875 129.25H270.059C270.91 128.476 271.422 127.398 271.484 126.25H274.655L275.405 125.5H276.75V124.75H275.095L274.345 125.5H271.485C271.447 124.984 271.327 124.478 271.127 124H274.875V123.25H270.727C270.539 122.972 270.314 122.719 270.06 122.5H283.875C284.504 122.513 285.099 122.785 285.521 123.25H280.125V124H286.056C286.352 124.58 286.505 125.223 286.5 125.875C286.501 126.388 286.407 126.896 286.223 127.375H281.25Z" fill="#A9A9A9"/>
<path d="M76.0303 69.875L75.2803 69.125H70.625V69.875H74.9697L75.7197 70.625H77.75V69.875H76.0303Z" fill="#E1E1E1"/>
<path d="M68.2197 71.75H65V72.5H68.5303L69.2803 71.75H71.375V71H68.9697L68.2197 71.75Z" fill="#E1E1E1"/>
<path d="M68.375 67.25H69.875V68H68.375V67.25Z" fill="#E1E1E1"/>
<path d="M60.125 67.25C59.075 67.25 58.25 68.4031 58.25 69.875C58.25 71.3469 59.075 72.5 60.125 72.5C61.175 72.5 62 71.3469 62 69.875C62 68.4031 61.175 67.25 60.125 67.25ZM60.125 71.75C59.5152 71.75 59 70.8913 59 69.875C59 68.8587 59.5152 68 60.125 68C60.7348 68 61.25 68.8587 61.25 69.875C61.25 70.8913 60.7348 71.75 60.125 71.75Z" fill="#E1E1E1"/>
<path d="M75.875 65.75H74.7909C74.8572 65.3382 75.0291 64.9505 75.29 64.625H76.625C77.66 64.6238 78.4988 63.785 78.5 62.75V62.375H76.625C75.6556 62.3781 74.849 63.121 74.7665 64.0869C74.3663 64.5587 74.1113 65.1364 74.0322 65.75H72.3954L71.6454 63.5H68.8547L68.1047 65.75H65.4193C65.4406 64.8813 64.9822 64.0713 64.2264 63.6425C64.1113 62.7067 63.3178 62.0028 62.375 62H60.5V62.375C60.5012 63.41 61.34 64.2488 62.375 64.25H63.7768C64.3426 64.5314 64.6909 65.1185 64.6666 65.75H60.125C58.2643 65.75 56.75 67.6006 56.75 69.875C56.75 72.1494 58.2643 74 60.125 74H75.875C77.7357 74 79.25 72.1494 79.25 69.875C79.25 67.6006 77.7357 65.75 75.875 65.75ZM76.625 63.125H77.6859C77.5264 63.5742 77.1016 63.8744 76.625 63.875H75.5641C75.7236 63.4258 76.1484 63.1256 76.625 63.125ZM62.375 63.5C61.8984 63.4994 61.4736 63.1992 61.3141 62.75H62.375C62.8516 62.7506 63.2764 63.0508 63.4359 63.5H62.375ZM57.5 69.875C57.5 68.0139 58.6775 66.5 60.125 66.5C61.5725 66.5 62.75 68.0139 62.75 69.875C62.75 71.7361 61.5725 73.25 60.125 73.25C58.6775 73.25 57.5 71.7361 57.5 69.875ZM78.2229 71.375H73.25V72.125H77.825C77.4005 72.7988 76.6708 73.2198 75.875 73.25H62.0593C62.9102 72.4762 63.4221 71.3984 63.4843 70.25H66.6549L67.4049 69.5H68.75V68.75H67.0948L66.3448 69.5H63.4846C63.4472 68.984 63.3265 68.4775 63.1273 68H66.875V67.25H62.7264C62.5384 66.9714 62.314 66.7192 62.0593 66.5H68.6453L69.3953 64.25H71.1046L71.6049 65.75H70.25V66.5H75.875C76.5035 66.5132 77.0989 66.7844 77.5212 67.25H72.125V68H78.056C78.3522 68.5804 78.5045 69.2234 78.5 69.875C78.5013 70.3878 78.4073 70.8965 78.2229 71.375Z" fill="#E1E1E1"/>
<path d="M44.0302 69.875L43.2802 69.125H38.625V69.875H42.9698L43.7198 70.625H45.75V69.875H44.0302Z" fill="#A9A9A9"/>
<path d="M36.2198 71.75H33V72.5H36.5302L37.2802 71.75H39.375V71H36.9698L36.2198 71.75Z" fill="#A9A9A9"/>
<path d="M36.375 67.25H37.875V68H36.375V67.25Z" fill="#A9A9A9"/>
<path d="M28.125 67.25C27.075 67.25 26.25 68.4031 26.25 69.875C26.25 71.3469 27.075 72.5 28.125 72.5C29.175 72.5 30 71.3469 30 69.875C30 68.4031 29.175 67.25 28.125 67.25ZM28.125 71.75C27.5152 71.75 27 70.8913 27 69.875C27 68.8587 27.5152 68 28.125 68C28.7348 68 29.25 68.8587 29.25 69.875C29.25 70.8913 28.7348 71.75 28.125 71.75Z" fill="#A9A9A9"/>
<path d="M43.875 65.75H28.125C26.2641 65.75 24.75 67.6006 24.75 69.875C24.75 72.1494 26.2641 74 28.125 74H43.875C45.7359 74 47.25 72.1494 47.25 69.875C47.25 67.6006 45.7359 65.75 43.875 65.75ZM28.125 73.25C26.6775 73.25 25.5 71.7359 25.5 69.875C25.5 68.0141 26.6775 66.5 28.125 66.5C29.5725 66.5 30.75 68.0141 30.75 69.875C30.75 71.7359 29.5725 73.25 28.125 73.25ZM41.25 71.375V72.125H45.825C45.4003 72.7991 44.6709 73.22 43.875 73.25H30.0591C30.9098 72.4761 31.4222 71.3984 31.4841 70.25H34.6547L35.4047 69.5H36.75V68.75H35.0948L34.3448 69.5H31.4845C31.447 68.9839 31.3266 68.4777 31.1273 68H34.875V67.25H30.7266C30.5386 66.9716 30.3141 66.7194 30.0595 66.5H43.875C44.5036 66.5131 45.0989 66.7845 45.5212 67.25H40.125V68H46.0561C46.3523 68.5803 46.5047 69.2234 46.5 69.875C46.5014 70.3878 46.4072 70.8964 46.223 71.375H41.25Z" fill="#A9A9A9"/>
<path d="M228.03 69.875L227.28 69.125H222.625V69.875H226.97L227.72 70.625H229.75V69.875H228.03Z" fill="#E1E1E1"/>
<path d="M220.22 71.75H217V72.5H220.53L221.28 71.75H223.375V71H220.97L220.22 71.75Z" fill="#E1E1E1"/>
<path d="M220.375 67.25H221.875V68H220.375V67.25Z" fill="#E1E1E1"/>
<path d="M212.125 67.25C211.075 67.25 210.25 68.4031 210.25 69.875C210.25 71.3469 211.075 72.5 212.125 72.5C213.175 72.5 214 71.3469 214 69.875C214 68.4031 213.175 67.25 212.125 67.25ZM212.125 71.75C211.515 71.75 211 70.8913 211 69.875C211 68.8587 211.515 68 212.125 68C212.735 68 213.25 68.8587 213.25 69.875C213.25 70.8913 212.735 71.75 212.125 71.75Z" fill="#E1E1E1"/>
<path d="M227.875 65.75H226.791C226.857 65.3382 227.029 64.9505 227.29 64.625H228.625C229.66 64.6238 230.499 63.785 230.5 62.75V62.375H228.625C227.656 62.3781 226.849 63.121 226.766 64.0869C226.366 64.5587 226.111 65.1364 226.032 65.75H224.395L223.645 63.5H220.855L220.105 65.75H217.419C217.441 64.8813 216.982 64.0713 216.226 63.6425C216.111 62.7067 215.318 62.0028 214.375 62H212.5V62.375C212.501 63.41 213.34 64.2488 214.375 64.25H215.777C216.343 64.5314 216.691 65.1185 216.667 65.75H212.125C210.264 65.75 208.75 67.6006 208.75 69.875C208.75 72.1494 210.264 74 212.125 74H227.875C229.736 74 231.25 72.1494 231.25 69.875C231.25 67.6006 229.736 65.75 227.875 65.75ZM228.625 63.125H229.686C229.526 63.5742 229.102 63.8744 228.625 63.875H227.564C227.724 63.4258 228.148 63.1256 228.625 63.125ZM214.375 63.5C213.898 63.4994 213.474 63.1992 213.314 62.75H214.375C214.852 62.7506 215.276 63.0508 215.436 63.5H214.375ZM209.5 69.875C209.5 68.0139 210.678 66.5 212.125 66.5C213.572 66.5 214.75 68.0139 214.75 69.875C214.75 71.7361 213.572 73.25 212.125 73.25C210.678 73.25 209.5 71.7361 209.5 69.875ZM230.223 71.375H225.25V72.125H229.825C229.401 72.7988 228.671 73.2198 227.875 73.25H214.059C214.91 72.4762 215.422 71.3984 215.484 70.25H218.655L219.405 69.5H220.75V68.75H219.095L218.345 69.5H215.485C215.447 68.984 215.327 68.4775 215.127 68H218.875V67.25H214.726C214.538 66.9714 214.314 66.7192 214.059 66.5H220.645L221.395 64.25H223.105L223.605 65.75H222.25V66.5H227.875C228.503 66.5132 229.099 66.7844 229.521 67.25H224.125V68H230.056C230.352 68.5804 230.505 69.2234 230.5 69.875C230.501 70.3878 230.407 70.8965 230.223 71.375Z" fill="#E1E1E1"/>
<path d="M196.03 69.875L195.28 69.125H190.625V69.875H194.97L195.72 70.625H197.75V69.875H196.03Z" fill="#A9A9A9"/>
<path d="M188.22 71.75H185V72.5H188.53L189.28 71.75H191.375V71H188.97L188.22 71.75Z" fill="#A9A9A9"/>
<path d="M188.375 67.25H189.875V68H188.375V67.25Z" fill="#A9A9A9"/>
<path d="M180.125 67.25C179.075 67.25 178.25 68.4031 178.25 69.875C178.25 71.3469 179.075 72.5 180.125 72.5C181.175 72.5 182 71.3469 182 69.875C182 68.4031 181.175 67.25 180.125 67.25ZM180.125 71.75C179.515 71.75 179 70.8913 179 69.875C179 68.8587 179.515 68 180.125 68C180.735 68 181.25 68.8587 181.25 69.875C181.25 70.8913 180.735 71.75 180.125 71.75Z" fill="#A9A9A9"/>
<path d="M195.875 65.75H180.125C178.264 65.75 176.75 67.6006 176.75 69.875C176.75 72.1494 178.264 74 180.125 74H195.875C197.736 74 199.25 72.1494 199.25 69.875C199.25 67.6006 197.736 65.75 195.875 65.75ZM180.125 73.25C178.678 73.25 177.5 71.7359 177.5 69.875C177.5 68.0141 178.678 66.5 180.125 66.5C181.572 66.5 182.75 68.0141 182.75 69.875C182.75 71.7359 181.572 73.25 180.125 73.25ZM193.25 71.375V72.125H197.825C197.4 72.7991 196.671 73.22 195.875 73.25H182.059C182.91 72.4761 183.422 71.3984 183.484 70.25H186.655L187.405 69.5H188.75V68.75H187.095L186.345 69.5H183.485C183.447 68.9839 183.327 68.4777 183.127 68H186.875V67.25H182.727C182.539 66.9716 182.314 66.7194 182.06 66.5H195.875C196.504 66.5131 197.099 66.7845 197.521 67.25H192.125V68H198.056C198.352 68.5803 198.505 69.2234 198.5 69.875C198.501 70.3878 198.407 70.8964 198.223 71.375H193.25Z" fill="#A9A9A9"/>
<path d="M276.03 69.875L275.28 69.125H270.625V69.875H274.97L275.72 70.625H277.75V69.875H276.03Z" fill="#E1E1E1"/>
<path d="M268.22 71.75H265V72.5H268.53L269.28 71.75H271.375V71H268.97L268.22 71.75Z" fill="#E1E1E1"/>
<path d="M268.375 67.25H269.875V68H268.375V67.25Z" fill="#E1E1E1"/>
<path d="M260.125 67.25C259.075 67.25 258.25 68.4031 258.25 69.875C258.25 71.3469 259.075 72.5 260.125 72.5C261.175 72.5 262 71.3469 262 69.875C262 68.4031 261.175 67.25 260.125 67.25ZM260.125 71.75C259.515 71.75 259 70.8913 259 69.875C259 68.8587 259.515 68 260.125 68C260.735 68 261.25 68.8587 261.25 69.875C261.25 70.8913 260.735 71.75 260.125 71.75Z" fill="#E1E1E1"/>
<path d="M275.875 65.75H274.791C274.857 65.3382 275.029 64.9505 275.29 64.625H276.625C277.66 64.6238 278.499 63.785 278.5 62.75V62.375H276.625C275.656 62.3781 274.849 63.121 274.766 64.0869C274.366 64.5587 274.111 65.1364 274.032 65.75H272.395L271.645 63.5H268.855L268.105 65.75H265.419C265.441 64.8813 264.982 64.0713 264.226 63.6425C264.111 62.7067 263.318 62.0028 262.375 62H260.5V62.375C260.501 63.41 261.34 64.2488 262.375 64.25H263.777C264.343 64.5314 264.691 65.1185 264.667 65.75H260.125C258.264 65.75 256.75 67.6006 256.75 69.875C256.75 72.1494 258.264 74 260.125 74H275.875C277.736 74 279.25 72.1494 279.25 69.875C279.25 67.6006 277.736 65.75 275.875 65.75ZM276.625 63.125H277.686C277.526 63.5742 277.102 63.8744 276.625 63.875H275.564C275.724 63.4258 276.148 63.1256 276.625 63.125ZM262.375 63.5C261.898 63.4994 261.474 63.1992 261.314 62.75H262.375C262.852 62.7506 263.276 63.0508 263.436 63.5H262.375ZM257.5 69.875C257.5 68.0139 258.678 66.5 260.125 66.5C261.572 66.5 262.75 68.0139 262.75 69.875C262.75 71.7361 261.572 73.25 260.125 73.25C258.678 73.25 257.5 71.7361 257.5 69.875ZM278.223 71.375H273.25V72.125H277.825C277.401 72.7988 276.671 73.2198 275.875 73.25H262.059C262.91 72.4762 263.422 71.3984 263.484 70.25H266.655L267.405 69.5H268.75V68.75H267.095L266.345 69.5H263.485C263.447 68.984 263.327 68.4775 263.127 68H266.875V67.25H262.726C262.538 66.9714 262.314 66.7192 262.059 66.5H268.645L269.395 64.25H271.105L271.605 65.75H270.25V66.5H275.875C276.503 66.5132 277.099 66.7844 277.521 67.25H272.125V68H278.056C278.352 68.5804 278.505 69.2234 278.5 69.875C278.501 70.3878 278.407 70.8965 278.223 71.375Z" fill="#E1E1E1"/>
<path d="M308.03 69.875L307.28 69.125H302.625V69.875H306.97L307.72 70.625H309.75V69.875H308.03Z" fill="#A9A9A9"/>
<path d="M300.22 71.75H297V72.5H300.53L301.28 71.75H303.375V71H300.97L300.22 71.75Z" fill="#A9A9A9"/>
<path d="M300.375 67.25H301.875V68H300.375V67.25Z" fill="#A9A9A9"/>
<path d="M292.125 67.25C291.075 67.25 290.25 68.4031 290.25 69.875C290.25 71.3469 291.075 72.5 292.125 72.5C293.175 72.5 294 71.3469 294 69.875C294 68.4031 293.175 67.25 292.125 67.25ZM292.125 71.75C291.515 71.75 291 70.8913 291 69.875C291 68.8587 291.515 68 292.125 68C292.735 68 293.25 68.8587 293.25 69.875C293.25 70.8913 292.735 71.75 292.125 71.75Z" fill="#A9A9A9"/>
<path d="M307.875 65.75H292.125C290.264 65.75 288.75 67.6006 288.75 69.875C288.75 72.1494 290.264 74 292.125 74H307.875C309.736 74 311.25 72.1494 311.25 69.875C311.25 67.6006 309.736 65.75 307.875 65.75ZM292.125 73.25C290.678 73.25 289.5 71.7359 289.5 69.875C289.5 68.0141 290.678 66.5 292.125 66.5C293.572 66.5 294.75 68.0141 294.75 69.875C294.75 71.7359 293.572 73.25 292.125 73.25ZM305.25 71.375V72.125H309.825C309.4 72.7991 308.671 73.22 307.875 73.25H294.059C294.91 72.4761 295.422 71.3984 295.484 70.25H298.655L299.405 69.5H300.75V68.75H299.095L298.345 69.5H295.485C295.447 68.9839 295.327 68.4777 295.127 68H298.875V67.25H294.727C294.539 66.9716 294.314 66.7194 294.06 66.5H307.875C308.504 66.5131 309.099 66.7845 309.521 67.25H304.125V68H310.056C310.352 68.5803 310.505 69.2234 310.5 69.875C310.501 70.3878 310.407 70.8964 310.223 71.375H305.25Z" fill="#A9A9A9"/>
<path d="M332.03 69.875L331.28 69.125H326.625V69.875H330.97L331.72 70.625H333.75V69.875H332.03Z" fill="#A9A9A9"/>
<path d="M324.22 71.75H321V72.5H324.53L325.28 71.75H327.375V71H324.97L324.22 71.75Z" fill="#A9A9A9"/>
<path d="M324.375 67.25H325.875V68H324.375V67.25Z" fill="#A9A9A9"/>
<path d="M316.125 67.25C315.075 67.25 314.25 68.4031 314.25 69.875C314.25 71.3469 315.075 72.5 316.125 72.5C317.175 72.5 318 71.3469 318 69.875C318 68.4031 317.175 67.25 316.125 67.25ZM316.125 71.75C315.515 71.75 315 70.8913 315 69.875C315 68.8587 315.515 68 316.125 68C316.735 68 317.25 68.8587 317.25 69.875C317.25 70.8913 316.735 71.75 316.125 71.75Z" fill="#A9A9A9"/>
<path d="M331.875 65.75H316.125C314.264 65.75 312.75 67.6006 312.75 69.875C312.75 72.1494 314.264 74 316.125 74H331.875C333.736 74 335.25 72.1494 335.25 69.875C335.25 67.6006 333.736 65.75 331.875 65.75ZM316.125 73.25C314.678 73.25 313.5 71.7359 313.5 69.875C313.5 68.0141 314.678 66.5 316.125 66.5C317.572 66.5 318.75 68.0141 318.75 69.875C318.75 71.7359 317.572 73.25 316.125 73.25ZM329.25 71.375V72.125H333.825C333.4 72.7991 332.671 73.22 331.875 73.25H318.059C318.91 72.4761 319.422 71.3984 319.484 70.25H322.655L323.405 69.5H324.75V68.75H323.095L322.345 69.5H319.485C319.447 68.9839 319.327 68.4777 319.127 68H322.875V67.25H318.727C318.539 66.9716 318.314 66.7194 318.06 66.5H331.875C332.504 66.5131 333.099 66.7845 333.521 67.25H328.125V68H334.056C334.352 68.5803 334.505 69.2234 334.5 69.875C334.501 70.3878 334.407 70.8964 334.223 71.375H329.25Z" fill="#A9A9A9"/>
<path d="M124.03 69.875L123.28 69.125H118.625V69.875H122.97L123.72 70.625H125.75V69.875H124.03Z" fill="#A9A9A9"/>
<path d="M116.22 71.75H113V72.5H116.53L117.28 71.75H119.375V71H116.97L116.22 71.75Z" fill="#A9A9A9"/>
<path d="M116.375 67.25H117.875V68H116.375V67.25Z" fill="#A9A9A9"/>
<path d="M108.125 67.25C107.075 67.25 106.25 68.4031 106.25 69.875C106.25 71.3469 107.075 72.5 108.125 72.5C109.175 72.5 110 71.3469 110 69.875C110 68.4031 109.175 67.25 108.125 67.25ZM108.125 71.75C107.515 71.75 107 70.8913 107 69.875C107 68.8587 107.515 68 108.125 68C108.735 68 109.25 68.8587 109.25 69.875C109.25 70.8913 108.735 71.75 108.125 71.75Z" fill="#A9A9A9"/>
<path d="M123.875 65.75H108.125C106.264 65.75 104.75 67.6006 104.75 69.875C104.75 72.1494 106.264 74 108.125 74H123.875C125.736 74 127.25 72.1494 127.25 69.875C127.25 67.6006 125.736 65.75 123.875 65.75ZM108.125 73.25C106.678 73.25 105.5 71.7359 105.5 69.875C105.5 68.0141 106.678 66.5 108.125 66.5C109.572 66.5 110.75 68.0141 110.75 69.875C110.75 71.7359 109.572 73.25 108.125 73.25ZM121.25 71.375V72.125H125.825C125.4 72.7991 124.671 73.22 123.875 73.25H110.059C110.91 72.4761 111.422 71.3984 111.484 70.25H114.655L115.405 69.5H116.75V68.75H115.095L114.345 69.5H111.485C111.447 68.9839 111.327 68.4777 111.127 68H114.875V67.25H110.727C110.539 66.9716 110.314 66.7194 110.06 66.5H123.875C124.504 66.5131 125.099 66.7845 125.521 67.25H120.125V68H126.056C126.352 68.5803 126.505 69.2234 126.5 69.875C126.501 70.3878 126.407 70.8964 126.223 71.375H121.25Z" fill="#A9A9A9"/>
<path d="M148.03 69.875L147.28 69.125H142.625V69.875H146.97L147.72 70.625H149.75V69.875H148.03Z" fill="#A9A9A9"/>
<path d="M140.22 71.75H137V72.5H140.53L141.28 71.75H143.375V71H140.97L140.22 71.75Z" fill="#A9A9A9"/>
<path d="M140.375 67.25H141.875V68H140.375V67.25Z" fill="#A9A9A9"/>
<path d="M132.125 67.25C131.075 67.25 130.25 68.4031 130.25 69.875C130.25 71.3469 131.075 72.5 132.125 72.5C133.175 72.5 134 71.3469 134 69.875C134 68.4031 133.175 67.25 132.125 67.25ZM132.125 71.75C131.515 71.75 131 70.8913 131 69.875C131 68.8587 131.515 68 132.125 68C132.735 68 133.25 68.8587 133.25 69.875C133.25 70.8913 132.735 71.75 132.125 71.75Z" fill="#A9A9A9"/>
<path d="M147.875 65.75H132.125C130.264 65.75 128.75 67.6006 128.75 69.875C128.75 72.1494 130.264 74 132.125 74H147.875C149.736 74 151.25 72.1494 151.25 69.875C151.25 67.6006 149.736 65.75 147.875 65.75ZM132.125 73.25C130.678 73.25 129.5 71.7359 129.5 69.875C129.5 68.0141 130.678 66.5 132.125 66.5C133.572 66.5 134.75 68.0141 134.75 69.875C134.75 71.7359 133.572 73.25 132.125 73.25ZM145.25 71.375V72.125H149.825C149.4 72.7991 148.671 73.22 147.875 73.25H134.059C134.91 72.4761 135.422 71.3984 135.484 70.25H138.655L139.405 69.5H140.75V68.75H139.095L138.345 69.5H135.485C135.447 68.9839 135.327 68.4777 135.127 68H138.875V67.25H134.727C134.539 66.9716 134.314 66.7194 134.06 66.5H147.875C148.504 66.5131 149.099 66.7845 149.521 67.25H144.125V68H150.056C150.352 68.5803 150.505 69.2234 150.5 69.875C150.501 70.3878 150.407 70.8964 150.223 71.375H145.25Z" fill="#A9A9A9"/>
<path d="M172.03 69.875L171.28 69.125H166.625V69.875H170.97L171.72 70.625H173.75V69.875H172.03Z" fill="#A9A9A9"/>
<path d="M164.22 71.75H161V72.5H164.53L165.28 71.75H167.375V71H164.97L164.22 71.75Z" fill="#A9A9A9"/>
<path d="M164.375 67.25H165.875V68H164.375V67.25Z" fill="#A9A9A9"/>
<path d="M156.125 67.25C155.075 67.25 154.25 68.4031 154.25 69.875C154.25 71.3469 155.075 72.5 156.125 72.5C157.175 72.5 158 71.3469 158 69.875C158 68.4031 157.175 67.25 156.125 67.25ZM156.125 71.75C155.515 71.75 155 70.8913 155 69.875C155 68.8587 155.515 68 156.125 68C156.735 68 157.25 68.8587 157.25 69.875C157.25 70.8913 156.735 71.75 156.125 71.75Z" fill="#A9A9A9"/>
<path d="M171.875 65.75H156.125C154.264 65.75 152.75 67.6006 152.75 69.875C152.75 72.1494 154.264 74 156.125 74H171.875C173.736 74 175.25 72.1494 175.25 69.875C175.25 67.6006 173.736 65.75 171.875 65.75ZM156.125 73.25C154.678 73.25 153.5 71.7359 153.5 69.875C153.5 68.0141 154.678 66.5 156.125 66.5C157.572 66.5 158.75 68.0141 158.75 69.875C158.75 71.7359 157.572 73.25 156.125 73.25ZM169.25 71.375V72.125H173.825C173.4 72.7991 172.671 73.22 171.875 73.25H158.059C158.91 72.4761 159.422 71.3984 159.484 70.25H162.655L163.405 69.5H164.75V68.75H163.095L162.345 69.5H159.485C159.447 68.9839 159.327 68.4777 159.127 68H162.875V67.25H158.727C158.539 66.9716 158.314 66.7194 158.06 66.5H171.875C172.504 66.5131 173.099 66.7845 173.521 67.25H168.125V68H174.056C174.352 68.5803 174.505 69.2234 174.5 69.875C174.501 70.3878 174.407 70.8964 174.223 71.375H169.25Z" fill="#A9A9A9"/>
<path d="M108 29L102 32.5V39.5L108 43L114 39.5V32.5L108 29ZM112.777 32.7365L108 35.5234L103.223 32.7365L108 29.9499L112.777 32.7365ZM102.814 33.4483L107.593 36.2357V41.8125L102.814 39.025V33.4483ZM108.407 41.8125V36.2357L113.186 33.4483V39.025L108.407 41.8125Z" fill="#E1E1E1"/>
<path d="M36.5825 87.2727H35.5257L33.3439 88.7216V89.7955L35.4746 88.3807H35.5257V96H36.5825V87.2727Z" fill="#A9A9A9"/>
<path d="M67.4 96.1193C69.3261 96.1193 70.4341 94.4872 70.4341 91.6364C70.4341 88.8068 69.3091 87.1534 67.4 87.1534C65.4909 87.1534 64.3659 88.8068 64.3659 91.6364C64.3659 94.4872 65.4739 96.1193 67.4 96.1193ZM67.4 95.1818C66.1301 95.1818 65.3886 93.9077 65.3886 91.6364C65.3886 89.3693 66.1386 88.0739 67.4 88.0739C68.6614 88.0739 69.4114 89.3693 69.4114 91.6364C69.4114 93.9077 68.6699 95.1818 67.4 95.1818Z" fill="#E1E1E1"/>
<path d="M116.583 87.2727H115.526L113.344 88.7216V89.7955L115.475 88.3807H115.526V96H116.583V87.2727Z" fill="#A9A9A9"/>
<path d="M140.583 87.2727H139.526L137.344 88.7216V89.7955L139.475 88.3807H139.526V96H140.583V87.2727Z" fill="#A9A9A9"/>
<path d="M164.583 87.2727H163.526L161.344 88.7216V89.7955L163.475 88.3807H163.526V96H164.583V87.2727Z" fill="#A9A9A9"/>
<path d="M188.583 87.2727H187.526L185.344 88.7216V89.7955L187.475 88.3807H187.526V96H188.583V87.2727Z" fill="#A9A9A9"/>
<path d="M219.4 96.1193C221.326 96.1193 222.434 94.4872 222.434 91.6364C222.434 88.8068 221.309 87.1534 219.4 87.1534C217.491 87.1534 216.366 88.8068 216.366 91.6364C216.366 94.4872 217.474 96.1193 219.4 96.1193ZM219.4 95.1818C218.13 95.1818 217.389 93.9077 217.389 91.6364C217.389 89.3693 218.139 88.0739 219.4 88.0739C220.661 88.0739 221.411 89.3693 221.411 91.6364C221.411 93.9077 220.67 95.1818 219.4 95.1818Z" fill="#E1E1E1"/>
<path d="M35.4 152.119C37.3261 152.119 38.4341 150.487 38.4341 147.636C38.4341 144.807 37.3091 143.153 35.4 143.153C33.4909 143.153 32.3659 144.807 32.3659 147.636C32.3659 150.487 33.4739 152.119 35.4 152.119ZM35.4 151.182C34.1301 151.182 33.3886 149.908 33.3886 147.636C33.3886 145.369 34.1386 144.074 35.4 144.074C36.6614 144.074 37.4114 145.369 37.4114 147.636C37.4114 149.908 36.6699 151.182 35.4 151.182Z" fill="#E1E1E1"/>
<path d="M68.5825 143.273H67.5257L65.3439 144.722V145.795L67.4746 144.381H67.5257V152H68.5825V143.273Z" fill="#A9A9A9"/>
<path d="M99.4 152.119C101.326 152.119 102.434 150.487 102.434 147.636C102.434 144.807 101.309 143.153 99.4 143.153C97.4909 143.153 96.3659 144.807 96.3659 147.636C96.3659 150.487 97.4739 152.119 99.4 152.119ZM99.4 151.182C98.1301 151.182 97.3886 149.908 97.3886 147.636C97.3886 145.369 98.1386 144.074 99.4 144.074C100.661 144.074 101.411 145.369 101.411 147.636C101.411 149.908 100.67 151.182 99.4 151.182Z" fill="#E1E1E1"/>
<path d="M123.4 152.119C125.326 152.119 126.434 150.487 126.434 147.636C126.434 144.807 125.309 143.153 123.4 143.153C121.491 143.153 120.366 144.807 120.366 147.636C120.366 150.487 121.474 152.119 123.4 152.119ZM123.4 151.182C122.13 151.182 121.389 149.908 121.389 147.636C121.389 145.369 122.139 144.074 123.4 144.074C124.661 144.074 125.411 145.369 125.411 147.636C125.411 149.908 124.67 151.182 123.4 151.182Z" fill="#E1E1E1"/>
<path d="M171.4 152.119C173.326 152.119 174.434 150.487 174.434 147.636C174.434 144.807 173.309 143.153 171.4 143.153C169.491 143.153 168.366 144.807 168.366 147.636C168.366 150.487 169.474 152.119 171.4 152.119ZM171.4 151.182C170.13 151.182 169.389 149.908 169.389 147.636C169.389 145.369 170.139 144.074 171.4 144.074C172.661 144.074 173.411 145.369 173.411 147.636C173.411 149.908 172.67 151.182 171.4 151.182Z" fill="#E1E1E1"/>
<path d="M195.4 152.119C197.326 152.119 198.434 150.487 198.434 147.636C198.434 144.807 197.309 143.153 195.4 143.153C193.491 143.153 192.366 144.807 192.366 147.636C192.366 150.487 193.474 152.119 195.4 152.119ZM195.4 151.182C194.13 151.182 193.389 149.908 193.389 147.636C193.389 145.369 194.139 144.074 195.4 144.074C196.661 144.074 197.411 145.369 197.411 147.636C197.411 149.908 196.67 151.182 195.4 151.182Z" fill="#E1E1E1"/>
<path d="M228.583 143.273H227.526L225.344 144.722V145.795L227.475 144.381H227.526V152H228.583V143.273Z" fill="#A9A9A9"/>
<path d="M252.583 143.273H251.526L249.344 144.722V145.795L251.475 144.381H251.526V152H252.583V143.273Z" fill="#A9A9A9"/>
<path d="M276.583 143.273H275.526L273.344 144.722V145.795L275.475 144.381H275.526V152H276.583V143.273Z" fill="#A9A9A9"/>
<path d="M35.4 208.119C37.3261 208.119 38.4341 206.487 38.4341 203.636C38.4341 200.807 37.3091 199.153 35.4 199.153C33.4909 199.153 32.3659 200.807 32.3659 203.636C32.3659 206.487 33.4739 208.119 35.4 208.119ZM35.4 207.182C34.1301 207.182 33.3886 205.908 33.3886 203.636C33.3886 201.369 34.1386 200.074 35.4 200.074C36.6614 200.074 37.4114 201.369 37.4114 203.636C37.4114 205.908 36.6699 207.182 35.4 207.182Z" fill="#E1E1E1"/>
<path d="M59.4 208.119C61.3261 208.119 62.4341 206.487 62.4341 203.636C62.4341 200.807 61.3091 199.153 59.4 199.153C57.4909 199.153 56.3659 200.807 56.3659 203.636C56.3659 206.487 57.4739 208.119 59.4 208.119ZM59.4 207.182C58.1301 207.182 57.3886 205.908 57.3886 203.636C57.3886 201.369 58.1386 200.074 59.4 200.074C60.6614 200.074 61.4114 201.369 61.4114 203.636C61.4114 205.908 60.6699 207.182 59.4 207.182Z" fill="#E1E1E1"/>
<path d="M92.5825 199.273H91.5257L89.3439 200.722V201.795L91.4746 200.381H91.5257V208H92.5825V199.273Z" fill="#A9A9A9"/>
<path d="M123.4 208.119C125.326 208.119 126.434 206.487 126.434 203.636C126.434 200.807 125.309 199.153 123.4 199.153C121.491 199.153 120.366 200.807 120.366 203.636C120.366 206.487 121.474 208.119 123.4 208.119ZM123.4 207.182C122.13 207.182 121.389 205.908 121.389 203.636C121.389 201.369 122.139 200.074 123.4 200.074C124.661 200.074 125.411 201.369 125.411 203.636C125.411 205.908 124.67 207.182 123.4 207.182Z" fill="#E1E1E1"/>
<path d="M147.4 208.119C149.326 208.119 150.434 206.487 150.434 203.636C150.434 200.807 149.309 199.153 147.4 199.153C145.491 199.153 144.366 200.807 144.366 203.636C144.366 206.487 145.474 208.119 147.4 208.119ZM147.4 207.182C146.13 207.182 145.389 205.908 145.389 203.636C145.389 201.369 146.139 200.074 147.4 200.074C148.661 200.074 149.411 201.369 149.411 203.636C149.411 205.908 148.67 207.182 147.4 207.182Z" fill="#E1E1E1"/>
<path d="M196.583 199.273H195.526L193.344 200.722V201.795L195.475 200.381H195.526V208H196.583V199.273Z" fill="#A9A9A9"/>
<path d="M220.583 199.273H219.526L217.344 200.722V201.795L219.475 200.381H219.526V208H220.583V199.273Z" fill="#A9A9A9"/>
<path d="M251.4 208.119C253.326 208.119 254.434 206.487 254.434 203.636C254.434 200.807 253.309 199.153 251.4 199.153C249.491 199.153 248.366 200.807 248.366 203.636C248.366 206.487 249.474 208.119 251.4 208.119ZM251.4 207.182C250.13 207.182 249.389 205.908 249.389 203.636C249.389 201.369 250.139 200.074 251.4 200.074C252.661 200.074 253.411 201.369 253.411 203.636C253.411 205.908 252.67 207.182 251.4 207.182Z" fill="#E1E1E1"/>
<path d="M275.4 208.119C277.326 208.119 278.434 206.487 278.434 203.636C278.434 200.807 277.309 199.153 275.4 199.153C273.491 199.153 272.366 200.807 272.366 203.636C272.366 206.487 273.474 208.119 275.4 208.119ZM275.4 207.182C274.13 207.182 273.389 205.908 273.389 203.636C273.389 201.369 274.139 200.074 275.4 200.074C276.661 200.074 277.411 201.369 277.411 203.636C277.411 205.908 276.67 207.182 275.4 207.182Z" fill="#E1E1E1"/>
<path d="M267.4 96.1193C269.326 96.1193 270.434 94.4872 270.434 91.6364C270.434 88.8068 269.309 87.1534 267.4 87.1534C265.491 87.1534 264.366 88.8068 264.366 91.6364C264.366 94.4872 265.474 96.1193 267.4 96.1193ZM267.4 95.1818C266.13 95.1818 265.389 93.9077 265.389 91.6364C265.389 89.3693 266.139 88.0739 267.4 88.0739C268.661 88.0739 269.411 89.3693 269.411 91.6364C269.411 93.9077 268.67 95.1818 267.4 95.1818Z" fill="#E1E1E1"/>
<path d="M300.583 87.2727H299.526L297.344 88.7216V89.7955L299.475 88.3807H299.526V96H300.583V87.2727Z" fill="#A9A9A9"/>
<path d="M324.583 87.2727H323.526L321.344 88.7216V89.7955L323.475 88.3807H323.526V96H324.583V87.2727Z" fill="#A9A9A9"/>
<rect x="235" y="172" width="2" height="4" fill="#49BAF2"/>
<rect x="235" y="166" width="2" height="4" fill="#49BAF2"/>
<rect x="235" y="178" width="2" height="4" fill="#49BAF2"/>
<rect x="235" y="184" width="2" height="4" fill="#49BAF2"/>
<rect x="235" y="190" width="2" height="4" fill="#49BAF2"/>
<rect x="107" y="172" width="2" height="4" fill="#49BAF2"/>
<rect x="107" y="166" width="2" height="4" fill="#49BAF2"/>
<rect x="107" y="178" width="2" height="4" fill="#49BAF2"/>
<rect x="107" y="184" width="2" height="4" fill="#49BAF2"/>
<rect x="107" y="190" width="2" height="4" fill="#49BAF2"/>
<rect x="75" y="172" width="2" height="4" fill="#49BAF2"/>
<rect x="75" y="166" width="2" height="4" fill="#49BAF2"/>
<rect x="75" y="178" width="2" height="4" fill="#49BAF2"/>
<rect x="75" y="184" width="2" height="4" fill="#49BAF2"/>
<rect x="75" y="190" width="2" height="4" fill="#49BAF2"/>
<rect x="211" y="116" width="2" height="4" fill="#49BAF2"/>
<rect x="211" y="110" width="2" height="4" fill="#49BAF2"/>
<rect x="211" y="122" width="2" height="4" fill="#49BAF2"/>
<rect x="211" y="128" width="2" height="4" fill="#49BAF2"/>
<rect x="211" y="134" width="2" height="4" fill="#49BAF2"/>
<rect x="283" y="60" width="2" height="4" fill="#49BAF2"/>
<rect x="283" y="54" width="2" height="4" fill="#49BAF2"/>
<rect x="283" y="66" width="2" height="4" fill="#49BAF2"/>
<rect x="283" y="72" width="2" height="4" fill="#49BAF2"/>
<rect x="283" y="78" width="2" height="4" fill="#49BAF2"/>
<rect x="203" y="60" width="2" height="4" fill="#49BAF2"/>
<rect x="203" y="54" width="2" height="4" fill="#49BAF2"/>
<rect x="203" y="66" width="2" height="4" fill="#49BAF2"/>
<rect x="203" y="72" width="2" height="4" fill="#49BAF2"/>
<rect x="203" y="78" width="2" height="4" fill="#49BAF2"/>
<rect x="51" y="60" width="2" height="4" fill="#49BAF2"/>
<rect x="51" y="54" width="2" height="4" fill="#49BAF2"/>
<rect x="51" y="66" width="2" height="4" fill="#49BAF2"/>
<rect x="51" y="72" width="2" height="4" fill="#49BAF2"/>
<rect x="51" y="78" width="2" height="4" fill="#49BAF2"/>
<rect x="83" y="116" width="2" height="4" fill="#49BAF2"/>
<rect x="83" y="110" width="2" height="4" fill="#49BAF2"/>
<rect x="83" y="122" width="2" height="4" fill="#49BAF2"/>
<rect x="83" y="128" width="2" height="4" fill="#49BAF2"/>
<rect x="83" y="134" width="2" height="4" fill="#49BAF2"/>
<rect x="51" y="116" width="2" height="4" fill="#49BAF2"/>
<rect x="51" y="110" width="2" height="4" fill="#49BAF2"/>
<rect x="51" y="122" width="2" height="4" fill="#49BAF2"/>
<rect x="51" y="128" width="2" height="4" fill="#49BAF2"/>
<rect x="51" y="134" width="2" height="4" fill="#49BAF2"/>
<path d="M27.3 32.4C27.1343 32.4 27 32.5343 27 32.7V39.3C27 39.4657 27.1343 39.6 27.3 39.6H30.9C30.9322 39.5999 30.9642 39.5948 30.9948 39.5847L32.7948 38.9847C32.8527 38.9654 32.9034 38.9289 32.94 38.88L33.5853 38.0208L33.9501 38.5681C34 38.6427 34.0806 38.6912 34.17 38.7001C34.2599 38.7091 34.349 38.6768 34.4121 38.6122L35.4 37.6243L36.0897 38.3122C36.0975 38.32 36.1058 38.3273 36.1144 38.3343C36.2438 38.4379 36.4326 38.4169 36.5361 38.2876L37.5261 37.0492L38.1891 37.7122C38.2491 37.7729 38.3325 37.8049 38.4177 37.7998C38.503 37.7951 38.5822 37.7543 38.6355 37.6876L39.6255 36.4492L40.2885 37.1122C40.3483 37.1732 40.4318 37.2052 40.5171 37.1998C40.6024 37.1951 40.6816 37.1543 40.7349 37.0876L41.7249 35.8492L42.3879 36.5122C42.5051 36.6293 42.695 36.6293 42.8122 36.5122L43.8381 35.4862L44.5336 35.9497C44.5829 35.9826 44.6408 36.0002 44.7001 36.0002C44.8658 36 45 35.8657 45 35.7V33.3C45 32.803 44.5971 32.4 44.1 32.4H27.3ZM31.7163 38.7117L32.94 37.08C32.9789 37.0281 33 36.9649 33 36.9V34.2H36.9V33.6H33V33H44.1C44.2657 33 44.4 33.1343 44.4 33.3V33.6H39.3V34.2H44.4V35.1393L43.9665 34.8504C43.8475 34.7711 43.689 34.7868 43.5879 34.8879L42.6 35.8758L41.9121 35.1876C41.8512 35.1281 41.7685 35.0964 41.6835 35.1C41.598 35.1046 41.5186 35.1454 41.4651 35.2122L40.4751 36.4506L39.8121 35.7876C39.7515 35.7277 39.6686 35.6959 39.5835 35.7C39.4977 35.7044 39.4181 35.7454 39.3645 35.8125L38.3745 37.0508L37.7115 36.3878C37.7037 36.38 37.6954 36.3726 37.6868 36.3657C37.5574 36.2621 37.3686 36.2831 37.2651 36.4124L36.2751 37.6508L35.6121 36.9878C35.495 36.8707 35.3051 36.8707 35.1879 36.9878L34.2465 37.929L33.8496 37.3335C33.8307 37.3052 33.8072 37.2803 33.78 37.2599C33.6474 37.1606 33.4594 37.1874 33.36 37.32L32.5161 38.445L31.7163 38.7117ZM27.6 39V34.2H30.6V33.6H27.6V33H32.4V36.8001L30.75 39H27.6Z" fill="#49BAF2"/>
<path d="M28.2 35.1V38.1C28.2 38.2657 28.3343 38.4 28.5 38.4H30.3C30.3911 38.4001 30.4773 38.3587 30.5343 38.2875L31.7343 36.7875C31.7769 36.7343 31.8 36.6682 31.8 36.6V35.1C31.8 34.9344 31.6657 34.8 31.5 34.8H28.5C28.3343 34.8 28.2 34.9344 28.2 35.1ZM28.8 35.4H31.2V36.4947L30.156 37.8H28.8V35.4Z" fill="#49BAF2"/>
<path d="M31.8 34.2H31.2V33.6H31.8V34.2Z" fill="#49BAF2"/>
<path d="M38.7 34.2H37.5V33.6H38.7V34.2Z" fill="#49BAF2"/>
</svg>
