<svg width="336" height="168" viewBox="0 0 336 168" fill="none" xmlns="http://www.w3.org/2000/svg">
<rect width="336" height="168" fill="white"/>
<path d="M76.3733 40H81.879V39.0625H77.8222V38.9943L79.7824 36.8977C81.2824 35.2912 81.7256 34.5412 81.7256 33.5739C81.7256 32.2273 80.6347 31.1534 79.1006 31.1534C77.5708 31.1534 76.4074 32.1932 76.4074 33.7273H77.4131C77.4131 32.7344 78.0566 32.0739 79.0665 32.0739C80.0125 32.0739 80.737 32.6534 80.737 33.5739C80.737 34.3793 80.264 34.9759 79.254 36.0795L76.3733 39.233V40ZM87.6344 40.1193C89.3773 40.1193 90.5918 39.1009 90.6003 37.6818C90.5918 36.5781 89.8546 35.6406 88.9128 35.4659V35.4148C89.731 35.2017 90.2679 34.4006 90.2765 33.4716C90.2679 32.142 89.1515 31.1534 87.6344 31.1534C86.1003 31.1534 84.9838 32.142 84.9924 33.4716C84.9838 34.4006 85.5208 35.2017 86.356 35.4148V35.4659C85.3972 35.6406 84.66 36.5781 84.6685 37.6818C84.66 39.1009 85.8745 40.1193 87.6344 40.1193ZM87.6344 39.1818C86.437 39.1818 85.6998 38.5682 85.7083 37.6307C85.6998 36.6463 86.5137 35.9432 87.6344 35.9432C88.7381 35.9432 89.552 36.6463 89.5605 37.6307C89.552 38.5682 88.8148 39.1818 87.6344 39.1818ZM87.6344 35.0398C86.6799 35.0398 86.0066 34.4432 86.0151 33.5398C86.0066 32.6534 86.6543 32.0739 87.6344 32.0739C88.5975 32.0739 89.2452 32.6534 89.2537 33.5398C89.2452 34.4432 88.5719 35.0398 87.6344 35.0398Z" fill="#E1E1E1"/>
<path d="M236.03 133.875L235.28 133.125H230.625V133.875H234.97L235.72 134.625H237.75V133.875H236.03Z" fill="#E1E1E1"/>
<path d="M228.22 135.75H225V136.5H228.53L229.28 135.75H231.375V135H228.97L228.22 135.75Z" fill="#E1E1E1"/>
<path d="M228.375 131.25H229.875V132H228.375V131.25Z" fill="#E1E1E1"/>
<path d="M220.125 131.25C219.075 131.25 218.25 132.403 218.25 133.875C218.25 135.347 219.075 136.5 220.125 136.5C221.175 136.5 222 135.347 222 133.875C222 132.403 221.175 131.25 220.125 131.25ZM220.125 135.75C219.515 135.75 219 134.891 219 133.875C219 132.859 219.515 132 220.125 132C220.735 132 221.25 132.859 221.25 133.875C221.25 134.891 220.735 135.75 220.125 135.75Z" fill="#E1E1E1"/>
<path d="M235.875 129.75H234.791C234.857 129.338 235.029 128.951 235.29 128.625H236.625C237.66 128.624 238.499 127.785 238.5 126.75V126.375H236.625C235.656 126.378 234.849 127.121 234.766 128.087C234.366 128.559 234.111 129.136 234.032 129.75H232.395L231.645 127.5H228.855L228.105 129.75H225.419C225.441 128.881 224.982 128.071 224.226 127.642C224.111 126.707 223.318 126.003 222.375 126H220.5V126.375C220.501 127.41 221.34 128.249 222.375 128.25H223.777C224.343 128.531 224.691 129.118 224.667 129.75H220.125C218.264 129.75 216.75 131.601 216.75 133.875C216.75 136.149 218.264 138 220.125 138H235.875C237.736 138 239.25 136.149 239.25 133.875C239.25 131.601 237.736 129.75 235.875 129.75ZM236.625 127.125H237.686C237.526 127.574 237.102 127.874 236.625 127.875H235.564C235.724 127.426 236.148 127.126 236.625 127.125ZM222.375 127.5C221.898 127.499 221.474 127.199 221.314 126.75H222.375C222.852 126.751 223.276 127.051 223.436 127.5H222.375ZM217.5 133.875C217.5 132.014 218.678 130.5 220.125 130.5C221.572 130.5 222.75 132.014 222.75 133.875C222.75 135.736 221.572 137.25 220.125 137.25C218.678 137.25 217.5 135.736 217.5 133.875ZM238.223 135.375H233.25V136.125H237.825C237.401 136.799 236.671 137.22 235.875 137.25H222.059C222.91 136.476 223.422 135.398 223.484 134.25H226.655L227.405 133.5H228.75V132.75H227.095L226.345 133.5H223.485C223.447 132.984 223.327 132.477 223.127 132H226.875V131.25H222.726C222.538 130.971 222.314 130.719 222.059 130.5H228.645L229.395 128.25H231.105L231.605 129.75H230.25V130.5H235.875C236.503 130.513 237.099 130.784 237.521 131.25H232.125V132H238.056C238.352 132.58 238.505 133.223 238.5 133.875C238.501 134.388 238.407 134.896 238.223 135.375Z" fill="#E1E1E1"/>
<path d="M260.03 133.875L259.28 133.125H254.625V133.875H258.97L259.72 134.625H261.75V133.875H260.03Z" fill="#E1E1E1"/>
<path d="M252.22 135.75H249V136.5H252.53L253.28 135.75H255.375V135H252.97L252.22 135.75Z" fill="#E1E1E1"/>
<path d="M252.375 131.25H253.875V132H252.375V131.25Z" fill="#E1E1E1"/>
<path d="M244.125 131.25C243.075 131.25 242.25 132.403 242.25 133.875C242.25 135.347 243.075 136.5 244.125 136.5C245.175 136.5 246 135.347 246 133.875C246 132.403 245.175 131.25 244.125 131.25ZM244.125 135.75C243.515 135.75 243 134.891 243 133.875C243 132.859 243.515 132 244.125 132C244.735 132 245.25 132.859 245.25 133.875C245.25 134.891 244.735 135.75 244.125 135.75Z" fill="#E1E1E1"/>
<path d="M259.875 129.75H258.791C258.857 129.338 259.029 128.951 259.29 128.625H260.625C261.66 128.624 262.499 127.785 262.5 126.75V126.375H260.625C259.656 126.378 258.849 127.121 258.766 128.087C258.366 128.559 258.111 129.136 258.032 129.75H256.395L255.645 127.5H252.855L252.105 129.75H249.419C249.441 128.881 248.982 128.071 248.226 127.642C248.111 126.707 247.318 126.003 246.375 126H244.5V126.375C244.501 127.41 245.34 128.249 246.375 128.25H247.777C248.343 128.531 248.691 129.118 248.667 129.75H244.125C242.264 129.75 240.75 131.601 240.75 133.875C240.75 136.149 242.264 138 244.125 138H259.875C261.736 138 263.25 136.149 263.25 133.875C263.25 131.601 261.736 129.75 259.875 129.75ZM260.625 127.125H261.686C261.526 127.574 261.102 127.874 260.625 127.875H259.564C259.724 127.426 260.148 127.126 260.625 127.125ZM246.375 127.5C245.898 127.499 245.474 127.199 245.314 126.75H246.375C246.852 126.751 247.276 127.051 247.436 127.5H246.375ZM241.5 133.875C241.5 132.014 242.678 130.5 244.125 130.5C245.572 130.5 246.75 132.014 246.75 133.875C246.75 135.736 245.572 137.25 244.125 137.25C242.678 137.25 241.5 135.736 241.5 133.875ZM262.223 135.375H257.25V136.125H261.825C261.401 136.799 260.671 137.22 259.875 137.25H246.059C246.91 136.476 247.422 135.398 247.484 134.25H250.655L251.405 133.5H252.75V132.75H251.095L250.345 133.5H247.485C247.447 132.984 247.327 132.477 247.127 132H250.875V131.25H246.726C246.538 130.971 246.314 130.719 246.059 130.5H252.645L253.395 128.25H255.105L255.605 129.75H254.25V130.5H259.875C260.503 130.513 261.099 130.784 261.521 131.25H256.125V132H262.056C262.352 132.58 262.505 133.223 262.5 133.875C262.501 134.388 262.407 134.896 262.223 135.375Z" fill="#E1E1E1"/>
<path d="M212.03 133.875L211.28 133.125H206.625V133.875H210.97L211.72 134.625H213.75V133.875H212.03Z" fill="#49BAF2"/>
<path d="M204.22 135.75H201V136.5H204.53L205.28 135.75H207.375V135H204.97L204.22 135.75Z" fill="#49BAF2"/>
<path d="M204.375 131.25H205.875V132H204.375V131.25Z" fill="#49BAF2"/>
<path d="M196.125 131.25C195.075 131.25 194.25 132.403 194.25 133.875C194.25 135.347 195.075 136.5 196.125 136.5C197.175 136.5 198 135.347 198 133.875C198 132.403 197.175 131.25 196.125 131.25ZM196.125 135.75C195.515 135.75 195 134.891 195 133.875C195 132.859 195.515 132 196.125 132C196.735 132 197.25 132.859 197.25 133.875C197.25 134.891 196.735 135.75 196.125 135.75Z" fill="#49BAF2"/>
<path d="M211.875 129.75H196.125C194.264 129.75 192.75 131.601 192.75 133.875C192.75 136.149 194.264 138 196.125 138H211.875C213.736 138 215.25 136.149 215.25 133.875C215.25 131.601 213.736 129.75 211.875 129.75ZM196.125 137.25C194.678 137.25 193.5 135.736 193.5 133.875C193.5 132.014 194.678 130.5 196.125 130.5C197.572 130.5 198.75 132.014 198.75 133.875C198.75 135.736 197.572 137.25 196.125 137.25ZM209.25 135.375V136.125H213.825C213.4 136.799 212.671 137.22 211.875 137.25H198.059C198.91 136.476 199.422 135.398 199.484 134.25H202.655L203.405 133.5H204.75V132.75H203.095L202.345 133.5H199.485C199.447 132.984 199.327 132.478 199.127 132H202.875V131.25H198.727C198.539 130.972 198.314 130.719 198.06 130.5H211.875C212.504 130.513 213.099 130.785 213.521 131.25H208.125V132H214.056C214.352 132.58 214.505 133.223 214.5 133.875C214.501 134.388 214.407 134.896 214.223 135.375H209.25Z" fill="#49BAF2"/>
<path d="M188.03 133.875L187.28 133.125H182.625V133.875H186.97L187.72 134.625H189.75V133.875H188.03Z" fill="#49BAF2"/>
<path d="M180.22 135.75H177V136.5H180.53L181.28 135.75H183.375V135H180.97L180.22 135.75Z" fill="#49BAF2"/>
<path d="M180.375 131.25H181.875V132H180.375V131.25Z" fill="#49BAF2"/>
<path d="M172.125 131.25C171.075 131.25 170.25 132.403 170.25 133.875C170.25 135.347 171.075 136.5 172.125 136.5C173.175 136.5 174 135.347 174 133.875C174 132.403 173.175 131.25 172.125 131.25ZM172.125 135.75C171.515 135.75 171 134.891 171 133.875C171 132.859 171.515 132 172.125 132C172.735 132 173.25 132.859 173.25 133.875C173.25 134.891 172.735 135.75 172.125 135.75Z" fill="#49BAF2"/>
<path d="M187.875 129.75H172.125C170.264 129.75 168.75 131.601 168.75 133.875C168.75 136.149 170.264 138 172.125 138H187.875C189.736 138 191.25 136.149 191.25 133.875C191.25 131.601 189.736 129.75 187.875 129.75ZM172.125 137.25C170.678 137.25 169.5 135.736 169.5 133.875C169.5 132.014 170.678 130.5 172.125 130.5C173.572 130.5 174.75 132.014 174.75 133.875C174.75 135.736 173.572 137.25 172.125 137.25ZM185.25 135.375V136.125H189.825C189.4 136.799 188.671 137.22 187.875 137.25H174.059C174.91 136.476 175.422 135.398 175.484 134.25H178.655L179.405 133.5H180.75V132.75H179.095L178.345 133.5H175.485C175.447 132.984 175.327 132.478 175.127 132H178.875V131.25H174.727C174.539 130.972 174.314 130.719 174.06 130.5H187.875C188.504 130.513 189.099 130.785 189.521 131.25H184.125V132H190.056C190.352 132.58 190.505 133.223 190.5 133.875C190.501 134.388 190.407 134.896 190.223 135.375H185.25Z" fill="#49BAF2"/>
<path d="M68.0303 133.875L67.2803 133.125H62.625V133.875H66.9697L67.7197 134.625H69.75V133.875H68.0303Z" fill="#E1E1E1"/>
<path d="M60.2197 135.75H57V136.5H60.5303L61.2803 135.75H63.375V135H60.9697L60.2197 135.75Z" fill="#E1E1E1"/>
<path d="M60.375 131.25H61.875V132H60.375V131.25Z" fill="#E1E1E1"/>
<path d="M52.125 131.25C51.075 131.25 50.25 132.403 50.25 133.875C50.25 135.347 51.075 136.5 52.125 136.5C53.175 136.5 54 135.347 54 133.875C54 132.403 53.175 131.25 52.125 131.25ZM52.125 135.75C51.5152 135.75 51 134.891 51 133.875C51 132.859 51.5152 132 52.125 132C52.7348 132 53.25 132.859 53.25 133.875C53.25 134.891 52.7348 135.75 52.125 135.75Z" fill="#E1E1E1"/>
<path d="M67.875 129.75H66.7909C66.8572 129.338 67.0291 128.951 67.29 128.625H68.625C69.66 128.624 70.4988 127.785 70.5 126.75V126.375H68.625C67.6556 126.378 66.849 127.121 66.7665 128.087C66.3663 128.559 66.1113 129.136 66.0322 129.75H64.3954L63.6454 127.5H60.8547L60.1047 129.75H57.4193C57.4406 128.881 56.9822 128.071 56.2264 127.642C56.1113 126.707 55.3178 126.003 54.375 126H52.5V126.375C52.5012 127.41 53.34 128.249 54.375 128.25H55.7768C56.3426 128.531 56.6909 129.118 56.6666 129.75H52.125C50.2643 129.75 48.75 131.601 48.75 133.875C48.75 136.149 50.2643 138 52.125 138H67.875C69.7357 138 71.25 136.149 71.25 133.875C71.25 131.601 69.7357 129.75 67.875 129.75ZM68.625 127.125H69.6859C69.5264 127.574 69.1016 127.874 68.625 127.875H67.5641C67.7236 127.426 68.1484 127.126 68.625 127.125ZM54.375 127.5C53.8984 127.499 53.4736 127.199 53.3141 126.75H54.375C54.8516 126.751 55.2764 127.051 55.4359 127.5H54.375ZM49.5 133.875C49.5 132.014 50.6775 130.5 52.125 130.5C53.5725 130.5 54.75 132.014 54.75 133.875C54.75 135.736 53.5725 137.25 52.125 137.25C50.6775 137.25 49.5 135.736 49.5 133.875ZM70.2229 135.375H65.25V136.125H69.825C69.4005 136.799 68.6708 137.22 67.875 137.25H54.0593C54.9102 136.476 55.4221 135.398 55.4843 134.25H58.6549L59.4049 133.5H60.75V132.75H59.0948L58.3448 133.5H55.4846C55.4472 132.984 55.3265 132.477 55.1273 132H58.875V131.25H54.7264C54.5384 130.971 54.314 130.719 54.0593 130.5H60.6453L61.3953 128.25H63.1046L63.6049 129.75H62.25V130.5H67.875C68.5035 130.513 69.0989 130.784 69.5212 131.25H64.125V132H70.056C70.3522 132.58 70.5045 133.223 70.5 133.875C70.5013 134.388 70.4073 134.896 70.2229 135.375Z" fill="#E1E1E1"/>
<path d="M44.0303 133.875L43.2803 133.125H38.625V133.875H42.9697L43.7197 134.625H45.75V133.875H44.0303Z" fill="#E1E1E1"/>
<path d="M36.2197 135.75H33V136.5H36.5303L37.2803 135.75H39.375V135H36.9697L36.2197 135.75Z" fill="#E1E1E1"/>
<path d="M36.375 131.25H37.875V132H36.375V131.25Z" fill="#E1E1E1"/>
<path d="M28.125 131.25C27.075 131.25 26.25 132.403 26.25 133.875C26.25 135.347 27.075 136.5 28.125 136.5C29.175 136.5 30 135.347 30 133.875C30 132.403 29.175 131.25 28.125 131.25ZM28.125 135.75C27.5152 135.75 27 134.891 27 133.875C27 132.859 27.5152 132 28.125 132C28.7348 132 29.25 132.859 29.25 133.875C29.25 134.891 28.7348 135.75 28.125 135.75Z" fill="#E1E1E1"/>
<path d="M43.875 129.75H42.7909C42.8572 129.338 43.0291 128.951 43.29 128.625H44.625C45.66 128.624 46.4988 127.785 46.5 126.75V126.375H44.625C43.6556 126.378 42.849 127.121 42.7665 128.087C42.3663 128.559 42.1113 129.136 42.0322 129.75H40.3954L39.6454 127.5H36.8547L36.1047 129.75H33.4193C33.4406 128.881 32.9822 128.071 32.2264 127.642C32.1113 126.707 31.3178 126.003 30.375 126H28.5V126.375C28.5012 127.41 29.34 128.249 30.375 128.25H31.7768C32.3426 128.531 32.6909 129.118 32.6666 129.75H28.125C26.2643 129.75 24.75 131.601 24.75 133.875C24.75 136.149 26.2643 138 28.125 138H43.875C45.7357 138 47.25 136.149 47.25 133.875C47.25 131.601 45.7357 129.75 43.875 129.75ZM44.625 127.125H45.6859C45.5264 127.574 45.1016 127.874 44.625 127.875H43.5641C43.7236 127.426 44.1484 127.126 44.625 127.125ZM30.375 127.5C29.8984 127.499 29.4736 127.199 29.3141 126.75H30.375C30.8516 126.751 31.2764 127.051 31.4359 127.5H30.375ZM25.5 133.875C25.5 132.014 26.6775 130.5 28.125 130.5C29.5725 130.5 30.75 132.014 30.75 133.875C30.75 135.736 29.5725 137.25 28.125 137.25C26.6775 137.25 25.5 135.736 25.5 133.875ZM46.2229 135.375H41.25V136.125H45.825C45.4005 136.799 44.6708 137.22 43.875 137.25H30.0593C30.9102 136.476 31.4221 135.398 31.4843 134.25H34.6549L35.4049 133.5H36.75V132.75H35.0948L34.3448 133.5H31.4846C31.4472 132.984 31.3265 132.477 31.1273 132H34.875V131.25H30.7264C30.5384 130.971 30.314 130.719 30.0593 130.5H36.6453L37.3953 128.25H39.1046L39.6049 129.75H38.25V130.5H43.875C44.5035 130.513 45.0989 130.784 45.5212 131.25H40.125V132H46.056C46.3522 132.58 46.5045 133.223 46.5 133.875C46.5013 134.388 46.4073 134.896 46.2229 135.375Z" fill="#E1E1E1"/>
<path d="M116.03 133.875L115.28 133.125H110.625V133.875H114.97L115.72 134.625H117.75V133.875H116.03Z" fill="#E1E1E1"/>
<path d="M108.22 135.75H105V136.5H108.53L109.28 135.75H111.375V135H108.97L108.22 135.75Z" fill="#E1E1E1"/>
<path d="M108.375 131.25H109.875V132H108.375V131.25Z" fill="#E1E1E1"/>
<path d="M100.125 131.25C99.075 131.25 98.25 132.403 98.25 133.875C98.25 135.347 99.075 136.5 100.125 136.5C101.175 136.5 102 135.347 102 133.875C102 132.403 101.175 131.25 100.125 131.25ZM100.125 135.75C99.5152 135.75 99 134.891 99 133.875C99 132.859 99.5152 132 100.125 132C100.735 132 101.25 132.859 101.25 133.875C101.25 134.891 100.735 135.75 100.125 135.75Z" fill="#E1E1E1"/>
<path d="M115.875 129.75H114.791C114.857 129.338 115.029 128.951 115.29 128.625H116.625C117.66 128.624 118.499 127.785 118.5 126.75V126.375H116.625C115.656 126.378 114.849 127.121 114.766 128.087C114.366 128.559 114.111 129.136 114.032 129.75H112.395L111.645 127.5H108.855L108.105 129.75H105.419C105.441 128.881 104.982 128.071 104.226 127.642C104.111 126.707 103.318 126.003 102.375 126H100.5V126.375C100.501 127.41 101.34 128.249 102.375 128.25H103.777C104.343 128.531 104.691 129.118 104.667 129.75H100.125C98.2643 129.75 96.75 131.601 96.75 133.875C96.75 136.149 98.2643 138 100.125 138H115.875C117.736 138 119.25 136.149 119.25 133.875C119.25 131.601 117.736 129.75 115.875 129.75ZM116.625 127.125H117.686C117.526 127.574 117.102 127.874 116.625 127.875H115.564C115.724 127.426 116.148 127.126 116.625 127.125ZM102.375 127.5C101.898 127.499 101.474 127.199 101.314 126.75H102.375C102.852 126.751 103.276 127.051 103.436 127.5H102.375ZM97.5 133.875C97.5 132.014 98.6775 130.5 100.125 130.5C101.572 130.5 102.75 132.014 102.75 133.875C102.75 135.736 101.572 137.25 100.125 137.25C98.6775 137.25 97.5 135.736 97.5 133.875ZM118.223 135.375H113.25V136.125H117.825C117.401 136.799 116.671 137.22 115.875 137.25H102.059C102.91 136.476 103.422 135.398 103.484 134.25H106.655L107.405 133.5H108.75V132.75H107.095L106.345 133.5H103.485C103.447 132.984 103.327 132.477 103.127 132H106.875V131.25H102.726C102.538 130.971 102.314 130.719 102.059 130.5H108.645L109.395 128.25H111.105L111.605 129.75H110.25V130.5H115.875C116.503 130.513 117.099 130.784 117.521 131.25H112.125V132H118.056C118.352 132.58 118.505 133.223 118.5 133.875C118.501 134.388 118.407 134.896 118.223 135.375Z" fill="#E1E1E1"/>
<path d="M140.03 133.875L139.28 133.125H134.625V133.875H138.97L139.72 134.625H141.75V133.875H140.03Z" fill="#E1E1E1"/>
<path d="M132.22 135.75H129V136.5H132.53L133.28 135.75H135.375V135H132.97L132.22 135.75Z" fill="#E1E1E1"/>
<path d="M132.375 131.25H133.875V132H132.375V131.25Z" fill="#E1E1E1"/>
<path d="M124.125 131.25C123.075 131.25 122.25 132.403 122.25 133.875C122.25 135.347 123.075 136.5 124.125 136.5C125.175 136.5 126 135.347 126 133.875C126 132.403 125.175 131.25 124.125 131.25ZM124.125 135.75C123.515 135.75 123 134.891 123 133.875C123 132.859 123.515 132 124.125 132C124.735 132 125.25 132.859 125.25 133.875C125.25 134.891 124.735 135.75 124.125 135.75Z" fill="#E1E1E1"/>
<path d="M139.875 129.75H138.791C138.857 129.338 139.029 128.951 139.29 128.625H140.625C141.66 128.624 142.499 127.785 142.5 126.75V126.375H140.625C139.656 126.378 138.849 127.121 138.766 128.087C138.366 128.559 138.111 129.136 138.032 129.75H136.395L135.645 127.5H132.855L132.105 129.75H129.419C129.441 128.881 128.982 128.071 128.226 127.642C128.111 126.707 127.318 126.003 126.375 126H124.5V126.375C124.501 127.41 125.34 128.249 126.375 128.25H127.777C128.343 128.531 128.691 129.118 128.667 129.75H124.125C122.264 129.75 120.75 131.601 120.75 133.875C120.75 136.149 122.264 138 124.125 138H139.875C141.736 138 143.25 136.149 143.25 133.875C143.25 131.601 141.736 129.75 139.875 129.75ZM140.625 127.125H141.686C141.526 127.574 141.102 127.874 140.625 127.875H139.564C139.724 127.426 140.148 127.126 140.625 127.125ZM126.375 127.5C125.898 127.499 125.474 127.199 125.314 126.75H126.375C126.852 126.751 127.276 127.051 127.436 127.5H126.375ZM121.5 133.875C121.5 132.014 122.678 130.5 124.125 130.5C125.572 130.5 126.75 132.014 126.75 133.875C126.75 135.736 125.572 137.25 124.125 137.25C122.678 137.25 121.5 135.736 121.5 133.875ZM142.223 135.375H137.25V136.125H141.825C141.401 136.799 140.671 137.22 139.875 137.25H126.059C126.91 136.476 127.422 135.398 127.484 134.25H130.655L131.405 133.5H132.75V132.75H131.095L130.345 133.5H127.485C127.447 132.984 127.327 132.477 127.127 132H130.875V131.25H126.726C126.538 130.971 126.314 130.719 126.059 130.5H132.645L133.395 128.25H135.105L135.605 129.75H134.25V130.5H139.875C140.503 130.513 141.099 130.784 141.521 131.25H136.125V132H142.056C142.352 132.58 142.505 133.223 142.5 133.875C142.501 134.388 142.407 134.896 142.223 135.375Z" fill="#E1E1E1"/>
<path d="M92.0302 133.875L91.2802 133.125H86.625V133.875H90.9698L91.7198 134.625H93.75V133.875H92.0302Z" fill="#49BAF2"/>
<path d="M84.2198 135.75H81V136.5H84.5302L85.2802 135.75H87.375V135H84.9698L84.2198 135.75Z" fill="#49BAF2"/>
<path d="M84.375 131.25H85.875V132H84.375V131.25Z" fill="#49BAF2"/>
<path d="M76.125 131.25C75.075 131.25 74.25 132.403 74.25 133.875C74.25 135.347 75.075 136.5 76.125 136.5C77.175 136.5 78 135.347 78 133.875C78 132.403 77.175 131.25 76.125 131.25ZM76.125 135.75C75.5152 135.75 75 134.891 75 133.875C75 132.859 75.5152 132 76.125 132C76.7348 132 77.25 132.859 77.25 133.875C77.25 134.891 76.7348 135.75 76.125 135.75Z" fill="#49BAF2"/>
<path d="M91.875 129.75H76.125C74.2641 129.75 72.75 131.601 72.75 133.875C72.75 136.149 74.2641 138 76.125 138H91.875C93.7359 138 95.25 136.149 95.25 133.875C95.25 131.601 93.7359 129.75 91.875 129.75ZM76.125 137.25C74.6775 137.25 73.5 135.736 73.5 133.875C73.5 132.014 74.6775 130.5 76.125 130.5C77.5725 130.5 78.75 132.014 78.75 133.875C78.75 135.736 77.5725 137.25 76.125 137.25ZM89.25 135.375V136.125H93.825C93.4003 136.799 92.6709 137.22 91.875 137.25H78.0591C78.9098 136.476 79.4222 135.398 79.4841 134.25H82.6547L83.4047 133.5H84.75V132.75H83.0948L82.3448 133.5H79.4845C79.447 132.984 79.3266 132.478 79.1273 132H82.875V131.25H78.7266C78.5386 130.972 78.3141 130.719 78.0595 130.5H91.875C92.5036 130.513 93.0989 130.785 93.5212 131.25H88.125V132H94.0561C94.3523 132.58 94.5047 133.223 94.5 133.875C94.5014 134.388 94.4072 134.896 94.223 135.375H89.25Z" fill="#49BAF2"/>
<path d="M44.0303 101.875L43.2803 101.125H38.625V101.875H42.9697L43.7197 102.625H45.75V101.875H44.0303Z" fill="#E1E1E1"/>
<path d="M36.2197 103.75H33V104.5H36.5303L37.2803 103.75H39.375V103H36.9697L36.2197 103.75Z" fill="#E1E1E1"/>
<path d="M36.375 99.25H37.875V100H36.375V99.25Z" fill="#E1E1E1"/>
<path d="M28.125 99.25C27.075 99.25 26.25 100.403 26.25 101.875C26.25 103.347 27.075 104.5 28.125 104.5C29.175 104.5 30 103.347 30 101.875C30 100.403 29.175 99.25 28.125 99.25ZM28.125 103.75C27.5152 103.75 27 102.891 27 101.875C27 100.859 27.5152 100 28.125 100C28.7348 100 29.25 100.859 29.25 101.875C29.25 102.891 28.7348 103.75 28.125 103.75Z" fill="#E1E1E1"/>
<path d="M43.875 97.75H42.7909C42.8572 97.3382 43.0291 96.9505 43.29 96.625H44.625C45.66 96.6238 46.4988 95.785 46.5 94.75V94.375H44.625C43.6556 94.3781 42.849 95.121 42.7665 96.0869C42.3663 96.5587 42.1113 97.1364 42.0322 97.75H40.3954L39.6454 95.5H36.8547L36.1047 97.75H33.4193C33.4406 96.8813 32.9822 96.0713 32.2264 95.6425C32.1113 94.7067 31.3178 94.0028 30.375 94H28.5V94.375C28.5012 95.41 29.34 96.2488 30.375 96.25H31.7768C32.3426 96.5314 32.6909 97.1185 32.6666 97.75H28.125C26.2643 97.75 24.75 99.6006 24.75 101.875C24.75 104.149 26.2643 106 28.125 106H43.875C45.7357 106 47.25 104.149 47.25 101.875C47.25 99.6006 45.7357 97.75 43.875 97.75ZM44.625 95.125H45.6859C45.5264 95.5742 45.1016 95.8744 44.625 95.875H43.5641C43.7236 95.4258 44.1484 95.1256 44.625 95.125ZM30.375 95.5C29.8984 95.4994 29.4736 95.1992 29.3141 94.75H30.375C30.8516 94.7506 31.2764 95.0508 31.4359 95.5H30.375ZM25.5 101.875C25.5 100.014 26.6775 98.5 28.125 98.5C29.5725 98.5 30.75 100.014 30.75 101.875C30.75 103.736 29.5725 105.25 28.125 105.25C26.6775 105.25 25.5 103.736 25.5 101.875ZM46.2229 103.375H41.25V104.125H45.825C45.4005 104.799 44.6708 105.22 43.875 105.25H30.0593C30.9102 104.476 31.4221 103.398 31.4843 102.25H34.6549L35.4049 101.5H36.75V100.75H35.0948L34.3448 101.5H31.4846C31.4472 100.984 31.3265 100.477 31.1273 100H34.875V99.25H30.7264C30.5384 98.9714 30.314 98.7192 30.0593 98.5H36.6453L37.3953 96.25H39.1046L39.6049 97.75H38.25V98.5H43.875C44.5035 98.5132 45.0989 98.7844 45.5212 99.25H40.125V100H46.056C46.3522 100.58 46.5045 101.223 46.5 101.875C46.5013 102.388 46.4073 102.896 46.2229 103.375Z" fill="#E1E1E1"/>
<path d="M92.0303 101.875L91.2803 101.125H86.625V101.875H90.9697L91.7197 102.625H93.75V101.875H92.0303Z" fill="#E1E1E1"/>
<path d="M84.2197 103.75H81V104.5H84.5303L85.2803 103.75H87.375V103H84.9697L84.2197 103.75Z" fill="#E1E1E1"/>
<path d="M84.375 99.25H85.875V100H84.375V99.25Z" fill="#E1E1E1"/>
<path d="M76.125 99.25C75.075 99.25 74.25 100.403 74.25 101.875C74.25 103.347 75.075 104.5 76.125 104.5C77.175 104.5 78 103.347 78 101.875C78 100.403 77.175 99.25 76.125 99.25ZM76.125 103.75C75.5152 103.75 75 102.891 75 101.875C75 100.859 75.5152 100 76.125 100C76.7348 100 77.25 100.859 77.25 101.875C77.25 102.891 76.7348 103.75 76.125 103.75Z" fill="#E1E1E1"/>
<path d="M91.875 97.75H90.7909C90.8572 97.3382 91.0291 96.9505 91.29 96.625H92.625C93.66 96.6238 94.4988 95.785 94.5 94.75V94.375H92.625C91.6556 94.3781 90.849 95.121 90.7665 96.0869C90.3663 96.5587 90.1113 97.1364 90.0322 97.75H88.3954L87.6454 95.5H84.8547L84.1047 97.75H81.4193C81.4406 96.8813 80.9822 96.0713 80.2264 95.6425C80.1113 94.7067 79.3178 94.0028 78.375 94H76.5V94.375C76.5012 95.41 77.34 96.2488 78.375 96.25H79.7768C80.3426 96.5314 80.6909 97.1185 80.6666 97.75H76.125C74.2643 97.75 72.75 99.6006 72.75 101.875C72.75 104.149 74.2643 106 76.125 106H91.875C93.7357 106 95.25 104.149 95.25 101.875C95.25 99.6006 93.7357 97.75 91.875 97.75ZM92.625 95.125H93.6859C93.5264 95.5742 93.1016 95.8744 92.625 95.875H91.5641C91.7236 95.4258 92.1484 95.1256 92.625 95.125ZM78.375 95.5C77.8984 95.4994 77.4736 95.1992 77.3141 94.75H78.375C78.8516 94.7506 79.2764 95.0508 79.4359 95.5H78.375ZM73.5 101.875C73.5 100.014 74.6775 98.5 76.125 98.5C77.5725 98.5 78.75 100.014 78.75 101.875C78.75 103.736 77.5725 105.25 76.125 105.25C74.6775 105.25 73.5 103.736 73.5 101.875ZM94.2229 103.375H89.25V104.125H93.825C93.4005 104.799 92.6708 105.22 91.875 105.25H78.0593C78.9102 104.476 79.4221 103.398 79.4843 102.25H82.6549L83.4049 101.5H84.75V100.75H83.0948L82.3448 101.5H79.4846C79.4472 100.984 79.3265 100.477 79.1273 100H82.875V99.25H78.7264C78.5384 98.9714 78.314 98.7192 78.0593 98.5H84.6453L85.3953 96.25H87.1046L87.6049 97.75H86.25V98.5H91.875C92.5035 98.5132 93.0989 98.7844 93.5212 99.25H88.125V100H94.056C94.3522 100.58 94.5045 101.223 94.5 101.875C94.5013 102.388 94.4073 102.896 94.2229 103.375Z" fill="#E1E1E1"/>
<path d="M116.03 101.875L115.28 101.125H110.625V101.875H114.97L115.72 102.625H117.75V101.875H116.03Z" fill="#E1E1E1"/>
<path d="M108.22 103.75H105V104.5H108.53L109.28 103.75H111.375V103H108.97L108.22 103.75Z" fill="#E1E1E1"/>
<path d="M108.375 99.25H109.875V100H108.375V99.25Z" fill="#E1E1E1"/>
<path d="M100.125 99.25C99.075 99.25 98.25 100.403 98.25 101.875C98.25 103.347 99.075 104.5 100.125 104.5C101.175 104.5 102 103.347 102 101.875C102 100.403 101.175 99.25 100.125 99.25ZM100.125 103.75C99.5152 103.75 99 102.891 99 101.875C99 100.859 99.5152 100 100.125 100C100.735 100 101.25 100.859 101.25 101.875C101.25 102.891 100.735 103.75 100.125 103.75Z" fill="#E1E1E1"/>
<path d="M115.875 97.75H114.791C114.857 97.3382 115.029 96.9505 115.29 96.625H116.625C117.66 96.6238 118.499 95.785 118.5 94.75V94.375H116.625C115.656 94.3781 114.849 95.121 114.766 96.0869C114.366 96.5587 114.111 97.1364 114.032 97.75H112.395L111.645 95.5H108.855L108.105 97.75H105.419C105.441 96.8813 104.982 96.0713 104.226 95.6425C104.111 94.7067 103.318 94.0028 102.375 94H100.5V94.375C100.501 95.41 101.34 96.2488 102.375 96.25H103.777C104.343 96.5314 104.691 97.1185 104.667 97.75H100.125C98.2643 97.75 96.75 99.6006 96.75 101.875C96.75 104.149 98.2643 106 100.125 106H115.875C117.736 106 119.25 104.149 119.25 101.875C119.25 99.6006 117.736 97.75 115.875 97.75ZM116.625 95.125H117.686C117.526 95.5742 117.102 95.8744 116.625 95.875H115.564C115.724 95.4258 116.148 95.1256 116.625 95.125ZM102.375 95.5C101.898 95.4994 101.474 95.1992 101.314 94.75H102.375C102.852 94.7506 103.276 95.0508 103.436 95.5H102.375ZM97.5 101.875C97.5 100.014 98.6775 98.5 100.125 98.5C101.572 98.5 102.75 100.014 102.75 101.875C102.75 103.736 101.572 105.25 100.125 105.25C98.6775 105.25 97.5 103.736 97.5 101.875ZM118.223 103.375H113.25V104.125H117.825C117.401 104.799 116.671 105.22 115.875 105.25H102.059C102.91 104.476 103.422 103.398 103.484 102.25H106.655L107.405 101.5H108.75V100.75H107.095L106.345 101.5H103.485C103.447 100.984 103.327 100.477 103.127 100H106.875V99.25H102.726C102.538 98.9714 102.314 98.7192 102.059 98.5H108.645L109.395 96.25H111.105L111.605 97.75H110.25V98.5H115.875C116.503 98.5132 117.099 98.7844 117.521 99.25H112.125V100H118.056C118.352 100.58 118.505 101.223 118.5 101.875C118.501 102.388 118.407 102.896 118.223 103.375Z" fill="#E1E1E1"/>
<path d="M68.0302 101.875L67.2802 101.125H62.625V101.875H66.9698L67.7198 102.625H69.75V101.875H68.0302Z" fill="#49BAF2"/>
<path d="M60.2198 103.75H57V104.5H60.5302L61.2802 103.75H63.375V103H60.9698L60.2198 103.75Z" fill="#49BAF2"/>
<path d="M60.375 99.25H61.875V100H60.375V99.25Z" fill="#49BAF2"/>
<path d="M52.125 99.25C51.075 99.25 50.25 100.403 50.25 101.875C50.25 103.347 51.075 104.5 52.125 104.5C53.175 104.5 54 103.347 54 101.875C54 100.403 53.175 99.25 52.125 99.25ZM52.125 103.75C51.5152 103.75 51 102.891 51 101.875C51 100.859 51.5152 100 52.125 100C52.7348 100 53.25 100.859 53.25 101.875C53.25 102.891 52.7348 103.75 52.125 103.75Z" fill="#49BAF2"/>
<path d="M67.875 97.75H52.125C50.2641 97.75 48.75 99.6006 48.75 101.875C48.75 104.149 50.2641 106 52.125 106H67.875C69.7359 106 71.25 104.149 71.25 101.875C71.25 99.6006 69.7359 97.75 67.875 97.75ZM52.125 105.25C50.6775 105.25 49.5 103.736 49.5 101.875C49.5 100.014 50.6775 98.5 52.125 98.5C53.5725 98.5 54.75 100.014 54.75 101.875C54.75 103.736 53.5725 105.25 52.125 105.25ZM65.25 103.375V104.125H69.825C69.4003 104.799 68.6709 105.22 67.875 105.25H54.0591C54.9098 104.476 55.4222 103.398 55.4841 102.25H58.6547L59.4047 101.5H60.75V100.75H59.0948L58.3448 101.5H55.4845C55.447 100.984 55.3266 100.478 55.1273 100H58.875V99.25H54.7266C54.5386 98.9716 54.3141 98.7194 54.0595 98.5H67.875C68.5036 98.5131 69.0989 98.7845 69.5212 99.25H64.125V100H70.0561C70.3523 100.58 70.5047 101.223 70.5 101.875C70.5014 102.388 70.4072 102.896 70.223 103.375H65.25Z" fill="#49BAF2"/>
<path d="M164.03 101.875L163.28 101.125H158.625V101.875H162.97L163.72 102.625H165.75V101.875H164.03Z" fill="#E1E1E1"/>
<path d="M156.22 103.75H153V104.5H156.53L157.28 103.75H159.375V103H156.97L156.22 103.75Z" fill="#E1E1E1"/>
<path d="M156.375 99.25H157.875V100H156.375V99.25Z" fill="#E1E1E1"/>
<path d="M148.125 99.25C147.075 99.25 146.25 100.403 146.25 101.875C146.25 103.347 147.075 104.5 148.125 104.5C149.175 104.5 150 103.347 150 101.875C150 100.403 149.175 99.25 148.125 99.25ZM148.125 103.75C147.515 103.75 147 102.891 147 101.875C147 100.859 147.515 100 148.125 100C148.735 100 149.25 100.859 149.25 101.875C149.25 102.891 148.735 103.75 148.125 103.75Z" fill="#E1E1E1"/>
<path d="M163.875 97.75H162.791C162.857 97.3382 163.029 96.9505 163.29 96.625H164.625C165.66 96.6238 166.499 95.785 166.5 94.75V94.375H164.625C163.656 94.3781 162.849 95.121 162.766 96.0869C162.366 96.5587 162.111 97.1364 162.032 97.75H160.395L159.645 95.5H156.855L156.105 97.75H153.419C153.441 96.8813 152.982 96.0713 152.226 95.6425C152.111 94.7067 151.318 94.0028 150.375 94H148.5V94.375C148.501 95.41 149.34 96.2488 150.375 96.25H151.777C152.343 96.5314 152.691 97.1185 152.667 97.75H148.125C146.264 97.75 144.75 99.6006 144.75 101.875C144.75 104.149 146.264 106 148.125 106H163.875C165.736 106 167.25 104.149 167.25 101.875C167.25 99.6006 165.736 97.75 163.875 97.75ZM164.625 95.125H165.686C165.526 95.5742 165.102 95.8744 164.625 95.875H163.564C163.724 95.4258 164.148 95.1256 164.625 95.125ZM150.375 95.5C149.898 95.4994 149.474 95.1992 149.314 94.75H150.375C150.852 94.7506 151.276 95.0508 151.436 95.5H150.375ZM145.5 101.875C145.5 100.014 146.678 98.5 148.125 98.5C149.572 98.5 150.75 100.014 150.75 101.875C150.75 103.736 149.572 105.25 148.125 105.25C146.678 105.25 145.5 103.736 145.5 101.875ZM166.223 103.375H161.25V104.125H165.825C165.401 104.799 164.671 105.22 163.875 105.25H150.059C150.91 104.476 151.422 103.398 151.484 102.25H154.655L155.405 101.5H156.75V100.75H155.095L154.345 101.5H151.485C151.447 100.984 151.327 100.477 151.127 100H154.875V99.25H150.726C150.538 98.9714 150.314 98.7192 150.059 98.5H156.645L157.395 96.25H159.105L159.605 97.75H158.25V98.5H163.875C164.503 98.5132 165.099 98.7844 165.521 99.25H160.125V100H166.056C166.352 100.58 166.505 101.223 166.5 101.875C166.501 102.388 166.407 102.896 166.223 103.375Z" fill="#E1E1E1"/>
<path d="M188.03 101.875L187.28 101.125H182.625V101.875H186.97L187.72 102.625H189.75V101.875H188.03Z" fill="#E1E1E1"/>
<path d="M180.22 103.75H177V104.5H180.53L181.28 103.75H183.375V103H180.97L180.22 103.75Z" fill="#E1E1E1"/>
<path d="M180.375 99.25H181.875V100H180.375V99.25Z" fill="#E1E1E1"/>
<path d="M172.125 99.25C171.075 99.25 170.25 100.403 170.25 101.875C170.25 103.347 171.075 104.5 172.125 104.5C173.175 104.5 174 103.347 174 101.875C174 100.403 173.175 99.25 172.125 99.25ZM172.125 103.75C171.515 103.75 171 102.891 171 101.875C171 100.859 171.515 100 172.125 100C172.735 100 173.25 100.859 173.25 101.875C173.25 102.891 172.735 103.75 172.125 103.75Z" fill="#E1E1E1"/>
<path d="M187.875 97.75H186.791C186.857 97.3382 187.029 96.9505 187.29 96.625H188.625C189.66 96.6238 190.499 95.785 190.5 94.75V94.375H188.625C187.656 94.3781 186.849 95.121 186.766 96.0869C186.366 96.5587 186.111 97.1364 186.032 97.75H184.395L183.645 95.5H180.855L180.105 97.75H177.419C177.441 96.8813 176.982 96.0713 176.226 95.6425C176.111 94.7067 175.318 94.0028 174.375 94H172.5V94.375C172.501 95.41 173.34 96.2488 174.375 96.25H175.777C176.343 96.5314 176.691 97.1185 176.667 97.75H172.125C170.264 97.75 168.75 99.6006 168.75 101.875C168.75 104.149 170.264 106 172.125 106H187.875C189.736 106 191.25 104.149 191.25 101.875C191.25 99.6006 189.736 97.75 187.875 97.75ZM188.625 95.125H189.686C189.526 95.5742 189.102 95.8744 188.625 95.875H187.564C187.724 95.4258 188.148 95.1256 188.625 95.125ZM174.375 95.5C173.898 95.4994 173.474 95.1992 173.314 94.75H174.375C174.852 94.7506 175.276 95.0508 175.436 95.5H174.375ZM169.5 101.875C169.5 100.014 170.678 98.5 172.125 98.5C173.572 98.5 174.75 100.014 174.75 101.875C174.75 103.736 173.572 105.25 172.125 105.25C170.678 105.25 169.5 103.736 169.5 101.875ZM190.223 103.375H185.25V104.125H189.825C189.401 104.799 188.671 105.22 187.875 105.25H174.059C174.91 104.476 175.422 103.398 175.484 102.25H178.655L179.405 101.5H180.75V100.75H179.095L178.345 101.5H175.485C175.447 100.984 175.327 100.477 175.127 100H178.875V99.25H174.726C174.538 98.9714 174.314 98.7192 174.059 98.5H180.645L181.395 96.25H183.105L183.605 97.75H182.25V98.5H187.875C188.503 98.5132 189.099 98.7844 189.521 99.25H184.125V100H190.056C190.352 100.58 190.505 101.223 190.5 101.875C190.501 102.388 190.407 102.896 190.223 103.375Z" fill="#E1E1E1"/>
<path d="M212.03 101.875L211.28 101.125H206.625V101.875H210.97L211.72 102.625H213.75V101.875H212.03Z" fill="#49BAF2"/>
<path d="M204.22 103.75H201V104.5H204.53L205.28 103.75H207.375V103H204.97L204.22 103.75Z" fill="#49BAF2"/>
<path d="M204.375 99.25H205.875V100H204.375V99.25Z" fill="#49BAF2"/>
<path d="M196.125 99.25C195.075 99.25 194.25 100.403 194.25 101.875C194.25 103.347 195.075 104.5 196.125 104.5C197.175 104.5 198 103.347 198 101.875C198 100.403 197.175 99.25 196.125 99.25ZM196.125 103.75C195.515 103.75 195 102.891 195 101.875C195 100.859 195.515 100 196.125 100C196.735 100 197.25 100.859 197.25 101.875C197.25 102.891 196.735 103.75 196.125 103.75Z" fill="#49BAF2"/>
<path d="M211.875 97.75H196.125C194.264 97.75 192.75 99.6006 192.75 101.875C192.75 104.149 194.264 106 196.125 106H211.875C213.736 106 215.25 104.149 215.25 101.875C215.25 99.6006 213.736 97.75 211.875 97.75ZM196.125 105.25C194.678 105.25 193.5 103.736 193.5 101.875C193.5 100.014 194.678 98.5 196.125 98.5C197.572 98.5 198.75 100.014 198.75 101.875C198.75 103.736 197.572 105.25 196.125 105.25ZM209.25 103.375V104.125H213.825C213.4 104.799 212.671 105.22 211.875 105.25H198.059C198.91 104.476 199.422 103.398 199.484 102.25H202.655L203.405 101.5H204.75V100.75H203.095L202.345 101.5H199.485C199.447 100.984 199.327 100.478 199.127 100H202.875V99.25H198.727C198.539 98.9716 198.314 98.7194 198.06 98.5H211.875C212.504 98.5131 213.099 98.7845 213.521 99.25H208.125V100H214.056C214.352 100.58 214.505 101.223 214.5 101.875C214.501 102.388 214.407 102.896 214.223 103.375H209.25Z" fill="#49BAF2"/>
<path d="M236.03 101.875L235.28 101.125H230.625V101.875H234.97L235.72 102.625H237.75V101.875H236.03Z" fill="#49BAF2"/>
<path d="M228.22 103.75H225V104.5H228.53L229.28 103.75H231.375V103H228.97L228.22 103.75Z" fill="#49BAF2"/>
<path d="M228.375 99.25H229.875V100H228.375V99.25Z" fill="#49BAF2"/>
<path d="M220.125 99.25C219.075 99.25 218.25 100.403 218.25 101.875C218.25 103.347 219.075 104.5 220.125 104.5C221.175 104.5 222 103.347 222 101.875C222 100.403 221.175 99.25 220.125 99.25ZM220.125 103.75C219.515 103.75 219 102.891 219 101.875C219 100.859 219.515 100 220.125 100C220.735 100 221.25 100.859 221.25 101.875C221.25 102.891 220.735 103.75 220.125 103.75Z" fill="#49BAF2"/>
<path d="M235.875 97.75H220.125C218.264 97.75 216.75 99.6006 216.75 101.875C216.75 104.149 218.264 106 220.125 106H235.875C237.736 106 239.25 104.149 239.25 101.875C239.25 99.6006 237.736 97.75 235.875 97.75ZM220.125 105.25C218.678 105.25 217.5 103.736 217.5 101.875C217.5 100.014 218.678 98.5 220.125 98.5C221.572 98.5 222.75 100.014 222.75 101.875C222.75 103.736 221.572 105.25 220.125 105.25ZM233.25 103.375V104.125H237.825C237.4 104.799 236.671 105.22 235.875 105.25H222.059C222.91 104.476 223.422 103.398 223.484 102.25H226.655L227.405 101.5H228.75V100.75H227.095L226.345 101.5H223.485C223.447 100.984 223.327 100.478 223.127 100H226.875V99.25H222.727C222.539 98.9716 222.314 98.7194 222.06 98.5H235.875C236.504 98.5131 237.099 98.7845 237.521 99.25H232.125V100H238.056C238.352 100.58 238.505 101.223 238.5 101.875C238.501 102.388 238.407 102.896 238.223 103.375H233.25Z" fill="#49BAF2"/>
<path d="M260.03 101.875L259.28 101.125H254.625V101.875H258.97L259.72 102.625H261.75V101.875H260.03Z" fill="#49BAF2"/>
<path d="M252.22 103.75H249V104.5H252.53L253.28 103.75H255.375V103H252.97L252.22 103.75Z" fill="#49BAF2"/>
<path d="M252.375 99.25H253.875V100H252.375V99.25Z" fill="#49BAF2"/>
<path d="M244.125 99.25C243.075 99.25 242.25 100.403 242.25 101.875C242.25 103.347 243.075 104.5 244.125 104.5C245.175 104.5 246 103.347 246 101.875C246 100.403 245.175 99.25 244.125 99.25ZM244.125 103.75C243.515 103.75 243 102.891 243 101.875C243 100.859 243.515 100 244.125 100C244.735 100 245.25 100.859 245.25 101.875C245.25 102.891 244.735 103.75 244.125 103.75Z" fill="#49BAF2"/>
<path d="M259.875 97.75H244.125C242.264 97.75 240.75 99.6006 240.75 101.875C240.75 104.149 242.264 106 244.125 106H259.875C261.736 106 263.25 104.149 263.25 101.875C263.25 99.6006 261.736 97.75 259.875 97.75ZM244.125 105.25C242.678 105.25 241.5 103.736 241.5 101.875C241.5 100.014 242.678 98.5 244.125 98.5C245.572 98.5 246.75 100.014 246.75 101.875C246.75 103.736 245.572 105.25 244.125 105.25ZM257.25 103.375V104.125H261.825C261.4 104.799 260.671 105.22 259.875 105.25H246.059C246.91 104.476 247.422 103.398 247.484 102.25H250.655L251.405 101.5H252.75V100.75H251.095L250.345 101.5H247.485C247.447 100.984 247.327 100.478 247.127 100H250.875V99.25H246.727C246.539 98.9716 246.314 98.7194 246.06 98.5H259.875C260.504 98.5131 261.099 98.7845 261.521 99.25H256.125V100H262.056C262.352 100.58 262.505 101.223 262.5 101.875C262.501 102.388 262.407 102.896 262.223 103.375H257.25Z" fill="#49BAF2"/>
<path d="M68.0303 69.875L67.2803 69.125H62.625V69.875H66.9697L67.7197 70.625H69.75V69.875H68.0303Z" fill="#E1E1E1"/>
<path d="M60.2197 71.75H57V72.5H60.5303L61.2803 71.75H63.375V71H60.9697L60.2197 71.75Z" fill="#E1E1E1"/>
<path d="M60.375 67.25H61.875V68H60.375V67.25Z" fill="#E1E1E1"/>
<path d="M52.125 67.25C51.075 67.25 50.25 68.4031 50.25 69.875C50.25 71.3469 51.075 72.5 52.125 72.5C53.175 72.5 54 71.3469 54 69.875C54 68.4031 53.175 67.25 52.125 67.25ZM52.125 71.75C51.5152 71.75 51 70.8913 51 69.875C51 68.8587 51.5152 68 52.125 68C52.7348 68 53.25 68.8587 53.25 69.875C53.25 70.8913 52.7348 71.75 52.125 71.75Z" fill="#E1E1E1"/>
<path d="M67.875 65.75H66.7909C66.8572 65.3382 67.0291 64.9505 67.29 64.625H68.625C69.66 64.6238 70.4988 63.785 70.5 62.75V62.375H68.625C67.6556 62.3781 66.849 63.121 66.7665 64.0869C66.3663 64.5587 66.1113 65.1364 66.0322 65.75H64.3954L63.6454 63.5H60.8547L60.1047 65.75H57.4193C57.4406 64.8813 56.9822 64.0713 56.2264 63.6425C56.1113 62.7067 55.3178 62.0028 54.375 62H52.5V62.375C52.5012 63.41 53.34 64.2488 54.375 64.25H55.7768C56.3426 64.5314 56.6909 65.1185 56.6666 65.75H52.125C50.2643 65.75 48.75 67.6006 48.75 69.875C48.75 72.1494 50.2643 74 52.125 74H67.875C69.7357 74 71.25 72.1494 71.25 69.875C71.25 67.6006 69.7357 65.75 67.875 65.75ZM68.625 63.125H69.6859C69.5264 63.5742 69.1016 63.8744 68.625 63.875H67.5641C67.7236 63.4258 68.1484 63.1256 68.625 63.125ZM54.375 63.5C53.8984 63.4994 53.4736 63.1992 53.3141 62.75H54.375C54.8516 62.7506 55.2764 63.0508 55.4359 63.5H54.375ZM49.5 69.875C49.5 68.0139 50.6775 66.5 52.125 66.5C53.5725 66.5 54.75 68.0139 54.75 69.875C54.75 71.7361 53.5725 73.25 52.125 73.25C50.6775 73.25 49.5 71.7361 49.5 69.875ZM70.2229 71.375H65.25V72.125H69.825C69.4005 72.7988 68.6708 73.2198 67.875 73.25H54.0593C54.9102 72.4762 55.4221 71.3984 55.4843 70.25H58.6549L59.4049 69.5H60.75V68.75H59.0948L58.3448 69.5H55.4846C55.4472 68.984 55.3265 68.4775 55.1273 68H58.875V67.25H54.7264C54.5384 66.9714 54.314 66.7192 54.0593 66.5H60.6453L61.3953 64.25H63.1046L63.6049 65.75H62.25V66.5H67.875C68.5035 66.5132 69.0989 66.7844 69.5212 67.25H64.125V68H70.056C70.3522 68.5804 70.5045 69.2234 70.5 69.875C70.5013 70.3878 70.4073 70.8965 70.2229 71.375Z" fill="#E1E1E1"/>
<path d="M44.0302 69.875L43.2802 69.125H38.625V69.875H42.9698L43.7198 70.625H45.75V69.875H44.0302Z" fill="#49BAF2"/>
<path d="M36.2198 71.75H33V72.5H36.5302L37.2802 71.75H39.375V71H36.9698L36.2198 71.75Z" fill="#49BAF2"/>
<path d="M36.375 67.25H37.875V68H36.375V67.25Z" fill="#49BAF2"/>
<path d="M28.125 67.25C27.075 67.25 26.25 68.4031 26.25 69.875C26.25 71.3469 27.075 72.5 28.125 72.5C29.175 72.5 30 71.3469 30 69.875C30 68.4031 29.175 67.25 28.125 67.25ZM28.125 71.75C27.5152 71.75 27 70.8913 27 69.875C27 68.8587 27.5152 68 28.125 68C28.7348 68 29.25 68.8587 29.25 69.875C29.25 70.8913 28.7348 71.75 28.125 71.75Z" fill="#49BAF2"/>
<path d="M43.875 65.75H28.125C26.2641 65.75 24.75 67.6006 24.75 69.875C24.75 72.1494 26.2641 74 28.125 74H43.875C45.7359 74 47.25 72.1494 47.25 69.875C47.25 67.6006 45.7359 65.75 43.875 65.75ZM28.125 73.25C26.6775 73.25 25.5 71.7359 25.5 69.875C25.5 68.0141 26.6775 66.5 28.125 66.5C29.5725 66.5 30.75 68.0141 30.75 69.875C30.75 71.7359 29.5725 73.25 28.125 73.25ZM41.25 71.375V72.125H45.825C45.4003 72.7991 44.6709 73.22 43.875 73.25H30.0591C30.9098 72.4761 31.4222 71.3984 31.4841 70.25H34.6547L35.4047 69.5H36.75V68.75H35.0948L34.3448 69.5H31.4845C31.447 68.9839 31.3266 68.4777 31.1273 68H34.875V67.25H30.7266C30.5386 66.9716 30.3141 66.7194 30.0595 66.5H43.875C44.5036 66.5131 45.0989 66.7845 45.5212 67.25H40.125V68H46.0561C46.3523 68.5803 46.5047 69.2234 46.5 69.875C46.5014 70.3878 46.4072 70.8964 46.223 71.375H41.25Z" fill="#49BAF2"/>
<path d="M212.03 69.875L211.28 69.125H206.625V69.875H210.97L211.72 70.625H213.75V69.875H212.03Z" fill="#E1E1E1"/>
<path d="M204.22 71.75H201V72.5H204.53L205.28 71.75H207.375V71H204.97L204.22 71.75Z" fill="#E1E1E1"/>
<path d="M204.375 67.25H205.875V68H204.375V67.25Z" fill="#E1E1E1"/>
<path d="M196.125 67.25C195.075 67.25 194.25 68.4031 194.25 69.875C194.25 71.3469 195.075 72.5 196.125 72.5C197.175 72.5 198 71.3469 198 69.875C198 68.4031 197.175 67.25 196.125 67.25ZM196.125 71.75C195.515 71.75 195 70.8913 195 69.875C195 68.8587 195.515 68 196.125 68C196.735 68 197.25 68.8587 197.25 69.875C197.25 70.8913 196.735 71.75 196.125 71.75Z" fill="#E1E1E1"/>
<path d="M211.875 65.75H210.791C210.857 65.3382 211.029 64.9505 211.29 64.625H212.625C213.66 64.6238 214.499 63.785 214.5 62.75V62.375H212.625C211.656 62.3781 210.849 63.121 210.766 64.0869C210.366 64.5587 210.111 65.1364 210.032 65.75H208.395L207.645 63.5H204.855L204.105 65.75H201.419C201.441 64.8813 200.982 64.0713 200.226 63.6425C200.111 62.7067 199.318 62.0028 198.375 62H196.5V62.375C196.501 63.41 197.34 64.2488 198.375 64.25H199.777C200.343 64.5314 200.691 65.1185 200.667 65.75H196.125C194.264 65.75 192.75 67.6006 192.75 69.875C192.75 72.1494 194.264 74 196.125 74H211.875C213.736 74 215.25 72.1494 215.25 69.875C215.25 67.6006 213.736 65.75 211.875 65.75ZM212.625 63.125H213.686C213.526 63.5742 213.102 63.8744 212.625 63.875H211.564C211.724 63.4258 212.148 63.1256 212.625 63.125ZM198.375 63.5C197.898 63.4994 197.474 63.1992 197.314 62.75H198.375C198.852 62.7506 199.276 63.0508 199.436 63.5H198.375ZM193.5 69.875C193.5 68.0139 194.678 66.5 196.125 66.5C197.572 66.5 198.75 68.0139 198.75 69.875C198.75 71.7361 197.572 73.25 196.125 73.25C194.678 73.25 193.5 71.7361 193.5 69.875ZM214.223 71.375H209.25V72.125H213.825C213.401 72.7988 212.671 73.2198 211.875 73.25H198.059C198.91 72.4762 199.422 71.3984 199.484 70.25H202.655L203.405 69.5H204.75V68.75H203.095L202.345 69.5H199.485C199.447 68.984 199.327 68.4775 199.127 68H202.875V67.25H198.726C198.538 66.9714 198.314 66.7192 198.059 66.5H204.645L205.395 64.25H207.105L207.605 65.75H206.25V66.5H211.875C212.503 66.5132 213.099 66.7844 213.521 67.25H208.125V68H214.056C214.352 68.5804 214.505 69.2234 214.5 69.875C214.501 70.3878 214.407 70.8965 214.223 71.375Z" fill="#E1E1E1"/>
<path d="M188.03 69.875L187.28 69.125H182.625V69.875H186.97L187.72 70.625H189.75V69.875H188.03Z" fill="#49BAF2"/>
<path d="M180.22 71.75H177V72.5H180.53L181.28 71.75H183.375V71H180.97L180.22 71.75Z" fill="#49BAF2"/>
<path d="M180.375 67.25H181.875V68H180.375V67.25Z" fill="#49BAF2"/>
<path d="M172.125 67.25C171.075 67.25 170.25 68.4031 170.25 69.875C170.25 71.3469 171.075 72.5 172.125 72.5C173.175 72.5 174 71.3469 174 69.875C174 68.4031 173.175 67.25 172.125 67.25ZM172.125 71.75C171.515 71.75 171 70.8913 171 69.875C171 68.8587 171.515 68 172.125 68C172.735 68 173.25 68.8587 173.25 69.875C173.25 70.8913 172.735 71.75 172.125 71.75Z" fill="#49BAF2"/>
<path d="M187.875 65.75H172.125C170.264 65.75 168.75 67.6006 168.75 69.875C168.75 72.1494 170.264 74 172.125 74H187.875C189.736 74 191.25 72.1494 191.25 69.875C191.25 67.6006 189.736 65.75 187.875 65.75ZM172.125 73.25C170.678 73.25 169.5 71.7359 169.5 69.875C169.5 68.0141 170.678 66.5 172.125 66.5C173.572 66.5 174.75 68.0141 174.75 69.875C174.75 71.7359 173.572 73.25 172.125 73.25ZM185.25 71.375V72.125H189.825C189.4 72.7991 188.671 73.22 187.875 73.25H174.059C174.91 72.4761 175.422 71.3984 175.484 70.25H178.655L179.405 69.5H180.75V68.75H179.095L178.345 69.5H175.485C175.447 68.9839 175.327 68.4777 175.127 68H178.875V67.25H174.727C174.539 66.9716 174.314 66.7194 174.06 66.5H187.875C188.504 66.5131 189.099 66.7845 189.521 67.25H184.125V68H190.056C190.352 68.5803 190.505 69.2234 190.5 69.875C190.501 70.3878 190.407 70.8964 190.223 71.375H185.25Z" fill="#49BAF2"/>
<path d="M260.03 69.875L259.28 69.125H254.625V69.875H258.97L259.72 70.625H261.75V69.875H260.03Z" fill="#E1E1E1"/>
<path d="M252.22 71.75H249V72.5H252.53L253.28 71.75H255.375V71H252.97L252.22 71.75Z" fill="#E1E1E1"/>
<path d="M252.375 67.25H253.875V68H252.375V67.25Z" fill="#E1E1E1"/>
<path d="M244.125 67.25C243.075 67.25 242.25 68.4031 242.25 69.875C242.25 71.3469 243.075 72.5 244.125 72.5C245.175 72.5 246 71.3469 246 69.875C246 68.4031 245.175 67.25 244.125 67.25ZM244.125 71.75C243.515 71.75 243 70.8913 243 69.875C243 68.8587 243.515 68 244.125 68C244.735 68 245.25 68.8587 245.25 69.875C245.25 70.8913 244.735 71.75 244.125 71.75Z" fill="#E1E1E1"/>
<path d="M259.875 65.75H258.791C258.857 65.3382 259.029 64.9505 259.29 64.625H260.625C261.66 64.6238 262.499 63.785 262.5 62.75V62.375H260.625C259.656 62.3781 258.849 63.121 258.766 64.0869C258.366 64.5587 258.111 65.1364 258.032 65.75H256.395L255.645 63.5H252.855L252.105 65.75H249.419C249.441 64.8813 248.982 64.0713 248.226 63.6425C248.111 62.7067 247.318 62.0028 246.375 62H244.5V62.375C244.501 63.41 245.34 64.2488 246.375 64.25H247.777C248.343 64.5314 248.691 65.1185 248.667 65.75H244.125C242.264 65.75 240.75 67.6006 240.75 69.875C240.75 72.1494 242.264 74 244.125 74H259.875C261.736 74 263.25 72.1494 263.25 69.875C263.25 67.6006 261.736 65.75 259.875 65.75ZM260.625 63.125H261.686C261.526 63.5742 261.102 63.8744 260.625 63.875H259.564C259.724 63.4258 260.148 63.1256 260.625 63.125ZM246.375 63.5C245.898 63.4994 245.474 63.1992 245.314 62.75H246.375C246.852 62.7506 247.276 63.0508 247.436 63.5H246.375ZM241.5 69.875C241.5 68.0139 242.678 66.5 244.125 66.5C245.572 66.5 246.75 68.0139 246.75 69.875C246.75 71.7361 245.572 73.25 244.125 73.25C242.678 73.25 241.5 71.7361 241.5 69.875ZM262.223 71.375H257.25V72.125H261.825C261.401 72.7988 260.671 73.2198 259.875 73.25H246.059C246.91 72.4762 247.422 71.3984 247.484 70.25H250.655L251.405 69.5H252.75V68.75H251.095L250.345 69.5H247.485C247.447 68.984 247.327 68.4775 247.127 68H250.875V67.25H246.726C246.538 66.9714 246.314 66.7192 246.059 66.5H252.645L253.395 64.25H255.105L255.605 65.75H254.25V66.5H259.875C260.503 66.5132 261.099 66.7844 261.521 67.25H256.125V68H262.056C262.352 68.5804 262.505 69.2234 262.5 69.875C262.501 70.3878 262.407 70.8965 262.223 71.375Z" fill="#E1E1E1"/>
<path d="M284.03 69.875L283.28 69.125H278.625V69.875H282.97L283.72 70.625H285.75V69.875H284.03Z" fill="#49BAF2"/>
<path d="M276.22 71.75H273V72.5H276.53L277.28 71.75H279.375V71H276.97L276.22 71.75Z" fill="#49BAF2"/>
<path d="M276.375 67.25H277.875V68H276.375V67.25Z" fill="#49BAF2"/>
<path d="M268.125 67.25C267.075 67.25 266.25 68.4031 266.25 69.875C266.25 71.3469 267.075 72.5 268.125 72.5C269.175 72.5 270 71.3469 270 69.875C270 68.4031 269.175 67.25 268.125 67.25ZM268.125 71.75C267.515 71.75 267 70.8913 267 69.875C267 68.8587 267.515 68 268.125 68C268.735 68 269.25 68.8587 269.25 69.875C269.25 70.8913 268.735 71.75 268.125 71.75Z" fill="#49BAF2"/>
<path d="M283.875 65.75H268.125C266.264 65.75 264.75 67.6006 264.75 69.875C264.75 72.1494 266.264 74 268.125 74H283.875C285.736 74 287.25 72.1494 287.25 69.875C287.25 67.6006 285.736 65.75 283.875 65.75ZM268.125 73.25C266.678 73.25 265.5 71.7359 265.5 69.875C265.5 68.0141 266.678 66.5 268.125 66.5C269.572 66.5 270.75 68.0141 270.75 69.875C270.75 71.7359 269.572 73.25 268.125 73.25ZM281.25 71.375V72.125H285.825C285.4 72.7991 284.671 73.22 283.875 73.25H270.059C270.91 72.4761 271.422 71.3984 271.484 70.25H274.655L275.405 69.5H276.75V68.75H275.095L274.345 69.5H271.485C271.447 68.9839 271.327 68.4777 271.127 68H274.875V67.25H270.727C270.539 66.9716 270.314 66.7194 270.06 66.5H283.875C284.504 66.5131 285.099 66.7845 285.521 67.25H280.125V68H286.056C286.352 68.5803 286.505 69.2234 286.5 69.875C286.501 70.3878 286.407 70.8964 286.223 71.375H281.25Z" fill="#49BAF2"/>
<path d="M308.03 69.875L307.28 69.125H302.625V69.875H306.97L307.72 70.625H309.75V69.875H308.03Z" fill="#49BAF2"/>
<path d="M300.22 71.75H297V72.5H300.53L301.28 71.75H303.375V71H300.97L300.22 71.75Z" fill="#49BAF2"/>
<path d="M300.375 67.25H301.875V68H300.375V67.25Z" fill="#49BAF2"/>
<path d="M292.125 67.25C291.075 67.25 290.25 68.4031 290.25 69.875C290.25 71.3469 291.075 72.5 292.125 72.5C293.175 72.5 294 71.3469 294 69.875C294 68.4031 293.175 67.25 292.125 67.25ZM292.125 71.75C291.515 71.75 291 70.8913 291 69.875C291 68.8587 291.515 68 292.125 68C292.735 68 293.25 68.8587 293.25 69.875C293.25 70.8913 292.735 71.75 292.125 71.75Z" fill="#49BAF2"/>
<path d="M307.875 65.75H292.125C290.264 65.75 288.75 67.6006 288.75 69.875C288.75 72.1494 290.264 74 292.125 74H307.875C309.736 74 311.25 72.1494 311.25 69.875C311.25 67.6006 309.736 65.75 307.875 65.75ZM292.125 73.25C290.678 73.25 289.5 71.7359 289.5 69.875C289.5 68.0141 290.678 66.5 292.125 66.5C293.572 66.5 294.75 68.0141 294.75 69.875C294.75 71.7359 293.572 73.25 292.125 73.25ZM305.25 71.375V72.125H309.825C309.4 72.7991 308.671 73.22 307.875 73.25H294.059C294.91 72.4761 295.422 71.3984 295.484 70.25H298.655L299.405 69.5H300.75V68.75H299.095L298.345 69.5H295.485C295.447 68.9839 295.327 68.4777 295.127 68H298.875V67.25H294.727C294.539 66.9716 294.314 66.7194 294.06 66.5H307.875C308.504 66.5131 309.099 66.7845 309.521 67.25H304.125V68H310.056C310.352 68.5803 310.505 69.2234 310.5 69.875C310.501 70.3878 310.407 70.8964 310.223 71.375H305.25Z" fill="#49BAF2"/>
<path d="M116.03 69.875L115.28 69.125H110.625V69.875H114.97L115.72 70.625H117.75V69.875H116.03Z" fill="#49BAF2"/>
<path d="M108.22 71.75H105V72.5H108.53L109.28 71.75H111.375V71H108.97L108.22 71.75Z" fill="#49BAF2"/>
<path d="M108.375 67.25H109.875V68H108.375V67.25Z" fill="#49BAF2"/>
<path d="M100.125 67.25C99.075 67.25 98.25 68.4031 98.25 69.875C98.25 71.3469 99.075 72.5 100.125 72.5C101.175 72.5 102 71.3469 102 69.875C102 68.4031 101.175 67.25 100.125 67.25ZM100.125 71.75C99.5152 71.75 99 70.8913 99 69.875C99 68.8587 99.5152 68 100.125 68C100.735 68 101.25 68.8587 101.25 69.875C101.25 70.8913 100.735 71.75 100.125 71.75Z" fill="#49BAF2"/>
<path d="M115.875 65.75H100.125C98.2641 65.75 96.75 67.6006 96.75 69.875C96.75 72.1494 98.2641 74 100.125 74H115.875C117.736 74 119.25 72.1494 119.25 69.875C119.25 67.6006 117.736 65.75 115.875 65.75ZM100.125 73.25C98.6775 73.25 97.5 71.7359 97.5 69.875C97.5 68.0141 98.6775 66.5 100.125 66.5C101.572 66.5 102.75 68.0141 102.75 69.875C102.75 71.7359 101.572 73.25 100.125 73.25ZM113.25 71.375V72.125H117.825C117.4 72.7991 116.671 73.22 115.875 73.25H102.059C102.91 72.4761 103.422 71.3984 103.484 70.25H106.655L107.405 69.5H108.75V68.75H107.095L106.345 69.5H103.485C103.447 68.9839 103.327 68.4777 103.127 68H106.875V67.25H102.727C102.539 66.9716 102.314 66.7194 102.06 66.5H115.875C116.504 66.5131 117.099 66.7845 117.521 67.25H112.125V68H118.056C118.352 68.5803 118.505 69.2234 118.5 69.875C118.501 70.3878 118.407 70.8964 118.223 71.375H113.25Z" fill="#49BAF2"/>
<path d="M140.03 69.875L139.28 69.125H134.625V69.875H138.97L139.72 70.625H141.75V69.875H140.03Z" fill="#49BAF2"/>
<path d="M132.22 71.75H129V72.5H132.53L133.28 71.75H135.375V71H132.97L132.22 71.75Z" fill="#49BAF2"/>
<path d="M132.375 67.25H133.875V68H132.375V67.25Z" fill="#49BAF2"/>
<path d="M124.125 67.25C123.075 67.25 122.25 68.4031 122.25 69.875C122.25 71.3469 123.075 72.5 124.125 72.5C125.175 72.5 126 71.3469 126 69.875C126 68.4031 125.175 67.25 124.125 67.25ZM124.125 71.75C123.515 71.75 123 70.8913 123 69.875C123 68.8587 123.515 68 124.125 68C124.735 68 125.25 68.8587 125.25 69.875C125.25 70.8913 124.735 71.75 124.125 71.75Z" fill="#49BAF2"/>
<path d="M139.875 65.75H124.125C122.264 65.75 120.75 67.6006 120.75 69.875C120.75 72.1494 122.264 74 124.125 74H139.875C141.736 74 143.25 72.1494 143.25 69.875C143.25 67.6006 141.736 65.75 139.875 65.75ZM124.125 73.25C122.678 73.25 121.5 71.7359 121.5 69.875C121.5 68.0141 122.678 66.5 124.125 66.5C125.572 66.5 126.75 68.0141 126.75 69.875C126.75 71.7359 125.572 73.25 124.125 73.25ZM137.25 71.375V72.125H141.825C141.4 72.7991 140.671 73.22 139.875 73.25H126.059C126.91 72.4761 127.422 71.3984 127.484 70.25H130.655L131.405 69.5H132.75V68.75H131.095L130.345 69.5H127.485C127.447 68.9839 127.327 68.4777 127.127 68H130.875V67.25H126.727C126.539 66.9716 126.314 66.7194 126.06 66.5H139.875C140.504 66.5131 141.099 66.7845 141.521 67.25H136.125V68H142.056C142.352 68.5803 142.505 69.2234 142.5 69.875C142.501 70.3878 142.407 70.8964 142.223 71.375H137.25Z" fill="#49BAF2"/>
<path d="M164.03 69.875L163.28 69.125H158.625V69.875H162.97L163.72 70.625H165.75V69.875H164.03Z" fill="#49BAF2"/>
<path d="M156.22 71.75H153V72.5H156.53L157.28 71.75H159.375V71H156.97L156.22 71.75Z" fill="#49BAF2"/>
<path d="M156.375 67.25H157.875V68H156.375V67.25Z" fill="#49BAF2"/>
<path d="M148.125 67.25C147.075 67.25 146.25 68.4031 146.25 69.875C146.25 71.3469 147.075 72.5 148.125 72.5C149.175 72.5 150 71.3469 150 69.875C150 68.4031 149.175 67.25 148.125 67.25ZM148.125 71.75C147.515 71.75 147 70.8913 147 69.875C147 68.8587 147.515 68 148.125 68C148.735 68 149.25 68.8587 149.25 69.875C149.25 70.8913 148.735 71.75 148.125 71.75Z" fill="#49BAF2"/>
<path d="M163.875 65.75H148.125C146.264 65.75 144.75 67.6006 144.75 69.875C144.75 72.1494 146.264 74 148.125 74H163.875C165.736 74 167.25 72.1494 167.25 69.875C167.25 67.6006 165.736 65.75 163.875 65.75ZM148.125 73.25C146.678 73.25 145.5 71.7359 145.5 69.875C145.5 68.0141 146.678 66.5 148.125 66.5C149.572 66.5 150.75 68.0141 150.75 69.875C150.75 71.7359 149.572 73.25 148.125 73.25ZM161.25 71.375V72.125H165.825C165.4 72.7991 164.671 73.22 163.875 73.25H150.059C150.91 72.4761 151.422 71.3984 151.484 70.25H154.655L155.405 69.5H156.75V68.75H155.095L154.345 69.5H151.485C151.447 68.9839 151.327 68.4777 151.127 68H154.875V67.25H150.727C150.539 66.9716 150.314 66.7194 150.06 66.5H163.875C164.504 66.5131 165.099 66.7845 165.521 67.25H160.125V68H166.056C166.352 68.5803 166.505 69.2234 166.5 69.875C166.501 70.3878 166.407 70.8964 166.223 71.375H161.25Z" fill="#49BAF2"/>
<path d="M30.2977 38.9978C29.8028 38.9978 29.3979 39.4027 29.3979 39.8976C29.3979 40.3925 29.8028 40.7974 30.2977 40.7974C30.7925 40.7974 31.1974 40.3925 31.1974 39.8976C31.1974 39.4027 30.797 38.9978 30.2977 38.9978ZM30.2977 40.199C30.1312 40.199 29.9962 40.064 29.9962 39.8976C29.9962 39.7311 30.1312 39.5962 30.2977 39.5962C30.4641 39.5962 30.5991 39.7311 30.5991 39.8976C30.5991 40.064 30.4641 40.199 30.2977 40.199Z" fill="#A9A9A9"/>
<path d="M35.098 38.9978C34.6031 38.9978 34.1982 39.4027 34.1982 39.8976C34.1982 40.3925 34.6031 40.7974 35.098 40.7974C35.5929 40.7974 35.9978 40.3925 35.9978 39.8976C35.9978 39.4027 35.5929 38.9978 35.098 38.9978ZM35.098 40.199C34.9315 40.199 34.7966 40.064 34.7966 39.8976C34.7966 39.7311 34.9315 39.5962 35.098 39.5962C35.2644 39.5962 35.3994 39.7311 35.3994 39.8976C35.3994 40.064 35.2644 40.199 35.098 40.199Z" fill="#A9A9A9"/>
<path d="M41.6978 38.9978C41.203 38.9978 40.7981 39.4027 40.7981 39.8976C40.7981 40.3925 41.203 40.7974 41.6978 40.7974C42.1972 40.7974 42.5976 40.3925 42.5976 39.8976C42.5976 39.4027 42.1927 38.9978 41.6978 38.9978ZM41.6978 40.199C41.5314 40.199 41.3964 40.064 41.3964 39.8976C41.3964 39.7311 41.5314 39.5962 41.6978 39.5962C41.8643 39.5962 41.9993 39.7311 41.9993 39.8976C41.9993 40.064 41.8643 40.199 41.6978 40.199Z" fill="#A9A9A9"/>
<path d="M44.964 33.7656L43.7628 31.3677C43.7133 31.2642 43.6053 31.2012 43.4929 31.2012H38.3957V30.3014C38.3957 30.135 38.2607 30 38.0942 30H27.2969C27.135 30 27 30.135 27 30.3014V39.8975C27 40.064 27.135 40.1989 27.3014 40.1989H28.2237C28.3902 41.3462 29.4519 42.1425 30.5991 41.976C31.5214 41.8455 32.2457 41.1212 32.3762 40.1989H33.024C33.1905 41.3462 34.2522 42.1425 35.3994 41.976C36.3217 41.8455 37.046 41.1212 37.1765 40.1989H39.6238C39.7903 41.3462 40.852 42.1425 41.9992 41.976C42.9215 41.8455 43.6458 41.1212 43.7763 40.1989H44.6986C44.865 40.1989 45 40.064 45 39.8975V33.9005C44.9955 33.851 44.9865 33.806 44.964 33.7656ZM30.2977 41.3957C29.4699 41.3957 28.7996 40.7253 28.7996 39.8975C28.7996 39.0697 29.4699 38.3994 30.2977 38.3994C31.1255 38.3994 31.7958 39.0697 31.7958 39.8975C31.7958 40.7253 31.1255 41.3957 30.2977 41.3957ZM35.098 41.3957C34.2702 41.3957 33.5998 40.7253 33.5998 39.8975C33.5998 39.0697 34.2702 38.3994 35.098 38.3994C35.9258 38.3994 36.5961 39.0697 36.5961 39.8975C36.5961 40.7253 35.9258 41.3957 35.098 41.3957ZM37.7973 39.5961H37.172C37.0055 38.4489 35.9438 37.6526 34.7966 37.819C33.8743 37.9495 33.15 38.6738 33.0195 39.5961H32.3717C32.2052 38.4489 31.1435 37.6526 29.9963 37.819C29.074 37.9495 28.3497 38.6738 28.2192 39.5961H27.5939V37.1982H37.7973V39.5961ZM37.7973 36.5998H27.5984V30.5984H37.7973V36.5998ZM41.6978 41.3957C40.87 41.3957 40.1997 40.7253 40.1997 39.8975C40.1997 39.0697 40.87 38.3994 41.6978 38.3994C42.5256 38.3994 43.196 39.0697 43.196 39.8975C43.196 40.7253 42.5256 41.3957 41.6978 41.3957ZM44.3971 37.1982H43.7988V36.5998H44.3971V37.1982ZM44.3971 35.997H43.4974C43.3309 35.997 43.196 36.132 43.196 36.2984V37.4996C43.196 37.6661 43.3309 37.801 43.4974 37.801H44.3971V39.6006H43.7718C43.6053 38.4534 42.5436 37.6571 41.3964 37.8235C40.4741 37.954 39.7498 38.6783 39.6193 39.6006H38.3957V31.7996H43.3084L44.3927 33.968V35.997H44.3971Z" fill="#A9A9A9"/>
<path d="M43.4659 33.7655L42.8675 32.5643C42.818 32.4608 42.7101 32.3978 42.5976 32.3978H39.2999C39.1335 32.3978 38.9985 32.5328 38.9985 32.6993V35.0972C38.9985 35.2636 39.1335 35.3986 39.2999 35.3986H43.196C43.3624 35.3986 43.4974 35.2636 43.4974 35.0972V33.896C43.4974 33.851 43.4839 33.806 43.4659 33.7655ZM42.8945 34.8002H39.5969V33.0007H42.4087L42.8945 33.9724V34.8002Z" fill="#A9A9A9"/>
<path d="M40.4966 35.9969H39.2954C39.129 35.9969 38.994 36.1319 38.994 36.2984C38.994 36.4648 39.129 36.5998 39.2954 36.5998H40.4966C40.6631 36.5998 40.798 36.4648 40.798 36.2984C40.798 36.1319 40.6631 35.9969 40.4966 35.9969Z" fill="#A9A9A9"/>
<path d="M31.4989 32.3978H28.4981C28.3317 32.3978 28.1967 32.5328 28.1967 32.6993C28.1967 32.8657 28.3317 33.0007 28.4981 33.0007H31.4989C31.6653 33.0007 31.8003 32.8657 31.8003 32.6993C31.8003 32.5328 31.6653 32.3978 31.4989 32.3978Z" fill="#A9A9A9"/>
<path d="M32.7001 33.5991H29.6993C29.5329 33.5991 29.3979 33.7341 29.3979 33.9005C29.3979 34.067 29.5329 34.202 29.6993 34.202H32.7001C32.8665 34.202 33.0015 34.067 33.0015 33.9005C33.0015 33.7341 32.862 33.5991 32.7001 33.5991Z" fill="#A9A9A9"/>
<path d="M36.8975 31.2013C36.7311 31.2013 36.5961 31.3363 36.5961 31.5027V32.1011C36.5961 32.2675 36.7311 32.4025 36.8975 32.4025C37.064 32.4025 37.1989 32.2675 37.1989 32.1011V31.4982C37.1989 31.3363 37.064 31.2013 36.8975 31.2013Z" fill="#A9A9A9"/>
<path d="M36.8975 33.0007C36.7311 33.0007 36.5961 33.1357 36.5961 33.3022V35.7001C36.5961 35.8665 36.7311 36.0015 36.8975 36.0015C37.064 36.0015 37.1989 35.8665 37.1989 35.7001V33.3022C37.1989 33.1357 37.064 33.0007 36.8975 33.0007Z" fill="#A9A9A9"/>
<path d="M108 29L102 32.5V39.5L108 43L114 39.5V32.5L108 29ZM112.777 32.7365L108 35.5234L103.223 32.7365L108 29.9499L112.777 32.7365ZM102.814 33.4483L107.593 36.2357V41.8125L102.814 39.025V33.4483ZM108.407 41.8125V36.2357L113.186 33.4483V39.025L108.407 41.8125Z" fill="#E1E1E1"/>
</svg>
