<svg width="536" height="100" viewBox="0 0 536 100" fill="none" xmlns="http://www.w3.org/2000/svg">
<g clip-path="url(#clip0)">
<rect width="536" height="100" fill="white"/>
<path d="M184.597 59H185.347C189.318 59 190.273 56.0511 190.503 50.4432L190.776 43.7784H196.733V59H199.332V41.5455H188.295L187.997 49.7443C187.81 54.7983 187.196 56.6477 185.108 56.6989L184.597 56.7159V59ZM204.128 59H215.173V56.733H206.761V51.3892H214.5V49.1307H206.761V43.8125H215.071V41.5455H204.128V59ZM234.046 47.2216C233.449 43.4886 230.526 41.3068 226.835 41.3068C222.318 41.3068 218.986 44.6903 218.986 50.2727C218.986 55.8551 222.301 59.2386 226.835 59.2386C230.671 59.2386 233.475 56.8352 234.046 53.3835L231.387 53.375C230.935 55.608 229.06 56.8352 226.853 56.8352C223.861 56.8352 221.603 54.5426 221.603 50.2727C221.603 46.0369 223.853 43.7102 226.861 43.7102C229.085 43.7102 230.952 44.9631 231.387 47.2216H234.046ZM253.319 50.2727C253.319 44.6903 249.978 41.3068 245.461 41.3068C240.927 41.3068 237.594 44.6903 237.594 50.2727C237.594 55.8466 240.927 59.2386 245.461 59.2386C249.978 59.2386 253.319 55.8551 253.319 50.2727ZM250.711 50.2727C250.711 54.5256 248.461 56.8352 245.461 56.8352C242.452 56.8352 240.211 54.5256 240.211 50.2727C240.211 46.0199 242.452 43.7102 245.461 43.7102C248.461 43.7102 250.711 46.0199 250.711 50.2727ZM263.4 59.2386C266.963 59.2386 269.579 57.108 269.571 54.2102C269.579 52.0028 268.241 50.4176 265.923 50.0597V49.9233C267.747 49.4545 268.932 48.0227 268.923 46.0625C268.932 43.4972 266.827 41.3068 263.469 41.3068C260.264 41.3068 257.69 43.2415 257.605 46.0795H260.153C260.213 44.4773 261.721 43.5057 263.434 43.5057C265.216 43.5057 266.383 44.5881 266.375 46.1989C266.383 47.8864 265.028 48.9943 263.094 48.9943H261.619V51.142H263.094C265.514 51.142 266.912 52.3693 266.912 54.125C266.912 55.821 265.437 56.9716 263.383 56.9716C261.491 56.9716 260.017 56 259.915 54.4489H257.238C257.349 57.2955 259.872 59.2386 263.4 59.2386ZM275.465 59L277.068 54.3807H283.886L285.48 59H288.275L281.994 41.5455H278.951L272.67 59H275.465ZM277.835 52.1648L280.409 44.7159H280.545L283.119 52.1648H277.835ZM302.639 41.5455H291.756V59H294.389V43.8125H302.639V41.5455ZM321.003 50.2727C321.003 44.6903 317.662 41.3068 313.145 41.3068C308.611 41.3068 305.278 44.6903 305.278 50.2727C305.278 55.8466 308.611 59.2386 313.145 59.2386C317.662 59.2386 321.003 55.8551 321.003 50.2727ZM318.395 50.2727C318.395 54.5256 316.145 56.8352 313.145 56.8352C310.136 56.8352 307.895 54.5256 307.895 50.2727C307.895 46.0199 310.136 43.7102 313.145 43.7102C316.145 43.7102 318.395 46.0199 318.395 50.2727ZM323.659 43.8125H329.096V59H331.721V43.8125H337.167V41.5455H323.659V43.8125ZM355.548 50.2727C355.548 44.6903 352.207 41.3068 347.69 41.3068C343.156 41.3068 339.823 44.6903 339.823 50.2727C339.823 55.8466 343.156 59.2386 347.69 59.2386C352.207 59.2386 355.548 55.8551 355.548 50.2727ZM352.94 50.2727C352.94 54.5256 350.69 56.8352 347.69 56.8352C344.681 56.8352 342.44 54.5256 342.44 50.2727C342.44 46.0199 344.681 43.7102 347.69 43.7102C350.69 43.7102 352.94 46.0199 352.94 50.2727ZM359.791 59H366.481C370.538 59 372.371 56.9801 372.371 54.304C372.371 51.6023 370.479 50.0767 368.748 49.983V49.8125C370.351 49.4034 371.689 48.3125 371.689 46.1307C371.689 43.5483 369.899 41.5455 366.183 41.5455H359.791V59ZM362.425 56.7415V51.1506H366.319C368.433 51.1506 369.754 52.5142 369.754 54.1761C369.754 55.642 368.757 56.7415 366.226 56.7415H362.425ZM362.425 49.0966V43.7869H366.021C368.109 43.7869 369.106 44.8864 369.106 46.3352C369.106 48.0227 367.726 49.0966 365.953 49.0966H362.425ZM386.792 59H390.005L382.804 49.4375L390.048 41.5455H386.784L379.991 48.9176H379.088V41.5455H376.454V59H379.088V51.1761H380.895L386.792 59ZM393.633 41.5455V59H396.053L404.926 46.1989H405.087V59H407.721V41.5455H405.283L396.403 54.3636H396.241V41.5455H393.633Z" fill="#49BAF2"/>
<rect x="164" y="30" width="4" height="40" fill="#49BAF2"/>
<g filter="url(#filter0_d)">
<path d="M44.2 71.5833V28.4166L82 6.81665L119.8 28.4166V71.5833L82 93.1833L44.2 71.5833Z" fill="white"/>
<path d="M82 18.6957L63.8938 36.6894L69.1984 41.9611L82 29.239L94.8016 41.9611L100.106 36.6894L82 18.6957Z" fill="#8EB021"/>
<path d="M82 36.5851L63.8938 54.5788L69.1984 59.8505L82 47.1284L94.8016 59.8505L100.106 54.5788L82 36.5851Z" fill="#8EB021"/>
<path d="M82 2L40 26V74L82 98L124 74V26L82 2ZM119.8 71.5833L85.7506 91.0421V68.7409L94.8016 77.7357L100.106 72.464L82 54.4703L63.8938 72.464L69.1984 77.7357L78.2494 68.7409V91.0421L44.2 71.5833V28.4167L82 6.8167L119.8 28.4167V71.5833Z" fill="#8EB021"/>
</g>
</g>
<defs>
<filter id="filter0_d" x="32" y="-2" width="100" height="112" filterUnits="userSpaceOnUse" color-interpolation-filters="sRGB">
<feFlood flood-opacity="0" result="BackgroundImageFix"/>
<feColorMatrix in="SourceAlpha" type="matrix" values="0 0 0 0 0 0 0 0 0 0 0 0 0 0 0 0 0 0 127 0"/>
<feOffset dy="4"/>
<feGaussianBlur stdDeviation="4"/>
<feColorMatrix type="matrix" values="0 0 0 0 0.556863 0 0 0 0 0.690196 0 0 0 0 0.129412 0 0 0 0.15 0"/>
<feBlend mode="normal" in2="BackgroundImageFix" result="effect1_dropShadow"/>
<feBlend mode="normal" in="SourceGraphic" in2="effect1_dropShadow" result="shape"/>
</filter>
<clipPath id="clip0">
<rect width="536" height="100" fill="white"/>
</clipPath>
</defs>
</svg>
